<svg width="230" height="243" viewBox="0 0 230 243" fill="none" xmlns="http://www.w3.org/2000/svg">
<g id="Group 88903">
<rect id="Rectangle 161125532" width="230" height="237" fill="#14181A"/>
<g id="Ellipse 2585" filter="url(#filter0_f_641_5075)">
<ellipse cx="115" cy="221.5" rx="85" ry="11.5" fill="url(#paint0_radial_641_5075)"/>
</g>
<g id="Group" filter="url(#filter1_d_641_5075)">
<path id="Vector" d="M90.1492 145.41V209.464H81.6522C73.3513 209.464 66.6191 216.196 66.6191 224.497H90.1492H107.143V145.41H90.1492Z" fill="#FFB3B3"/>
<path id="Vector_2" d="M148.975 209.464H140.478V145.41H123.484V224.497H164.008C164.008 216.196 157.276 209.464 148.975 209.464Z" fill="#FFB3B3"/>
<path id="Vector_3" d="M103.685 17.2305C109.685 10.2565 120.483 10.2565 126.483 17.2305L147.131 41.2377C148.653 43.009 150.569 44.4012 152.732 45.3032L181.948 57.5192C190.439 61.0683 193.772 71.3431 188.994 79.1995L172.543 106.253C171.327 108.253 170.595 110.501 170.406 112.834L167.817 144.397C167.066 153.568 158.327 159.914 149.372 157.796L118.555 150.509C116.28 149.973 113.907 149.973 111.633 150.509L80.8151 157.796C71.8606 159.914 63.1283 153.568 62.3701 144.397L59.7818 112.834C59.5923 110.501 58.8602 108.253 57.6445 106.253L41.1931 79.1995C36.4152 71.3366 39.7486 61.0683 48.239 57.5192L77.4555 45.3032C79.6124 44.4012 81.5275 43.009 83.0569 41.2377L103.705 17.2305H103.685Z" fill="url(#paint1_radial_641_5075)"/>
<ellipse id="Ellipse 2588" opacity="0.3" cx="91.1105" cy="88.6322" rx="12.8742" ry="4.29139" fill="#3C3E41"/>
<ellipse id="Ellipse 2589" opacity="0.3" cx="140.153" cy="88.6322" rx="12.8742" ry="4.29139" fill="#3C3E41"/>
<g id="Group_2">
<path id="Vector_4" d="M98.4311 83.3775C101.481 81.4459 103.903 79.801 103.841 79.7034C103.779 79.6058 101.257 81.0925 98.2072 83.0241C95.1577 84.9556 92.7357 86.6006 92.7975 86.6982C92.8593 86.7958 95.3815 85.309 98.4311 83.3775Z" stroke="#181A1B" stroke-width="3.26806" stroke-miterlimit="10"/>
<path id="Vector_5" d="M131.539 83.3737C134.549 85.3654 137.042 86.9019 137.105 86.8056C137.169 86.7093 134.78 85.0165 131.77 83.0248C128.759 81.0331 126.267 79.4966 126.203 79.5929C126.139 79.6892 128.528 81.382 131.539 83.3737Z" stroke="#181A1B" stroke-width="3.26806" stroke-miterlimit="10"/>
<path id="Vector_6" d="M107.662 95.376C107.86 95.0168 110.592 90.2662 115.339 90.4784C119.695 90.6743 122.107 94.8862 122.375 95.376" stroke="#181A1B" stroke-width="1.96084" stroke-miterlimit="10"/>
</g>
</g>
<g id="Group 88892">
<g id="Z Z Z">
<path id="Vector_7" d="M198.048 15.6594L197.006 33.7863L205.996 27.9922L207.68 30.6047L194.97 38.7953L193.257 36.1357L194.276 18.024L185.309 23.8029L183.625 21.1904L196.334 12.9999L198.048 15.6594Z" fill="#FFE6E6"/>
<path id="Vector_8" d="M178.236 28.4275L177.193 46.5544L186.184 40.7603L187.867 43.3728L175.158 51.5634L173.444 48.9038L174.463 30.7921L165.496 36.571L163.812 33.9585L176.522 25.7679L178.236 28.4275Z" fill="#FFE6E6"/>
<path id="Vector_9" d="M158.423 41.1955L157.381 59.3224L166.371 53.5284L168.055 56.1409L155.345 64.3314L153.632 61.6719L154.651 43.5601L145.684 49.3391L144 46.7266L156.709 38.536L158.423 41.1955Z" fill="#FFE6E6"/>
</g>
<path id="Line 244 (Stroke)" fill-rule="evenodd" clip-rule="evenodd" d="M163.645 47.5048L150.195 56.1721L148.57 53.6504L162.019 44.9831L163.645 47.5048Z" fill="#FFE6E6"/>
<path id="Line 245 (Stroke)" fill-rule="evenodd" clip-rule="evenodd" d="M183.645 35.5048L170.195 44.1721L168.57 41.6504L182.019 32.9831L183.645 35.5048Z" fill="#FFE6E6"/>
<path id="Line 246 (Stroke)" fill-rule="evenodd" clip-rule="evenodd" d="M203.645 22.5048L190.195 31.1721L188.57 28.6504L202.019 19.9831L203.645 22.5048Z" fill="#FFE6E6"/>
</g>
</g>
<defs>
<filter id="filter0_f_641_5075" x="20" y="200" width="190" height="43" filterUnits="userSpaceOnUse" color-interpolation-filters="sRGB">
<feFlood flood-opacity="0" result="BackgroundImageFix"/>
<feBlend mode="normal" in="SourceGraphic" in2="BackgroundImageFix" result="shape"/>
<feGaussianBlur stdDeviation="5" result="effect1_foregroundBlur_641_5075"/>
</filter>
<filter id="filter1_d_641_5075" x="31.6433" y="5.86944" width="166.901" height="227.21" filterUnits="userSpaceOnUse" color-interpolation-filters="sRGB">
<feFlood flood-opacity="0" result="BackgroundImageFix"/>
<feColorMatrix in="SourceAlpha" type="matrix" values="0 0 0 0 0 0 0 0 0 0 0 0 0 0 0 0 0 0 127 0" result="hardAlpha"/>
<feOffset dy="1.22611"/>
<feGaussianBlur stdDeviation="3.67834"/>
<feComposite in2="hardAlpha" operator="out"/>
<feColorMatrix type="matrix" values="0 0 0 0 0 0 0 0 0 0 0 0 0 0 0 0 0 0 0.25 0"/>
<feBlend mode="normal" in2="BackgroundImageFix" result="effect1_dropShadow_641_5075"/>
<feBlend mode="normal" in="SourceGraphic" in2="effect1_dropShadow_641_5075" result="shape"/>
</filter>
<radialGradient id="paint0_radial_641_5075" cx="0" cy="0" r="1" gradientUnits="userSpaceOnUse" gradientTransform="translate(115 221.5) scale(85 11.5)">
<stop stop-color="#CDCDCD"/>
<stop offset="1" stop-color="#14181A"/>
</radialGradient>
<radialGradient id="paint1_radial_641_5075" cx="0" cy="0" r="1" gradientUnits="userSpaceOnUse" gradientTransform="translate(115.084 85.1082) scale(74.6164 74.6164)">
<stop stop-color="#FD4C4C"/>
<stop offset="0.2" stop-color="#FD4C4C"/>
<stop offset="1" stop-color="#FF7F7F"/>
</radialGradient>
</defs>
</svg>
