<svg width="96" height="96" viewBox="0 0 96 96" fill="none" xmlns="http://www.w3.org/2000/svg">
<g id="character_1">
<g clip-path="url(#clip0_572_8239)">
<rect width="96" height="96" rx="8" fill="#FFEED1"/>
<path id="Star 6" opacity="0.3" d="M62.3844 25.1521C70.559 26.1795 75.9017 34.2424 73.6617 42.1709L63.4 78.4917C62.8307 80.5068 62.7392 82.6269 63.1329 84.6835L70.2287 121.753C71.7777 129.845 65.7604 137.418 57.5277 137.738L19.8135 139.202C17.7212 139.283 15.6766 139.851 13.8423 140.861L-19.2202 159.065C-26.4375 163.039 -35.4991 159.656 -38.3471 151.925L-51.3941 116.509C-52.1179 114.544 -53.2901 112.775 -54.8174 111.343L-82.347 85.5238C-88.3565 79.8877 -87.9397 70.2243 -81.4671 65.1266L-51.8164 41.7742C-50.1714 40.4786 -48.8513 38.8172 -47.9609 36.9219L-31.9126 2.76119C-28.4094 -4.69582 -19.0902 -7.28553 -12.2419 -2.70506L19.1302 18.2781C20.8707 19.4423 22.8588 20.1844 24.9364 20.4455L62.3844 25.1521Z" fill="#FFD080"/>
<path id="Star 7" opacity="0.4" d="M33.1168 36.8591C41.2914 37.8865 46.6342 45.9494 44.3941 53.878L34.1324 90.1988C33.5631 92.2138 33.4716 94.3339 33.8653 96.3905L40.9612 133.46C42.5101 141.552 36.4929 149.125 28.2602 149.445L-9.45403 150.909C-11.5464 150.99 -13.591 151.558 -15.4252 152.568L-48.4878 170.772C-55.705 174.746 -64.7667 171.363 -67.6147 163.632L-80.6617 128.216C-81.3855 126.251 -82.5577 124.482 -84.085 123.05L-111.615 97.2308C-117.624 91.5947 -117.207 81.9313 -110.735 76.8337L-81.084 53.4812C-79.439 52.1856 -78.1189 50.5242 -77.2285 48.629L-61.1802 14.4682C-57.677 7.01121 -48.3577 4.42151 -41.5095 9.00197L-10.1373 29.9852C-8.39684 31.1493 -6.4088 31.8914 -4.33121 32.1525L33.1168 36.8591Z" fill="#FFD080"/>
<path id="Star 8" opacity="0.5" d="M15.5562 48.5662C23.7308 49.5936 29.0736 57.6565 26.8336 65.585L16.5719 101.906C16.0025 103.921 15.9111 106.041 16.3048 108.098L23.4006 145.167C24.9496 153.259 18.9323 160.832 10.6996 161.152L-27.0146 162.616C-29.1069 162.697 -31.1515 163.265 -32.9858 164.275L-66.0483 182.479C-73.2656 186.453 -82.3272 183.07 -85.1753 175.339L-98.2222 139.923C-98.9461 137.958 -100.118 136.189 -101.646 134.757L-129.175 108.938C-135.185 103.302 -134.768 93.6384 -128.295 88.5407L-98.6445 65.1882C-96.9995 63.8926 -95.6794 62.2312 -94.7891 60.336L-78.7408 26.1753C-75.2376 18.7182 -65.9183 16.1285 -59.07 20.709L-27.6979 41.6922C-25.9574 42.8563 -23.9693 43.5985 -21.8918 43.8596L15.5562 48.5662Z" fill="#FFD080"/>
<path id="Star 9" opacity="0.3" d="M176.705 -76.267C184.133 -79.8302 192.991 -75.9452 195.402 -68.0668L206.444 -31.9757C207.057 -29.9734 208.128 -28.1416 209.573 -26.6258L235.613 0.694965C241.297 6.65887 240.339 16.2838 233.591 21.0108L202.679 42.6655C200.964 43.8669 199.553 45.4518 198.558 47.2941L180.621 80.5022C176.705 87.7512 167.256 89.8148 160.675 84.8579L130.527 62.1501C128.855 60.8903 126.912 60.038 124.852 59.6608L87.7263 52.8638C79.6221 51.38 74.7394 43.0305 77.4201 35.2399L89.7005 -0.449021C90.3818 -2.42903 90.5919 -4.54064 90.314 -6.61606L85.306 -44.0249C84.2128 -52.191 90.6449 -59.4149 98.8826 -59.2728L136.62 -58.622C138.713 -58.5858 140.786 -59.0386 142.674 -59.9442L176.705 -76.267Z" fill="#FFD080"/>
<g id="Group">
<path id="Vector" d="M52.4166 83.3545V112.976H48.4872C44.6485 112.976 41.5352 116.089 41.5352 119.928H52.4166H60.2754V83.3545H52.4166Z" fill="url(#paint0_linear_572_8239)"/>
<path id="Vector_2" d="M79.6203 112.976H75.6908V83.3545H67.832V119.928H86.5723C86.5723 116.089 83.459 112.976 79.6203 112.976Z" fill="url(#paint1_linear_572_8239)"/>
<path id="Vector_3" d="M58.6752 24.078C61.45 20.8529 66.4433 20.8529 69.2181 24.078L78.7665 35.1801C79.4708 35.9992 80.3564 36.6431 81.3569 37.0602L94.868 42.7095C98.7944 44.3508 100.336 49.1023 98.1264 52.7355L90.5185 65.2461C89.9563 66.1711 89.6178 67.2108 89.5301 68.2899L88.3331 82.8861C87.9855 87.1269 83.9443 90.0619 79.8033 89.0825L65.5517 85.7123C64.4998 85.4644 63.4026 85.4644 62.3507 85.7123L48.099 89.0825C43.958 90.0619 39.9198 87.1269 39.5692 82.8861L38.3722 68.2899C38.2846 67.2108 37.9461 66.1711 37.3838 65.2461L29.7759 52.7355C27.5664 49.0993 29.1079 44.3508 33.0343 42.7095L46.5454 37.0602C47.5429 36.6431 48.4285 35.9992 49.1358 35.1801L58.6843 24.078H58.6752Z" fill="url(#paint2_radial_572_8239)"/>
<g id="Group_2">
<path id="Vector_4" d="M56.1945 54.6817C57.8638 54.6817 59.2171 54.6384 59.2171 54.585C59.2171 54.5316 57.8638 54.4883 56.1945 54.4883C54.5251 54.4883 53.1719 54.5316 53.1719 54.585C53.1719 54.6384 54.5251 54.6817 56.1945 54.6817Z" stroke="#181A1B" stroke-width="1.51131" stroke-miterlimit="10"/>
<path id="Vector_5" d="M71.6086 54.6817C73.2779 54.6817 74.6312 54.6384 74.6312 54.585C74.6312 54.5316 73.2779 54.4883 71.6086 54.4883C69.9392 54.4883 68.5859 54.5316 68.5859 54.585C68.5859 54.6384 69.9392 54.6817 71.6086 54.6817Z" stroke="#181A1B" stroke-width="1.51131" stroke-miterlimit="10"/>
<path id="Vector_6" d="M60.2754 59.1738C60.3691 59.3068 61.6598 61.066 63.9025 60.9874C65.9609 60.9149 67.1005 59.3552 67.2274 59.1738" stroke="#181A1B" stroke-width="0.906786" stroke-miterlimit="10"/>
</g>
</g>
<g id="&#236;&#152;&#168;&#237;&#153;&#148;&#237;&#149;&#156; &#235;&#147;&#177;&#235;&#140;&#128;&#236;&#167;&#128;&#234;&#184;&#176;" filter="url(#filter0_b_572_8239)">
<path d="M18.2476 14.305V15.4113H9.68133V14.305H18.2476ZM14.6546 12.9774V14.8002H13.2427V12.9774H14.6546ZM17.2887 17.6451V18.762H10.7139V17.6451H17.2887ZM12.1047 16.0119V18.0244H10.7139V16.0119H12.1047ZM13.9592 9.67944C14.6476 9.67944 15.2517 9.76022 15.7715 9.92178C16.2913 10.0763 16.6952 10.3011 16.9832 10.5961C17.2712 10.8911 17.4152 11.2353 17.4152 11.6287C17.4152 12.0291 17.2712 12.3803 16.9832 12.6824C16.6952 12.9774 16.2913 13.2057 15.7715 13.3672C15.2587 13.5218 14.6581 13.599 13.9697 13.599C13.2813 13.599 12.6772 13.5218 12.1574 13.3672C11.6376 13.2057 11.2337 12.9774 10.9457 12.6824C10.6647 12.3803 10.5243 12.0291 10.5243 11.6287C10.5243 11.2353 10.6647 10.8911 10.9457 10.5961C11.2337 10.3011 11.6376 10.0763 12.1574 9.92178C12.6772 9.76022 13.2778 9.67944 13.9592 9.67944ZM13.9592 10.7963C13.5377 10.7963 13.176 10.8279 12.8739 10.8911C12.5789 10.9473 12.3541 11.0387 12.1996 11.1651C12.045 11.2915 11.9678 11.4496 11.9678 11.6392C11.9678 11.8219 12.045 11.9764 12.1996 12.1029C12.3611 12.2293 12.5894 12.3241 12.8845 12.3873C13.1795 12.4506 13.5412 12.4822 13.9697 12.4822C14.3912 12.4822 14.7494 12.4506 15.0445 12.3873C15.3395 12.3241 15.5643 12.2293 15.7188 12.1029C15.8804 11.9764 15.9611 11.8219 15.9611 11.6392C15.9611 11.4496 15.8839 11.2915 15.7293 11.1651C15.5748 11.0387 15.3465 10.9473 15.0445 10.8911C14.7494 10.8279 14.3877 10.7963 13.9592 10.7963ZM22.4625 15.0531V16.5809H21.0611V15.0531H22.4625ZM26.4453 9.44763V18.9306H25.0439V9.44763H26.4453ZM27.6148 13.2724V14.4314H25.9606V13.2724H27.6148ZM18.7852 16.2332C19.9512 16.2332 20.9944 16.2191 21.9146 16.191C22.8418 16.1559 23.7268 16.0822 24.5698 15.9698L24.6751 16.9708C23.7971 17.1393 22.912 17.2482 22.0199 17.2974C21.1278 17.3395 20.1093 17.3606 18.9643 17.3606L18.7852 16.2332ZM24.5382 10.4697V11.5655H18.9643V10.4697H24.5382ZM21.7565 11.9343C22.2061 11.9343 22.6065 12.008 22.9577 12.1555C23.3159 12.303 23.5934 12.5138 23.7901 12.7877C23.9867 13.0547 24.0851 13.3637 24.0851 13.715C24.0851 14.0591 23.9867 14.3682 23.7901 14.6422C23.5934 14.9161 23.3159 15.1269 22.9577 15.2744C22.6065 15.4219 22.2061 15.4956 21.7565 15.4956C21.3069 15.4956 20.903 15.4219 20.5448 15.2744C20.1936 15.1269 19.9196 14.9161 19.7229 14.6422C19.5333 14.3682 19.4385 14.0591 19.4385 13.715C19.4385 13.3637 19.5368 13.0547 19.7335 12.7877C19.9302 12.5138 20.2041 12.303 20.5553 12.1555C20.9066 12.008 21.3069 11.9343 21.7565 11.9343ZM21.7565 12.9879C21.4545 12.9879 21.2121 13.0511 21.0295 13.1776C20.8539 13.297 20.7661 13.4761 20.7661 13.715C20.7661 13.9468 20.8539 14.1294 21.0295 14.2629C21.2121 14.3893 21.4545 14.4525 21.7565 14.4525C22.0656 14.4525 22.3079 14.3893 22.4835 14.2629C22.6662 14.1294 22.7575 13.9468 22.7575 13.715C22.7575 13.4761 22.6662 13.297 22.4835 13.1776C22.3079 13.0511 22.0656 12.9879 21.7565 12.9879ZM22.4625 9.48978V11.3021H21.0611V9.48978H22.4625ZM35.5702 9.44763V16.5282H34.1583V9.44763H35.5702ZM36.8135 12.3136V13.4726H35.1804V12.3136H36.8135ZM33.6736 10.417V11.5128H28.0998V10.417H33.6736ZM30.892 11.8394C31.3415 11.8394 31.7419 11.9167 32.0931 12.0712C32.4514 12.2258 32.7288 12.4435 32.9255 12.7245C33.1292 12.9985 33.2311 13.3146 33.2311 13.6728C33.2311 14.031 33.1292 14.3507 32.9255 14.6316C32.7288 14.9126 32.4514 15.1304 32.0931 15.2849C31.7419 15.4324 31.3415 15.5062 30.892 15.5062C30.4424 15.5062 30.0385 15.4324 29.6803 15.2849C29.329 15.1304 29.0516 14.9126 28.8479 14.6316C28.6512 14.3507 28.5528 14.031 28.5528 13.6728C28.5528 13.3146 28.6512 12.9985 28.8479 12.7245C29.0516 12.4435 29.329 12.2258 29.6803 12.0712C30.0385 11.9167 30.4424 11.8394 30.892 11.8394ZM30.892 12.9036C30.5899 12.9036 30.3476 12.9704 30.1649 13.1038C29.9893 13.2373 29.9015 13.427 29.9015 13.6728C29.9015 13.9187 29.9893 14.1083 30.1649 14.2418C30.3476 14.3752 30.5899 14.442 30.892 14.442C31.187 14.442 31.4223 14.3752 31.5979 14.2418C31.7806 14.1083 31.8719 13.9187 31.8719 13.6728C31.8719 13.427 31.7806 13.2373 31.5979 13.1038C31.4223 12.9704 31.187 12.9036 30.892 12.9036ZM31.5874 9.42656V10.9438H30.186V9.42656H31.5874ZM35.9074 17.6451V18.762H29.4379V17.6451H35.9074ZM30.8393 15.9909V18.1298H29.4379V15.9909H30.8393ZM18.2686 28.7676V29.9056H9.69187V28.7676H18.2686ZM17.2993 27.0186V28.1249H10.7245V27.0186H17.2993ZM17.2466 24.69V25.8069H12.1153V27.5665H10.7245V24.69H17.2466ZM13.9381 30.443C14.9707 30.443 15.7785 30.5975 16.3615 30.9066C16.9446 31.2086 17.2361 31.6336 17.2361 32.1815C17.2361 32.7364 16.9446 33.1649 16.3615 33.467C15.7785 33.776 14.9707 33.9306 13.9381 33.9306C12.9126 33.9306 12.1083 33.776 11.5252 33.467C10.9422 33.1649 10.6507 32.7399 10.6507 32.192C10.6507 31.6371 10.9422 31.2086 11.5252 30.9066C12.1083 30.5975 12.9126 30.443 13.9381 30.443ZM13.9381 31.4966C13.3129 31.4966 12.8423 31.5528 12.5262 31.6652C12.2171 31.7776 12.0626 31.9532 12.0626 32.192C12.0626 32.4238 12.2171 32.5959 12.5262 32.7083C12.8423 32.8137 13.3165 32.8664 13.9486 32.8664C14.5808 32.8664 15.0515 32.8137 15.3606 32.7083C15.6696 32.5959 15.8242 32.4238 15.8242 32.192C15.8242 31.9532 15.6661 31.7776 15.35 31.6652C15.0409 31.5528 14.5703 31.4966 13.9381 31.4966ZM27.0353 24.4371V33.92H25.6972V24.4371H27.0353ZM26.0238 28.0722V29.2102H24.4644V28.0722H26.0238ZM24.8859 24.6057V33.467H23.5899V24.6057H24.8859ZM19.8178 30.6537C20.464 30.6537 21.0365 30.6361 21.5352 30.601C22.034 30.5659 22.5432 30.5027 23.063 30.4113L23.1789 31.5493C22.6381 31.6547 22.1112 31.7249 21.5985 31.76C21.0857 31.7881 20.4921 31.8022 19.8178 31.8022H19.154V30.6537H19.8178ZM22.6416 25.5329V26.6603H20.5343V31.2016H19.154V25.5329H22.6416ZM31.4609 25.9438V26.9764C31.4609 27.728 31.3626 28.448 31.1659 29.1364C30.9692 29.8248 30.6707 30.4324 30.2703 30.9592C29.8699 31.4861 29.3782 31.883 28.7952 32.1499L28.0049 31.0435C28.5177 30.8117 28.9497 30.4816 29.3009 30.0531C29.6522 29.6176 29.9121 29.1364 30.0807 28.6096C30.2563 28.0757 30.3441 27.5313 30.3441 26.9764V25.9438H31.4609ZM31.7665 25.9438V26.9764C31.7665 27.5032 31.8508 28.0195 32.0194 28.5253C32.195 29.024 32.4584 29.4771 32.8096 29.8845C33.1608 30.2849 33.5928 30.5905 34.1056 30.8012L33.3365 31.9075C32.7464 31.6547 32.2512 31.2789 31.8508 30.7801C31.4504 30.2814 31.1519 29.7054 30.9552 29.0521C30.7585 28.3989 30.6602 27.707 30.6602 26.9764V25.9438H31.7665ZM33.7158 25.3432V26.5023H28.3843V25.3432H33.7158ZM35.9601 24.4476V33.9306H34.5587V24.4476H35.9601ZM45.2114 24.4371V33.92H43.7995V24.4371H45.2114ZM42.3982 25.4065C42.3982 26.439 42.2647 27.3733 41.9978 28.2092C41.7309 29.0381 41.2778 29.8002 40.6386 30.4956C39.9993 31.191 39.1353 31.8022 38.0466 32.329L37.3195 31.2227C38.2187 30.7942 38.9351 30.313 39.469 29.7791C40.0099 29.2453 40.3997 28.6447 40.6386 27.9774C40.8774 27.3101 40.9968 26.5409 40.9968 25.6699V25.4065H42.3982ZM41.6606 25.4065V26.5233H37.8253V25.4065H41.6606Z" fill="#FD4C4C"/>
</g>
</g>
<rect x="0.292683" y="0.292683" width="95.4146" height="95.4146" rx="7.70732" stroke="white" stroke-width="0.585366"/>
</g>
<defs>
<filter id="filter0_b_572_8239" x="3.82798" y="3.5731" width="47.2366" height="36.2112" filterUnits="userSpaceOnUse" color-interpolation-filters="sRGB">
<feFlood flood-opacity="0" result="BackgroundImageFix"/>
<feGaussianBlur in="BackgroundImageFix" stdDeviation="2.92683"/>
<feComposite in2="SourceAlpha" operator="in" result="effect1_backgroundBlur_572_8239"/>
<feBlend mode="normal" in="SourceGraphic" in2="effect1_backgroundBlur_572_8239" result="shape"/>
</filter>
<linearGradient id="paint0_linear_572_8239" x1="50.9053" y1="83.3545" x2="50.9053" y2="119.928" gradientUnits="userSpaceOnUse">
<stop stop-color="#FF7777"/>
<stop offset="0.465" stop-color="#FFB3B3"/>
</linearGradient>
<linearGradient id="paint1_linear_572_8239" x1="77.2022" y1="83.3545" x2="77.2022" y2="119.928" gradientUnits="userSpaceOnUse">
<stop stop-color="#FF7777"/>
<stop offset="0.465" stop-color="#FFB3B3"/>
</linearGradient>
<radialGradient id="paint2_radial_572_8239" cx="0" cy="0" r="1" gradientUnits="userSpaceOnUse" gradientTransform="translate(63.9466 55.468) scale(34.5062)">
<stop stop-color="#FD4C4C"/>
<stop offset="0.2" stop-color="#FD4C4C"/>
<stop offset="1" stop-color="#FF7F7F"/>
</radialGradient>
<clipPath id="clip0_572_8239">
<rect width="96" height="96" rx="8" fill="white"/>
</clipPath>
</defs>
</svg>
