<svg width="28" height="28" viewBox="0 0 28 28" fill="none" xmlns="http://www.w3.org/2000/svg">
<g id="Union">
<mask id="path-1-inside-1_332_1028" fill="white">
<path fill-rule="evenodd" clip-rule="evenodd" d="M21.3123 6.68699C21.1557 5.04752 20.4496 3.45065 19.1941 2.19515C16.3252 -0.673763 11.6738 -0.673764 8.80485 2.19515C7.54928 3.45072 6.84321 5.04771 6.68663 6.68728C5.04714 6.84389 3.45024 7.54996 2.19472 8.80548C-0.674192 11.6744 -0.674192 16.3258 2.19472 19.1947C3.45025 20.4502 5.04717 21.1563 6.68667 21.3129C6.84332 22.9524 7.54938 24.5492 8.80485 25.8047C11.6738 28.6736 16.3252 28.6736 19.1941 25.8047C20.4496 24.5492 21.1557 22.9523 21.3123 21.3128C22.9521 21.1564 24.5494 20.4503 25.8052 19.1945C28.6741 16.3256 28.6741 11.6742 25.8052 8.80528C24.5494 7.54951 22.9521 6.84341 21.3123 6.68699Z"/>
</mask>
<path fill-rule="evenodd" clip-rule="evenodd" d="M21.3123 6.68699C21.1557 5.04752 20.4496 3.45065 19.1941 2.19515C16.3252 -0.673763 11.6738 -0.673764 8.80485 2.19515C7.54928 3.45072 6.84321 5.04771 6.68663 6.68728C5.04714 6.84389 3.45024 7.54996 2.19472 8.80548C-0.674192 11.6744 -0.674192 16.3258 2.19472 19.1947C3.45025 20.4502 5.04717 21.1563 6.68667 21.3129C6.84332 22.9524 7.54938 24.5492 8.80485 25.8047C11.6738 28.6736 16.3252 28.6736 19.1941 25.8047C20.4496 24.5492 21.1557 22.9523 21.3123 21.3128C22.9521 21.1564 24.5494 20.4503 25.8052 19.1945C28.6741 16.3256 28.6741 11.6742 25.8052 8.80528C24.5494 7.54951 22.9521 6.84341 21.3123 6.68699Z" fill="#DDE1E8"/>
<path d="M21.3123 6.68699L20.3168 6.78209L20.3953 7.60406L21.2173 7.68247L21.3123 6.68699ZM6.68663 6.68728L6.78173 7.68275L7.60362 7.60424L7.6821 6.78234L6.68663 6.68728ZM6.68667 21.3129L7.68214 21.2178L7.60361 20.396L6.78176 20.3175L6.68667 21.3129ZM21.3123 21.3128L21.2173 20.3173L20.3953 20.3957L20.3168 21.2177L21.3123 21.3128ZM18.487 2.90225C19.5722 3.98748 20.1815 5.36539 20.3168 6.78209L22.3078 6.59188C22.1298 4.72966 21.327 2.91382 19.9012 1.48804L18.487 2.90225ZM9.51196 2.90225C11.9903 0.423866 16.0086 0.423868 18.487 2.90225L19.9012 1.48804C16.6418 -1.77139 11.3572 -1.77139 8.09775 1.48804L9.51196 2.90225ZM7.6821 6.78234C7.8174 5.36555 8.42667 3.98754 9.51196 2.90225L8.09775 1.48804C6.67189 2.9139 5.86901 4.72988 5.69116 6.59221L7.6821 6.78234ZM6.59154 5.69181C4.72929 5.8697 2.91341 6.67257 1.48761 8.09837L2.90182 9.51259C3.98706 8.42734 5.365 7.81808 6.78173 7.68275L6.59154 5.69181ZM1.48761 8.09837C-1.77182 11.3578 -1.77182 16.6424 1.48761 19.9018L2.90182 18.4876C0.423439 16.0092 0.423439 11.991 2.90182 9.51259L1.48761 8.09837ZM1.48761 19.9018C2.91342 21.3276 4.72931 22.1305 6.59158 22.3084L6.78176 20.3175C5.36502 20.1821 3.98707 19.5729 2.90182 18.4876L1.48761 19.9018ZM5.69121 21.408C5.86914 23.2702 6.672 25.086 8.09775 26.5118L9.51196 25.0976C8.42676 24.0124 7.8175 22.6345 7.68214 21.2178L5.69121 21.408ZM8.09775 26.5118C11.3572 29.7712 16.6418 29.7712 19.9012 26.5118L18.487 25.0976C16.0086 27.5759 11.9903 27.5759 9.51196 25.0976L8.09775 26.5118ZM19.9012 26.5118C21.327 25.086 22.1298 23.2701 22.3078 21.4079L20.3168 21.2177C20.1815 22.6344 19.5722 24.0123 18.487 25.0976L19.9012 26.5118ZM21.4072 22.3083C23.2699 22.1306 25.0862 21.3277 26.5123 19.9016L25.0981 18.4874C24.0126 19.5729 22.6344 20.1822 21.2173 20.3173L21.4072 22.3083ZM26.5123 19.9016C29.7717 16.6422 29.7718 11.3576 26.5123 8.09818L25.0981 9.51239C27.5765 11.9908 27.5765 16.009 25.0981 18.4874L26.5123 19.9016ZM26.5123 8.09818C25.0862 6.67209 23.2699 5.86918 21.4072 5.69151L21.2173 7.68247C22.6344 7.81764 24.0126 8.42693 25.0981 9.51239L26.5123 8.09818Z" fill="#BFC2C8" mask="url(#path-1-inside-1_332_1028)"/>
</g>
</svg>
