<svg width="34" height="34" viewBox="0 0 34 34" fill="none" xmlns="http://www.w3.org/2000/svg">
<g id="&#235;&#170;&#169;&#237;&#145;&#156; popover">
<g id="Union">
<mask id="path-1-inside-1_572_8091" fill="white">
<path fill-rule="evenodd" clip-rule="evenodd" d="M24.3123 9.68699C24.1557 8.04752 23.4496 6.45065 22.1941 5.19515C19.3252 2.32624 14.6738 2.32624 11.8049 5.19515C10.5493 6.45072 9.84321 8.04771 9.68663 9.68728C8.04714 9.84389 6.45024 10.55 5.19472 11.8055C2.32581 14.6744 2.32581 19.3258 5.19472 22.1947C6.45025 23.4502 8.04717 24.1563 9.68667 24.3129C9.84332 25.9524 10.5494 27.5492 11.8049 28.8047C14.6738 31.6736 19.3252 31.6736 22.1941 28.8047C23.4496 27.5492 24.1557 25.9523 24.3123 24.3128C25.9521 24.1564 27.5494 23.4503 28.8052 22.1945C31.6741 19.3256 31.6741 14.6742 28.8052 11.8053C27.5494 10.5495 25.9521 9.84341 24.3123 9.68699Z"/>
</mask>
<path fill-rule="evenodd" clip-rule="evenodd" d="M24.3123 9.68699C24.1557 8.04752 23.4496 6.45065 22.1941 5.19515C19.3252 2.32624 14.6738 2.32624 11.8049 5.19515C10.5493 6.45072 9.84321 8.04771 9.68663 9.68728C8.04714 9.84389 6.45024 10.55 5.19472 11.8055C2.32581 14.6744 2.32581 19.3258 5.19472 22.1947C6.45025 23.4502 8.04717 24.1563 9.68667 24.3129C9.84332 25.9524 10.5494 27.5492 11.8049 28.8047C14.6738 31.6736 19.3252 31.6736 22.1941 28.8047C23.4496 27.5492 24.1557 25.9523 24.3123 24.3128C25.9521 24.1564 27.5494 23.4503 28.8052 22.1945C31.6741 19.3256 31.6741 14.6742 28.8052 11.8053C27.5494 10.5495 25.9521 9.84341 24.3123 9.68699Z" fill="url(#paint0_radial_572_8091)"/>
<path d="M24.3123 9.68699L23.3168 9.78209L23.3953 10.6041L24.2173 10.6825L24.3123 9.68699ZM9.68663 9.68728L9.78173 10.6827L10.6036 10.6042L10.6821 9.78234L9.68663 9.68728ZM9.68667 24.3129L10.6821 24.2178L10.6036 23.396L9.78176 23.3175L9.68667 24.3129ZM24.3123 24.3128L24.2173 23.3173L23.3953 23.3957L23.3168 24.2177L24.3123 24.3128ZM21.487 5.90225C22.5722 6.98748 23.1815 8.36539 23.3168 9.78209L25.3078 9.59188C25.1298 7.72966 24.327 5.91382 22.9012 4.48804L21.487 5.90225ZM12.512 5.90225C14.9903 3.42387 19.0086 3.42387 21.487 5.90225L22.9012 4.48804C19.6418 1.22861 14.3572 1.22861 11.0977 4.48804L12.512 5.90225ZM10.6821 9.78234C10.8174 8.36555 11.4267 6.98754 12.512 5.90225L11.0977 4.48804C9.67189 5.9139 8.86901 7.72988 8.69116 9.59221L10.6821 9.78234ZM9.59154 8.69181C7.72929 8.8697 5.91341 9.67257 4.48761 11.0984L5.90182 12.5126C6.98706 11.4273 8.365 10.8181 9.78173 10.6827L9.59154 8.69181ZM4.48761 11.0984C1.22818 14.3578 1.22818 19.6424 4.48761 22.9018L5.90182 21.4876C3.42344 19.0092 3.42344 14.991 5.90182 12.5126L4.48761 11.0984ZM4.48761 22.9018C5.91342 24.3276 7.72931 25.1305 9.59158 25.3084L9.78176 23.3175C8.36502 23.1821 6.98707 22.5729 5.90182 21.4876L4.48761 22.9018ZM8.69121 24.408C8.86914 26.2702 9.672 28.086 11.0977 29.5118L12.512 28.0976C11.4268 27.0124 10.8175 25.6345 10.6821 24.2178L8.69121 24.408ZM11.0977 29.5118C14.3572 32.7712 19.6418 32.7712 22.9012 29.5118L21.487 28.0976C19.0086 30.5759 14.9903 30.5759 12.512 28.0976L11.0977 29.5118ZM22.9012 29.5118C24.327 28.086 25.1298 26.2701 25.3078 24.4079L23.3168 24.2177C23.1815 25.6344 22.5722 27.0123 21.487 28.0976L22.9012 29.5118ZM24.4072 25.3083C26.2699 25.1306 28.0862 24.3277 29.5123 22.9016L28.0981 21.4874C27.0126 22.5729 25.6344 23.1822 24.2173 23.3173L24.4072 25.3083ZM29.5123 22.9016C32.7717 19.6422 32.7718 14.3576 29.5123 11.0982L28.0981 12.5124C30.5765 14.9908 30.5765 19.009 28.0981 21.4874L29.5123 22.9016ZM29.5123 11.0982C28.0862 9.67209 26.2699 8.86918 24.4072 8.69151L24.2173 10.6825C25.6344 10.8176 27.0126 11.4269 28.0981 12.5124L29.5123 11.0982Z" fill="#FE9A9A" mask="url(#path-1-inside-1_572_8091)"/>
</g>
<g id="check">
<g id="check_2">
<path id="Vector" d="M23.0078 13.9805L15.0078 21.9805L11.0078 17.9805" stroke="white" stroke-width="2" stroke-linecap="round" stroke-linejoin="round"/>
</g>
</g>
</g>
<defs>
<radialGradient id="paint0_radial_572_8091" cx="0" cy="0" r="1" gradientUnits="userSpaceOnUse" gradientTransform="translate(16.9999 16.9999) rotate(90.0002) scale(16.8295)">
<stop stop-color="#FF7F7F"/>
<stop offset="1" stop-color="#FFCCCC"/>
</radialGradient>
</defs>
</svg>
