<svg width="26" height="24" viewBox="0 0 26 24" fill="none" xmlns="http://www.w3.org/2000/svg">
<path d="M12.2134 23.0493C10.1334 23.0493 8.20886 22.5353 6.43971 21.5073C4.69446 20.4793 3.30783 19.0926 2.27981 17.3474C1.25179 15.5783 0.737784 13.6537 0.737784 11.5738C0.737784 9.49381 1.25179 7.56926 2.27981 5.80011C3.30783 4.03096 4.69446 2.64433 6.43971 1.64022C8.18495 0.6122 10.1095 0.0981908 12.2134 0.0981908C13.7673 0.0981908 15.2376 0.397034 16.6243 0.99472C18.0109 1.5685 19.2302 2.38135 20.2821 3.43328L24.693 7.66489L22.6848 9.74484L18.2739 5.51322C17.4132 4.67646 16.4928 4.04292 15.5126 3.61258C14.5324 3.18225 13.4326 2.96708 12.2134 2.96708C10.5876 2.96708 9.11734 3.33765 7.80243 4.07878C6.48752 4.81991 5.4595 5.84793 4.71837 7.16284C3.97724 8.47775 3.60668 9.94805 3.60668 11.5738C3.60668 13.1995 3.97724 14.6698 4.71837 15.9847C5.4595 17.2996 6.48752 18.3276 7.80243 19.0687C9.11734 19.8099 10.5876 20.1804 12.2134 20.1804C12.9784 20.1804 13.6837 20.0968 14.3292 19.9294C14.9986 19.7621 15.6202 19.523 16.1939 19.2122C16.7677 18.9014 17.3295 18.5189 17.8794 18.0646L18.3097 17.6343C18.7401 17.2279 19.2063 17.1203 19.7083 17.3115C20.2104 17.4789 20.5331 17.8256 20.6766 18.3515C20.8439 18.8536 20.7244 19.3078 20.318 19.7142C19.6007 20.4076 18.8238 21.0052 17.987 21.5073C17.1502 22.0094 16.2418 22.3919 15.2615 22.6549C14.3053 22.9178 13.2892 23.0493 12.2134 23.0493ZM17.9511 10.1393C17.3534 10.1393 16.9351 9.90024 16.696 9.42209C16.4808 8.94394 16.4808 8.46579 16.696 7.98764C16.9351 7.50949 17.3534 7.27042 17.9511 7.27042H22.2545V2.96708C22.2545 2.3694 22.4935 1.96297 22.9717 1.7478C23.4498 1.50873 23.928 1.50873 24.4061 1.7478C24.8843 1.96297 25.1234 2.3694 25.1234 2.96708V8.66901C25.1234 9.09934 24.9799 9.45795 24.693 9.74484C24.43 10.0078 24.0834 10.1393 23.6531 10.1393H17.9511Z" fill="white"/>
</svg>
