<svg width="46" height="46" viewBox="0 0 46 46" fill="none" xmlns="http://www.w3.org/2000/svg">
<g filter="url(#filter0_f_572_8036)">
<path fill-rule="evenodd" clip-rule="evenodd" d="M13.5638 13.5661C11.4513 13.7646 9.38548 14.6752 7.77484 16.2979C4.07505 19.9987 4.07505 25.9994 7.77484 29.7002C9.39715 31.3229 11.4513 32.2335 13.5638 32.432C13.7622 34.5451 14.6726 36.6115 16.2949 38.2225C19.9946 41.9233 25.9937 41.9233 29.6935 38.2225C31.3158 36.5998 32.2261 34.5451 32.4245 32.432C34.537 32.2335 36.6029 31.3229 38.2252 29.7002C41.9249 25.9994 41.9249 19.9987 38.2252 16.2979C36.6029 14.6752 34.5487 13.7646 32.4245 13.5661C32.2261 11.453 31.3158 9.38667 29.6935 7.7756C25.9937 4.0748 19.9946 4.0748 16.2949 7.7756C14.6726 9.39834 13.7622 11.453 13.5638 13.5661Z" fill="url(#paint0_diamond_572_8036)"/>
<path d="M13.6184 14.1473L14.0998 14.1021L14.145 13.6207C14.331 11.6389 15.1843 9.71208 16.7077 8.1883C20.1795 4.71553 25.8088 4.71553 29.2807 8.1883L29.2821 8.18978C30.8033 9.70038 31.6572 11.6376 31.8434 13.6207L31.8886 14.1023L32.3702 14.1473C34.3632 14.3335 36.2892 15.1871 37.8123 16.7106C41.2843 20.1835 41.2843 25.8146 37.8123 29.2875C36.2896 30.8106 34.352 31.6646 32.3699 31.8508L31.8886 31.8961L31.8434 32.3774C31.6573 34.3592 30.804 36.2861 29.2807 37.8098C25.8088 41.2826 20.1795 41.2826 16.7077 37.8098L16.7062 37.8083C15.1851 36.2978 14.3312 34.3605 14.145 32.3774L14.0998 31.8961L13.6184 31.8508C11.6373 31.6647 9.71101 30.8113 8.18765 29.2875C4.71575 25.8146 4.71575 20.1835 8.18765 16.7106L8.18914 16.7091C9.69932 15.1876 11.636 14.3335 13.6184 14.1473Z" stroke="#FF7F7F" stroke-opacity="0.2" stroke-width="1.16744"/>
</g>
<path fill-rule="evenodd" clip-rule="evenodd" d="M13.5638 13.5661C11.4513 13.7646 9.38548 14.6752 7.77484 16.2979C4.07505 19.9987 4.07505 25.9994 7.77484 29.7002C9.39715 31.3229 11.4513 32.2335 13.5638 32.432C13.7622 34.5451 14.6726 36.6115 16.2949 38.2225C19.9946 41.9233 25.9937 41.9233 29.6935 38.2225C31.3158 36.5998 32.2261 34.5451 32.4245 32.432C34.537 32.2335 36.6029 31.3229 38.2252 29.7002C41.9249 25.9994 41.9249 19.9987 38.2252 16.2979C36.6029 14.6752 34.5487 13.7646 32.4245 13.5661C32.2261 11.453 31.3158 9.38667 29.6935 7.7756C25.9937 4.0748 19.9946 4.0748 16.2949 7.7756C14.6726 9.39834 13.7622 11.453 13.5638 13.5661Z" fill="url(#paint1_diamond_572_8036)"/>
<path d="M13.5802 13.7405L13.7246 13.7269L13.7381 13.5825C13.9328 11.5088 14.8261 9.49246 16.4187 7.89941C20.0501 4.26702 25.9382 4.26702 29.5696 7.89941L29.5701 7.89985C31.162 9.48078 32.0554 11.5084 32.2502 13.5825L32.2638 13.727L32.4083 13.7405C34.4931 13.9353 36.5088 14.8288 38.1013 16.4217C41.7327 20.0542 41.7327 25.944 38.1013 29.5764C36.5089 31.1692 34.4815 32.0629 32.4082 32.2577L32.2638 32.2712L32.2502 32.4156C32.0555 34.4893 31.1622 36.5057 29.5696 38.0987C25.9382 41.7311 20.0501 41.7311 16.4187 38.0987L16.4183 38.0983C14.8263 36.5173 13.9329 34.4897 13.7381 32.4156L13.7246 32.2712L13.5802 32.2577C11.5071 32.0629 9.49131 31.1694 7.89868 29.5764C4.26726 25.944 4.26726 20.0542 7.89869 16.4217L7.89913 16.4213C9.47963 14.8289 11.5067 13.9353 13.5802 13.7405Z" stroke="#FF7F7F" stroke-opacity="0.2" stroke-width="0.350233"/>
<defs>
<filter id="filter0_f_572_8036" x="0.330224" y="0.330224" width="45.3396" height="45.3376" filterUnits="userSpaceOnUse" color-interpolation-filters="sRGB">
<feFlood flood-opacity="0" result="BackgroundImageFix"/>
<feBlend mode="normal" in="SourceGraphic" in2="BackgroundImageFix" result="shape"/>
<feGaussianBlur stdDeviation="2.33489" result="effect1_foregroundBlur_572_8036"/>
</filter>
<radialGradient id="paint0_diamond_572_8036" cx="0" cy="0" r="1" gradientUnits="userSpaceOnUse" gradientTransform="translate(22.3943 23.2209) rotate(90) scale(21.7705 21.7646)">
<stop offset="0.200176" stop-color="#FF7F7F"/>
<stop offset="0.57" stop-color="#FFA2A2"/>
<stop offset="1" stop-color="#FFCCCC"/>
</radialGradient>
<radialGradient id="paint1_diamond_572_8036" cx="0" cy="0" r="1" gradientUnits="userSpaceOnUse" gradientTransform="translate(22.3943 23.2209) rotate(90) scale(21.7705 21.7646)">
<stop offset="0.245" stop-color="#FF7F7F"/>
<stop offset="0.57" stop-color="#FFA2A2"/>
<stop offset="1" stop-color="#FFCCCC"/>
</radialGradient>
</defs>
</svg>
