<svg width="276" height="271" viewBox="0 0 276 271" fill="none" xmlns="http://www.w3.org/2000/svg">
<g clip-path="url(#clip0_665_4859)">
<rect width="276" height="271" fill="white"/>
<rect width="276" height="271" fill="#14181A"/>
<path d="M139.115 252.711C137.116 253.226 136.992 251.6 135.222 250.55C133.452 249.501 133.922 248.698 132.152 247.648C130.382 246.599 129.941 247.332 128.171 246.282C126.402 245.233 126.349 245.309 124.575 244.257C122.8 243.204 123.334 242.305 121.564 241.255C119.794 240.206 119.589 240.541 117.819 239.491C116.049 238.442 115.667 239.075 113.892 238.023C112.117 236.97 112.147 236.921 110.377 235.871C108.607 234.822 108.579 234.859 106.804 233.806C105.029 232.754 105.398 232.132 103.623 231.08C101.848 230.028 101.533 230.559 99.7579 229.507C97.9832 228.455 98.3723 227.798 96.5975 226.746C94.8228 225.694 94.7373 225.838 92.9626 224.785C91.1878 223.733 91.3971 223.38 89.6224 222.328C87.8476 221.275 87.8064 221.345 86.0316 220.292C84.2569 219.24 83.8147 219.986 82.0399 218.933C80.2652 217.881 80.7044 217.14 78.9297 216.088C77.1549 215.035 77.1609 215.025 75.3861 213.973C73.6114 212.921 73.576 212.98 71.8012 211.928C70.0265 210.875 70.0147 210.895 68.24 209.843C66.4652 208.79 66.5507 208.646 64.776 207.594C63.0012 206.542 62.4499 207.471 60.6752 206.419C58.9005 205.366 59.0626 205.093 57.2879 204.04C55.5131 202.988 55.3333 203.291 53.5585 202.239C51.7838 201.187 51.9489 200.908 50.1741 199.856C48.3994 198.803 48.4466 198.724 46.6718 197.671C44.8971 196.619 44.9944 196.455 43.2196 195.402C41.4449 194.35 41.5598 194.156 39.7801 193.101C38.0004 192.045 36.3515 193.285 35.8366 191.286C35.3218 189.288 37.4308 189.618 38.4832 187.843C39.5356 186.068 39.302 185.93 40.3573 184.15C41.4127 182.37 41.3252 182.325 42.3776 180.551C43.43 178.776 43.1417 178.605 44.1941 176.83C45.2465 175.055 46.032 175.521 47.0873 173.741C48.1427 171.962 48.095 171.94 49.1474 170.165C50.1998 168.391 49.295 167.854 50.3504 166.074C51.4058 164.295 51.8303 164.553 52.8828 162.778C53.9352 161.004 53.5275 160.762 54.5799 158.987C55.6323 157.213 55.6622 157.23 56.7175 155.45C57.7729 153.671 58.3217 154.003 59.3742 152.228C60.4266 150.453 60.2029 150.321 61.2582 148.541C62.3136 146.761 62.0173 146.592 63.0697 144.818C64.1221 143.043 64.0575 143.005 65.1099 141.23C66.1623 139.455 66.4904 139.65 67.5428 137.875C68.5952 136.1 68.9383 136.304 69.9936 134.524C71.049 132.744 70.3948 132.363 71.4472 130.588C72.4996 128.813 73.1608 129.206 74.2132 127.431C75.2656 125.656 75.2905 125.671 76.3458 123.891C77.4012 122.111 77.0105 121.886 78.0629 120.112C79.1153 118.337 79.3688 118.487 80.4242 116.708C81.4795 114.928 80.9447 114.617 81.9971 112.843C83.0495 111.068 83.3925 111.271 84.4479 109.492C85.5032 107.712 85.5997 107.776 86.655 105.996C87.7104 104.216 87.2451 103.947 88.3005 102.167C89.3558 100.388 89.7804 100.646 90.8358 98.8665C91.8911 97.0868 91.5203 96.8736 92.5757 95.0939C93.631 93.3142 93.7076 93.3663 94.763 91.5866C95.8183 89.8069 96.3274 90.1155 97.3828 88.3358C98.4381 86.5561 98.5694 86.6406 99.6248 84.8609C100.68 83.0812 100.409 82.927 101.464 81.1473C102.519 79.3676 102.845 79.5671 103.9 77.7874C104.955 76.0077 104.57 75.7856 105.622 74.0109C106.674 72.2362 106.635 72.2126 107.69 70.4329C108.745 68.6531 108.951 68.7819 110.007 67.0022C111.062 65.2225 110.686 65.0064 111.741 63.2266C112.797 61.4469 113.251 61.7231 114.307 59.9434C115.362 58.1637 115.031 57.9741 116.086 56.1944C117.142 54.4147 117.256 54.4825 118.308 52.7077C119.361 50.933 118.961 50.6892 120.016 48.9095C121.072 47.1298 120.447 46.0199 122.445 45.505C124.444 44.9902 124.303 46.5193 126.078 47.5718C127.852 48.6242 127.678 48.9175 129.448 49.9669C131.218 51.0164 131.485 50.5769 133.255 51.6264C135.025 52.6758 134.599 53.4046 136.374 54.457C138.149 55.5094 138.488 54.9377 140.258 55.9872C142.028 57.0366 141.693 57.6113 143.463 58.6607C145.233 59.7102 145.276 59.6485 147.051 60.7009C148.826 61.7533 149.174 61.1667 150.943 62.2162C152.713 63.2656 152.783 63.1592 154.558 64.2116C156.333 65.264 155.902 65.9898 157.677 67.0422C159.452 68.0947 159.502 68.0101 161.276 69.0626C163.051 70.115 163.11 70.0155 164.885 71.0679C166.66 72.1204 167.066 71.4343 168.841 72.4867C170.616 73.5391 170.312 74.0512 172.087 75.1036C173.862 76.156 173.885 76.1162 175.66 77.1686C177.435 78.221 177.597 77.9476 179.372 79C181.147 80.0524 181.008 80.2861 182.783 81.3385C184.557 82.3909 184.667 82.207 186.441 83.2594C188.216 84.3118 188.346 84.0931 190.12 85.1455C191.895 86.1979 191.748 86.4464 193.523 87.4988C195.297 88.5513 195.147 88.8048 196.922 89.8572C198.696 90.9096 198.667 90.9593 200.442 92.0117C202.216 93.0641 202.553 92.4974 204.327 93.5498C206.102 94.6022 205.722 95.2435 207.496 96.2959C209.271 97.3483 209.2 97.4677 210.975 98.5201C212.75 99.5725 212.771 99.5377 214.545 100.59C216.32 101.642 216.252 101.757 218.027 102.809C219.802 103.862 219.79 103.882 221.57 104.937C223.349 105.992 225.325 104.496 225.84 106.495C226.355 108.493 224.815 108.676 223.763 110.451C222.711 112.225 222.373 112.025 221.317 113.805C220.262 115.584 220.354 115.632 219.302 117.407C218.249 119.182 217.678 118.843 216.625 120.618C215.573 122.392 215.737 122.49 214.682 124.269C213.626 126.049 213.56 126.003 212.507 127.778C211.455 129.552 211.271 129.443 210.216 131.223C209.16 133.003 209.809 133.381 208.757 135.156C207.705 136.93 207.849 137.016 206.796 138.791C205.744 140.565 205.282 140.291 204.226 142.071C203.171 143.851 203.621 144.111 202.569 145.886C201.516 147.66 201.298 147.531 200.242 149.31C199.187 151.09 199.235 151.112 198.182 152.886C197.13 154.661 197.294 154.759 196.241 156.533C195.189 158.308 194.483 157.889 193.431 159.664C192.378 161.439 192.846 161.716 191.79 163.496C190.735 165.275 190.266 164.99 189.213 166.765C188.161 168.54 188.678 168.846 187.625 170.621C186.573 172.396 186.165 172.154 185.11 173.934C184.055 175.714 184.604 176.033 183.552 177.808C182.5 179.582 182.619 179.653 181.564 181.433C180.508 183.213 180.551 183.231 179.498 185.006C178.446 186.781 178.113 186.583 177.058 188.363C176.002 190.143 175.772 189.999 174.716 191.779C173.661 193.559 173.972 193.736 172.917 195.516C171.861 197.296 171.357 196.99 170.302 198.77C169.246 200.55 169.08 200.444 168.025 202.224C166.97 204.004 167.798 204.488 166.743 206.268C165.687 208.048 164.85 207.544 163.795 209.324C162.739 211.104 163.567 211.588 162.512 213.368C161.457 215.148 160.659 214.668 159.604 216.448C158.549 218.228 158.77 218.352 157.715 220.132C156.66 221.912 157.09 222.16 156.038 223.935C154.985 225.71 154.757 225.574 153.701 227.354C152.646 229.134 152.783 229.208 151.728 230.988C150.672 232.768 150.695 232.774 149.64 234.554C148.584 236.334 148.717 236.406 147.661 238.185C146.606 239.965 145.903 239.541 144.848 241.321C143.792 243.101 144.105 243.287 143.053 245.061C142.001 246.836 141.819 246.769 141.228 248.75C140.545 251.046 141.102 252.203 139.096 252.72L139.115 252.711Z" fill="url(#paint0_linear_665_4859)"/>
<path d="M120.465 99.8664C119.786 100.034 119.709 99.6205 119.103 99.2612C118.497 98.9019 118.561 98.793 117.955 98.4337C117.349 98.0743 117.529 97.6471 116.843 97.8109C116.157 97.9747 116.634 98.3035 116.295 98.8755C115.955 99.4475 116.01 99.4798 115.667 100.059C115.324 100.637 115.01 100.452 114.667 101.03C114.324 101.609 114.419 101.666 114.08 102.238C113.741 102.81 113.628 102.752 113.289 103.324C112.95 103.896 112.796 103.814 112.453 104.393C112.11 104.972 112.484 105.194 112.145 105.766C111.806 106.338 111.632 106.244 111.288 106.822C110.945 107.401 110.945 107.401 110.602 107.98C110.259 108.559 110.582 108.759 109.921 108.865C109.121 108.988 109.297 108.706 108.603 108.295C107.908 107.883 107.301 108.333 107.025 107.571C106.801 106.941 107.392 106.859 107.735 106.28C108.079 105.701 108.34 105.866 108.683 105.287C109.026 104.708 108.768 104.555 109.111 103.976C109.454 103.397 109.638 103.506 109.977 102.934C110.316 102.362 110.293 102.339 110.632 101.767C110.971 101.195 111.179 101.309 111.523 100.731C111.866 100.152 111.525 99.95 111.864 99.378C112.204 98.806 112.248 98.8234 112.592 98.2446C112.935 97.6658 113.003 97.7062 113.346 97.1274C113.689 96.5486 114.51 96.5293 114.326 95.8772C114.127 95.1886 113.279 95.8271 112.66 95.4597C112.04 95.0923 112.125 94.9493 111.505 94.5819C110.886 94.2145 110.362 94.4929 110.171 93.7906C109.98 93.0884 110.501 93.0476 110.856 92.4484C111.211 91.8491 110.972 91.3209 111.639 91.1273C112.27 90.9489 112.399 91.4763 112.964 91.8114C113.529 92.1465 113.505 92.1874 114.07 92.5225C114.635 92.8576 114.546 93.0074 115.105 93.3384C115.663 93.6695 115.734 93.5646 116.293 93.8956C116.851 94.2267 116.628 94.6188 117.193 94.9539C117.758 95.289 117.742 95.3162 118.3 95.6473C118.859 95.9784 119.019 95.7236 119.584 96.0587C120.149 96.3938 120.137 96.4142 120.703 96.7493C121.268 97.0844 121.744 96.7316 121.886 97.3771C122.036 98.0552 121.107 97.836 120.903 98.5064C120.672 99.253 121.14 99.7054 120.461 99.8732L120.465 99.8664Z" fill="#FF7F7F"/>
<path d="M126.095 100.57C126.206 101.004 126.039 101.456 125.793 101.872C125.546 102.287 125.116 102.299 124.678 102.417C124.24 102.534 123.929 102.672 123.513 102.426C123.098 102.179 122.753 101.892 122.642 101.458C122.531 101.024 122.81 100.693 123.065 100.264C123.319 99.8348 123.512 99.6641 123.942 99.56C124.383 99.4531 124.748 99.3657 125.177 99.62C125.606 99.8744 125.987 100.147 126.091 100.576L126.095 100.57ZM123.939 104.997C124.168 105.621 123.508 105.616 123.173 106.181C122.838 106.746 122.589 106.608 122.254 107.173C121.919 107.738 122.085 107.846 121.746 108.418C121.407 108.99 121.488 109.038 121.149 109.61C120.81 110.182 120.606 110.061 120.271 110.626C119.936 111.192 119.952 111.211 119.613 111.783C119.274 112.355 119.41 112.435 119.071 113.007C118.732 113.579 119.095 114.163 118.438 114.261C117.638 114.385 117.604 113.96 116.903 113.544C116.201 113.128 115.798 113.312 115.522 112.551C115.294 111.927 115.804 111.843 116.143 111.271C116.482 110.699 116.475 110.695 116.81 110.13C117.145 109.565 117.095 109.526 117.434 108.954C117.773 108.382 118.08 108.563 118.419 107.991C118.758 107.42 118.662 107.363 118.998 106.798C119.333 106.233 119.446 106.29 119.785 105.718C120.124 105.146 120.274 105.235 120.613 104.663C120.952 104.091 120.371 103.333 121.028 103.234C121.828 103.11 121.657 104.003 122.427 104.257C123.284 104.535 123.664 104.236 123.946 105.001L123.939 104.997Z" fill="#FF7F7F"/>
<path d="M135.837 116.156C135.797 115.618 135.599 115.114 135.177 114.863C134.755 114.613 134.252 114.794 133.737 115.041C133.216 115.284 132.707 115.599 132.372 116.164C132.025 116.749 132.1 116.794 131.753 117.379C131.405 117.965 131.153 117.816 130.806 118.401C130.459 118.987 130.725 119.144 130.377 119.73C130.03 120.316 130.33 120.788 129.659 120.896C128.854 121.026 128.941 120.507 128.24 120.091C127.538 119.676 127.219 119.965 126.948 119.197C126.72 118.556 127.34 118.721 127.688 118.135C128.035 117.55 127.899 117.469 128.246 116.883C128.593 116.298 128.852 116.451 129.199 115.865C129.546 115.28 129.451 115.223 129.798 114.638C130.17 114.011 129.858 113.357 129.821 112.829C129.789 112.294 129.892 111.887 129.47 111.636C129.177 111.463 128.843 111.219 128.518 111.256C128.192 111.293 127.847 111.548 127.539 111.789C127.231 112.03 127.055 112.45 126.809 112.865C126.462 113.451 126.264 113.334 125.917 113.919C125.57 114.505 125.645 114.55 125.297 115.135C124.95 115.721 125.243 115.894 124.896 116.48C124.549 117.066 124.644 117.417 123.969 117.532C123.164 117.662 123.208 117.2 122.513 116.788C121.819 116.377 121.169 116.728 120.893 115.966C120.665 115.343 121.615 115.354 121.954 114.782C122.293 114.21 122.123 114.109 122.458 113.544C122.793 112.979 122.913 113.041 123.252 112.469C123.591 111.897 123.258 111.699 123.597 111.127C123.936 110.555 124.304 110.773 124.639 110.208C124.974 109.642 124.794 109.527 125.133 108.955C125.472 108.383 125.472 108.383 125.811 107.811C126.151 107.239 125.926 106.811 126.582 106.712C127.383 106.589 127.145 107.377 127.84 107.789C128.534 108.201 128.988 107.669 129.311 108.413C129.542 108.955 129.101 108.905 128.803 109.409C128.504 109.913 128.483 109.855 128.04 110.245C127.903 110.367 128.107 110.35 128.11 110.158C128.399 109.934 128.506 109.785 128.796 109.654C129.122 109.507 129.425 109.29 129.751 109.253C130.38 109.185 131.086 109.189 131.604 109.496C132.081 109.779 132.434 110.393 132.698 111.019C132.959 111.634 133.155 112.22 133.157 112.884C133.486 112.747 133.618 112.54 133.982 112.471C134.345 112.401 134.715 112.289 135.089 112.28C135.853 112.264 136.439 112.75 136.936 113.044C137.311 113.266 137.697 113.422 137.972 113.704C138.269 114.009 138.387 114.401 138.562 114.772C138.735 115.132 138.663 115.503 138.723 115.898C138.784 116.293 139.22 116.644 139.169 117.055C139.12 117.495 138.811 117.892 138.648 118.338C138.498 118.746 138.303 119.137 138.057 119.552C137.71 120.138 137.492 120.009 137.144 120.595C136.797 121.18 137.022 121.313 136.675 121.899C136.328 122.485 136.518 122.598 136.171 123.183C135.824 123.769 136.026 124.312 135.355 124.42C134.55 124.551 134.713 123.718 134.012 123.302C133.31 122.886 132.661 123.422 132.397 122.657C132.169 122.016 132.937 122.057 133.284 121.471C133.631 120.886 133.604 120.87 133.951 120.284C134.298 119.698 134.509 119.824 134.856 119.238C135.204 118.652 134.856 118.447 135.204 117.861C135.575 117.234 135.882 116.717 135.831 116.181L135.837 116.156Z" fill="#FF7F7F"/>
<path d="M139.836 126.084C139.608 125.691 139.243 125.346 139.139 124.916C139.035 124.486 139.274 124.02 139.289 123.56C139.302 123.089 139.281 122.626 139.435 122.165C139.573 121.731 139.852 121.354 140.106 120.925C140.36 120.496 140.548 120.055 140.867 119.719C141.204 119.367 141.513 118.97 141.925 118.726C142.321 118.492 142.722 118.205 143.142 118.086C143.562 117.967 144.064 118.191 144.515 118.192C144.979 118.2 145.485 118.03 145.94 118.162C146.396 118.294 146.639 118.816 147.061 119.066C147.592 119.381 148.135 119.537 148.472 119.884C148.895 120.319 148.986 120.833 149.118 121.325C149.234 121.735 149.662 122.053 149.714 122.415C149.772 122.845 149.456 123.238 149.423 123.605C149.419 123.611 149.775 123.647 149.771 123.654C149.735 124.195 149.253 124.636 148.992 125.153C148.732 125.67 148.716 126.333 148.396 126.843C148.343 126.931 148.265 126.986 148.168 126.947C147.51 126.676 147.535 126.618 146.929 126.258C146.323 125.899 146.244 126.017 145.638 125.658C145.032 125.299 145.198 125.002 144.586 124.639C143.973 124.275 143.896 124.405 143.283 124.041C142.67 123.678 142.762 123.383 142.062 123.244C141.933 123.71 142.005 124.241 142.225 124.693C142.444 125.145 142.692 125.55 143.101 125.792C143.394 125.966 143.694 126.034 143.952 126.095C144.211 126.156 144.448 126.361 144.651 126.344C144.855 126.326 145 126.081 145.148 126.003C145.189 125.981 145.21 125.929 145.243 125.967C145.723 126.491 145.705 126.508 146.154 127.069C146.604 127.63 146.697 127.566 146.973 128.217C146.654 128.46 146.312 128.525 145.903 128.641C145.533 128.753 145.163 128.911 144.722 128.925C144.224 128.943 143.764 128.679 143.236 128.514C142.771 128.367 142.298 128.234 141.814 127.947C141.399 127.701 140.819 127.67 140.497 127.359C140.159 127.03 140.077 126.484 139.847 126.081L139.836 126.084ZM146.748 122.249C146.621 121.796 146.196 121.581 145.74 121.31C145.283 121.04 144.855 120.676 144.372 120.776C143.887 120.865 143.438 121.28 143.023 121.733C143.4 122.307 143.569 122.177 144.162 122.528C144.754 122.88 144.811 122.784 145.403 123.136C145.996 123.487 145.919 123.662 146.606 123.729C146.804 123.147 146.889 122.71 146.755 122.253L146.748 122.249Z" fill="#FF7F7F"/>
<path d="M92.5104 123.389C93.1407 123.211 93.1321 123.381 93.6973 123.716C94.2625 124.051 94.0687 124.378 94.6271 124.709C95.1855 125.04 95.4062 124.683 95.9646 125.014C96.523 125.345 96.3602 125.635 96.9254 125.97C97.4906 126.305 97.6481 126.04 98.2133 126.375C98.7784 126.71 98.9043 126.637 99.0502 127.276C99.2004 127.954 98.8345 127.81 98.4792 128.41C98.1239 129.009 98.4185 129.257 97.7555 129.444C97.1252 129.622 97.2577 129.259 96.6993 128.928C96.1409 128.597 96.0493 128.736 95.491 128.405C94.9326 128.074 94.8491 128.199 94.2907 127.868C93.7323 127.537 93.9314 127.186 93.3662 126.851C92.801 126.516 92.6234 126.815 92.0582 126.48C91.493 126.145 91.4796 126.183 91.3337 125.545C91.1835 124.867 91.5064 125.067 91.7623 124.418C92.0182 123.769 91.8406 123.572 92.5076 123.378L92.5104 123.389ZM96.2406 121.211C97.0478 121.091 97.019 121.295 97.7204 121.711C98.4218 122.127 98.5759 122.007 98.8582 122.772C99.0909 123.389 98.8806 123.402 98.5455 123.967C98.2104 124.532 97.938 124.371 97.6029 124.936C97.2678 125.501 97.5266 125.655 97.1915 126.22C96.8564 126.785 96.5227 126.587 96.1876 127.152C95.8526 127.718 95.9683 127.786 95.6332 128.351C95.2981 128.917 95.1824 128.848 94.8473 129.413C94.5122 129.978 94.6416 130.055 94.3065 130.62C93.9714 131.185 94.1076 131.266 93.7725 131.831C93.4374 132.396 93.5668 132.473 93.2317 133.038C92.8966 133.604 92.5629 133.406 92.2238 133.978C91.8847 134.55 92.3285 135.291 91.6787 135.394C90.8715 135.514 91.0889 134.51 90.3943 134.099C89.6998 133.687 89.1394 134.275 88.8571 133.509C88.6244 132.893 89.4197 133.088 89.7548 132.523C90.0898 131.958 89.6677 131.708 90.0027 131.142C90.3378 130.577 90.726 130.807 91.0611 130.242C91.3962 129.677 90.974 129.427 91.3091 128.861C91.6441 128.296 92.0527 128.538 92.3878 127.973C92.7229 127.408 92.362 127.194 92.6971 126.629C93.0322 126.064 93.2092 126.169 93.5443 125.604C93.8794 125.038 93.8317 125.01 94.1668 124.445C94.5019 123.88 94.3385 123.783 94.6736 123.218C95.0087 122.652 95.5449 122.897 95.7629 122.281C95.981 121.664 95.5936 121.324 96.2434 121.222L96.2406 121.211Z" fill="#FF7F7F"/>
<path d="M107.013 132.521C107.237 132.92 107.165 133.43 107.269 133.86C107.373 134.29 107.531 134.706 107.516 135.166C107.503 135.637 107.447 136.119 107.305 136.578C107.167 137.011 107.057 137.507 106.803 137.936C106.548 138.365 106.155 138.703 105.84 139.032C105.503 139.384 105.16 139.76 104.753 139.997C104.356 140.232 103.904 140.341 103.477 140.456C103.05 140.571 102.601 140.755 102.143 140.751C101.675 140.749 101.26 140.347 100.808 140.208C100.37 140.077 99.8561 140.122 99.4271 139.868C98.9981 139.613 98.6759 139.257 98.3511 138.935C98.0058 138.602 97.8271 138.174 97.5901 137.766C97.3667 137.367 96.9495 137.046 96.8523 136.62C96.755 136.194 96.9738 135.717 96.985 135.263C96.9974 134.792 96.7938 134.266 96.9407 133.801C97.0782 133.367 97.4973 133.018 97.7516 132.589C98.0059 132.16 98.1254 131.632 98.444 131.297C98.7816 130.945 99.3378 130.86 99.7452 130.623C100.142 130.389 100.493 130.137 100.92 130.022C101.348 129.907 101.781 129.953 102.234 129.964C102.688 129.975 103.163 129.935 103.618 130.067C104.056 130.197 104.536 130.289 104.958 130.539C105.38 130.789 105.847 131.011 106.176 131.325C106.521 131.659 106.791 132.104 107.021 132.507L107.013 132.521ZM101.888 137.627C102.245 137.599 102.671 137.687 103.009 137.427C103.347 137.167 103.587 136.702 103.869 136.225C104.152 135.748 104.295 135.29 104.36 134.869C104.426 134.448 104.3 134.133 104.161 133.793C104.022 133.453 103.883 133.159 103.529 132.949C103.005 132.638 102.527 132.668 101.989 132.892C101.696 133.013 101.393 133.137 101.132 133.406C100.914 133.635 100.826 133.97 100.632 134.296C100.438 134.623 99.9925 134.801 99.9004 135.096C99.7855 135.46 99.9857 135.837 100.02 136.151C100.079 136.72 100.283 137.182 100.828 137.505C101.182 137.715 101.531 137.655 101.888 137.627Z" fill="#FF7F7F"/>
<path d="M119.487 140.044C119.628 140.846 118.928 140.753 118.512 141.455C118.097 142.156 118.417 142.438 117.653 142.703C116.994 142.929 117.158 142.419 116.566 142.068C115.974 141.716 115.882 141.855 115.283 141.5C114.684 141.145 114.76 141.015 114.161 140.66C113.562 140.305 113.449 140.496 112.85 140.14C112.25 139.785 112.371 139.581 111.772 139.225C111.173 138.87 111.12 138.959 110.521 138.603C109.922 138.248 109.405 138.577 109.287 137.89C109.146 137.089 109.627 137.116 110.039 136.421C110.45 135.727 110.203 135.322 110.974 135.062C111.632 134.835 111.634 135.361 112.226 135.712C112.819 136.063 112.789 136.129 113.388 136.484C113.988 136.839 114.048 136.737 114.647 137.092C115.247 137.448 115.093 137.706 115.692 138.062C116.292 138.417 116.409 138.219 117.008 138.575C117.607 138.93 117.498 139.16 118.166 139.353C118.941 139.583 119.373 139.351 119.491 140.037L119.487 140.044Z" fill="#FF7F7F"/>
<path d="M118.819 150.234C118.616 149.847 118.058 149.608 117.974 149.19C117.89 148.772 117.846 148.304 117.881 147.856C117.918 147.39 118.061 146.886 118.219 146.418C118.363 145.988 118.976 145.762 119.234 145.327C119.492 144.891 119.739 144.568 120.051 144.228C120.386 143.865 120.691 143.614 121.082 143.358C121.454 143.118 121.73 142.84 122.126 142.715C122.521 142.591 122.9 142.31 123.337 142.302C123.774 142.294 124.142 142.668 124.579 142.799C124.99 142.914 125.354 143.028 125.763 143.271C126.083 143.46 126.317 143.765 126.698 144.193C127.068 144.624 127.25 144.953 127.31 145.66C127.28 145.882 127.012 146.146 127.125 145.956C127.472 145.37 127.472 145.37 127.824 144.778C128.175 144.185 128.491 144.382 128.838 143.796C129.185 143.211 129.063 143.138 129.414 142.546C129.765 141.953 129.738 141.937 130.085 141.351C130.432 140.766 130.199 140.461 130.874 140.347C131.672 140.212 131.651 140.448 132.353 140.864C133.054 141.28 133.325 141.118 133.611 141.877C133.841 142.483 133.081 142.29 132.75 142.848C132.419 143.407 132.514 143.463 132.179 144.029C131.844 144.594 132.08 144.724 131.749 145.283C131.418 145.841 131.206 145.716 130.875 146.274C130.544 146.833 130.851 147.014 130.516 147.579C130.181 148.145 129.858 147.944 129.527 148.502C129.196 149.061 129.339 149.145 129.004 149.711C128.669 150.276 128.72 150.297 128.385 150.863C128.05 151.428 128.183 151.498 127.848 152.063C127.513 152.628 127.377 152.547 127.046 153.106C126.715 153.664 126.813 153.731 126.482 154.29C126.151 154.848 126.332 155.287 125.68 155.379C124.877 155.492 124.846 155.124 124.152 154.712C123.457 154.3 123.33 154.39 123.113 153.608C122.896 152.826 123.161 152.937 123.561 152.263C123.605 152.188 123.655 152.43 123.585 152.471C122.956 152.724 122.388 152.626 121.804 152.51C121.223 152.387 120.643 152.604 120.357 152.435C119.956 152.197 119.834 151.609 119.537 151.304C119.212 150.983 119.053 150.63 118.843 150.239L118.819 150.234ZM123.36 150.847C123.777 150.827 124.069 150.273 124.456 150.024C124.843 149.775 125.087 149.487 125.341 149.058C125.596 148.629 125.761 148.257 125.794 147.798C125.826 147.339 126.181 146.804 126.002 146.422C125.824 146.04 125.436 145.608 125.055 145.381C124.673 145.155 124.147 145.018 123.766 145.041C123.384 145.063 122.932 145.375 122.59 145.642C122.242 145.904 122.068 146.445 121.777 146.936C121.486 147.426 120.998 147.799 120.935 148.231C120.877 148.656 120.984 149.189 121.147 149.535C121.311 149.88 121.637 150.322 122.005 150.54C122.373 150.758 122.955 150.864 123.371 150.844L123.36 150.847Z" fill="#FF7F7F"/>
<path d="M139.434 151.806C139.657 152.206 139.936 152.62 140.044 153.043C140.153 153.466 140.036 153.958 140.02 154.418C140.008 154.889 139.872 155.352 139.725 155.817C139.587 156.25 139.277 156.619 139.023 157.048C138.768 157.477 138.694 158.021 138.375 158.357C138.038 158.709 137.581 158.936 137.17 159.179C136.773 159.414 136.346 159.529 135.919 159.643C135.492 159.758 135.061 159.788 134.603 159.783C134.135 159.782 133.666 159.78 133.211 159.648C132.773 159.517 132.286 159.422 131.864 159.172C131.442 158.922 131.24 158.424 130.915 158.103C130.57 157.769 130.336 157.419 130.105 157.016C129.882 156.616 129.438 156.325 129.334 155.896C129.23 155.466 129.172 154.99 129.187 154.529C129.199 154.058 129.313 153.555 129.456 153.097C129.594 152.663 130.066 152.363 130.32 151.934C130.575 151.505 130.845 151.159 131.163 150.823C131.501 150.471 131.832 150.207 132.243 149.964C132.64 149.729 132.973 149.494 133.4 149.379C133.827 149.264 134.239 149.067 134.696 149.071C135.154 149.075 135.569 149.368 136.032 149.504C136.469 149.635 136.871 149.781 137.293 150.031C137.715 150.281 138.028 150.577 138.35 150.887C138.695 151.221 139.208 151.396 139.434 151.806ZM134.36 156.934C134.717 156.906 134.945 156.692 135.287 156.425C135.625 156.165 136.033 155.928 136.315 155.452C136.598 154.975 136.817 154.543 136.887 154.115C136.952 153.694 137.037 153.257 136.894 152.923C136.751 152.59 136.308 152.484 135.954 152.274C135.429 151.963 134.96 151.823 134.423 152.047C134.13 152.168 133.806 152.326 133.546 152.595C133.327 152.824 133.095 153.091 132.901 153.418C132.707 153.745 132.629 154.094 132.537 154.389C132.422 154.754 132.498 155.075 132.526 155.386C132.584 155.955 132.68 156.554 133.218 156.873C133.572 157.083 134 156.95 134.357 156.923L134.36 156.934Z" fill="#FF7F7F"/>
<path d="M79.8926 152.094C79.2467 151.895 79.2434 152.832 78.9003 153.411C78.5571 153.99 79.0746 154.296 78.7315 154.875C78.3883 155.454 77.8844 155.155 77.5412 155.734C77.1981 156.313 77.1504 156.285 76.8072 156.863C76.4641 157.442 77.0156 157.769 76.6725 158.348C76.3293 158.927 75.7505 158.584 75.4073 159.163C75.0642 159.741 75.1936 159.818 74.8464 160.404C74.4992 160.989 75.004 161.721 74.3393 161.833C73.5349 161.964 73.5265 161.388 72.8251 160.972C72.1237 160.556 71.9209 160.712 71.6522 159.955C71.4207 159.321 71.6528 159.302 71.996 158.723C72.3391 158.144 72.6115 158.306 72.9547 157.727C73.2978 157.148 73.0186 156.982 73.3618 156.404C73.705 155.825 73.9093 155.946 74.2524 155.367C74.5956 154.788 74.5479 154.76 74.8951 154.174C75.2423 153.589 75.1906 153.567 75.5338 152.989C75.8769 152.41 76.0472 152.511 76.3903 151.932C76.7335 151.353 76.5905 151.268 76.9377 150.683C77.2849 150.097 77.1719 150.039 77.5151 149.461C77.8582 148.882 78.3145 149.152 78.6617 148.567C79.0089 147.981 78.6003 147.739 78.9435 147.16C79.2866 146.581 79.0227 145.955 79.6652 145.756C80.2494 145.578 80.3158 146.335 80.847 146.65C81.3781 146.965 81.3309 147.029 81.862 147.344C82.3932 147.659 82.4278 147.523 82.7157 148.062C83.0447 148.671 83.1464 148.639 83.1677 149.333C83.189 150.027 83.0003 150.035 83.0148 150.724C83.0293 151.414 82.9289 151.428 82.9434 152.117C82.9578 152.807 82.9253 152.815 82.9357 153.512C82.9462 154.208 83.0847 154.208 83.0951 154.904C83.1056 155.6 83.301 155.597 83.3183 156.297C83.3355 156.998 82.4221 157.56 83.0173 157.922C83.6125 158.284 83.8997 157.645 84.5225 157.324C85.1453 157.003 84.9081 156.549 85.5269 156.235C86.1457 155.921 86.1401 155.899 86.7561 155.574C87.3722 155.249 87.3941 155.29 88.0129 154.976C88.6317 154.662 88.869 155.115 89.4918 154.794C90.1146 154.473 90.1174 154.484 90.7334 154.159C91.3495 153.834 91.1268 153.573 91.8232 153.563C92.4341 153.557 92.2462 153.703 92.7705 154.014C93.2948 154.325 93.42 154.114 93.9511 154.429C94.4823 154.744 94.5383 154.556 94.6651 155.165C94.7988 155.824 94.4037 155.544 94.0605 156.123C93.7173 156.701 93.656 156.665 93.3129 157.244C92.9697 157.823 93.0038 157.843 92.6606 158.422C92.3174 159 92.8418 159.311 92.4986 159.89C92.1554 160.469 92.1554 160.469 91.8082 161.055C91.461 161.64 91.0974 161.415 90.7542 161.994C90.411 162.573 90.554 162.658 90.2109 163.237C89.8677 163.815 89.9018 163.836 89.5546 164.421C89.2074 165.007 89.0071 164.879 88.6639 165.458C88.3208 166.036 88.6544 166.234 88.3072 166.82C87.96 167.405 87.7285 167.268 87.3854 167.847C87.0422 168.426 87.3474 168.625 86.6827 168.737C85.8783 168.868 86.1233 168.47 85.4219 168.054C84.7205 167.638 84.0921 168.186 83.8206 167.418C83.596 166.788 84.4097 166.874 84.7529 166.295C85.096 165.717 84.7487 165.511 85.0919 164.932C85.4351 164.353 85.8028 164.571 86.1459 163.992C86.4891 163.414 86.3257 163.317 86.6688 162.738C87.012 162.159 86.9643 162.131 87.3075 161.552C87.6507 160.973 87.5077 160.888 87.8508 160.31C88.194 159.731 88.3506 159.824 88.6978 159.238C89.045 158.652 89.7825 158.712 89.2953 158.23C88.8081 157.748 88.8418 158.467 88.2366 158.79C87.6314 159.112 87.7315 159.3 87.1195 159.618C86.5075 159.936 86.2551 159.446 85.65 159.769C85.0448 160.091 85.2382 160.463 84.633 160.785C84.0278 161.108 83.9524 160.971 83.3472 161.293C82.7421 161.615 82.8215 161.745 82.1331 161.742C81.4909 161.739 81.4493 161.824 80.8977 161.497C80.3462 161.17 80.4123 161.09 80.1011 160.528C79.7681 159.926 79.6175 159.947 79.6098 159.261C79.6021 158.576 79.9931 158.568 79.9746 157.885C79.9561 157.203 79.5976 157.202 79.5859 156.523C79.5742 155.844 80.0547 155.825 80.043 155.147C80.0313 154.468 79.6878 154.457 79.8567 153.785C80.0733 152.891 80.5304 152.307 79.8737 152.11L79.8926 152.094Z" fill="#FF7F7F"/>
<path d="M91.6066 171.015C91.3791 170.622 91.2753 170.239 91.1672 169.816C91.0591 169.392 90.8248 168.996 90.8401 168.536C90.8525 168.064 91.0852 167.641 91.2321 167.176C91.3696 166.742 91.3165 166.195 91.5709 165.766C91.8252 165.337 92.0849 164.884 92.4035 164.548C92.7411 164.196 93.352 164.19 93.7634 163.946C94.1749 163.703 94.4386 163.242 94.8548 163.13C95.271 163.018 95.7603 163.124 96.211 163.124C96.6794 163.126 97.1012 163.284 97.5567 163.416C98.0122 163.548 98.3743 163.744 98.7897 163.991C99.3209 164.305 99.9459 164.4 100.29 164.751C100.713 165.186 100.895 165.763 101.038 166.253C101.154 166.662 101.236 167.051 101.284 167.42C101.342 167.851 101.12 168.225 101.097 168.589C101.093 168.596 101.319 168.619 101.311 168.633C101.276 169.173 101.257 169.779 101.003 170.3C100.743 170.817 100.113 171.134 99.7993 171.648C99.7468 171.736 99.9452 172.038 99.8486 171.999C99.1901 171.728 99.2936 171.523 98.6807 171.16C98.0679 170.796 98.0235 170.871 97.4174 170.512C96.8114 170.152 96.849 170.074 96.2361 169.71C95.6233 169.347 95.6798 169.251 95.0669 168.888C94.4541 168.525 94.4773 168.299 93.7734 168.167C93.6441 168.634 93.8478 169.159 94.0674 169.612C94.287 170.064 94.3389 170.628 94.7406 170.867C95.0334 171.04 95.3411 171.204 95.5994 171.265C95.8509 171.322 96.1001 170.964 96.3037 170.947C96.5073 170.929 96.7995 171.259 96.9471 171.181C96.9877 171.159 96.8185 170.994 96.8513 171.032C97.3319 171.556 97.4603 171.448 97.9031 172.005C98.3459 172.562 98.5248 172.494 98.8011 173.145C98.482 173.388 97.9967 173.524 97.5872 173.64C97.2172 173.752 96.8453 174.038 96.4042 174.052C95.906 174.07 95.3996 173.807 94.8719 173.641C94.4069 173.494 93.8459 173.447 93.3556 173.156C92.9402 172.91 92.6394 172.501 92.3174 172.191C91.9789 171.861 91.8368 171.418 91.6066 171.015ZM98.5201 167.208C98.3929 166.755 98.055 166.27 97.5987 165.999C97.1425 165.729 96.5618 165.808 96.0722 165.904C95.5826 166 95.0196 166.329 94.6038 166.782C94.9815 167.356 95.3771 166.937 95.9695 167.288C96.5619 167.639 96.5983 167.578 97.1907 167.929C97.7831 168.281 97.5706 168.918 98.2511 168.981C98.449 168.399 98.6434 167.668 98.5201 167.208Z" fill="#FF7F7F"/>
<path d="M103.928 175.52C104.117 175.946 104.067 176.496 104.346 176.661C104.68 176.859 105.062 176.727 105.278 176.735C105.494 176.743 105.775 176.781 105.876 176.611C105.949 176.488 105.651 176.339 105.521 176.124C105.391 175.909 105.46 175.389 105.137 174.986C105.11 174.97 105.038 174.982 105.007 174.927C104.948 174.855 104.832 174.943 104.773 174.871C104.346 174.333 103.921 173.887 103.648 173.431C103.375 172.975 103.305 172.427 103.243 171.893C103.182 171.36 103.387 170.874 103.698 170.35C103.949 169.928 104.105 169.432 104.466 169.195C104.827 168.958 105.358 169.134 105.841 169.08C106.348 169.032 106.818 168.969 107.353 169.121C107.827 169.255 108.277 169.457 108.767 169.748C109.196 170.002 109.761 170.153 110.105 170.596C110.453 171.033 110.671 171.613 110.829 172.185C110.987 172.757 110.92 173.444 110.786 174.074C110.116 174.256 110.102 173.815 109.414 173.702C108.726 173.589 108.665 173.847 108.054 173.512C108.138 173.029 108.241 172.638 108.112 172.406C107.983 172.173 107.606 172.188 107.395 172.063C107.122 171.902 106.965 171.514 106.799 171.516C106.627 171.525 106.597 171.857 106.512 172C106.447 172.109 106.506 172.134 106.637 172.332C106.769 172.529 106.781 173.006 107.122 173.438C107.141 173.468 107.104 173.501 107.123 173.531C107.181 173.602 107.185 173.596 107.233 173.67C107.646 174.2 108.06 174.62 108.339 175.08C108.619 175.54 108.77 175.998 108.838 176.536C108.906 177.073 109.019 177.674 108.717 178.185C108.458 178.62 108.05 178.967 107.681 179.218C107.311 179.468 106.822 179.657 106.318 179.716C105.953 179.758 105.531 179.848 105.145 179.785C104.794 179.724 104.524 179.279 104.156 179.125C103.828 178.995 103.529 178.8 103.189 178.598C102.712 178.315 102.175 178.089 101.796 177.579C101.417 177.069 101.291 176.46 101.116 175.869C100.942 175.278 100.712 174.626 100.796 174.096C101.462 173.874 101.549 174.037 102.254 174.059C102.959 174.081 102.934 174.232 103.591 174.474C103.468 174.898 103.746 175.081 103.929 175.503L103.928 175.52Z" fill="#FF7F7F"/>
<path d="M112.47 180.917C112.66 181.342 113.038 181.557 113.324 181.727C113.658 181.925 113.924 181.88 114.151 181.885C114.367 181.894 114.436 181.917 114.537 181.746C114.61 181.624 114.552 181.581 114.422 181.365C114.292 181.15 114.332 180.649 114.013 180.239C113.986 180.223 113.88 180.262 113.849 180.206C113.79 180.135 113.798 180.121 113.746 180.053C113.32 179.515 112.837 179.119 112.571 178.667C112.305 178.215 112.094 177.702 112.033 177.169C111.971 176.636 112.13 176.058 112.445 175.527C112.695 175.105 113.16 174.957 113.521 174.72C113.882 174.484 114.229 174.256 114.708 174.209C115.215 174.16 115.684 174.3 116.213 174.448C116.687 174.582 117.232 174.592 117.723 174.883C118.152 175.137 118.582 175.466 118.924 175.899C119.273 176.336 119.634 176.844 119.791 177.416C119.949 177.988 119.833 178.821 119.692 179.447C119.022 179.629 118.95 179.209 118.262 179.096C117.574 178.982 117.473 179.217 116.861 178.882C116.946 178.398 116.788 178.074 116.659 177.841C116.53 177.609 116.482 177.442 116.271 177.317C115.998 177.155 115.853 177.152 115.686 177.154C115.515 177.163 115.432 177.086 115.343 177.236C115.278 177.345 115.314 177.44 115.439 177.633C115.57 177.831 115.724 178.207 116.066 178.64C116.085 178.67 116.108 178.647 116.127 178.676C116.186 178.748 116.344 178.621 116.399 178.699C116.811 179.229 117.113 179.776 117.386 180.233C117.658 180.689 117.524 181.272 117.599 181.813C117.674 182.354 117.698 182.81 117.391 183.328C117.133 183.764 116.878 184.147 116.509 184.397C116.139 184.647 115.699 184.893 115.201 184.956C114.836 184.998 114.456 184.91 114.07 184.847C113.719 184.786 113.284 184.869 112.911 184.721C112.583 184.591 112.419 184.061 112.078 183.86C111.602 183.577 111.027 183.383 110.648 182.873C110.269 182.363 110.172 181.735 109.991 181.14C109.81 180.545 109.58 179.847 109.664 179.317C110.329 179.095 110.418 179.691 111.127 179.706C111.835 179.721 111.838 179.438 112.495 179.68C112.372 180.104 112.306 180.479 112.496 180.904L112.47 180.917Z" fill="#FF7F7F"/>
<path d="M119.832 187.831C119.629 187.444 119.286 187.121 119.206 186.696C119.127 186.272 119.419 185.856 119.458 185.419C119.495 184.953 119.498 184.513 119.656 184.045C119.8 183.615 119.826 183.106 120.08 182.677C120.334 182.248 120.792 182.004 121.1 181.671C121.435 181.308 121.782 181.063 122.173 180.808C122.564 180.552 122.791 180.106 123.187 179.982C123.583 179.858 124.048 179.913 124.485 179.905C124.922 179.897 125.347 180.002 125.778 180.129C126.185 180.25 126.629 180.339 127.031 180.577C127.487 180.848 127.928 181.191 128.267 181.659C128.606 182.127 128.864 182.732 128.896 183.33C128.871 183.435 128.675 183.595 128.724 183.495C129.103 182.763 128.594 182.102 129.389 181.892C130.185 181.683 130.167 182.335 130.862 182.747C131.556 183.159 131.875 182.915 132.151 183.677C132.379 184.3 131.999 184.305 131.66 184.877C131.321 185.449 131.055 185.291 130.716 185.863C130.377 186.435 130.527 186.524 130.188 187.096C129.849 187.668 129.971 187.741 129.632 188.313C129.293 188.885 129.245 188.857 128.906 189.429C128.567 190.001 128.601 190.021 128.262 190.593C127.923 191.165 127.637 190.995 127.298 191.567C126.959 192.139 127.424 192.627 126.768 192.725C125.967 192.849 126.13 192.311 125.429 191.895C124.727 191.479 124.126 191.95 123.919 191.165C123.713 190.38 124.274 190.382 124.722 189.718C124.783 189.616 124.892 189.975 124.812 190.047C124.279 190.311 123.71 190.167 123.141 190.087C122.572 190.008 122.079 189.955 121.622 189.684C121.221 189.446 120.953 189.121 120.655 188.816C120.331 188.495 120.039 188.211 119.836 187.824L119.832 187.831ZM124.531 188.132C124.945 188.101 125.281 187.767 125.664 187.525C126.047 187.282 126.611 187.138 126.873 186.695C127.136 186.253 127.221 185.705 127.25 185.253C127.279 184.801 127.016 184.406 126.844 184.028C126.673 183.65 126.556 183.194 126.195 182.98C125.814 182.754 125.35 182.59 124.969 182.612C124.587 182.635 124.311 183.069 123.966 183.325C123.621 183.58 123.218 183.857 122.928 184.347C122.637 184.837 122.413 185.293 122.35 185.725C122.287 186.157 122.423 186.533 122.587 186.878C122.75 187.224 123.032 187.446 123.414 187.672C123.768 187.882 124.114 188.152 124.535 188.125L124.531 188.132Z" fill="#FF7F7F"/>
<path d="M136.702 200.777C136.297 201.025 135.846 201.227 135.393 201.354C134.941 201.481 134.46 201.298 133.977 201.306C133.476 201.312 132.99 201.356 132.497 201.21C132.034 201.074 131.673 200.722 131.217 200.451C130.788 200.197 130.279 200.107 129.933 199.791C129.586 199.475 129.125 199.183 128.855 198.784C128.585 198.385 128.519 197.876 128.395 197.434C128.27 196.992 128.198 196.416 128.214 195.938C128.916 195.654 128.998 195.795 129.755 195.729C130.513 195.662 130.556 195.559 131.272 195.809C131.385 196.52 131.737 196.904 131.888 197.223C132.039 197.543 132.048 198.055 132.491 198.317C133.118 198.688 133.785 198.68 134.338 198.492C134.891 198.304 135.182 197.86 135.477 197.363C135.679 197.023 135.652 197.007 135.853 196.666C135.926 196.544 135.891 196.743 135.769 196.809C135.217 196.933 134.725 197.313 134.223 197.181C133.714 197.045 133.198 196.877 132.816 196.651C132.415 196.413 132.088 196.017 131.786 195.718C131.462 195.397 131.513 194.829 131.314 194.435C131.118 194.052 130.731 193.758 130.651 193.333C130.571 192.909 130.45 192.478 130.481 192.036C130.518 191.57 130.777 191.135 130.93 190.673C131.075 190.244 131.293 189.83 131.543 189.408C131.793 188.985 131.913 188.458 132.218 188.114C132.552 187.751 133.166 187.756 133.557 187.5C133.929 187.261 134.231 187.016 134.62 186.888C135.009 186.76 135.4 186.394 135.831 186.382C136.261 186.37 136.626 186.872 137.068 186.996C137.475 187.117 137.879 187.164 138.281 187.402C138.663 187.628 139.19 187.748 139.538 188.185C139.887 188.621 139.787 189.225 139.854 189.872C139.851 189.971 140.152 190.269 140.201 190.188C140.604 189.507 139.969 188.716 140.735 188.526C141.501 188.336 141.459 189.121 142.16 189.537C142.862 189.952 143.224 189.606 143.488 190.37C143.712 191.018 143.258 190.96 142.907 191.553C142.556 192.145 142.617 192.182 142.262 192.781C141.906 193.38 141.992 193.422 141.637 194.021C141.282 194.62 140.911 194.391 140.56 194.984C140.209 195.576 140.542 195.774 140.187 196.373C139.832 196.972 139.811 196.96 139.46 197.553C139.109 198.145 138.914 198.039 138.563 198.631C138.313 199.054 138.261 199.621 137.936 199.953C137.61 200.285 137.125 200.512 136.721 200.76L136.702 200.777ZM135.943 194.621C136.371 194.598 136.72 194.474 137.083 194.22C137.445 193.966 137.945 193.774 138.2 193.345C138.454 192.916 138.515 192.409 138.558 191.965C138.603 191.532 138.679 191.016 138.494 190.63C138.308 190.244 137.805 190.037 137.403 189.799C137.035 189.581 136.683 189.648 136.312 189.668C135.942 189.687 135.591 189.673 135.243 189.935C134.894 190.198 134.676 190.612 134.393 191.088C134.111 191.565 134.016 191.988 133.951 192.409C133.892 192.834 133.716 193.209 133.873 193.55C134.029 193.891 134.444 193.953 134.811 194.171C135.213 194.409 135.509 194.64 135.936 194.617L135.943 194.621Z" fill="#FF7F7F"/>
<path d="M142.132 201.254C141.905 200.862 141.771 200.405 141.673 199.979C141.576 199.553 141.697 199.1 141.712 198.64C141.725 198.169 141.765 197.714 141.912 197.249C142.049 196.815 142.059 196.287 142.313 195.858C142.567 195.429 142.901 195.038 143.219 194.702C143.557 194.35 144.029 194.142 144.437 193.905C144.844 193.668 145.194 193.342 145.614 193.223C146.035 193.104 146.521 193.245 146.972 193.246C147.441 193.247 147.897 193.269 148.352 193.401C148.808 193.533 149.23 193.691 149.645 193.938C150.176 194.253 150.719 194.501 151.056 194.848C151.479 195.283 151.734 195.848 151.872 196.344C151.988 196.753 152.041 197.162 152.089 197.531C152.147 197.961 152.111 198.363 152.077 198.73C152.073 198.736 152.221 198.751 152.217 198.757C152.182 199.298 151.758 199.765 151.504 200.286C151.244 200.803 151.112 201.397 150.792 201.907C150.739 201.995 150.694 202.18 150.591 202.137C149.932 201.866 150.001 201.704 149.395 201.345C148.789 200.986 148.883 200.811 148.277 200.452C147.671 200.093 147.559 200.266 146.946 199.902C146.333 199.539 146.313 199.573 145.7 199.21C145.087 198.846 145.192 198.623 144.495 198.495C144.366 198.962 144.319 199.413 144.539 199.865C144.758 200.317 145.154 200.644 145.562 200.886C145.855 201.059 146.112 201.294 146.366 201.362C146.617 201.419 146.883 201.282 147.086 201.265C147.29 201.247 147.407 201.096 147.548 201.014C147.589 200.992 147.665 201.019 147.697 201.057C148.178 201.581 148.204 201.568 148.647 202.126C149.089 202.683 149.313 202.585 149.596 203.241C149.277 203.484 148.787 203.69 148.373 203.813C148.003 203.925 147.616 204.174 147.175 204.189C146.677 204.206 146.186 203.869 145.659 203.704C145.194 203.557 144.696 203.418 144.212 203.132C143.797 202.885 143.343 202.69 143.031 202.376C142.693 202.047 142.376 201.666 142.146 201.262L142.132 201.254ZM149.022 197.379C148.895 196.926 148.684 196.598 148.228 196.328C147.772 196.057 147.307 195.8 146.822 195.89C146.336 195.979 145.86 196.378 145.442 196.82C145.82 197.394 146.156 197.013 146.741 197.361C147.327 197.708 147.318 197.739 147.91 198.09C148.502 198.442 148.346 198.846 149.026 198.909C149.224 198.326 149.139 197.834 149.015 197.375L149.022 197.379Z" fill="#FF7F7F"/>
<g filter="url(#filter0_d_665_4859)">
<path d="M149.629 121.488C149.395 121.872 148.813 121.776 148.714 121.337L147.22 114.67C147.143 114.324 147.44 114.009 147.789 114.067L152.841 114.901C153.191 114.959 153.371 115.352 153.187 115.655L149.629 121.488Z" fill="#FF7F7F"/>
<path d="M159.239 16.9733C159.419 15.8835 160.448 15.1459 161.538 15.3258L171.562 16.9806C172.652 17.1606 173.389 18.1899 173.209 19.2797L159.383 103.032C159.356 103.196 159.308 103.356 159.241 103.509L154.211 114.981C153.844 115.819 152.956 116.3 152.054 116.151L150.094 115.828L148.135 115.504C147.233 115.356 146.547 114.614 146.468 113.703L145.393 101.223C145.378 101.057 145.385 100.89 145.412 100.725L159.239 16.9733Z" fill="#FFEED1"/>
<path d="M159.239 16.9733C159.419 15.8835 160.448 15.1459 161.538 15.3258L171.562 16.9806C172.652 17.1606 173.389 18.1899 173.209 19.2797L159.463 102.543C159.385 103.018 159.138 103.448 158.768 103.756L157.408 104.886C156.332 105.779 154.696 105.322 154.239 104.001L153.962 103.198C153.443 101.697 151.466 101.37 150.492 102.625L149.971 103.296C149.114 104.4 147.418 104.307 146.686 103.116L145.761 101.609C145.51 101.199 145.414 100.711 145.493 100.237L159.239 16.9733Z" fill="#FF7F7F"/>
</g>
<g filter="url(#filter1_d_665_4859)">
<path d="M131.441 170.571C130.999 170.654 130.68 170.158 130.939 169.791L137.309 160.785C137.514 160.496 137.946 160.505 138.138 160.804L142.606 167.758C142.798 168.056 142.627 168.454 142.279 168.52L131.441 170.571Z" fill="#FFD080"/>
<path d="M256.833 77.0245C257.762 76.4274 259 76.6967 259.597 77.6259L268.736 91.8489C269.333 92.7782 269.064 94.0156 268.134 94.6127L161.793 162.943C161.653 163.033 161.502 163.105 161.344 163.158L142.981 169.274C142.114 169.563 141.161 169.227 140.667 168.458L138.681 165.368L136.696 162.279C136.202 161.509 136.292 160.503 136.916 159.834L150.11 145.674C150.223 145.552 150.352 145.444 150.492 145.354L256.833 77.0245Z" fill="#FFEED1"/>
<path d="M256.833 77.0245C257.762 76.4274 259 76.6967 259.597 77.6259L268.736 91.8489C269.333 92.7782 269.064 94.0156 268.134 94.6127L162.21 162.675C161.805 162.935 161.32 163.04 160.844 162.972L156.544 162.353C155.161 162.154 154.403 160.633 155.077 159.409L157.195 155.563C157.961 154.171 156.877 152.485 155.294 152.604L150.915 152.931C149.521 153.036 148.453 151.715 148.847 150.374L150.071 146.206C150.206 145.744 150.504 145.347 150.908 145.087L256.833 77.0245Z" fill="#FFD080"/>
</g>
</g>
<defs>
<filter id="filter0_d_665_4859" x="141.385" y="15.2988" width="35.8516" height="114.429" filterUnits="userSpaceOnUse" color-interpolation-filters="sRGB">
<feFlood flood-opacity="0" result="BackgroundImageFix"/>
<feColorMatrix in="SourceAlpha" type="matrix" values="0 0 0 0 0 0 0 0 0 0 0 0 0 0 0 0 0 0 127 0" result="hardAlpha"/>
<feOffset dy="4"/>
<feGaussianBlur stdDeviation="2"/>
<feComposite in2="hardAlpha" operator="out"/>
<feColorMatrix type="matrix" values="0 0 0 0 0 0 0 0 0 0 0 0 0 0 0 0 0 0 0.25 0"/>
<feBlend mode="normal" in2="BackgroundImageFix" result="effect1_dropShadow_665_4859"/>
<feBlend mode="normal" in="SourceGraphic" in2="effect1_dropShadow_665_4859" result="shape"/>
</filter>
<filter id="filter1_d_665_4859" x="126.846" y="76.707" width="146.207" height="101.873" filterUnits="userSpaceOnUse" color-interpolation-filters="sRGB">
<feFlood flood-opacity="0" result="BackgroundImageFix"/>
<feColorMatrix in="SourceAlpha" type="matrix" values="0 0 0 0 0 0 0 0 0 0 0 0 0 0 0 0 0 0 127 0" result="hardAlpha"/>
<feOffset dy="4"/>
<feGaussianBlur stdDeviation="2"/>
<feComposite in2="hardAlpha" operator="out"/>
<feColorMatrix type="matrix" values="0 0 0 0 0 0 0 0 0 0 0 0 0 0 0 0 0 0 0.25 0"/>
<feBlend mode="normal" in2="BackgroundImageFix" result="effect1_dropShadow_665_4859"/>
<feBlend mode="normal" in="SourceGraphic" in2="effect1_dropShadow_665_4859" result="shape"/>
</filter>
<linearGradient id="paint0_linear_665_4859" x1="93.5" y1="49.5" x2="119.5" y2="295.5" gradientUnits="userSpaceOnUse">
<stop stop-color="white"/>
<stop offset="1" stop-color="#FFEED1"/>
</linearGradient>
<clipPath id="clip0_665_4859">
<rect width="276" height="271" fill="white"/>
</clipPath>
</defs>
</svg>
