<svg width="64" height="64" viewBox="0 0 64 64" fill="none" xmlns="http://www.w3.org/2000/svg">
<path d="M15.9139 37.8241L15.9138 37.8241C15.9106 37.8273 15.9073 37.8306 15.9041 37.8338C15.8759 37.862 15.8477 37.8901 15.8196 37.9181C15.3939 38.3426 14.9848 38.7506 14.6957 39.2612C14.4066 39.7717 14.2673 40.3325 14.1223 40.9159C14.1116 40.9588 14.1009 41.0019 14.0901 41.0451L12.3207 48.1227C12.3143 48.1484 12.3078 48.1744 12.3012 48.2005C12.1983 48.6114 12.0818 49.0761 12.0431 49.4715C12.0001 49.9118 12.004 50.7098 12.6475 51.3532C13.2909 51.9966 14.0888 52.0006 14.5292 51.9575C14.9245 51.9188 15.3892 51.8024 15.8001 51.6994C15.8263 51.6929 15.8522 51.6864 15.8779 51.6799L22.9556 49.9105C22.9987 49.8997 23.0418 49.889 23.0848 49.8783C23.6682 49.7334 24.229 49.594 24.7395 49.3049C25.25 49.0159 25.6581 48.6067 26.0826 48.181C26.1138 48.1497 26.1451 48.1183 26.1766 48.0868L45.3608 28.9026L45.4323 28.8311C46.2599 28.0036 46.9912 27.2724 47.5014 26.6037C48.0545 25.8789 48.4961 25.0428 48.4961 24C48.4961 22.9572 48.0545 22.1211 47.5015 21.3963C46.9912 20.7276 46.2599 19.9964 45.4324 19.169L45.3608 19.0974L44.9033 18.6399L44.8317 18.5683C44.0043 17.7408 43.2731 17.0094 42.6043 16.4992C41.8795 15.9462 41.0434 15.5046 40.0007 15.5046C38.9579 15.5046 38.1218 15.9462 37.397 16.4992C36.7282 17.0094 35.997 17.7408 35.1696 18.5683L35.098 18.6399L15.9139 37.8241Z" stroke="white" stroke-width="3.2"/>
<path d="M33.334 20L44.0007 30.6667" stroke="white" stroke-width="2.66667"/>
</svg>
