<svg width="220" height="220" viewBox="0 0 220 220" fill="none" xmlns="http://www.w3.org/2000/svg">
<g clip-path="url(#clip0_693_4455)">
<rect width="220" height="220" fill="white"/>
<rect width="220" height="220" fill="#14181A"/>
<g filter="url(#filter0_d_693_4455)">
<path d="M193.417 117.234C190.66 117.184 191.812 115.269 189.902 113.272C187.992 111.275 187.541 111.707 185.632 109.712C183.723 107.716 183.688 107.746 181.78 105.751C179.871 103.756 180.21 103.428 178.301 101.433C176.393 99.4375 176.304 99.5189 174.395 97.5236C172.487 95.5283 172.418 95.5905 170.51 93.5952C168.601 91.5999 168.875 91.3346 166.965 89.3376C165.054 87.3406 162.518 88.3672 162.588 85.6087C162.659 82.8501 164.765 83.584 166.778 81.6585C168.791 79.7331 168.847 79.7951 170.86 77.8696C172.873 75.9442 172.682 75.748 174.694 73.8225C176.707 71.8971 176.158 70.6209 178.948 70.6717C181.738 70.7225 181.189 71.9068 183.097 73.9021C185.006 75.8974 184.82 76.078 186.729 78.0734C188.638 80.0687 188.616 80.0927 190.525 82.0881C192.434 84.0834 192.537 83.9876 194.446 85.9829C196.354 87.9782 196.438 87.9016 198.347 89.8969C200.255 91.8923 200.235 91.9147 202.144 93.91C204.053 95.9054 203.877 96.0764 205.787 98.0734C207.698 100.07 210.017 99.4186 209.948 102.176C209.879 104.932 207.707 104.307 205.696 106.231C203.685 108.154 203.417 107.874 201.404 109.8C199.391 111.725 199.045 111.434 197.436 113.708C195.794 116.03 196.207 117.282 193.417 117.231L193.417 117.234Z" fill="url(#paint0_radial_693_4455)"/>
<path d="M122.444 210.438C119.577 210.32 120.528 208.095 118.548 206.025C116.569 203.956 116.723 203.808 114.744 201.738C112.764 199.669 112.429 199.989 110.45 197.919C108.47 195.85 108.354 195.961 106.374 193.891C104.394 191.822 104.305 191.907 102.326 189.837C100.346 187.768 100.874 187.263 98.8943 185.193C96.9146 183.124 96.8507 183.185 94.871 181.115C92.8913 179.046 92.8257 179.108 90.846 177.039C88.8663 174.969 88.7603 175.071 86.7806 173.001C84.8009 170.932 85.1744 170.574 83.1947 168.505C81.215 166.435 80.6363 166.989 78.6566 164.919C76.6769 162.85 77.0504 162.492 75.0706 160.423C73.0909 158.353 73.0354 158.406 71.0541 156.335C69.0728 154.264 66.8627 155.136 66.8712 152.266C66.8797 149.395 69.0318 150.382 71.0236 148.476C73.0155 146.571 72.9337 146.486 74.9255 144.58C76.9174 142.675 77.0777 142.842 79.0695 140.937C81.0614 139.032 80.8129 138.772 82.8047 136.866C84.7966 134.961 84.8992 135.068 86.891 133.163C88.8829 131.258 89.0255 131.407 91.0174 129.501C93.0092 127.596 92.7319 127.306 94.7237 125.401C96.7156 123.495 96.9015 123.69 98.8934 121.784C100.885 119.879 100.97 119.968 102.962 118.062C104.954 116.157 104.903 116.103 106.894 114.198C108.886 112.293 108.739 112.139 110.731 110.233C112.722 108.328 112.766 108.373 114.758 106.468C116.749 104.562 116.552 104.356 118.544 102.451C120.536 100.545 120.839 100.862 122.832 98.9552C124.826 97.0482 124.637 96.8538 126.63 94.9468C128.624 93.0398 128.495 92.909 130.489 91.0021C132.482 89.0951 132.88 89.5139 134.873 87.607C136.867 85.7 136.551 85.3699 138.543 83.4645C140.535 81.5591 139.949 80.1587 142.699 80.2718C145.566 80.389 144.916 81.7102 146.896 83.7798C148.875 85.8493 148.547 86.1631 150.527 88.2327C152.507 90.3022 152.825 89.9981 154.804 92.0676C156.784 94.1371 156.271 94.628 158.251 96.6975C160.23 98.7671 160.646 98.3696 162.626 100.439C164.605 102.509 164.827 102.296 166.807 104.366C168.787 106.435 168.378 106.826 170.358 108.896C172.337 110.965 172.255 111.044 174.235 113.114C176.214 115.183 176.615 114.8 178.594 116.87C180.574 118.939 180.228 119.271 182.207 121.341C184.187 123.41 184.066 123.526 186.046 125.595C188.025 127.665 188.424 127.284 190.404 129.353C192.383 131.423 192.006 131.783 193.988 133.854C195.969 135.926 198.609 134.931 198.601 137.801C198.593 140.672 195.845 139.379 193.853 141.284C191.861 143.19 192.273 143.62 190.281 145.526C188.289 147.431 188.366 147.512 186.374 149.417C184.383 151.322 184.368 151.307 182.376 153.213C180.384 155.118 180.174 154.898 178.183 156.804C176.191 158.709 176.341 158.867 174.35 160.772C172.358 162.677 172.092 162.399 170.1 164.305C168.108 166.21 168.451 166.569 166.459 168.474C164.467 170.379 164.531 170.446 162.54 172.352C160.548 174.257 160.609 174.321 158.617 176.226C156.625 178.132 156.487 177.987 154.495 179.893C152.503 181.798 152.42 181.711 150.428 183.616C148.436 185.522 148.448 185.534 146.456 187.439C144.464 189.344 144.395 189.272 142.402 191.179C140.408 193.086 140.262 192.93 138.269 194.837C136.275 196.744 136.458 196.932 134.464 198.839C132.471 200.746 132.158 200.416 130.165 202.323C128.171 204.23 128.294 204.324 126.781 206.629C125.112 209.169 125.194 210.554 122.445 210.439L122.444 210.438Z" fill="url(#paint1_linear_693_4455)"/>
<path d="M182.913 154.106C180.155 154.078 181.266 152.272 179.365 150.284C177.464 148.297 177.105 148.64 175.204 146.652C173.303 144.665 173.073 144.885 171.172 142.897C169.27 140.91 169.671 140.526 167.77 138.539C165.869 136.552 166.038 136.39 164.137 134.402C162.235 132.415 162.242 132.408 160.341 130.421C158.44 128.433 158.13 128.729 156.229 126.742C154.328 124.754 154.507 124.583 152.606 122.596C150.705 120.608 150.414 120.886 148.513 118.899C146.612 116.911 146.835 116.698 144.934 114.71C143.032 112.723 142.684 113.056 140.783 111.069C138.882 109.081 139.33 108.653 137.429 106.665C135.527 104.678 135.061 105.124 133.16 103.136C131.258 101.149 131.324 101.086 129.422 99.0968C127.519 97.1076 125.43 97.6312 125.521 94.874C125.613 92.1169 127.731 92.7605 129.766 90.8136C131.801 88.8666 132.109 89.1878 134.146 87.2392C136.183 85.2907 136.099 85.2065 138.136 83.2579C140.173 81.3094 139.347 78.9023 142.158 78.9308C144.969 78.9592 144.094 81.2522 145.995 83.2397C147.896 85.2272 147.857 85.2644 149.758 87.2518C151.66 89.2393 151.457 89.4334 153.358 91.4208C155.259 93.4083 155.518 93.1609 157.419 95.1484C159.32 97.1358 158.948 97.4916 160.849 99.4791C162.751 101.467 163.07 101.161 164.971 103.148C166.873 105.136 166.751 105.252 168.652 107.24C170.553 109.227 170.866 108.928 172.767 110.916C174.668 112.903 174.658 112.913 176.559 114.9C178.461 116.888 178.337 117.006 180.238 118.993C182.14 120.981 181.774 121.33 183.676 123.317C185.577 125.305 185.961 124.938 187.862 126.925C189.763 128.913 190.015 128.672 191.916 130.659C193.817 132.647 193.237 133.201 195.14 135.191C197.043 137.18 199.08 136.168 198.985 138.925C198.89 141.682 196.874 140.587 194.839 142.534C192.803 144.481 193.228 144.925 191.191 146.873C189.154 148.822 188.258 148.072 186.614 150.36C184.951 152.675 185.718 154.137 182.907 154.109L182.913 154.106Z" fill="url(#paint2_linear_693_4455)"/>
</g>
<g filter="url(#filter1_d_693_4455)">
<path fill-rule="evenodd" clip-rule="evenodd" d="M84.7538 132.789C93.5158 136.871 105.481 130.219 111.611 117.792C117.74 105.365 115.737 91.8229 107.165 87.355L107.166 87.3524L106.98 87.2608C106.958 87.2497 106.936 87.2386 106.914 87.2276C106.891 87.2167 106.869 87.2057 106.847 87.1949L100.603 84.1149L99.6857 85.9737C92.3206 86.679 84.4122 92.758 79.8029 102.103C75.1935 111.447 75.1831 121.422 79.1059 127.695L78.1888 129.554L84.7523 132.792L84.7538 132.789Z" fill="url(#paint3_linear_693_4455)"/>
<ellipse cx="89.1422" cy="106.711" rx="17.7334" ry="25.3334" transform="rotate(26.2556 89.1422 106.711)" fill="url(#paint4_linear_693_4455)"/>
<path fill-rule="evenodd" clip-rule="evenodd" d="M94.127 97.2421L43.6387 72.3379L34.1751 91.5235L84.6144 116.404C84.6305 116.412 84.6466 116.42 84.6628 116.428C88.2877 118.216 93.3448 115.37 95.9581 110.072C98.5713 104.775 97.7514 99.0306 94.1269 97.2423L94.127 97.2421Z" fill="url(#paint5_linear_693_4455)"/>
<path fill-rule="evenodd" clip-rule="evenodd" d="M29.7206 105.645C38.4826 109.728 50.4474 103.076 56.5773 90.6486C62.7073 78.2214 60.7034 64.6794 52.1316 60.2115L52.1329 60.2089L51.947 60.1172C51.9249 60.1061 51.9026 60.0951 51.8804 60.0841C51.8581 60.0731 51.8358 60.0622 51.8135 60.0514L45.5694 56.9713L44.6525 58.8302C37.2874 59.5355 29.379 65.6145 24.7697 74.959C20.1603 84.3035 20.1499 94.2783 24.0727 100.552L23.1556 102.411L29.7191 105.648L29.7206 105.645Z" fill="url(#paint6_linear_693_4455)"/>
<ellipse cx="34.111" cy="79.5655" rx="17.7334" ry="25.3334" transform="rotate(26.2556 34.111 79.5655)" fill="url(#paint7_linear_693_4455)"/>
</g>
<g filter="url(#filter2_d_693_4455)">
<path fill-rule="evenodd" clip-rule="evenodd" d="M93.8036 56.023L91.9886 52.7994L91.0754 53.3136C87.8009 51.5065 82.7666 51.7866 78.1771 54.3706C73.5876 56.9546 70.7372 61.1138 70.5842 64.8507L69.6714 65.3646L71.3872 68.4121C71.3968 68.4295 71.4065 68.4469 71.4162 68.4643C71.426 68.4816 71.4359 68.4989 71.4458 68.5162L71.4863 68.5882L71.4875 68.5876C73.9788 72.7909 80.8691 73.4292 86.9727 69.9927C93.0762 66.5563 96.1039 60.3339 93.802 56.0239L93.8036 56.023Z" fill="url(#paint8_linear_693_4455)"/>
<ellipse cx="80.7587" cy="58.9589" rx="8.96399" ry="12.8057" transform="rotate(60.6194 80.7587 58.9589)" fill="url(#paint9_linear_693_4455)"/>
<path fill-rule="evenodd" clip-rule="evenodd" d="M85.5414 56.4298L71.5801 31.6328L62.1572 36.9381L76.091 61.6862C76.0998 61.7025 76.1087 61.7188 76.1178 61.7349C77.1202 63.5153 80.0421 63.7709 82.6442 62.3059C85.246 60.841 86.5428 58.2104 85.5409 56.4301L85.5414 56.4298Z" fill="url(#paint10_linear_693_4455)"/>
<path fill-rule="evenodd" clip-rule="evenodd" d="M78.5849 28.9957L76.7699 25.7721L75.8568 26.2862C72.5823 24.479 67.548 24.7592 62.9585 27.3432C58.369 29.9272 55.5186 34.0863 55.3656 37.8232L54.4526 38.3372L56.1826 41.4099C56.1876 41.4189 56.1926 41.4278 56.1977 41.4368C56.2027 41.4458 56.2078 41.4547 56.2129 41.4637L56.2676 41.5609L56.2689 41.5601C58.7602 45.7635 65.6506 46.4017 71.7541 42.9653C77.8577 39.5288 80.8853 33.3065 78.5834 28.9965L78.5849 28.9957Z" fill="url(#paint11_linear_693_4455)"/>
<ellipse cx="65.54" cy="31.9305" rx="8.96399" ry="12.8057" transform="rotate(60.6194 65.54 31.9305)" fill="url(#paint12_linear_693_4455)"/>
</g>
<path d="M96.6977 143.005C96.6921 143.102 96.7838 143.206 96.7773 143.304C96.7707 143.401 96.5638 143.484 96.5563 143.582C96.5489 143.68 96.5064 143.774 96.4989 143.871C96.4915 143.969 96.4894 144.065 96.4819 144.163C96.4745 144.26 96.5074 144.36 96.4999 144.457C96.4925 144.555 96.2971 144.636 96.2888 144.734C96.2804 144.832 96.516 144.949 96.5077 145.046C96.4994 145.144 96.4191 145.235 96.4106 145.331C96.4021 145.428 96.2756 145.514 96.2673 145.612C96.259 145.71 96.5053 145.831 96.496 145.928C96.4866 146.025 96.2852 146.103 96.275 146.2C96.2647 146.297 96.5513 146.426 96.5411 146.523C96.5308 146.62 96.2635 146.689 96.2524 146.787C96.2412 146.884 96.3792 146.998 96.3671 147.095C96.3549 147.191 96.2142 147.273 96.2021 147.371C96.1901 147.468 96.2216 147.571 96.2086 147.667C96.1956 147.764 96.2747 147.874 96.2606 147.97C96.2466 148.066 95.9325 148.121 95.9184 148.217C95.9044 148.313 95.868 148.406 95.8531 148.502C95.8381 148.598 96.0581 148.731 96.0422 148.827C96.0264 148.923 95.9323 149.007 95.9164 149.103C95.9006 149.199 95.8895 149.297 95.8726 149.392C95.8557 149.487 95.7483 149.568 95.7306 149.663C95.7128 149.759 95.9137 149.897 95.8949 149.992C95.8761 150.087 95.6964 150.152 95.6767 150.247C95.657 150.342 95.536 150.417 95.5153 150.511C95.4946 150.605 95.4628 150.698 95.4412 150.792C95.4196 150.887 95.5408 151.016 95.5184 151.11C95.4959 151.205 95.4462 151.294 95.4218 151.387C95.3974 151.481 95.454 151.599 95.4277 151.692C95.4014 151.785 95.3614 151.878 95.3341 151.97C95.3067 152.063 95.2227 152.141 95.1935 152.233C95.1642 152.325 95.1662 152.43 95.135 152.522C95.1039 152.613 94.9478 152.661 94.9147 152.752C94.8816 152.842 95.1647 153.059 95.1296 153.148C95.0945 153.237 94.7342 153.195 94.6953 153.283C94.6564 153.371 94.8758 153.582 94.834 153.669C94.7921 153.756 94.5188 153.729 94.4737 153.813C94.4286 153.896 94.448 154.02 94.3989 154.101C94.3468 154.186 94.4241 154.354 94.369 154.432C94.3119 154.515 94.3476 154.678 94.2873 154.752C94.2241 154.83 94.1377 154.911 94.0719 154.979C94.0014 155.051 93.6723 154.837 93.599 154.896C93.5216 154.959 93.552 155.154 93.4698 155.203C93.3875 155.252 93.3556 155.449 93.2656 155.484C93.1756 155.519 92.9902 155.241 92.8939 155.259C92.7959 155.278 92.7261 155.471 92.6262 155.471C92.5262 155.471 92.4443 155.326 92.3453 155.309C92.2464 155.293 92.1803 155.225 92.0839 155.196C91.9874 155.166 91.8782 155.224 91.7848 155.185C91.6914 155.146 91.6581 155.014 91.5689 154.967C91.4797 154.921 91.3683 154.941 91.2818 154.888C91.1954 154.835 91.0979 154.817 91.0144 154.76C90.931 154.703 90.919 154.563 90.8395 154.503C90.7601 154.442 90.5282 154.581 90.4501 154.518C90.372 154.455 90.2433 154.452 90.1676 154.386C90.0918 154.321 89.9979 154.273 89.9238 154.206C89.8498 154.14 89.7657 154.079 89.6933 154.011C89.6208 153.944 89.6836 153.729 89.612 153.661C89.5404 153.593 89.5929 153.394 89.5221 153.325C89.4512 153.257 89.1482 153.423 89.0774 153.354C89.0066 153.285 89.1443 152.998 89.0737 152.93C89.003 152.862 88.725 153.003 88.6554 152.936C88.5816 152.866 88.5227 152.786 88.4517 152.721C88.3753 152.651 88.3914 152.487 88.3189 152.425C88.239 152.356 88.2018 152.24 88.1267 152.185C88.0402 152.12 87.9872 151.997 87.9092 151.952C87.8112 151.895 87.6174 152.12 87.5334 152.101C87.4249 152.076 87.4615 152.106 87.3784 152.156C87.2976 152.203 87.0603 152.088 87.0252 152.194C86.9989 152.275 87.2877 152.407 87.2844 152.519C87.282 152.608 87.242 152.684 87.2525 152.791C87.2615 152.883 86.8801 153.037 86.8981 153.14C86.9144 153.232 86.9621 153.334 86.9842 153.434C87.0041 153.527 87.4 153.535 87.4247 153.634C87.4484 153.727 87.3341 153.857 87.3614 153.955C87.3868 154.048 87.5299 154.108 87.5588 154.205C87.5877 154.302 87.2744 154.496 87.304 154.592C87.3337 154.689 87.7472 154.658 87.7776 154.754C87.8079 154.849 87.8228 154.944 87.8532 155.039C87.8836 155.134 87.5453 155.348 87.5764 155.443C87.6076 155.537 87.9632 155.52 87.9954 155.615C88.0275 155.71 87.9744 155.829 88.0066 155.924C88.0387 156.019 87.9435 156.154 87.9756 156.248C88.0076 156.342 88.2638 156.359 88.2958 156.453C88.3279 156.547 88.1663 156.705 88.1983 156.799C88.2303 156.893 88.0893 157.043 88.1205 157.138C88.1516 157.232 88.2032 157.317 88.2343 157.412C88.2655 157.506 88.6648 157.478 88.695 157.572C88.7253 157.666 88.7652 157.758 88.7954 157.853C88.8257 157.947 88.6048 158.122 88.6342 158.216C88.6636 158.311 88.6356 158.422 88.6641 158.517C88.6926 158.612 88.6393 158.73 88.6668 158.824C88.6942 158.918 88.9316 158.953 88.9582 159.047C88.9848 159.141 89.1969 159.19 89.2217 159.284C89.2465 159.379 88.9906 159.55 89.0136 159.644C89.0366 159.739 88.9705 159.856 88.9926 159.951C89.0148 160.046 89.2943 160.089 89.3138 160.185C89.3333 160.28 89.3336 160.386 89.3504 160.482C89.3672 160.577 89.2205 160.703 89.2336 160.798C89.2476 160.899 89.5268 160.969 89.5354 161.064C89.5441 161.166 89.5511 161.275 89.5544 161.371C89.5577 161.473 89.1924 161.567 89.1872 161.662C89.1817 161.765 89.2865 161.86 89.2711 161.953C89.2545 162.056 89.4526 162.212 89.423 162.301C89.3901 162.399 89.3913 162.557 89.3411 162.637C89.2871 162.722 89.1292 162.787 89.0535 162.85C88.9772 162.914 88.7553 162.722 88.6634 162.757C88.5715 162.791 88.5322 162.964 88.4307 162.972C88.3381 162.979 88.2417 162.938 88.139 162.926C88.0474 162.916 87.9409 162.95 87.8416 162.926C87.7508 162.904 87.7075 162.72 87.6105 162.687C87.5221 162.657 87.4657 162.558 87.3725 162.52C87.2849 162.484 87.1951 162.468 87.1047 162.425C87.0193 162.385 86.8224 162.566 86.7333 162.52C86.6491 162.476 86.6771 162.22 86.5896 162.172C86.502 162.124 86.3219 162.257 86.2358 162.206C86.1498 162.156 85.979 162.256 85.8937 162.205C85.8084 162.153 85.7992 161.985 85.7155 161.933C85.6319 161.88 85.6044 161.745 85.5214 161.692C85.4385 161.639 85.2279 161.785 85.1457 161.731C85.0635 161.677 85.1047 161.441 85.0224 161.386C84.9401 161.33 84.7626 161.422 84.6812 161.366C84.5998 161.311 84.541 161.227 84.4595 161.17C84.3779 161.114 84.409 160.901 84.3284 160.844C84.2477 160.788 84.1921 160.7 84.1116 160.645C84.031 160.589 83.9708 160.507 83.8903 160.451C83.8098 160.396 83.5504 160.597 83.4706 160.541C83.3908 160.484 83.4575 160.219 83.3769 160.164C83.2964 160.108 83.1128 160.201 83.0321 160.145C82.9515 160.088 83.0477 159.781 82.9681 159.725C82.8884 159.669 82.6878 159.787 82.6073 159.731C82.5267 159.676 82.541 159.483 82.4606 159.428C82.3802 159.373 82.1024 159.608 82.0209 159.552C81.9395 159.497 82.0664 159.135 81.9851 159.081C81.9038 159.026 81.8194 158.975 81.7374 158.921C81.6553 158.868 81.5342 158.872 81.4523 158.82C81.3704 158.767 81.177 158.885 81.0952 158.833C81.0135 158.781 81.023 158.581 80.9403 158.529C80.8577 158.477 80.7261 158.503 80.6427 158.452C80.5593 158.401 80.4225 158.439 80.3391 158.389C80.2557 158.338 80.1525 158.323 80.0685 158.275C79.9845 158.226 80.0296 157.945 79.9448 157.898C79.8601 157.85 79.7097 157.917 79.6243 157.872C79.5389 157.826 79.3973 157.885 79.3105 157.842C79.2236 157.798 79.1413 157.748 79.0537 157.706C78.966 157.663 78.8964 157.584 78.8083 157.544C78.7202 157.504 78.6915 157.321 78.602 157.284C78.5124 157.246 78.3299 157.439 78.239 157.404C78.1481 157.369 78.1793 156.994 78.0879 156.962C77.9965 156.93 77.8899 156.912 77.7982 156.883C77.7064 156.855 77.6085 156.798 77.5149 156.776C77.4214 156.753 77.2361 157.131 77.1414 157.113C77.0468 157.096 77.0084 156.7 76.9129 156.688C76.8175 156.677 76.6884 156.984 76.5922 156.98C76.496 156.975 76.3995 156.713 76.3028 156.717C76.206 156.72 76.0832 156.633 75.9871 156.646C75.891 156.659 75.8476 156.997 75.7539 157.02C75.6602 157.043 75.6059 157.143 75.5148 157.177C75.4236 157.21 75.2576 157.05 75.17 157.094C75.0817 157.14 75.0092 157.211 74.9304 157.266C74.8517 157.32 74.6698 157.267 74.5981 157.332C74.5265 157.397 74.6048 157.619 74.541 157.693C74.4773 157.768 74.5254 157.906 74.4701 157.989C74.4148 158.071 74.3986 158.147 74.3515 158.236C74.3045 158.324 73.8829 158.227 73.8437 158.32C73.8046 158.412 73.98 158.586 73.9485 158.681C73.917 158.776 73.7458 158.826 73.72 158.922C73.6941 159.018 73.7099 159.124 73.6889 159.222C73.6678 159.32 73.6697 159.419 73.6534 159.518C73.6371 159.617 73.6748 159.718 73.6622 159.818C73.6496 159.917 73.5326 160 73.5226 160.099C73.5126 160.197 73.4298 160.289 73.4225 160.388C73.4152 160.486 73.5391 160.592 73.5337 160.691C73.5284 160.79 73.7346 160.894 73.7309 160.992C73.7273 161.091 73.4483 161.179 73.4466 161.278C73.4449 161.377 73.4627 161.474 73.4619 161.573C73.4611 161.672 73.6234 161.768 73.6242 161.866C73.625 161.964 73.6727 162.059 73.6744 162.157C73.6761 162.255 73.3758 162.357 73.3777 162.456C73.3795 162.555 73.7739 162.64 73.7765 162.738C73.7791 162.836 73.6665 162.935 73.6701 163.034C73.6738 163.133 73.7483 163.225 73.752 163.324C73.7556 163.422 73.7316 163.519 73.7353 163.618C73.7389 163.716 73.8531 163.806 73.8576 163.905C73.8621 164.003 73.6099 164.111 73.6143 164.208C73.6186 164.306 73.6103 164.404 73.6147 164.501C73.6191 164.599 73.5827 164.697 73.5872 164.795C73.5917 164.894 73.8712 164.977 73.8757 165.076C73.8803 165.174 73.8529 165.272 73.8573 165.37C73.8616 165.467 73.6737 165.573 73.678 165.67C73.6824 165.768 73.7843 165.861 73.7887 165.959C73.7931 166.056 73.5679 166.162 73.5714 166.26C73.5749 166.358 73.8385 166.444 73.8421 166.543C73.8458 166.642 73.5649 166.747 73.5685 166.845C73.5722 166.944 73.5989 167.038 73.6015 167.136C73.6041 167.234 73.6634 167.328 73.6662 167.427C73.6689 167.526 73.6911 167.62 73.6929 167.719C73.6948 167.818 73.8802 167.911 73.882 168.009C73.8837 168.107 73.7009 168.205 73.7018 168.303C73.7026 168.402 74.0266 168.496 74.0265 168.594C74.0265 168.693 73.97 168.791 73.9699 168.889C73.9699 168.987 73.8005 169.084 73.7994 169.181C73.7983 169.278 73.5867 169.373 73.5857 169.471C73.5848 169.569 73.8142 169.67 73.8113 169.767C73.8085 169.865 73.79 169.962 73.7872 170.06C73.7845 170.159 73.9534 170.262 73.9496 170.359C73.9459 170.457 73.6061 170.541 73.6015 170.639C73.5969 170.737 73.6752 170.836 73.6706 170.934C73.666 171.032 73.5941 171.124 73.5885 171.223C73.583 171.321 73.9264 171.441 73.9198 171.538C73.9133 171.635 73.6529 171.714 73.6456 171.813C73.6383 171.911 73.5624 172.001 73.5541 172.099C73.5458 172.197 73.8473 172.322 73.838 172.419C73.8286 172.516 73.8196 172.615 73.8095 172.713C73.7994 172.811 73.3829 172.862 73.3717 172.96C73.3606 173.057 73.4047 173.158 73.3927 173.255C73.3807 173.353 73.7063 173.493 73.6934 173.59C73.6805 173.688 73.2852 173.73 73.2713 173.826C73.2573 173.923 73.5963 174.073 73.5815 174.17C73.5667 174.266 73.3634 174.333 73.3476 174.429C73.3317 174.525 73.4899 174.652 73.4731 174.748C73.4564 174.845 73.3828 174.932 73.3652 175.028C73.3475 175.125 73.3553 175.226 73.3358 175.322C73.3162 175.418 73.2687 175.509 73.2481 175.604C73.2276 175.699 73.3289 175.823 73.3074 175.918C73.286 176.013 72.9675 176.041 72.9452 176.136C72.9228 176.231 73.2021 176.4 73.1778 176.495C73.1536 176.59 72.8956 176.626 72.8704 176.72C72.8453 176.815 72.7515 176.89 72.7254 176.984C72.6992 177.078 72.8938 177.235 72.8668 177.329C72.8397 177.424 72.8205 177.521 72.7924 177.615C72.7644 177.708 72.6678 177.782 72.6387 177.875C72.6096 177.968 72.4811 178.03 72.4503 178.123C72.4194 178.216 72.3018 178.278 72.2699 178.37C72.238 178.463 72.1471 178.532 72.1142 178.624C72.0813 178.715 72.0432 178.803 72.0085 178.895C71.9738 178.987 72.1128 179.142 72.0772 179.234C72.0416 179.326 71.8435 179.35 71.8069 179.441C71.7702 179.532 71.7768 179.638 71.7391 179.728C71.7015 179.819 71.6956 179.921 71.6561 180.01C71.6165 180.1 71.5804 180.189 71.5399 180.279C71.4995 180.369 71.4338 180.443 71.3923 180.532C71.3509 180.621 71.2271 180.667 71.1846 180.755C71.1421 180.844 71.2173 180.987 71.1728 181.075C71.1284 181.162 71.3145 181.369 71.269 181.456C71.2236 181.543 71.1202 181.603 71.0738 181.689C71.0273 181.776 70.8131 181.772 70.7656 181.858C70.7181 181.943 70.8793 182.148 70.83 182.234C70.7808 182.32 70.4974 182.27 70.4479 182.354C70.3983 182.438 70.567 182.655 70.5165 182.739C70.4661 182.824 70.1742 182.76 70.1218 182.843C70.0695 182.927 70.2372 183.15 70.1829 183.233C70.1287 183.316 70.0279 183.369 69.9733 183.45C69.9188 183.532 69.9502 183.674 69.8948 183.755C69.8394 183.837 69.4872 183.713 69.4306 183.793C69.374 183.872 69.306 183.943 69.2484 184.022C69.1907 184.101 69.4004 184.377 69.3418 184.456C69.2832 184.534 69.2315 184.622 69.1718 184.7C69.1122 184.777 69.0325 184.843 68.9729 184.921C68.9132 184.998 68.8699 185.093 68.8092 185.17C68.7485 185.247 68.4799 185.157 68.418 185.233C68.3561 185.308 68.2222 185.323 68.1595 185.399C68.0967 185.474 68.0589 185.569 67.995 185.643C67.931 185.716 68.0784 185.978 68.0135 186.051C67.9485 186.124 67.6935 186.028 67.6277 186.101C67.5619 186.174 67.714 186.449 67.6472 186.521C67.5803 186.593 67.5032 186.658 67.4353 186.73C67.3674 186.801 67.0853 186.666 67.0172 186.736C66.949 186.806 67.143 187.138 67.0738 187.207C67.0046 187.276 66.9257 187.341 66.8555 187.41C66.7853 187.478 66.7214 187.558 66.6502 187.625C66.579 187.693 66.346 187.593 66.2746 187.66C66.2033 187.726 66.2026 187.873 66.1303 187.94C66.058 188.007 65.9687 188.057 65.8961 188.122C65.8236 188.187 65.7786 188.289 65.705 188.353C65.6315 188.417 65.375 188.272 65.3006 188.336C65.2261 188.401 65.3806 188.737 65.305 188.799C65.2293 188.862 64.9825 188.72 64.9068 188.783C64.8312 188.845 64.8799 189.063 64.804 189.124C64.7281 189.185 64.6023 189.189 64.5253 189.249C64.4484 189.309 64.2284 189.187 64.1504 189.247C64.0725 189.306 63.9898 189.359 63.9117 189.418C63.8336 189.476 63.9691 189.824 63.89 189.882C63.8109 189.94 63.7027 189.963 63.6234 190.02C63.5442 190.077 63.4602 190.133 63.3799 190.19C63.2996 190.246 63.2601 190.365 63.1797 190.42C63.0992 190.475 62.927 190.403 62.8464 190.458C62.7659 190.512 62.5643 190.392 62.4837 190.446C62.4031 190.501 62.5218 190.863 62.4401 190.916C62.3583 190.969 62.1616 190.851 62.079 190.904C61.9964 190.957 62.0208 191.182 61.9389 191.234C61.857 191.286 61.6016 191.066 61.5187 191.117" stroke="#500DA6" stroke-width="2.78109" stroke-miterlimit="10"/>
<path d="M144 166.295C144.138 166.305 144.274 166.309 144.413 166.32C144.552 166.332 144.695 166.242 144.834 166.253C144.973 166.265 145.133 165.989 145.27 166C145.408 166.012 145.525 166.268 145.664 166.28C145.803 166.291 145.949 166.176 146.087 166.189C146.225 166.201 146.375 166.069 146.513 166.081C146.651 166.094 146.794 166.052 146.932 166.065C147.069 166.077 147.17 166.464 147.308 166.478C147.446 166.492 147.6 166.323 147.738 166.337C147.876 166.35 148.03 166.199 148.168 166.213C148.306 166.227 148.442 166.252 148.58 166.267C148.718 166.282 148.849 166.356 148.987 166.371C149.125 166.386 149.237 166.618 149.375 166.635C149.513 166.651 149.69 166.32 149.826 166.337C149.963 166.353 150.041 166.876 150.179 166.893C150.317 166.909 150.455 166.907 150.592 166.923C150.73 166.94 150.86 166.998 150.998 167.015C151.136 167.033 151.346 166.478 151.484 166.496C151.621 166.514 151.686 167.069 151.824 167.087C151.962 167.106 152.159 166.68 152.295 166.699C152.432 166.718 152.518 167.101 152.656 167.12C152.793 167.139 152.908 167.294 153.046 167.314C153.184 167.334 153.387 166.902 153.524 166.922C153.661 166.942 153.816 166.852 153.953 166.874C154.089 166.895 154.179 167.215 154.315 167.238C154.452 167.261 154.595 167.249 154.73 167.272C154.865 167.295 154.966 167.531 155.103 167.555C155.239 167.579 155.427 167.31 155.563 167.334C155.7 167.358 155.868 167.213 156.003 167.238C156.138 167.263 156.284 167.254 156.419 167.28C156.554 167.305 156.578 167.917 156.713 167.943C156.849 167.97 157.046 167.685 157.181 167.713C157.316 167.741 157.41 167.974 157.545 168.003C157.68 168.032 157.827 168.005 157.962 168.034C158.098 168.063 158.238 168.066 158.373 168.095C158.508 168.124 158.659 168.084 158.794 168.115C158.929 168.147 159.029 168.324 159.163 168.357C159.297 168.39 159.406 168.524 159.54 168.556C159.674 168.589 159.852 168.445 159.986 168.479C160.12 168.513 160.329 168.263 160.463 168.299C160.597 168.334 160.63 168.747 160.762 168.784C160.895 168.821 161.035 168.832 161.167 168.87C161.298 168.908 161.496 168.727 161.628 168.766C161.761 168.805 161.914 168.783 162.046 168.822C162.177 168.861 162.182 169.31 162.314 169.352C162.445 169.393 162.747 168.913 162.877 168.956C163.008 168.999 163.09 169.199 163.22 169.243C163.35 169.287 163.517 169.24 163.646 169.287C163.775 169.334 163.895 169.42 164.024 169.468C164.153 169.516 164.341 169.424 164.469 169.473C164.597 169.522 164.594 169.91 164.722 169.962C164.849 170.014 164.969 170.085 165.096 170.139C165.222 170.193 165.325 170.302 165.45 170.358C165.575 170.413 165.866 170.121 165.99 170.181C166.113 170.24 166.225 170.344 166.347 170.405C166.47 170.465 166.473 170.771 166.594 170.836C166.715 170.9 166.905 170.845 167.025 170.911C167.145 170.978 167.103 171.326 167.221 171.397C167.338 171.468 167.648 171.228 167.763 171.3C167.878 171.372 167.776 171.782 167.89 171.858C168.003 171.934 168.131 171.982 168.241 172.063C168.351 172.144 168.506 172.159 168.614 172.244C168.721 172.329 168.844 172.391 168.949 172.479C169.054 172.568 169.331 172.466 169.431 172.559C169.53 172.651 169.451 172.934 169.547 173.033C169.643 173.131 170.074 172.927 170.165 173.029C170.256 173.131 170.294 173.302 170.379 173.409C170.463 173.517 170.36 173.776 170.438 173.889C170.516 174.001 170.337 174.27 170.408 174.388C170.479 174.505 170.826 174.462 170.888 174.585C170.95 174.708 170.987 174.844 171.04 174.972C171.093 175.1 171.371 175.154 171.414 175.285C171.457 175.417 171.04 175.679 171.071 175.813C171.104 175.948 171.242 176.045 171.264 176.178C171.285 176.311 171.207 176.447 171.217 176.582C171.227 176.718 171.725 176.842 171.724 176.978C171.722 177.115 171.36 177.245 171.348 177.38C171.337 177.515 171.226 177.632 171.204 177.767C171.183 177.902 171.586 178.123 171.556 178.256C171.525 178.389 171.486 178.537 171.447 178.668C171.408 178.8 170.82 178.748 170.774 178.877C170.729 179.006 170.757 179.149 170.704 179.275C170.65 179.401 171.035 179.72 170.977 179.844C170.918 179.968 170.372 179.85 170.309 179.973C170.246 180.095 170.628 180.451 170.561 180.571C170.494 180.691 170.194 180.677 170.125 180.796C170.055 180.915 170.198 181.16 170.125 181.277C170.051 181.395 169.912 181.468 169.838 181.585C169.763 181.701 169.721 181.836 169.645 181.951C169.57 182.066 169.46 182.157 169.383 182.27C169.305 182.382 169.374 182.596 169.297 182.708C169.219 182.821 168.79 182.691 168.711 182.803C168.633 182.916 168.917 183.277 168.839 183.39C168.761 183.502 168.404 183.423 168.327 183.535C168.25 183.648 168.089 183.706 168.013 183.82C167.938 183.933 168.131 184.225 168.056 184.34C167.982 184.455 167.92 184.574 167.847 184.689C167.773 184.804 167.619 184.866 167.548 184.983C167.477 185.099 167.283 185.143 167.215 185.261C167.146 185.378 166.966 185.439 166.9 185.558C166.834 185.677 166.69 185.765 166.628 185.886C166.566 186.008 166.497 186.138 166.44 186.262C166.383 186.386 166.566 186.621 166.514 186.747C166.462 186.874 166.182 186.922 166.136 187.051C166.091 187.18 166.108 187.341 166.071 187.473C166.033 187.604 166.044 187.759 166.014 187.891C165.983 188.024 165.961 188.168 165.939 188.303C165.918 188.439 165.861 188.58 165.849 188.717C165.838 188.853 165.703 189.001 165.701 189.138C165.7 189.274 165.888 189.421 165.899 189.557C165.909 189.694 166.284 189.784 166.304 189.92C166.325 190.054 166.259 190.191 166.289 190.327C166.32 190.464 166.096 190.66 166.138 190.794C166.179 190.928 166.541 190.938 166.591 191.068C166.642 191.198 166.345 191.469 166.404 191.595C166.464 191.722 166.845 191.672 166.914 191.795C166.982 191.918 166.71 192.234 166.786 192.352C166.862 192.471 167.24 192.374 167.322 192.488C167.404 192.601 167.417 192.748 167.505 192.858C167.594 192.968 167.786 192.967 167.879 193.072C167.973 193.177 167.69 193.618 167.788 193.719C167.887 193.82 167.972 193.936 168.074 194.033C168.177 194.129 168.591 193.877 168.696 193.971C168.801 194.064 168.907 194.134 169.015 194.223C169.122 194.313 169.202 194.418 169.312 194.504C169.422 194.59 169.546 194.638 169.659 194.721C169.773 194.805 169.663 195.184 169.778 195.264C169.893 195.343 169.934 195.529 170.051 195.608C170.169 195.686 170.31 195.721 170.429 195.796C170.548 195.871 170.872 195.603 170.991 195.675C171.109 195.747 171.044 196.122 171.165 196.192C171.286 196.261 171.609 195.962 171.731 196.03C171.854 196.098 171.96 196.174 172.083 196.24C172.205 196.305 172.131 196.736 172.255 196.801C172.379 196.865 172.734 196.458 172.859 196.52C172.984 196.582 173.094 196.652 173.22 196.711C173.347 196.771 173.471 196.811 173.597 196.869C173.724 196.927 173.707 197.281 173.835 197.338C173.962 197.395 174.145 197.312 174.272 197.367C174.4 197.423 174.51 197.504 174.638 197.558C174.765 197.613 174.914 197.602 175.042 197.656C175.17 197.709 175.15 198.121 175.278 198.173C175.407 198.224 175.717 197.807 175.846 197.857C175.975 197.906 175.966 198.305 176.096 198.355C176.227 198.404 176.452 198.186 176.582 198.234C176.712 198.283 176.802 198.428 176.932 198.476C177.062 198.524 177.081 198.875 177.213 198.922C177.344 198.969 177.469 199.025 177.601 199.07C177.732 199.116 178.023 198.679 178.154 198.724C178.286 198.768 178.393 198.872 178.525 198.915C178.656 198.958 178.783 199.004 178.915 199.046C179.048 199.088 179.206 199.03 179.339 199.071C179.472 199.113 179.534 199.365 179.666 199.405C179.799 199.446 179.842 199.772 179.975 199.811C180.107 199.85 180.386 199.392 180.518 199.432C180.651 199.471 180.699 199.788 180.832 199.827C180.965 199.866 181.173 199.629 181.307 199.667C181.441 199.705 181.449 200.177 181.581 200.214C181.714 200.251 181.947 199.923 182.079 199.96C182.212 199.997 182.28 200.265 182.414 200.301C182.548 200.338 182.638 200.529 182.772 200.564C182.906 200.6 183.136 200.256 183.27 200.29C183.404 200.324 183.45 200.697 183.584 200.731C183.718 200.765 183.948 200.406 184.083 200.44C184.218 200.475 184.345 200.521 184.48 200.554C184.615 200.587 184.752 200.597 184.886 200.63C185.02 200.663 185.045 201.143 185.18 201.175C185.316 201.206 185.548 200.811 185.684 200.841C185.819 200.871 185.948 200.914 186.083 200.945C186.218 200.975 186.285 201.295 186.419 201.325C186.553 201.356 186.667 201.478 186.802 201.509C186.938 201.539 187.149 201.213 187.284 201.243C187.419 201.273 187.542 201.346 187.677 201.375C187.812 201.404 187.903 201.631 188.039 201.659C188.174 201.687 188.26 201.946 188.395 201.974C188.53 202.002 188.753 201.602 188.888 201.63C189.023 201.658 189.111 201.914 189.246 201.942C189.381 201.97 189.484 202.157 189.619 202.184C189.754 202.21 189.893 202.217 190.028 202.244C190.164 202.272 190.355 202.008 190.491 202.034C190.628 202.061 190.774 202.014 190.911 202.04C191.047 202.065 191.201 201.978 191.338 202.004C191.475 202.031 191.52 202.525 191.657 202.55C191.793 202.576 191.992 202.252 192.128 202.276C192.265 202.3 192.322 202.751 192.457 202.777C192.592 202.802 192.833 202.238 192.97 202.263C193.107 202.289 193.158 202.777 193.295 202.801C193.431 202.825 193.6 202.658 193.736 202.682C193.873 202.706 193.976 202.911 194.113 202.933C194.249 202.956 194.372 203.052 194.508 203.075C194.645 203.098 194.793 203.047 194.929 203.07C195.066 203.093 195.276 202.665 195.412 202.688C195.549 202.711 195.671 202.801 195.808 202.822C195.945 202.844 196.052 203.037 196.188 203.06C196.325 203.082 196.486 202.943 196.622 202.965C196.759 202.986 196.845 203.318 196.981 203.339C197.118 203.361 197.236 203.483 197.374 203.505C197.512 203.526 197.638 203.601 197.775 203.621C197.912 203.641 198.111 203.24 198.248 203.262C198.384 203.283 198.458 203.714 198.594 203.736C198.731 203.757 198.941 203.276 199.078 203.296C199.216 203.316 199.326 203.5 199.464 203.52C199.602 203.54 199.737 203.554 199.873 203.574C200.01 203.594 200.14 203.651 200.277 203.672C200.413 203.692 200.523 203.89 200.661 203.909C200.799 203.928 200.944 203.876 201.081 203.895C201.217 203.914 201.373 203.787 201.51 203.806C201.648 203.824 201.795 203.755 201.931 203.773C202.068 203.79 202.198 203.854 202.335 203.873C202.471 203.891 202.555 204.304 202.692 204.323C202.83 204.342 202.96 204.4 203.098 204.417C203.236 204.435 203.413 204.139 203.55 204.157C203.686 204.175 203.842 204.044 203.979 204.062C204.117 204.08 204.208 204.436 204.346 204.454C204.484 204.472 204.62 204.486 204.757 204.503C204.893 204.521 205.084 204.103 205.222 204.119C205.36 204.135 205.493 204.175 205.629 204.191C205.766 204.208 205.896 204.278 206.034 204.295C206.171 204.311 206.281 204.548 206.418 204.565" stroke="#FF7F7F" stroke-width="2.78109" stroke-miterlimit="10"/>
<path d="M11.9518 17.1314C11.9276 17.1849 11.7829 17.1845 11.7593 17.238C11.7357 17.2915 11.8314 17.3988 11.8083 17.4529C11.7852 17.507 11.8198 17.5857 11.7967 17.6392C11.7736 17.6928 11.7229 17.7347 11.7003 17.7889C11.6777 17.843 11.6712 17.9035 11.6486 17.9576C11.626 18.0118 11.457 18.006 11.435 18.0602C11.4129 18.1144 11.5388 18.2286 11.5173 18.2829C11.4957 18.3371 11.3416 18.3402 11.3206 18.3945C11.2996 18.4488 11.2382 18.4892 11.2177 18.5441C11.1972 18.599 11.29 18.6973 11.2695 18.7522C11.249 18.8071 11.2081 18.8548 11.1875 18.9096C11.167 18.9645 11.2543 19.0581 11.2348 19.1136C11.2153 19.1691 11.0555 19.1749 11.0361 19.2299C11.0167 19.2848 11.1239 19.3845 11.105 19.4395C11.0861 19.4945 10.9701 19.5177 10.9517 19.5733C10.9333 19.6289 10.8513 19.6643 10.8329 19.7199C10.8145 19.7755 10.9362 19.8764 10.9189 19.9321C10.9015 19.9878 10.8915 20.0463 10.8741 20.102C10.8568 20.1577 10.9094 20.2347 10.8925 20.291C10.8757 20.3472 10.6836 20.3513 10.6668 20.4076C10.6499 20.4639 10.6346 20.5208 10.6188 20.5772C10.603 20.6335 10.5239 20.6735 10.5081 20.7299C10.4924 20.7862 10.5049 20.8516 10.4897 20.908C10.4744 20.9644 10.582 21.0539 10.5673 21.1103C10.5526 21.1668 10.5579 21.2288 10.5437 21.2853C10.5296 21.3418 10.445 21.3819 10.4313 21.439C10.4177 21.4961 10.3976 21.5515 10.3845 21.6086C10.3713 21.6658 10.3343 21.7181 10.3212 21.7747C10.3081 21.8313 10.2874 21.8878 10.2748 21.945C10.2622 22.0022 10.231 22.0561 10.2189 22.1134C10.2068 22.1706 10.2249 22.2348 10.2133 22.2926C10.2017 22.3505 10.1083 22.3924 10.0973 22.4503C10.0862 22.5081 10.1234 22.5757 10.1129 22.6331C10.1025 22.6904 10.1275 22.7553 10.117 22.8132C10.1065 22.8711 10.138 22.936 10.1285 22.994C10.119 23.052 10.1623 23.1185 10.1534 23.176C10.1446 23.2335 10.1389 23.2918 10.1299 23.3499C10.121 23.408 10.1105 23.4653 10.1027 23.5235C10.0948 23.5816 10.0091 23.6291 10.0018 23.6873C9.9945 23.7455 9.98929 23.8044 9.98198 23.8626C9.97467 23.9208 10.1175 23.9966 10.1113 24.0549C10.105 24.1132 9.86351 24.1458 9.85732 24.2036C9.85113 24.2614 9.82064 24.3191 9.81494 24.3775C9.80923 24.4358 9.9298 24.507 9.92468 24.5648C9.91956 24.6227 9.82265 24.6746 9.81802 24.733C9.81339 24.7914 9.85156 24.8542 9.84751 24.9121C9.84346 24.9701 9.91606 25.0343 9.9125 25.0928C9.90894 25.1513 9.88551 25.2086 9.88249 25.2672C9.87946 25.3258 9.8872 25.3848 9.88417 25.4434C9.88115 25.502 9.77426 25.5567 9.77177 25.6154C9.76928 25.674 9.8669 25.7361 9.86495 25.7948C9.86299 25.8534 9.97049 25.9137 9.96961 25.9725C9.96873 26.0312 9.75215 26.0871 9.7518 26.1459C9.75146 26.2047 9.8477 26.264 9.84794 26.3223C9.84818 26.3807 9.94238 26.4387 9.94315 26.497C9.94393 26.5554 9.86251 26.6152 9.86377 26.6741C9.86503 26.7331 9.93022 26.7896 9.93206 26.8481C9.9339 26.9065 9.87616 26.9673 9.87854 27.0258C9.88092 27.0843 9.94673 27.1398 9.94964 27.1984C9.95256 27.2569 9.86594 27.3205 9.86944 27.3786C9.87294 27.4367 9.91164 27.4936 9.91567 27.5517C9.9197 27.6098 9.98133 27.6639 9.98585 27.7226C9.99037 27.7813 9.94548 27.8432 9.95107 27.902C9.95666 27.9608 9.87736 28.0272 9.88354 28.0855C9.88972 28.1438 9.82931 28.2102 9.83602 28.2686C9.84273 28.327 10.0671 28.3598 10.0738 28.4181C10.0805 28.4765 10.0453 28.5393 10.0531 28.5977C10.0609 28.6562 10.0802 28.7119 10.0886 28.7698C10.097 28.8278 10.1229 28.8825 10.1318 28.9405C10.1407 28.9985 10.0248 29.0762 10.0347 29.1343C10.0447 29.1925 10.0031 29.2595 10.0131 29.3176C10.0231 29.3757 10.0984 29.4218 10.1095 29.4795C10.1205 29.5371 10.0833 29.6046 10.0949 29.6623C10.1065 29.72 10.1571 29.7704 10.1688 29.8275C10.1805 29.8847 10.1094 29.9616 10.1222 30.0188C10.1349 30.0761 10.158 30.1327 10.1713 30.1895C10.1847 30.2463 10.2391 30.2954 10.253 30.3522C10.2669 30.409 10.3558 30.4477 10.3702 30.5046C10.3846 30.5614 10.3895 30.6213 10.4045 30.6776C10.4195 30.734 10.4505 30.787 10.4666 30.8429C10.4827 30.8989 10.6235 30.9184 10.6406 30.9744C10.6578 31.0305 10.4608 31.1518 10.478 31.2078C10.4952 31.2639 10.6329 31.282 10.6511 31.3376C10.6694 31.3932 10.6811 31.4509 10.6999 31.5066C10.7187 31.5622 10.741 31.616 10.7603 31.6717C10.7797 31.7274 10.8259 31.7726 10.8459 31.8272C10.8659 31.8819 10.9372 31.9174 10.9583 31.9722C10.9794 32.0269 10.9995 32.0805 11.0211 32.1348C11.0428 32.1891 10.8869 32.3157 10.9091 32.37C10.9313 32.4243 11.0745 32.4284 11.0973 32.4822C11.12 32.5361 11.0642 32.6245 11.088 32.6779C11.1119 32.7313 11.2888 32.7157 11.3132 32.7691C11.3376 32.8226 11.1526 32.9736 11.1776 33.026C11.2027 33.0784 11.2896 33.1034 11.3157 33.1559C11.3418 33.2084 11.3848 33.2527 11.4115 33.3053C11.4382 33.3578 11.5849 33.3471 11.6121 33.3992C11.6394 33.4512 11.5284 33.5764 11.5568 33.6275C11.5852 33.6786 11.7635 33.6469 11.7925 33.698C11.8214 33.7492 11.7567 33.852 11.7862 33.9026C11.8157 33.9533 11.9137 33.9625 11.9438 34.0127C11.974 34.0628 11.9676 34.1341 11.9983 34.1843C12.0289 34.2345 12.0855 34.2665 12.1173 34.3163C12.149 34.3661 12.0658 34.4888 12.0982 34.5376C12.1306 34.5864 12.2554 34.5736 12.2883 34.6219C12.3213 34.6702 12.222 34.8099 12.2561 34.8582C12.2901 34.9066 12.4014 34.8997 12.4361 34.947C12.4708 34.9944 12.48 35.0605 12.5147 35.1079C12.5494 35.1552 12.6843 35.1261 12.7195 35.173C12.7548 35.2198 12.7171 35.3228 12.7529 35.3686C12.7888 35.4145 12.863 35.4302 12.9 35.4756C12.9371 35.521 12.9922 35.5502 13.0298 35.5951C13.0674 35.64 12.973 35.7979 13.0112 35.8423C13.0494 35.8867 13.1424 35.8847 13.1812 35.9281C13.22 35.9715 13.3104 35.9692 13.3503 36.0122C13.3902 36.0551 13.3454 36.178 13.3853 36.2204C13.4155 36.2522 13.4244 36.3216 13.4737 36.3751C13.5086 36.4132 13.5989 36.4121 13.6433 36.4592C13.6803 36.4986 13.8222 36.4448 13.8657 36.4897C13.9044 36.5293 13.9386 36.5755 13.9823 36.6188C14.0225 36.658 13.9829 36.7829 14.0272 36.8252C14.0685 36.8639 14.1479 36.8645 14.1929 36.9046C14.2354 36.9429 14.2995 36.9567 14.3457 36.9964C14.3888 37.0337 14.3743 37.1426 14.4206 37.1807C14.4669 37.2188 14.524 37.2379 14.5715 37.275C14.619 37.3122 14.648 37.3682 14.6956 37.4037C14.7432 37.4392 14.7589 37.5178 14.8078 37.5518C14.8566 37.5859 14.9104 37.6122 14.9598 37.6457C15.0092 37.6793 15.1014 37.6442 15.1514 37.6762C15.2015 37.7082 15.2165 37.7953 15.2678 37.8258C15.3191 37.8562 15.4486 37.7468 15.5005 37.7762C15.5525 37.8056 15.6183 37.7996 15.6704 37.8274C15.7224 37.8552 15.7381 37.9468 15.7908 37.9736C15.8435 38.0004 15.9334 37.9419 15.9868 37.9672C16.0402 37.9924 16.059 38.0848 16.113 38.109C16.167 38.1332 16.1943 38.215 16.249 38.2371C16.3038 38.2592 16.3229 38.3721 16.3783 38.3932C16.4336 38.4143 16.5334 38.3125 16.5894 38.332C16.6454 38.3516 16.6535 38.511 16.7096 38.5295C16.7657 38.5479 16.8665 38.4219 16.9233 38.4388C16.9801 38.4557 17.0334 38.4761 17.0908 38.4919C17.1483 38.5078 17.2185 38.459 17.276 38.4732C17.3336 38.4875 17.3893 38.4924 17.4471 38.5051C17.5048 38.5178 17.5345 38.6581 17.5923 38.6697C17.6501 38.6813 17.7035 38.7189 17.762 38.729C17.8205 38.739 17.8845 38.7107 17.9432 38.7191C18.0018 38.7275 18.069 38.6573 18.1278 38.6642C18.1866 38.671 18.2445 38.6637 18.3033 38.6694C18.3622 38.6752 18.4133 38.751 18.4722 38.7557C18.5312 38.7603 18.5906 38.7364 18.6497 38.7395C18.7088 38.7426 18.7662 38.7406 18.8254 38.7421C18.8847 38.7436 18.9425 38.6575 19.0018 38.6584C19.0611 38.6593 19.1181 38.8085 19.1776 38.8078C19.237 38.8072 19.292 38.7159 19.3516 38.7136C19.4112 38.7114 19.4702 38.7581 19.5294 38.7547C19.5885 38.7513 19.6487 38.7793 19.7074 38.7754C19.766 38.7714 19.82 38.7168 19.8788 38.7112C19.9376 38.7056 20.0046 38.7844 20.0635 38.7777C20.1224 38.7711 20.1643 38.6387 20.2228 38.6309C20.2812 38.6232 20.3291 38.5583 20.3876 38.5494C20.4462 38.5406 20.542 38.7753 20.6007 38.7653C20.6593 38.7554 20.6838 38.5584 20.742 38.5473C20.8002 38.5363 20.881 38.6476 20.9387 38.636C20.9964 38.6244 21.025 38.4784 21.0828 38.4657C21.1406 38.453 21.199 38.4528 21.2569 38.439C21.3142 38.4252 21.3748 38.43 21.4317 38.4162C21.4885 38.4023 21.5327 38.3414 21.5891 38.3265C21.6455 38.3115 21.7039 38.3048 21.7598 38.2892C21.8157 38.2736 21.8787 38.2819 21.9347 38.2653C21.9907 38.2486 22.0782 38.333 22.1337 38.3158C22.1893 38.2986 22.2461 38.2783 22.3011 38.2605C22.3562 38.2426 22.4031 38.1939 22.4583 38.175C22.5134 38.1561 22.5978 38.2149 22.653 38.195C22.7082 38.175 22.7283 38.0575 22.7831 38.0369C22.8378 38.0164 22.9027 38.0205 22.957 37.9989C23.0113 37.9772 23.0227 37.8487 23.0765 37.8265C23.1303 37.8042 23.2207 37.8684 23.2746 37.8451C23.3285 37.8218 23.3549 37.7366 23.4083 37.7128C23.4617 37.6889 23.5631 37.7691 23.6161 37.7441C23.6691 37.7191 23.6446 37.5323 23.697 37.5067C23.7495 37.4811 23.8991 37.6509 23.9517 37.6248C24.0042 37.5987 24.0431 37.5433 24.0946 37.516C24.1462 37.4887 24.2156 37.4911 24.2673 37.4627C24.3189 37.4343 24.3297 37.3311 24.3803 37.3021C24.4309 37.2731 24.5417 37.3445 24.5919 37.3149C24.642 37.2853 24.636 37.1574 24.6857 37.1272C24.7353 37.0971 24.8439 37.1569 24.8931 37.1256C24.9423 37.0943 24.9258 36.9579 24.9745 36.9255C25.0233 36.8931 25.0745 36.8636 25.1228 36.8306C25.171 36.7977 25.1968 36.7319 25.2446 36.6984C25.2924 36.6648 25.3758 36.6797 25.4232 36.6451C25.4705 36.6104 25.4342 36.4652 25.4805 36.4299C25.5269 36.3946 25.6114 36.4091 25.6572 36.3732C25.7031 36.3373 25.8167 36.383 25.8616 36.3459C25.9064 36.3088 25.9183 36.2294 25.9621 36.1918C26.006 36.1541 26.0235 36.0838 26.0669 36.045C26.1103 36.0062 26.2469 36.0674 26.2898 36.028C26.3327 35.9886 26.3112 35.8777 26.3531 35.8371C26.395 35.7966 26.3969 35.7147 26.4383 35.6735C26.4797 35.6324 26.549 35.6185 26.5894 35.5762C26.6299 35.5339 26.6534 35.4761 26.6928 35.4331C26.7322 35.3902 26.8358 35.4031 26.8742 35.3596C26.9126 35.316 26.8533 35.1871 26.8907 35.1424C26.9282 35.0976 27.1046 35.1656 27.1411 35.1197C27.1776 35.0738 27.0955 34.9337 27.1309 34.8872C27.1663 34.8407 27.2184 34.807 27.2529 34.7598C27.2873 34.7126 27.3822 34.707 27.4151 34.6592C27.4479 34.6113 27.3871 34.499 27.4196 34.4501C27.452 34.4011 27.608 34.4311 27.6389 34.3815C27.6697 34.3319 27.6772 34.2656 27.7065 34.2147C27.7359 34.1639 27.7031 34.0773 27.7314 34.0258C27.7597 33.9743 27.8953 33.9793 27.922 33.9272C27.9488 33.875 27.8185 33.7431 27.8442 33.6908C27.8698 33.6386 27.8373 33.5612 27.8614 33.5077C27.8856 33.4542 28.0964 33.4826 28.1189 33.429C28.1415 33.3754 28.0709 33.2828 28.0914 33.2279C28.1119 33.173 28.1999 33.1425 28.2193 33.0875C28.2388 33.0325 28.1145 32.9298 28.1324 32.8741C28.1503 32.8185 28.3354 32.8133 28.3512 32.7569C28.367 32.7005 28.4194 32.6506 28.4336 32.5941C28.4478 32.5376 28.358 32.4541 28.3701 32.3968C28.3822 32.3396 28.3119 32.267 28.3224 32.2096C28.3329 32.1522 28.3224 32.0941 28.3308 32.036C28.3391 31.9779 28.5621 31.9479 28.5688 31.8902C28.5755 31.8325 28.5521 31.7673 28.5573 31.7089C28.5625 31.6505 28.5297 31.5877 28.5327 31.5291C28.5358 31.4705 28.4866 31.4095 28.4875 31.3512C28.4883 31.293 28.5168 31.2334 28.5155 31.175C28.5142 31.1166 28.5878 31.0529 28.5844 30.9943C28.5809 30.9357 28.3797 30.8914 28.3746 30.8332C28.3695 30.775 28.5186 30.7007 28.5113 30.6423C28.5041 30.5839 28.3557 30.5465 28.3468 30.4885C28.3379 30.4305 28.3507 30.3711 28.3396 30.3135C28.3285 30.2558 28.3156 30.2007 28.3028 30.1439C28.29 30.0872 28.2251 30.0458 28.2102 29.9889C28.1952 29.932 28.3408 29.8309 28.3236 29.7749C28.3064 29.7188 28.1725 29.7005 28.1537 29.6448C28.1349 29.5892 28.1001 29.5424 28.0791 29.4871C28.0581 29.4318 28.2081 29.3106 28.1854 29.2557C28.1628 29.2008 28.0283 29.1948 28.0039 29.1408C27.9796 29.0869 27.9544 29.0355 27.9289 28.9825C27.9033 28.9295 27.9756 28.8268 27.9483 28.7747C27.9211 28.7227 27.7929 28.7254 27.764 28.6737C27.7351 28.622 27.6621 28.5993 27.6315 28.5486C27.6009 28.4978 27.6951 28.3723 27.6634 28.3225C27.6316 28.2727 27.4311 28.3359 27.3982 28.2871C27.3653 28.2383 27.5197 28.0609 27.4857 28.0125C27.4516 27.9641 27.3525 27.9619 27.3172 27.9155C27.2818 27.8692 27.3214 27.7583 27.2848 27.714C27.2482 27.6697 27.1593 27.6619 27.1211 27.618C27.0828 27.5741 27.074 27.4972 27.034 27.4553C26.9939 27.4135 26.962 27.3539 26.9207 27.3141C26.8794 27.2743 26.7955 27.2701 26.752 27.2317C26.7084 27.1933 26.5625 27.2738 26.5177 27.2369C26.473 27.2 26.4879 27.0858 26.4413 27.0514C26.3947 27.0171 26.3597 26.9605 26.3118 26.9282C26.264 26.8959 26.2435 26.8099 26.1938 26.7801C26.144 26.7503 26.0395 26.8091 25.9884 26.7819C25.9374 26.7547 25.8849 26.7263 25.832 26.7016C25.7791 26.677 25.7334 26.6319 25.6797 26.6099C25.6261 26.5878 25.5786 26.5394 25.5235 26.5205C25.4685 26.5016 25.3671 26.6292 25.3113 26.6129C25.2555 26.5966 25.2484 26.3903 25.1913 26.3766C25.1342 26.3629 25.049 26.4774 24.9916 26.4669C24.9343 26.4564 24.877 26.4503 24.8194 26.443C24.7617 26.4358 24.6993 26.4939 24.6414 26.4894C24.5835 26.4848 24.5349 26.3088 24.4762 26.3068C24.4175 26.3049 24.3586 26.5129 24.3002 26.5142C24.2418 26.5155 24.1748 26.2721 24.1162 26.2755C24.0576 26.279 24.006 26.3921 23.9471 26.3982C23.8883 26.4043 23.8446 26.5079 23.7866 26.5163C23.7286 26.5246 23.6667 26.4922 23.6091 26.5027C23.5515 26.5133 23.4902 26.4981 23.4329 26.5114C23.3755 26.5247 23.317 26.5271 23.26 26.5425C23.2031 26.558 23.1448 26.5637 23.0887 26.5808C23.0327 26.598 23.0187 26.7382 22.963 26.757C22.9074 26.7759 22.8365 26.741 22.7818 26.7615C22.727 26.782 22.6097 26.6442 22.5553 26.6664C22.501 26.6886 22.5012 26.8387 22.4478 26.8626C22.3944 26.8865 22.3708 26.9697 22.3184 26.9953C22.2659 27.0209 22.1918 26.9981 22.1397 27.0254C22.0876 27.0526 21.9456 26.9132 21.8945 26.9416C21.8434 26.97 21.8832 27.1598 21.8326 27.1893C21.7819 27.2188 21.7173 27.2228 21.6676 27.2541C21.6179 27.2853 21.5782 27.3304 21.5295 27.3628C21.4807 27.3952 21.3914 27.3678 21.3436 27.4014C21.2958 27.4349 21.336 27.5902 21.2887 27.6249C21.2414 27.6596 21.1401 27.6198 21.0938 27.6557C21.0474 27.6915 21.0464 27.7827 21.001 27.8197C20.9556 27.8567 20.8752 27.8496 20.8308 27.8878C20.7864 27.926 20.7367 27.9572 20.6933 27.996C20.6499 28.0348 20.567 28.0323 20.5246 28.0723C20.4822 28.1123 20.4674 28.1822 20.4259 28.2234C20.3845 28.2645 20.2893 28.2545 20.2488 28.2968C20.2084 28.3391 20.1842 28.399 20.1447 28.442C20.1053 28.4849 20.182 28.631 20.1435 28.6751C20.1051 28.7192 20.0412 28.7395 20.0043 28.7848C19.9673 28.8301 19.8112 28.7817 19.7759 28.8277C19.7405 28.8737 19.7118 28.9289 19.6774 28.9761C19.643 29.0233 19.7061 29.1406 19.6732 29.1885C19.6404 29.2363 19.6234 29.2942 19.592 29.3432C19.5607 29.3923 19.5084 29.4281 19.4792 29.4779C19.4499 29.5277 19.2846 29.505 19.2574 29.556C19.2302 29.6071 19.2743 29.7006 19.2492 29.7523C19.2241 29.8041 19.3441 29.9238 19.3211 29.9768C19.298 30.0298 19.2414 30.0659 19.2209 30.1202C19.2005 30.1745 19.0999 30.2002 19.0821 30.2548C19.0644 30.3093 18.9607 30.3401 18.9433 30.3963C18.9259 30.4526 19.0935 30.5651 19.0767 30.6214C19.0598 30.6777 18.8162 30.6674 18.7998 30.7238C18.7835 30.7801 18.794 30.8452 18.7781 30.9022C18.7623 30.9591 18.9511 31.0708 18.9358 31.1277C18.9205 31.1847 18.8235 31.2193 18.8092 31.2763C18.795 31.3334 18.774 31.3882 18.7603 31.4453C18.7466 31.5024 18.8462 31.5852 18.8329 31.6429C18.8197 31.7005 18.6319 31.7179 18.6193 31.7751C18.6067 31.8323 18.7318 31.919 18.7203 31.9762C18.7088 32.0335 18.6744 32.0861 18.6634 32.1434C18.6524 32.2008 18.6042 32.2516 18.5937 32.3089C18.5832 32.3663 18.5333 32.4175 18.5233 32.4755C18.5133 32.5334 18.5017 32.5913 18.4928 32.6493C18.4839 32.7074 18.523 32.7724 18.5146 32.8305C18.5062 32.8886 18.5902 32.9581 18.5829 33.0163C18.5756 33.0745 18.4193 33.1141 18.4125 33.1724C18.4057 33.2306 18.5306 33.3027 18.5248 33.361C18.5191 33.4193 18.364 33.4639 18.3589 33.5223C18.3537 33.5807 18.3779 33.6422 18.3738 33.7007C18.3697 33.7592 18.3774 33.8187 18.3739 33.8773C18.3703 33.9358 18.3269 33.993 18.3244 34.0516C18.3219 34.1102 18.3205 34.1695 18.3191 34.2282C18.3176 34.2869 18.3685 34.347 18.3676 34.4058C18.3667 34.4646 18.2746 34.5233 18.2748 34.5822C18.275 34.6411 18.2378 34.7015 18.2385 34.7604C18.2392 34.8193 18.4835 34.8717 18.4853 34.9302C18.4871 34.9886 18.4723 35.0462 18.4752 35.1053C18.4781 35.1644 18.46 35.2222 18.464 35.2808C18.468 35.3395 18.3171 35.4093 18.3222 35.468C18.3272 35.5268 18.4101 35.5784 18.4157 35.6372C18.4213 35.696 18.4929 35.7466 18.4996 35.805C18.5064 35.8633 18.3466 35.942 18.3544 36.0005C18.3622 36.0589 18.4213 36.1106 18.4302 36.1692C18.439 36.2277 18.5695 36.2657 18.579 36.3238C18.5884 36.3818 18.4871 36.4587 18.4977 36.5163C18.5082 36.574 18.4769 36.6408 18.4886 36.6986C18.5002 36.7563 18.6637 36.7815 18.6764 36.8394C18.6891 36.8972 18.6695 36.9602 18.6833 37.0176C18.6971 37.075 18.5691 37.1667 18.5835 37.2242C18.5979 37.2816 18.6746 37.3229 18.6902 37.3794C18.7057 37.4358 18.7189 37.4937 18.7355 37.5502C18.7521 37.6067 18.6804 37.6906 18.6981 37.7472C18.7158 37.8038 18.8385 37.8266 18.8567 37.8827C18.8749 37.9388 18.9573 37.972 18.9767 38.0277C18.996 38.0834 19.0719 38.1166 19.0924 38.1719C19.1129 38.2271 19.0704 38.3044 19.092 38.3592C19.1136 38.414 19.1925 38.4442 19.2147 38.4985C19.2368 38.5529 19.0611 38.6901 19.0839 38.7439C19.1066 38.7978 19.3276 38.7655 19.3515 38.8194C19.3753 38.8734 19.24 38.9991 19.265 39.0526C19.2899 39.1061 19.4169 39.1103 19.4431 39.1628C19.4692 39.2153 19.3755 39.328 19.4022 39.3805C19.4289 39.4331 19.503 39.4613 19.5308 39.5134C19.5586 39.5655 19.524 39.6515 19.5523 39.7032C19.5807 39.7548 19.7625 39.7202 19.792 39.7714C19.8214 39.8226 19.8699 39.8603 19.9 39.911C19.93 39.9617 19.9187 40.0352 19.9499 40.0855C19.981 40.1358 20.037 40.1683 20.0688 40.2181C20.1005 40.2678 20.179 40.2845 20.2113 40.3338C20.2437 40.3831 20.0844 40.5596 20.118 40.6079C20.1515 40.6562 20.3161 40.6135 20.3502 40.6619C20.3842 40.7103 20.3406 40.8128 20.3752 40.8606C20.4099 40.9085 20.489 40.9231 20.5243 40.9699C20.5596 41.0168 20.5114 41.1275 20.5473 41.1739C20.5831 41.2202 20.6258 41.2629 20.6622 41.3093C20.6985 41.3557 20.7739 41.371 20.8114 41.4164C20.8489 41.4619 20.9827 41.4267 21.0203 41.4716C21.0579 41.5165 21.0343 41.6122 21.073 41.6572C21.1117 41.7022 21.0808 41.8063 21.1196 41.8508C21.1583 41.8952 21.1946 41.9422 21.2339 41.9862C21.2732 42.0301 21.3183 42.0692 21.3582 42.1127C21.3981 42.1562 21.4279 42.2096 21.4684 42.252C21.5089 42.2945 21.6959 42.1955 21.737 42.2375C21.7781 42.2794 21.791 42.347 21.8331 42.389C21.8753 42.4311 21.9072 42.4793 21.9494 42.5208C21.9916 42.5623 22.0335 42.6017 22.0758 42.6427C22.118 42.6837 22.1802 42.701 22.2236 42.7416C22.267 42.7821 22.3233 42.8044 22.3673 42.8445C22.4112 42.8845 22.3849 42.9993 22.4289 43.0383C22.473 43.0773 22.4732 43.1659 22.5179 43.2044C22.5625 43.2429 22.5777 43.3155 22.6229 43.354C22.668 43.3926 22.7882 43.3406 22.8334 43.3786C22.8786 43.4166 22.9216 43.4555 22.9674 43.4931C23.0132 43.5306 23.0483 43.5796 23.0942 43.6166C23.14 43.6536 23.1902 43.6839 23.2367 43.7204C23.2831 43.7569 23.2961 43.8353 23.3426 43.8713C23.3891 43.9072 23.4545 43.9189 23.5016 43.9544C23.5486 43.9899 23.5559 44.078 23.6036 44.113C23.6512 44.148 23.7272 44.1439 23.7748 44.1789C23.8225 44.2139 23.8111 44.33 23.8594 44.364C23.9077 44.398 24.0232 44.3369 24.0715 44.3709C24.1198 44.4049 24.1378 44.4815 24.1867 44.515C24.2356 44.5485 24.3138 44.537 24.3626 44.5705C24.4115 44.604 24.4132 44.7067 24.4622 44.7391C24.5111 44.7715 24.5581 44.8086 24.6076 44.8411C24.6566 44.8729 24.8151 44.7353 24.8646 44.7667C24.9142 44.798 24.9515 44.8467 25.0011 44.8775C25.0508 44.9084 25.0288 45.0587 25.0791 45.0885C25.1294 45.1183 25.205 45.1061 25.2558 45.1355C25.3067 45.1648 25.3652 45.1808 25.4161 45.209C25.4671 45.2373 25.5172 45.2687 25.5687 45.2965C25.6202 45.3243 25.6286 45.4368 25.6803 45.4635C25.7319 45.4902 25.8184 45.452 25.8712 45.4782C25.9239 45.5045 25.9973 45.4867 26.0501 45.5124C26.1029 45.5381 26.1538 45.5669 26.2066 45.5916C26.2595 45.6163 26.2908 45.6903 26.3443 45.7139C26.3978 45.7375 26.4654 45.7306 26.5189 45.7537C26.5725 45.7768 26.5881 45.8931 26.6423 45.9157C26.6964 45.9384 26.8184 45.7926 26.8731 45.8142C26.9279 45.8358 26.9923 45.828 27.0472 45.8485C27.102 45.869 27.0967 46.0515 27.1516 46.0715C27.2065 46.0915 27.2777 46.0686 27.3332 46.0876C27.3887 46.1065 27.4634 46.0683 27.519 46.0868C27.5746 46.1052 27.6363 46.1036 27.6919 46.1215C27.7476 46.1394 27.7767 46.2434 27.833 46.2603C27.8892 46.2772 27.9245 46.3672 27.9808 46.383C28.0372 46.3988 28.1184 46.3293 28.1748 46.3446C28.2312 46.3598 28.2708 46.4427 28.3273 46.4574C28.3838 46.4721 28.4519 46.4463 28.509 46.46C28.5661 46.4737 28.6283 46.4668 28.6854 46.4799C28.7426 46.4931 28.8022 46.4967 28.8594 46.5093C28.9165 46.522 28.9689 46.559 29.0266 46.5711C29.0844 46.5832 29.1254 46.6808 29.1833 46.6919C29.2412 46.7029 29.3055 46.6843 29.3628 46.6948C29.4202 46.7053 29.4881 46.6638 29.5456 46.6732C29.6031 46.6826 29.6836 46.5477 29.7417 46.5561C29.7998 46.5645 29.8515 46.6085 29.9097 46.6163C29.9678 46.6242 30.0099 46.7526 30.0681 46.7599C30.1263 46.7672 30.1981 46.6575 30.2563 46.6643C30.3146 46.6711 30.3694 46.704 30.4278 46.7097C30.4861 46.7154 30.5437 46.7232 30.6021 46.7284C30.6605 46.7335 30.7175 46.7543 30.776 46.7583C30.8345 46.7624 30.884 46.905 30.9424 46.9091C31.0009 46.9132 31.0692 46.7578 31.1278 46.7603C31.1865 46.7628 31.247 46.7072 31.3056 46.7097C31.3642 46.7122 31.4217 46.7037 31.4803 46.7057C31.539 46.7077 31.5952 46.7871 31.6539 46.7885C31.7126 46.79 31.7711 46.7568 31.8295 46.7566C31.8878 46.7563 31.9472 46.9149 32.0061 46.9142C32.065 46.9135 32.1246 46.9107 32.1831 46.9093C32.2415 46.908 32.2948 46.6903 32.3532 46.6885C32.4117 46.6866 32.4786 46.9069 32.5372 46.904C32.5957 46.9011 32.6527 46.8489 32.7113 46.846C32.7698 46.843 32.8311 46.8706 32.8892 46.8666C32.9473 46.8625 32.9974 46.7298 33.0556 46.7253C33.1138 46.7207 33.1717 46.7129 33.23 46.7072C33.2882 46.7016 33.342 46.6556 33.4002 46.65C33.4585 46.6443 33.5288 46.7531 33.5866 46.7464C33.6444 46.7396 33.7038 46.7395 33.7622 46.7322C33.8206 46.725 33.8621 46.592 33.9205 46.5843C33.979 46.5765 34.0652 46.7736 34.1232 46.7652C34.1811 46.7569 34.2055 46.5247 34.2635 46.5158C34.3215 46.5069 34.4061 46.6677 34.4641 46.6583C34.5222 46.6489 34.5904 46.6954 34.648 46.6848C34.7057 46.6743 34.7217 46.4376 34.7794 46.427C34.837 46.4165 34.9122 46.4998 34.9694 46.4881C35.0266 46.4765 35.0614 46.357 35.1187 46.3448C35.1759 46.3326 35.2479 46.3919 35.3051 46.3791C35.3624 46.3664 35.4168 46.3436 35.4736 46.3303C35.5304 46.317 35.5783 46.2694 35.6357 46.255C35.6931 46.2407 35.7467 46.2206 35.8036 46.2062C35.8605 46.1918 35.9588 46.3382 36.0157 46.3232C36.0726 46.3083 36.125 46.2773 36.1815 46.2612C36.238 46.2452 36.3107 46.284 36.3666 46.2679C36.4226 46.2518 36.4831 46.2453 36.5397 46.2282C36.5963 46.211 36.579 45.9552 36.635 45.938C36.6911 45.9209 36.7658 45.9669 36.822 45.9487C36.8781 45.9304 36.9335 45.9148 36.9891 45.8965C37.0447 45.8782 37.113 45.8994 37.1687 45.88C37.2244 45.8606 37.2911 45.8757 37.3463 45.8558C37.4015 45.8358 37.4389 45.7673 37.4936 45.7468C37.5483 45.7263 37.6577 45.8509 37.7125 45.8299C37.7672 45.8088 37.7954 45.7168 37.8496 45.6952C37.9039 45.6735 37.9632 45.6626 38.0175 45.6404C38.0719 45.6182 38.1565 45.6689 38.2108 45.6462C38.2652 45.6234 38.245 45.4246 38.2989 45.4013C38.3528 45.378 38.4084 45.3602 38.4617 45.3369C38.5151 45.3135 38.6384 45.4454 38.6918 45.4215C38.7452 45.3976 38.7934 45.3592 38.8468 45.3348C38.9003 45.3104 38.8833 45.1361 38.9368 45.1112C38.9903 45.0862 39.0769 45.1327 39.1299 45.1072C39.1829 45.0817 39.201 44.9872 39.2535 44.961C39.306 44.9349 39.3989 44.9896 39.4509 44.9629C39.503 44.9361 39.5306 44.8619 39.5827 44.8347C39.6348 44.8074 39.6859 44.779 39.7374 44.7517C39.789 44.7245 39.9065 44.8175 39.9581 44.7896C40.0097 44.7618 39.957 44.5455 40.0082 44.5166C40.0593 44.4876 40.1953 44.6103 40.2465 44.5809C40.2977 44.5514 40.2725 44.3915 40.3231 44.362C40.3738 44.3324 40.4055 44.2726 40.4557 44.2425C40.5059 44.2124 40.6205 44.2895 40.6702 44.2588C40.7199 44.2281 40.7697 44.1963 40.8194 44.1656C40.8691 44.135 40.9183 44.1031 40.9681 44.0714C41.0179 44.0396 41.0328 43.9562 41.0821 43.9244C41.1313 43.8925 41.2666 43.992 41.3159 43.9596C41.3652 43.9273 41.3544 43.8059 41.4026 43.773C41.4509 43.74 41.4858 43.6869 41.5336 43.6539C41.5813 43.6209 41.6085 43.5574 41.6563 43.5233C41.7042 43.4892 41.8081 43.5351 41.8559 43.501C41.9037 43.4669 41.9694 43.4571 42.0167 43.4224C42.0641 43.3877 42.0825 43.3138 42.1294 43.2785C42.1762 43.2432 42.1544 43.1177 42.2007 43.0818C42.2471 43.046 42.3394 43.0709 42.3857 43.035C42.4321 42.9992 42.5586 43.0649 42.6044 43.0285C42.6503 42.9921 42.5693 42.797 42.6147 42.76C42.6601 42.723 42.7834 42.7819 42.8287 42.7449C42.8741 42.7079 42.8483 42.5852 42.8932 42.5476C42.9381 42.51 43.0088 42.5039 43.0538 42.4657C43.0987 42.4276 43.1455 42.3929 43.1894 42.3547C43.2333 42.3164 43.343 42.3515 43.3869 42.3128C43.4308 42.274 43.5043 42.267 43.5478 42.2277C43.5912 42.1883 43.5752 42.0827 43.6181 42.0428C43.6611 42.0028 43.6808 41.9382 43.7238 41.8983C43.7667 41.8583 43.8368 41.8473 43.8792 41.8067C43.9217 41.7662 44.028 41.7913 44.07 41.7502" stroke="#FFD080" stroke-width="2.78109" stroke-miterlimit="10"/>
<path d="M106 62.7257C106.13 62.7725 106.235 62.9015 106.367 62.9457C106.498 62.99 106.631 63.0418 106.762 63.0848C106.894 63.1278 107.106 62.9204 107.239 62.9609C107.372 63.0013 107.435 63.2782 107.568 63.3161C107.7 63.354 107.854 63.33 107.988 63.3667C108.122 63.4033 108.27 63.3932 108.404 63.4273C108.538 63.4615 108.675 63.4944 108.81 63.5272C108.945 63.5601 109.072 63.6321 109.207 63.6637C109.342 63.6953 109.452 63.8521 109.588 63.8824C109.723 63.9128 109.9 63.7611 110.035 63.7889C110.17 63.8167 110.376 63.4868 110.513 63.5121C110.649 63.5373 110.767 63.6511 110.902 63.6751C111.038 63.6991 111.13 63.9861 111.266 64.0088C111.403 64.0316 111.593 63.7181 111.729 63.7383C111.866 63.7585 111.948 64.1555 112.086 64.1745C112.223 64.1934 112.407 63.8534 112.544 63.8698C112.682 63.8862 112.773 64.2971 112.91 64.3122C113.046 64.3274 113.223 63.9772 113.361 63.9911C113.499 64.0051 113.628 64.0961 113.766 64.1075C113.903 64.1188 114.051 63.9836 114.189 63.9937C114.327 64.0038 114.432 64.5196 114.57 64.5271C114.707 64.5347 114.849 64.5651 114.987 64.5714C115.125 64.5777 115.284 64.1176 115.422 64.1226C115.559 64.1277 115.697 64.1163 115.835 64.1201C115.973 64.1239 116.109 64.158 116.247 64.1593C116.385 64.1606 116.523 64.1252 116.66 64.1252C116.798 64.1252 116.94 64.4956 117.078 64.4943C117.215 64.493 117.361 64.6207 117.499 64.6169C117.636 64.6131 117.778 64.5613 117.916 64.5562C118.054 64.5512 118.176 64.1466 118.314 64.1403C118.452 64.134 118.611 64.4816 118.749 64.4728C118.887 64.4639 118.997 64.0354 119.134 64.0253C119.272 64.0152 119.41 64.0202 119.548 64.0076C119.686 63.9949 119.862 64.3982 120 64.3843C120.138 64.3704 120.22 63.8357 120.358 63.8205C120.496 63.8053 120.631 63.8028 120.769 63.7851C120.907 63.7674 121.038 63.7333 121.175 63.7143C121.311 63.6953 121.494 64 121.631 63.9798C121.768 63.9595 121.881 63.7889 122.018 63.7661C122.154 63.7434 122.296 63.7522 122.431 63.7282C122.566 63.7042 122.69 63.6144 122.827 63.5892C122.963 63.5639 123.175 63.9191 123.31 63.8926C123.445 63.866 123.478 63.3452 123.613 63.3161C123.748 63.287 123.966 63.6233 124.1 63.5917C124.234 63.5601 124.305 63.2542 124.439 63.2213C124.573 63.1884 124.732 63.258 124.866 63.2226C125 63.1872 125.22 63.4665 125.353 63.4299C125.485 63.3932 125.627 63.3654 125.76 63.3275C125.892 63.2896 125.881 62.7637 126.013 62.7232C126.144 62.6828 126.294 62.703 126.425 62.6613C126.555 62.6196 126.688 62.5804 126.818 62.5361C126.948 62.4919 127.043 62.349 127.172 62.3023C127.301 62.2555 127.507 62.416 127.636 62.368C127.765 62.32 128.005 62.5475 128.132 62.4969C128.26 62.4464 128.196 61.9129 128.322 61.8611C128.448 61.8093 128.69 62.0216 128.816 61.9673C128.943 61.9129 128.952 61.5956 129.077 61.5375C129.202 61.4793 129.522 61.8308 129.646 61.7701C129.77 61.7094 129.728 61.3087 129.85 61.2467C129.973 61.1848 130.208 61.334 130.33 61.2695C130.451 61.205 130.654 61.2783 130.774 61.2101C130.895 61.1418 130.82 60.7335 130.939 60.664C131.058 60.5944 131.36 60.8182 131.476 60.7449C131.592 60.6715 131.49 60.2569 131.604 60.1798C131.718 60.1027 131.838 60.0395 131.95 59.9611C132.063 59.8827 132.157 59.7841 132.266 59.702C132.375 59.6198 132.771 59.8966 132.877 59.8107C132.983 59.7247 132.81 59.2974 132.913 59.2077C133.017 59.1179 133.123 59.037 133.223 58.9435C133.323 58.8499 133.63 58.9637 133.725 58.8664C133.82 58.769 133.992 58.7248 134.083 58.6236C134.174 58.5225 133.989 58.1787 134.075 58.0725C134.161 57.9663 134.277 57.8879 134.357 57.7767C134.437 57.6654 134.683 57.6629 134.757 57.5479C134.83 57.4328 135.11 57.4164 135.175 57.2963C135.239 57.1762 134.912 56.8513 134.968 56.7262C135.023 56.601 135.293 56.5555 135.337 56.4266C135.381 56.2976 135.583 56.1914 135.615 56.0587C135.646 55.926 135.658 55.7591 135.678 55.6226C135.698 55.4861 135.418 55.3116 135.423 55.1738C135.428 55.036 135.352 54.9084 135.342 54.7706C135.332 54.6328 135.204 54.5304 135.18 54.3926C135.156 54.2548 135.59 54.0159 135.552 53.8819C135.514 53.7479 135.132 53.7289 135.08 53.5974C135.028 53.466 135.365 53.1601 135.301 53.0336C135.238 52.9072 134.652 53.0804 134.578 52.9603C134.505 52.8402 134.826 52.4724 134.744 52.3573C134.662 52.2423 134.424 52.2511 134.334 52.1412C134.245 52.0312 134.293 51.8074 134.197 51.7038C134.1 51.6001 134.052 51.4459 133.951 51.3485C133.85 51.2512 133.693 51.2082 133.587 51.1147C133.481 51.0211 133.088 51.2853 132.978 51.1969C132.868 51.1084 132.812 50.9782 132.7 50.8935C132.587 50.8088 132.583 50.5939 132.467 50.513C132.351 50.432 132.154 50.4953 132.035 50.4181C131.916 50.341 131.972 50.006 131.85 49.9327C131.729 49.8594 131.673 49.7014 131.563 49.6281C131.443 49.5484 131.372 49.4321 131.268 49.3538C131.151 49.2678 130.781 49.5181 130.682 49.4334C130.571 49.3386 130.758 48.9442 130.668 48.8519C130.566 48.747 130.093 48.9732 130.016 48.8696C129.928 48.752 129.979 48.5232 129.922 48.4082C129.858 48.278 129.8 48.1288 129.775 48.0011C129.747 47.8633 129.777 47.7041 129.791 47.5688C129.805 47.4335 130.01 47.3552 130.062 47.2237C130.11 47.1011 130.102 46.9645 130.18 46.8445C130.252 46.7345 130.218 46.536 130.313 46.4273C130.399 46.3287 130.439 46.1593 130.544 46.0607C130.64 45.9697 130.781 45.9065 130.892 45.8154C130.994 45.7307 131.345 45.9633 131.46 45.8799C131.567 45.8003 131.694 45.7611 131.811 45.6827C131.922 45.6081 131.859 45.2693 131.978 45.1948C132.097 45.1202 132.131 44.9217 132.251 44.8496C132.371 44.7776 132.658 45.0051 132.779 44.9356C132.901 44.8661 133.012 44.7991 133.133 44.7308C133.255 44.6625 133.161 44.2138 133.284 44.148C133.406 44.0823 133.537 44.0368 133.659 43.9723C133.782 43.9079 133.927 43.8927 134.05 43.8282C134.172 43.7637 134.395 43.899 134.518 43.8358C134.64 43.7726 134.72 43.631 134.844 43.5691C134.968 43.5071 135.059 43.3883 135.183 43.3251C135.306 43.2619 135.433 43.2138 135.557 43.1519C135.681 43.09 135.925 43.2733 136.047 43.2113C136.17 43.1494 136.23 42.9661 136.353 42.9041C136.476 42.8422 136.523 42.6324 136.646 42.5704C136.77 42.5085 136.82 42.3087 136.943 42.2468C137.067 42.1848 137.42 42.5767 137.543 42.5148C137.665 42.4529 137.665 42.1532 137.788 42.09C137.911 42.0268 137.911 41.7336 138.032 41.6691C138.153 41.6046 138.515 41.994 138.636 41.9295C138.757 41.865 138.923 41.8789 139.044 41.8132C139.166 41.7475 139.02 41.1988 139.141 41.1318C139.261 41.0648 139.63 41.4403 139.749 41.3733C139.867 41.3063 139.993 41.2405 140.111 41.1723C140.23 41.104 140.104 40.6186 140.223 40.5478C140.341 40.477 140.607 40.6527 140.723 40.5807C140.84 40.5086 141.033 40.5528 141.149 40.4795C141.266 40.4062 141.386 40.3329 141.501 40.257C141.616 40.1812 141.504 39.7678 141.618 39.6907C141.732 39.6136 142.005 39.7666 142.116 39.6869C142.228 39.6073 142.332 39.5125 142.442 39.4316C142.552 39.3507 142.588 39.1674 142.697 39.0839C142.805 39.0005 142.93 38.9373 143.037 38.8513C143.143 38.7654 143.278 38.7097 143.382 38.62C143.485 38.5302 143.613 38.4632 143.714 38.371C143.815 38.2787 143.861 38.1244 143.959 38.0284C144.058 37.9323 144.372 38.0423 144.466 37.9437C144.561 37.8451 144.565 37.6491 144.656 37.5467C144.747 37.4443 144.718 37.2345 144.804 37.1283C144.89 37.0221 145.224 37.0967 145.304 36.9867C145.385 36.8767 145.216 36.5797 145.292 36.4659C145.368 36.3521 145.312 36.1587 145.38 36.0412C145.449 35.9236 145.575 35.8414 145.637 35.7201C145.699 35.5987 145.718 35.4609 145.771 35.3358C145.824 35.2106 146.223 35.2144 146.269 35.0842C146.314 34.954 146 34.7075 146.036 34.5748C146.073 34.442 146.431 34.3839 146.457 34.2486C146.484 34.1134 146.608 33.9768 146.624 33.8403C146.641 33.7038 146.369 33.5319 146.376 33.3928C146.384 33.2537 146.438 33.1185 146.436 32.9794C146.433 32.8404 146.16 32.7253 146.148 32.5863C146.135 32.4472 146.466 32.2753 146.445 32.1375C146.423 31.9997 146.092 31.9264 146.062 31.7899C146.031 31.6533 146.236 31.4688 146.198 31.3348C146.16 31.2008 146.27 31.02 146.226 30.8873C146.182 30.7558 145.811 30.7369 145.763 30.6079C145.715 30.479 145.65 30.3589 145.598 30.2312C145.546 30.1035 145.337 30.0479 145.282 29.9227C145.226 29.7976 145.559 29.4917 145.499 29.3678C145.44 29.2439 145.373 29.1162 145.308 28.9949C145.244 28.8735 145.308 28.6713 145.241 28.5512C145.174 28.4311 145.04 28.3388 144.968 28.2212C144.896 28.1037 144.57 28.1441 144.494 28.0291C144.418 27.914 144.302 27.8293 144.222 27.7168C144.143 27.6043 144.2 27.392 144.117 27.282C144.035 27.172 143.961 27.0519 143.875 26.9445C143.789 26.837 143.742 26.6916 143.652 26.5867C143.562 26.4818 143.484 26.3617 143.392 26.2593C143.3 26.1569 143.235 26.0216 143.139 25.9218C143.043 25.8219 142.892 25.7713 142.794 25.674C142.695 25.5767 142.728 25.3365 142.627 25.2417C142.526 25.1469 142.341 25.1355 142.239 25.0432C142.137 24.9509 141.973 24.9231 141.867 24.8333C141.761 24.7436 141.592 24.7309 141.484 24.645C141.377 24.559 141.191 24.5729 141.082 24.4882C140.974 24.4035 140.86 24.329 140.749 24.2468C140.637 24.1646 140.53 24.0812 140.417 24.0015C140.305 23.9219 140.296 23.6931 140.181 23.616C140.066 23.5389 139.947 23.4668 139.832 23.391C139.717 23.3151 139.411 23.5414 139.293 23.4681C139.176 23.3948 139.35 22.8499 139.232 22.7779C139.113 22.7058 139.02 22.5845 138.9 22.5149C138.78 22.4454 138.511 22.6338 138.391 22.5668C138.271 22.4998 138.254 22.2419 138.133 22.1749C138.012 22.1079 137.84 22.1306 137.718 22.0662C137.597 22.0017 137.39 22.0978 137.267 22.0346C137.144 21.9714 137.043 21.8664 136.919 21.8045C136.796 21.7425 136.662 21.7033 136.538 21.6427C136.414 21.582 136.396 21.2988 136.272 21.2382C136.148 21.1775 135.922 21.3292 135.797 21.2698C135.672 21.2103 135.44 21.3835 135.315 21.3266C135.19 21.2697 135.274 20.7502 135.148 20.6933C135.023 20.6364 134.803 20.7869 134.677 20.73C134.55 20.6731 134.336 20.8197 134.209 20.7641C134.083 20.7085 134.033 20.4759 133.907 20.4215C133.781 20.3672 133.594 20.4493 133.467 20.395C133.341 20.3406 133.269 20.1561 133.141 20.103C133.013 20.0499 132.829 20.1308 132.701 20.0777C132.573 20.0246 132.529 19.7743 132.401 19.7212C132.274 19.6681 132.114 19.6896 131.987 19.6352C131.859 19.5809 131.68 19.6504 131.552 19.5973C131.424 19.5442 131.342 19.3799 131.216 19.3268C131.089 19.2737 131.039 19.0348 130.912 18.9804C130.786 18.9261 130.72 18.7276 130.594 18.6732C130.467 18.6189 130.134 19.0348 130.008 18.9791C129.883 18.9235 129.795 18.7744 129.67 18.7175C129.544 18.6606 129.405 18.6277 129.28 18.5708C129.155 18.5139 129.01 18.4924 128.886 18.4343C128.762 18.3761 128.762 18.0475 128.638 17.9881C128.514 17.9287 128.443 17.758 128.321 17.6973C128.198 17.6366 128.006 17.7125 127.883 17.6505C127.761 17.5886 127.693 17.4217 127.571 17.3585C127.45 17.2953 127.285 17.3105 127.165 17.2435C127.045 17.1765 127.028 16.9325 126.909 16.8643C126.79 16.796 126.665 16.7467 126.547 16.6746C126.43 16.6026 126.265 16.6139 126.15 16.5394C126.035 16.4648 125.822 16.5368 125.709 16.4585C125.597 16.3801 125.498 16.2777 125.388 16.1955C125.278 16.1134 125.145 16.0565 125.039 15.9705C124.933 15.8845 124.623 16.0236 124.521 15.9339C124.418 15.8441 124.67 15.3612 124.571 15.2651C124.473 15.169 124.167 15.2778 124.075 15.1779C123.982 15.078 123.899 14.9579 123.813 14.8517C123.727 14.7456 123.633 14.6368 123.554 14.5243C123.474 14.4118 123.339 14.3271 123.267 14.2096C123.195 14.092 123.009 14.0212 122.946 13.8986C122.883 13.776 122.818 13.6319 122.765 13.5042C122.712 13.3765 123.087 13.0908 123.046 12.9581C123.004 12.8253 122.673 12.7798 122.641 12.6446C122.609 12.5093 122.784 12.3374 122.762 12.1996C122.741 12.0618 122.334 11.9657 122.324 11.8254C122.314 11.6851 122.851 11.5283 122.85 11.388C122.848 11.2477 122.693 11.1213 122.702 10.981C122.711 10.8406 122.676 10.7079 122.693 10.5689C122.709 10.4298 122.416 10.2465 122.44 10.1074C122.464 9.96839 122.852 9.90646 122.883 9.76867C122.913 9.63088 122.554 9.40081 122.59 9.26428C122.627 9.12775 122.914 9.05823 122.963 8.93055C123.013 8.80287 122.905 8.58291 122.968 8.46155C123.032 8.34019 123.199 8.2517 123.274 8.13667C123.35 8.02163 123.384 7.85224 123.472 7.74479C123.559 7.63734 123.893 7.74479 123.99 7.64618C124.087 7.54758 124.011 7.26189 124.118 7.17213C124.224 7.08238 124.561 7.29855 124.675 7.21638C124.789 7.13421 124.77 6.87886 124.889 6.80554C125.008 6.73222 125.159 6.73095 125.283 6.66521C125.407 6.59948 125.401 6.27586 125.527 6.21771C125.653 6.15956 125.87 6.30621 126 6.25311C126.13 6.20002 126.217 6.04706 126.35 6.00029C126.483 5.95351 126.597 5.85617 126.731 5.81445C126.865 5.77274 127.107 6.12923 127.243 6.09257C127.378 6.05591 127.461 5.86249 127.598 5.82962C127.734 5.79676 127.83 5.60967 127.967 5.58059C128.103 5.55152 128.288 5.79423 128.424 5.76895C128.561 5.74367 128.705 5.81319 128.843 5.7917C128.981 5.77021 129.087 5.59324 129.225 5.57427C129.362 5.55531 129.456 5.21147 129.595 5.19503C129.734 5.1786 129.874 5.18239 130.012 5.16848C130.15 5.15458 130.312 5.41752 130.451 5.40614C130.59 5.39476 130.715 5.25824 130.854 5.24939C130.993 5.24054 131.126 5.1571 131.264 5.14952C131.402 5.14193 131.548 5.35431 131.687 5.34925C131.826 5.3442 131.96 5.29111 132.098 5.28731C132.236 5.28352 132.374 5.34546 132.513 5.34294C132.652 5.34041 132.787 5.46808 132.926 5.46808C133.065 5.46808 133.199 5.44786 133.338 5.44786C133.477 5.44786 133.615 5.26455 133.753 5.26708C133.891 5.26961 134.023 5.42889 134.162 5.43268C134.301 5.43648 134.449 5.06482 134.588 5.06988C134.727 5.07493 134.869 4.99403 135.008 5.00035C135.147 5.00667 135.276 5.18745 135.415 5.19503C135.554 5.20262 135.705 4.9953 135.842 5.00415C135.98 5.013 136.108 5.20135 136.246 5.2102C136.383 5.21905 136.51 5.38086 136.648 5.39097C136.785 5.40109 136.904 5.64001 137.042 5.65138C137.18 5.66276 137.342 5.36948 137.479 5.38086C137.617 5.39223 137.722 5.75251 137.86 5.76515C137.998 5.77779 138.168 5.43901 138.305 5.45291C138.441 5.46682 138.579 5.49337 138.716 5.50727C138.852 5.52118 139.008 5.38591 139.144 5.40108C139.281 5.41625 139.422 5.41373 139.559 5.43016C139.695 5.44659 139.797 5.77021 139.934 5.78665C140.072 5.80308 140.2 5.88525 140.336 5.90295C140.473 5.92064 140.621 5.84985 140.759 5.86755C140.896 5.88524 141.057 5.72091 141.193 5.73988C141.33 5.75884 141.473 5.74619 141.609 5.76515C141.746 5.78411 141.86 5.96994 141.996 5.99017C142.133 6.0104 142.279 5.96741 142.416 5.98764C142.552 6.00787 142.691 6.01798 142.828 6.03947C142.965 6.06096 143.134 5.87892 143.269 5.90041C143.404 5.92191 143.488 6.29103 143.623 6.31379C143.758 6.33654 143.93 6.14945 144.066 6.17221C144.201 6.19496 144.32 6.33149 144.456 6.35424C144.593 6.377 144.717 6.47434 144.852 6.49709C144.987 6.51984 145.145 6.42882 145.28 6.45284C145.416 6.47686 145.518 6.69808 145.653 6.7221C145.789 6.74612 145.979 6.47813 146.113 6.50341C146.247 6.52869 146.412 6.41997 146.547 6.44526C146.682 6.47054 146.713 7.06595 146.848 7.09123C146.983 7.11652 147.203 6.7044 147.338 6.72969C147.474 6.75497 147.555 7.06974 147.69 7.09629C147.825 7.12283 148.024 6.83461 148.159 6.86116C148.294 6.88771 148.426 6.94459 148.56 6.97241C148.694 7.00022 148.823 7.07101 148.957 7.09882C149.091 7.12663 149.251 7.04572 149.385 7.07353C149.519 7.10135 149.653 7.15191 149.787 7.17972C149.921 7.20753 150.047 7.29602 150.181 7.32383C150.315 7.35164 150.401 7.62596 150.535 7.65503C150.669 7.68411 150.808 7.7094 150.941 7.73847C151.074 7.76755 151.228 7.72709 151.361 7.75616C151.494 7.78524 151.591 8.00773 151.722 8.0368C151.854 8.06588 152.047 7.86109 152.179 7.89016C152.318 7.9205 152.438 8.01405 152.569 8.04312C152.708 8.07473 152.903 7.84086 153.033 7.86994C153.172 7.90154 153.258 8.14805 153.387 8.17712C153.528 8.20872 153.697 8.08484 153.825 8.11391" stroke="#D193F6" stroke-width="2.78109" stroke-miterlimit="10"/>
<path d="M45.2267 124.329C45.1705 124.379 45.1368 124.454 45.0808 124.504C45.0249 124.553 44.7919 124.404 44.7359 124.453C44.6799 124.503 44.6097 124.536 44.5538 124.586C44.4978 124.636 44.5277 124.783 44.4717 124.832C44.4157 124.882 44.4274 125.01 44.3716 125.059C44.3158 125.108 44.1639 125.05 44.108 125.099C44.052 125.149 44.0176 125.223 43.9612 125.272C43.9047 125.321 43.8138 125.332 43.7573 125.38C43.7009 125.429 43.6632 125.5 43.6066 125.55C43.5499 125.599 43.4907 125.645 43.4347 125.694C43.3788 125.744 43.4754 125.97 43.4195 126.02C43.3635 126.069 43.2672 126.074 43.2114 126.122C43.1556 126.171 43.0164 126.126 42.96 126.175C42.9035 126.224 42.798 126.217 42.7416 126.266C42.6851 126.315 42.7906 126.553 42.7342 126.602C42.6777 126.651 42.6252 126.706 42.5689 126.754C42.5126 126.802 42.3746 126.758 42.3183 126.806C42.262 126.854 42.1788 126.873 42.1217 126.922C42.0646 126.97 42.052 127.072 41.9958 127.12C41.9395 127.168 41.7477 127.06 41.6915 127.108C41.6352 127.156 41.7383 127.396 41.6814 127.443C41.6244 127.491 41.567 127.541 41.51 127.589C41.4531 127.637 41.3534 127.635 41.2964 127.683C41.2395 127.731 41.0977 127.68 41.0403 127.727C40.9829 127.774 41.013 127.929 40.9562 127.976C40.8995 128.023 40.9026 128.146 40.8457 128.194C40.7887 128.241 40.637 128.177 40.5796 128.224C40.5222 128.271 40.3813 128.22 40.3239 128.267C40.2664 128.314 40.3478 128.531 40.2904 128.578C40.233 128.625 40.0099 128.472 39.9523 128.52C39.8947 128.568 39.9759 128.785 39.9185 128.832C39.8611 128.88 39.8314 128.963 39.7733 129.01C39.7152 129.057 39.604 129.04 39.546 129.087C39.4879 129.134 39.4019 129.147 39.3444 129.194C39.287 129.241 39.168 129.214 39.1099 129.261C39.0518 129.307 39.0202 129.388 38.9621 129.435C38.904 129.482 38.9907 129.711 38.932 129.758C38.8732 129.804 38.7841 129.813 38.7256 129.859C38.667 129.905 38.4719 129.78 38.414 129.827C38.3561 129.873 38.2807 129.9 38.2221 129.946C38.1636 129.992 38.1554 130.104 38.0968 130.15C38.0383 130.196 38.1107 130.412 38.0521 130.458C37.9936 130.504 37.8718 130.471 37.8134 130.516C37.755 130.562 37.6974 130.612 37.6383 130.657C37.5793 130.703 37.4399 130.645 37.3809 130.69C37.3218 130.735 37.3278 130.869 37.2689 130.913C37.21 130.958 37.1266 130.975 37.0677 131.019C37.0088 131.064 37.0072 131.189 36.9476 131.233C36.8881 131.278 36.7267 131.188 36.6672 131.233C36.6076 131.277 36.6112 131.409 36.551 131.453C36.4908 131.497 36.3321 131.409 36.272 131.452C36.212 131.496 36.2903 131.733 36.2303 131.776C36.1703 131.82 35.9703 131.673 35.9105 131.716C35.8506 131.759 35.8735 131.922 35.813 131.965C35.7524 132.007 35.6099 131.938 35.5494 131.98C35.4889 132.023 35.4453 132.093 35.3848 132.135C35.3242 132.178 35.394 132.413 35.3336 132.455C35.2733 132.497 35.1024 132.384 35.0414 132.426C34.9804 132.468 34.9842 132.61 34.9233 132.651C34.8625 132.693 34.6578 132.526 34.5963 132.567C34.5348 132.608 34.6413 132.908 34.5798 132.949C34.5183 132.99 34.4595 133.042 34.3975 133.082C34.3355 133.122 34.1287 132.943 34.066 132.983C34.0034 133.023 33.9158 133.026 33.8535 133.065C33.7912 133.103 33.7894 133.245 33.7264 133.284C33.6634 133.322 33.5596 133.299 33.4967 133.337C33.4337 133.376 33.4458 133.545 33.3823 133.583C33.3189 133.621 33.3099 133.76 33.2467 133.797C33.1834 133.834 33.0333 133.729 32.9689 133.765C32.9045 133.801 32.8875 133.93 32.8234 133.965C32.7594 134 32.6196 133.906 32.5548 133.941C32.4901 133.975 32.4893 134.143 32.4242 134.176C32.3592 134.209 32.2783 134.224 32.2127 134.257C32.1472 134.289 31.9764 134.112 31.9104 134.143C31.8412 134.176 31.8241 134.314 31.7578 134.343C31.6876 134.374 31.6806 134.55 31.6133 134.578C31.5422 134.607 31.3926 134.435 31.3245 134.461C31.2524 134.488 31.2339 134.653 31.1657 134.677C31.0928 134.703 30.9575 134.524 30.8886 134.545C30.8143 134.568 30.7487 134.584 30.6792 134.601C30.6037 134.621 30.5814 134.849 30.5114 134.863C30.4348 134.878 30.3469 134.807 30.2762 134.816C30.1981 134.826 30.1233 134.735 30.0523 134.736C29.9734 134.739 29.9158 134.709 29.8456 134.702C29.7664 134.695 29.675 134.85 29.6071 134.832C29.5312 134.812 29.4736 134.752 29.4097 134.721C29.3403 134.688 29.2726 134.661 29.217 134.615C29.1587 134.568 29.1759 134.464 29.1314 134.405C29.0868 134.346 29.1019 134.281 29.0691 134.212C29.0389 134.147 28.8546 134.145 28.8344 134.072C28.8156 134.003 28.9265 133.908 28.9154 133.832C28.9049 133.762 28.8659 133.698 28.8619 133.621C28.8587 133.55 28.8944 133.481 28.896 133.405C28.8978 133.333 28.8554 133.261 28.8618 133.185C28.8679 133.113 28.6965 133.019 28.7064 132.943C28.7163 132.868 28.7178 132.792 28.7302 132.718C28.7426 132.643 29.048 132.627 29.0624 132.553C29.0768 132.479 29.0372 132.401 29.0536 132.328C29.0699 132.254 28.9676 132.158 28.9859 132.085C29.0042 132.012 28.8925 131.908 28.9115 131.836C28.9305 131.763 29.2101 131.764 29.2304 131.692C29.2507 131.62 29.3097 131.564 29.3307 131.492C29.3516 131.42 29.3727 131.353 29.3948 131.282C29.4169 131.211 29.1622 131.055 29.1851 130.984C29.208 130.912 29.3962 130.896 29.4196 130.826C29.443 130.755 29.313 130.635 29.3364 130.564C29.3598 130.493 29.482 130.458 29.5061 130.387C29.5302 130.317 29.7128 130.303 29.7369 130.232C29.761 130.162 29.4973 129.992 29.522 129.922C29.5468 129.851 29.6365 129.805 29.6611 129.735C29.6856 129.666 29.7689 129.617 29.7941 129.547C29.8194 129.478 29.82 129.4 29.8455 129.329C29.8709 129.259 30.0663 129.253 30.0924 129.183C30.1185 129.113 29.8706 128.945 29.8965 128.875C29.9224 128.806 30.0325 128.768 30.0578 128.698C30.083 128.629 30.3146 128.636 30.3405 128.566C30.3664 128.497 30.1054 128.322 30.1306 128.253C30.1558 128.183 30.2524 128.14 30.2777 128.07C30.3029 128.001 30.2883 127.917 30.3135 127.847C30.3388 127.777 30.362 127.707 30.3873 127.638C30.4125 127.568 30.6076 127.561 30.6331 127.491C30.6585 127.42 30.5748 127.312 30.5993 127.242C30.6239 127.172 30.5976 127.084 30.6222 127.015C30.6467 126.945 30.8643 126.943 30.8889 126.874C30.9135 126.804 31.0004 126.755 31.0243 126.685C31.0482 126.615 30.8648 126.472 30.8887 126.403C30.9126 126.333 30.9814 126.277 31.0053 126.207C31.0292 126.138 31.2182 126.121 31.2414 126.051C31.2647 125.981 31.0583 125.835 31.0809 125.765C31.1035 125.694 31.0923 125.613 31.1143 125.543C31.1362 125.472 31.1392 125.396 31.1604 125.326C31.1817 125.255 31.3605 125.232 31.3818 125.162C31.4031 125.091 31.2398 124.966 31.2604 124.895C31.281 124.824 31.4979 124.809 31.5172 124.738C31.5365 124.667 31.4501 124.566 31.4694 124.495C31.4887 124.424 31.6674 124.393 31.6854 124.322C31.7034 124.25 31.5149 124.127 31.5322 124.055C31.5496 123.984 31.7605 123.956 31.7765 123.884C31.7925 123.812 31.7397 123.723 31.7548 123.652C31.77 123.58 31.665 123.483 31.679 123.41C31.693 123.338 31.8445 123.29 31.857 123.218C31.8695 123.146 31.8971 123.072 31.9083 123C31.9195 122.927 31.8564 122.843 31.8656 122.77C31.8749 122.696 31.7628 122.61 31.7705 122.537C31.7783 122.465 31.8519 122.399 31.857 122.325C31.8621 122.252 31.8209 122.178 31.8239 122.104C31.8268 122.031 31.8727 121.961 31.8729 121.887C31.873 121.814 31.8039 121.744 31.8017 121.671C31.7995 121.599 31.9681 121.515 31.9624 121.442C31.9567 121.37 31.8267 121.309 31.8174 121.237C31.808 121.164 31.7304 121.108 31.7161 121.036C31.7018 120.964 31.9695 120.827 31.9514 120.756C31.9334 120.685 31.7779 120.649 31.7543 120.58C31.7307 120.511 31.8001 120.4 31.7711 120.333C31.742 120.266 31.674 120.208 31.6388 120.143C31.6036 120.078 31.4721 120.071 31.4309 120.01C31.3897 119.95 31.2907 119.943 31.2436 119.885C31.1966 119.828 31.2621 119.674 31.2094 119.622C31.156 119.57 31.1171 119.498 31.0594 119.452C31.0016 119.406 30.9361 119.363 30.874 119.322C30.8119 119.282 30.7306 119.269 30.665 119.235C30.5993 119.2 30.5885 119.036 30.5193 119.007C30.4502 118.978 30.3119 119.123 30.2414 119.099C30.1708 119.075 30.1172 119.003 30.0448 118.983C29.9723 118.963 29.9175 118.86 29.8446 118.845C29.7716 118.83 29.6657 119.011 29.5915 119.001C29.5174 118.991 29.4631 118.837 29.3887 118.83C29.3143 118.824 29.2284 119.044 29.1532 119.041C29.0779 119.038 29.014 118.84 28.9394 118.839C28.8648 118.839 28.7941 118.953 28.7196 118.954C28.6451 118.956 28.5692 118.861 28.4949 118.865C28.4206 118.868 28.3505 118.907 28.2761 118.914C28.2018 118.92 28.1381 118.997 28.0639 119.006C27.9897 119.014 27.888 118.794 27.8141 118.804C27.7402 118.815 27.6621 118.808 27.5885 118.82C27.515 118.832 27.4717 119.021 27.3984 119.035C27.3252 119.048 27.2421 119.002 27.1691 119.016C27.0962 119.031 27.0248 119.051 26.9524 119.066C26.8799 119.082 26.7918 119.03 26.7196 119.048C26.6474 119.065 26.616 119.247 26.5437 119.265C26.4714 119.282 26.3697 119.18 26.2975 119.2C26.2254 119.22 26.133 119.163 26.0614 119.184C25.9899 119.204 25.9153 119.217 25.8443 119.237C25.7732 119.258 25.7338 119.388 25.6632 119.409C25.5927 119.431 25.5155 119.435 25.4448 119.457C25.3741 119.48 25.3239 119.564 25.2536 119.587C25.1834 119.61 25.11 119.624 25.0402 119.648C24.9705 119.672 24.8861 119.655 24.8162 119.68C24.7462 119.705 24.6855 119.754 24.6154 119.779C24.5453 119.804 24.4418 119.737 24.3724 119.762C24.3029 119.788 24.3255 120.057 24.2565 120.084C24.1876 120.11 24.023 119.89 23.9547 119.917C23.8865 119.943 23.8967 120.174 23.8282 120.201C23.7598 120.228 23.6185 120.075 23.5498 120.103C23.4812 120.131 23.4348 120.214 23.3668 120.242C23.2989 120.27 23.2755 120.408 23.2074 120.437C23.1392 120.465 23.1092 120.583 23.0417 120.612C22.9742 120.641 22.9035 120.663 22.8358 120.693C22.7682 120.722 22.5834 120.488 22.5164 120.518C22.4494 120.547 22.4353 120.701 22.3682 120.731C22.301 120.762 22.2841 120.905 22.2176 120.935C22.151 120.966 21.9809 120.775 21.9142 120.806C21.8475 120.838 21.839 120.997 21.7723 121.028C21.7056 121.059 21.5918 120.996 21.5258 121.027C21.4598 121.058 21.3738 121.056 21.3077 121.087C21.2417 121.119 21.2033 121.214 21.1373 121.246C21.0712 121.277 20.9681 121.24 20.9032 121.273C20.8383 121.305 20.7932 121.388 20.7285 121.42C20.6638 121.452 20.6076 121.513 20.5427 121.546C20.4778 121.578 20.3725 121.541 20.3083 121.574C20.2401 121.608 20.2613 121.813 20.1971 121.845C20.1287 121.88 20.0911 121.968 20.0275 122C19.9591 122.035 19.9026 122.087 19.8399 122.119C19.7707 122.155 19.7095 122.197 19.6476 122.229C19.5824 122.263 19.4478 122.162 19.3809 122.197C19.314 122.232 19.1866 122.145 19.1202 122.18C19.0538 122.216 19.1083 122.471 19.0425 122.507C18.9768 122.543 18.8041 122.376 18.7383 122.411C18.6726 122.447 18.7166 122.678 18.6507 122.714C18.5847 122.75 18.5153 122.773 18.4501 122.81C18.3848 122.846 18.2717 122.793 18.2071 122.83C18.1426 122.867 18.0536 122.859 17.9889 122.896C17.9241 122.934 17.8332 122.923 17.7684 122.96C17.7037 122.997 17.7506 123.223 17.6864 123.26C17.6223 123.298 17.5779 123.365 17.5137 123.403C17.4494 123.441 17.2774 123.296 17.2131 123.334C17.1488 123.372 17.208 123.609 17.1442 123.648C17.0804 123.687 17.0017 123.697 16.9379 123.736C16.8741 123.775 16.6523 123.556 16.589 123.596C16.5257 123.635 16.4743 123.692 16.411 123.732C16.3477 123.772 16.4419 124.056 16.3791 124.096C16.3163 124.137 16.1961 124.084 16.1341 124.125C16.0721 124.165 16.0606 124.282 15.9984 124.323C15.9363 124.363 15.726 124.178 15.6638 124.219C15.6017 124.26 15.7105 124.555 15.6482 124.597C15.5858 124.638 15.5193 124.669 15.4576 124.711C15.396 124.752 15.1692 124.549 15.1074 124.592C15.0455 124.634 15.1331 124.889 15.0712 124.932C15.0094 124.974 14.9121 124.961 14.8507 125.004C14.7894 125.047 14.6712 125.006 14.6105 125.049C14.5498 125.092 14.5949 125.281 14.5342 125.324C14.4735 125.368 14.3239 125.285 14.2632 125.328C14.2025 125.372 14.0616 125.304 14.0016 125.347C13.9415 125.391 13.8913 125.448 13.8311 125.492C13.7709 125.537 13.8879 125.817 13.8284 125.861C13.7688 125.905 13.7144 125.955 13.6553 126C13.5963 126.045 13.4163 125.93 13.3573 125.975C13.2982 126.02 13.2121 126.028 13.1529 126.074C13.0936 126.12 12.9957 126.114 12.9372 126.16C12.8786 126.206 12.9229 126.382 12.8643 126.428C12.8057 126.474 12.8387 126.634 12.7808 126.68C12.7229 126.726 12.5276 126.6 12.4695 126.647C12.4114 126.693 12.3104 126.686 12.2523 126.733C12.1942 126.78 12.2646 126.982 12.2072 127.029C12.1498 127.076 12.0841 127.112 12.0265 127.16C11.9689 127.207 11.8329 127.158 11.776 127.206C11.719 127.254 11.7947 127.458 11.7376 127.506C11.6805 127.555 11.6252 127.602 11.569 127.65C11.5127 127.698 11.2765 127.536 11.2201 127.585C11.1636 127.633 11.1642 127.747 11.1078 127.796C11.0513 127.844 11.1114 128.024 11.0554 128.074C10.9995 128.124 10.9795 128.211 10.9237 128.26C10.8679 128.308 10.7742 128.313 10.7189 128.363C10.6636 128.413 10.4659 128.303 10.4111 128.354C10.3563 128.404 10.3844 128.545 10.3291 128.595C10.2738 128.644 10.1995 128.672 10.1447 128.723C10.0899 128.773 10.0636 128.852 10.0086 128.904C9.95359 128.955 9.81538 128.914 9.76123 128.965C9.70707 129.016 9.61529 129.027 9.56162 129.079C9.50795 129.13 9.46541 129.193 9.41174 129.245C9.35807 129.296 9.43645 129.484 9.38278 129.536C9.32911 129.588 9.14945 129.509 9.09645 129.561C9.04344 129.612 9.09941 129.776 9.0464 129.827C8.9934 129.879 9.03351 130.025 8.98116 130.077C8.92882 130.129 8.80264 130.107 8.75012 130.16C8.6976 130.212 8.59271 130.211 8.54068 130.265C8.48865 130.318 8.5653 130.497 8.51344 130.55C8.46158 130.602 8.29136 130.539 8.23932 130.592C8.18729 130.646 8.23188 130.79 8.18051 130.844C8.12913 130.898 8.05829 130.931 8.00691 130.985C7.95554 131.038 7.79805 130.991 7.74733 131.044C7.69662 131.098 7.62313 131.131 7.57225 131.186C7.52136 131.24 7.45312 131.277 7.4029 131.332C7.35267 131.386 7.4774 131.602 7.42718 131.657C7.37695 131.711 7.18421 131.634 7.13381 131.689C7.08341 131.744 7.13658 131.892 7.08701 131.946C7.03745 132.001 6.8137 131.9 6.76462 131.955C6.71554 132.011 6.78543 132.172 6.73569 132.227C6.68595 132.283 6.54248 132.254 6.4934 132.31C6.44433 132.366 6.59602 132.597 6.54694 132.653C6.49787 132.708 6.23685 132.579 6.18843 132.635C6.14001 132.691 6.09354 132.75 6.04561 132.806C5.99768 132.863 5.99008 132.954 5.94149 133.01C5.89289 133.067 5.964 133.224 5.91607 133.28C5.86813 133.337 5.71904 133.308 5.67177 133.365C5.62449 133.422 5.62986 133.523 5.58241 133.58C5.53497 133.637 5.54805 133.744 5.5006 133.801C5.45316 133.859 5.42984 133.934 5.38239 133.992C5.33495 134.049 5.13138 133.978 5.08442 134.036C5.03747 134.095 5.06827 134.214 5.02149 134.272C4.9747 134.329 4.99911 134.443 4.95299 134.501C4.90686 134.559 4.85664 134.613 4.81034 134.672C4.76404 134.73 4.69348 134.768 4.64784 134.827C4.60221 134.885 4.46289 134.871 4.41791 134.93C4.37293 134.988 4.47579 135.161 4.43065 135.221C4.3855 135.28 4.12146 135.171 4.07648 135.229C4.0315 135.288 3.99456 135.354 3.95007 135.414C3.90558 135.473 3.84287 135.519 3.79838 135.578C3.75389 135.638 3.95905 135.883 3.91456 135.943C3.87007 136.003 3.59119 135.888 3.54736 135.948C3.50353 136.007 3.65488 136.211 3.61105 136.27C3.56722 136.33 3.36416 136.274 3.32033 136.333C3.2765 136.393 3.17389 136.411 3.13055 136.471C3.08721 136.532 3.24466 136.736 3.20149 136.796C3.15832 136.856 3.16572 136.951 3.12238 137.012C3.07904 137.073 2.90386 137.039 2.86118 137.099C2.8185 137.16 2.79142 137.231 2.74874 137.292C2.70605 137.353 2.56796 137.347 2.52577 137.409C2.48357 137.47 2.57376 137.622 2.53157 137.683C2.48937 137.745 2.52472 137.858 2.48318 137.919C2.44165 137.981 2.41606 138.052 2.37453 138.114C2.33299 138.176 2.02471 138.058 1.98317 138.119C1.94164 138.181 2.04301 138.338 2.00214 138.4C1.96126 138.462 1.82544 138.461 1.78439 138.523C1.74334 138.586 1.72794 138.664 1.68689 138.726C1.64584 138.789 1.61828 138.859 1.57806 138.921C1.53785 138.984 1.53082 139.067 1.49044 139.13C1.45005 139.193 1.34231 139.211 1.30192 139.274C1.26153 139.336 1.17415 139.369 1.13443 139.432C1.0947 139.495 1.13928 139.61 1.09955 139.673C1.05983 139.736 1.15602 139.883 1.11629 139.946C1.07656 140.009 0.859174 139.961 0.820106 140.024C0.781038 140.087 0.753961 140.158 0.715553 140.222C0.677145 140.285 0.743273 140.412 0.704032 140.476C0.664792 140.54 0.657625 140.621 0.619877 140.685C0.582129 140.748 0.346782 140.694 0.308202 140.758C0.269621 140.821 0.487506 141.037 0.448925 141.101C0.410344 141.165 0.297637 141.183 0.260204 141.248C0.222771 141.313 0.231726 141.403 0.194465 141.467C0.157204 141.532 0.101039 141.585 0.0637784 141.649C0.0265177 141.713 0.0616074 141.819 0.0243467 141.883" stroke="#FFEED1" stroke-width="2.78109" stroke-miterlimit="10"/>
<path d="M177.187 48.1519L178.735 55.7595L181.819 52.3823L182.801 53.2785L178.441 58.0525L177.442 57.1402L175.885 49.5415L172.809 52.9098L171.828 52.0137L176.188 47.2396L177.187 48.1519Z" fill="white"/>
<path d="M171.329 56.7368L172.658 63.2653L175.305 60.3671L176.147 61.1362L172.405 65.2331L171.548 64.4502L170.212 57.9292L167.573 60.8198L166.73 60.0508L170.472 55.9539L171.329 56.7368Z" fill="white"/>
<path d="M165.841 65.7708L166.864 70.7972L168.902 68.5658L169.55 69.1579L166.67 72.3121L166.01 71.7094L164.981 66.6889L162.949 68.9143L162.301 68.3223L165.181 65.1681L165.841 65.7708Z" fill="white"/>
<path fill-rule="evenodd" clip-rule="evenodd" d="M167.723 67.1165L164.675 70.4543L164.049 69.8828L167.097 66.545L167.723 67.1165Z" fill="white"/>
<path fill-rule="evenodd" clip-rule="evenodd" d="M173.911 58.7409L169.952 63.0763L169.139 62.334L173.098 57.9986L173.911 58.7409Z" fill="white"/>
<path fill-rule="evenodd" clip-rule="evenodd" d="M180.246 50.3697L175.633 55.4216L174.686 54.5566L179.299 49.5047L180.246 50.3697Z" fill="white"/>
</g>
<defs>
<filter id="filter0_d_693_4455" x="62.8711" y="70.6699" width="151.078" height="147.776" filterUnits="userSpaceOnUse" color-interpolation-filters="sRGB">
<feFlood flood-opacity="0" result="BackgroundImageFix"/>
<feColorMatrix in="SourceAlpha" type="matrix" values="0 0 0 0 0 0 0 0 0 0 0 0 0 0 0 0 0 0 127 0" result="hardAlpha"/>
<feOffset dy="4"/>
<feGaussianBlur stdDeviation="2"/>
<feComposite in2="hardAlpha" operator="out"/>
<feColorMatrix type="matrix" values="0 0 0 0 0 0 0 0 0 0 0 0 0 0 0 0 0 0 0.25 0"/>
<feBlend mode="normal" in2="BackgroundImageFix" result="effect1_dropShadow_693_4455"/>
<feBlend mode="normal" in="SourceGraphic" in2="effect1_dropShadow_693_4455" result="shape"/>
</filter>
<filter id="filter1_d_693_4455" x="12.6543" y="53.5234" width="108.51" height="86.4668" filterUnits="userSpaceOnUse" color-interpolation-filters="sRGB">
<feFlood flood-opacity="0" result="BackgroundImageFix"/>
<feColorMatrix in="SourceAlpha" type="matrix" values="0 0 0 0 0 0 0 0 0 0 0 0 0 0 0 0 0 0 127 0" result="hardAlpha"/>
<feOffset dx="2" dy="2"/>
<feGaussianBlur stdDeviation="2"/>
<feComposite in2="hardAlpha" operator="out"/>
<feColorMatrix type="matrix" values="0 0 0 0 0 0 0 0 0 0 0 0 0 0 0 0 0 0 0.25 0"/>
<feBlend mode="normal" in2="BackgroundImageFix" result="effect1_dropShadow_693_4455"/>
<feBlend mode="normal" in="SourceGraphic" in2="effect1_dropShadow_693_4455" result="shape"/>
</filter>
<filter id="filter2_d_693_4455" x="51.543" y="19.9062" width="49.0293" height="58.2998" filterUnits="userSpaceOnUse" color-interpolation-filters="sRGB">
<feFlood flood-opacity="0" result="BackgroundImageFix"/>
<feColorMatrix in="SourceAlpha" type="matrix" values="0 0 0 0 0 0 0 0 0 0 0 0 0 0 0 0 0 0 127 0" result="hardAlpha"/>
<feOffset dx="2" dy="2"/>
<feGaussianBlur stdDeviation="2"/>
<feComposite in2="hardAlpha" operator="out"/>
<feColorMatrix type="matrix" values="0 0 0 0 0 0 0 0 0 0 0 0 0 0 0 0 0 0 0.25 0"/>
<feBlend mode="normal" in2="BackgroundImageFix" result="effect1_dropShadow_693_4455"/>
<feBlend mode="normal" in="SourceGraphic" in2="effect1_dropShadow_693_4455" result="shape"/>
</filter>
<radialGradient id="paint0_radial_693_4455" cx="0" cy="0" r="1" gradientUnits="userSpaceOnUse" gradientTransform="translate(186.302 93.8653) rotate(136.271) scale(12.1695 23.2121)">
<stop stop-color="#FFEED1"/>
<stop offset="1" stop-color="#FFD080"/>
</radialGradient>
<linearGradient id="paint1_linear_693_4455" x1="171.32" y1="108.196" x2="94.1296" y2="182.036" gradientUnits="userSpaceOnUse">
<stop offset="0.375" stop-color="#FFD080"/>
<stop offset="1" stop-color="#FF9A78"/>
</linearGradient>
<linearGradient id="paint2_linear_693_4455" x1="168.36" y1="105.102" x2="148.5" y2="123.788" gradientUnits="userSpaceOnUse">
<stop stop-color="#FFEED1"/>
<stop offset="1" stop-color="white"/>
</linearGradient>
<linearGradient id="paint3_linear_693_4455" x1="106.914" y1="87.2276" x2="84.4997" y2="132.667" gradientUnits="userSpaceOnUse">
<stop stop-color="#FF7F7F"/>
<stop offset="0.562875" stop-color="#C92C2C"/>
<stop offset="1" stop-color="#A02D2D"/>
</linearGradient>
<linearGradient id="paint4_linear_693_4455" x1="89.1422" y1="81.3777" x2="89.1422" y2="132.044" gradientUnits="userSpaceOnUse">
<stop stop-color="#FFC7B4"/>
<stop offset="0.31" stop-color="#EF5C5C"/>
</linearGradient>
<linearGradient id="paint5_linear_693_4455" x1="72.1644" y1="86.4087" x2="62.7006" y2="105.594" gradientUnits="userSpaceOnUse">
<stop stop-color="#FF7F7F"/>
<stop offset="1" stop-color="#EC4343"/>
</linearGradient>
<linearGradient id="paint6_linear_693_4455" x1="51.8799" y1="60.0851" x2="29.4669" y2="105.523" gradientUnits="userSpaceOnUse">
<stop stop-color="#FF7F7F"/>
<stop offset="1" stop-color="#BC2626"/>
</linearGradient>
<linearGradient id="paint7_linear_693_4455" x1="34.111" y1="54.2321" x2="34.111" y2="104.899" gradientUnits="userSpaceOnUse">
<stop stop-color="#FFC7B4"/>
<stop offset="0.495138" stop-color="#FF7F7F"/>
<stop offset="0.925" stop-color="#FF5D5D"/>
</linearGradient>
<linearGradient id="paint8_linear_693_4455" x1="93.7338" y1="55.8989" x2="71.4162" y2="68.4643" gradientUnits="userSpaceOnUse">
<stop stop-color="#FF7F7F"/>
<stop offset="0.562875" stop-color="#C92C2C"/>
<stop offset="1" stop-color="#A02D2D"/>
</linearGradient>
<linearGradient id="paint9_linear_693_4455" x1="80.7587" y1="46.1532" x2="80.7587" y2="71.7646" gradientUnits="userSpaceOnUse">
<stop stop-color="#FFC7B4"/>
<stop offset="0.31" stop-color="#EF5C5C"/>
</linearGradient>
<linearGradient id="paint10_linear_693_4455" x1="79.4681" y1="45.6429" x2="70.045" y2="50.9484" gradientUnits="userSpaceOnUse">
<stop stop-color="#FF7F7F"/>
<stop offset="1" stop-color="#EC4343"/>
</linearGradient>
<linearGradient id="paint11_linear_693_4455" x1="78.5145" y1="28.8719" x2="56.198" y2="41.4366" gradientUnits="userSpaceOnUse">
<stop stop-color="#FF7F7F"/>
<stop offset="1" stop-color="#BC2626"/>
</linearGradient>
<linearGradient id="paint12_linear_693_4455" x1="65.54" y1="19.1248" x2="65.54" y2="44.7363" gradientUnits="userSpaceOnUse">
<stop stop-color="#FFC7B4"/>
<stop offset="0.495138" stop-color="#FF7F7F"/>
<stop offset="0.925" stop-color="#FF5D5D"/>
</linearGradient>
<clipPath id="clip0_693_4455">
<rect width="220" height="220" fill="white"/>
</clipPath>
</defs>
</svg>
