<svg width="96" height="96" viewBox="0 0 96 96" fill="none" xmlns="http://www.w3.org/2000/svg">
<g clip-path="url(#clip0_572_8224)">
<rect width="96" height="96" rx="8" fill="#FE9A9A"/>
<g filter="url(#filter0_f_572_8224)">
<rect x="65.2363" y="36.833" width="54.811" height="85.6795" rx="27.4055" transform="rotate(56.751 65.2363 36.833)" fill="#FF7F7F"/>
<rect x="2.60742" y="48.1113" width="9.4364" height="17.5298" rx="4.7182" transform="rotate(-54.9111 2.60742 48.1113)" fill="#FF7F7F"/>
<rect x="26.5938" y="18.7646" width="13.4106" height="26.3253" rx="6.70532" transform="rotate(-127.474 26.5938 18.7646)" fill="#FF7F7F"/>
<rect x="65.9102" y="3.62891" width="9.49601" height="16.7291" rx="4.748" transform="rotate(46.5722 65.9102 3.62891)" fill="#FF7F7F"/>
</g>
<path opacity="0.9" d="M55.5528 46.125C59.7518 68.0892 38.8632 67.3301 43.6017 78.7483C50.7078 95.8674 36.8186 96.8364 31.6506 91.0224C24.4121 82.8795 33.5886 61.3061 18.7305 60.3371" stroke="url(#paint0_radial_572_8224)" stroke-width="7.75207" stroke-linecap="round" stroke-linejoin="round"/>
<path opacity="0.9" d="M77.1934 46.125C91.7285 51.9391 91.2569 59.7493 91.7285 67.6693C92.6975 83.9163 117.892 104.589 115.954 79.3943C114.216 56.7938 131.135 82.6243 126.936 62.2751" stroke="url(#paint1_radial_572_8224)" stroke-width="7.75207" stroke-linecap="round" stroke-linejoin="round"/>
<path d="M59.4289 65.1826V107.173H55.2298C51.1277 107.173 47.8008 110.5 47.8008 114.602H59.4289H67.827V65.1826H59.4289Z" fill="#FFEED1"/>
<path d="M86.562 107.174H82.3629V64.8604H73.9648V114.603H93.991C93.991 110.501 90.6641 107.174 86.562 107.174Z" fill="#FFEED1"/>
<path opacity="0.9" d="M91.3283 103.229C69.4449 94.8988 89.1061 78.3126 78.2984 70.3506C63.3757 59.3588 74.768 51.358 82.1971 53.6675" stroke="url(#paint2_linear_572_8224)" stroke-width="7.75207" stroke-linecap="round" stroke-linejoin="round"/>
<path opacity="0.9" d="M58.8854 109.674C68.4689 101.359 56.1367 92.5286 57.2155 84.6667C59.3408 69.1852 75.898 67.4442 51.3691 41.4102" stroke="url(#paint3_linear_572_8224)" stroke-width="7.75207" stroke-linecap="round" stroke-linejoin="round"/>
<path d="M109.817 53.3932C109.817 72.2146 96.2509 70.0279 72.0257 69.7049C44.2022 69.3334 34.2344 72.2146 34.2344 53.3932C34.2344 34.5718 51.1533 19.3164 72.0257 19.3164C92.8982 19.3164 109.817 34.5718 109.817 53.3932Z" fill="url(#paint4_radial_572_8224)"/>
<path d="M66.8861 52.8631C68.7735 52.8631 70.3035 51.3331 70.3035 49.4457C70.3035 47.5583 68.7735 46.0283 66.8861 46.0283C64.9988 46.0283 63.4688 47.5583 63.4688 49.4457C63.4688 51.3331 64.9988 52.8631 66.8861 52.8631Z" stroke="#3C3E41" stroke-width="1.93802" stroke-linecap="round" stroke-linejoin="round"/>
<path d="M77.14 52.8631C79.0274 52.8631 80.5574 51.3331 80.5574 49.4457C80.5574 47.5583 79.0274 46.0283 77.14 46.0283C75.2527 46.0283 73.7227 47.5583 73.7227 49.4457C73.7227 51.3331 75.2527 52.8631 77.14 52.8631Z" stroke="#3C3E41" stroke-width="1.93802" stroke-linecap="round" stroke-linejoin="round"/>
<path d="M73.7227 43.8653L80.4282 42.5732" stroke="#181A1B" stroke-width="0.646006" stroke-linecap="round" stroke-linejoin="round"/>
<path d="M70.3039 43.2383C70.4493 41.8139 69.2283 40.8222 67.8297 40.6317C66.402 40.4411 64.8064 41.1614 64.6094 42.6117" stroke="#181A1B" stroke-width="0.646006" stroke-linecap="round" stroke-linejoin="round"/>
<path d="M70.3027 49.4463H73.7201" stroke="#3C3E41" stroke-width="1.93802" stroke-linecap="round" stroke-linejoin="round"/>
<g filter="url(#filter1_b_572_8224)">
<path d="M13.1163 10.5013V11.281C13.1163 11.8991 13.0144 12.4751 12.8107 13.009C12.614 13.5429 12.3155 14.01 11.9151 14.4104C11.5147 14.8108 11.016 15.1058 10.4189 15.2954L9.70241 14.1996C10.2082 14.0381 10.6296 13.8063 10.9668 13.5042C11.304 13.1951 11.5533 12.851 11.7149 12.4716C11.8765 12.0923 11.9572 11.6954 11.9572 11.281V10.5013H13.1163ZM13.3902 10.5013V11.281C13.3902 11.6744 13.4675 12.0502 13.622 12.4084C13.7766 12.7667 14.0189 13.0933 14.349 13.3883C14.6792 13.6763 15.0936 13.8976 15.5924 14.0521L14.8864 15.1374C14.3034 14.9548 13.8117 14.6738 13.4113 14.2945C13.0179 13.9081 12.7264 13.4586 12.5367 12.9458C12.3471 12.426 12.2523 11.871 12.2523 11.281V10.5013H13.3902ZM15.2341 10.1009V11.2072H10.0817V10.1009H15.2341ZM17.5627 9.44763V16.2859H16.1508V9.44763H17.5627ZM17.7945 17.6451V18.762H11.2302V17.6451H17.7945ZM12.6316 15.6642V18.2035H11.2302V15.6642H12.6316ZM22.2517 10.9438V11.9764C22.2517 12.728 22.1534 13.448 21.9567 14.1364C21.76 14.8248 21.4615 15.4324 21.0611 15.9592C20.6607 16.4861 20.169 16.883 19.586 17.1499L18.7957 16.0435C19.3085 15.8117 19.7405 15.4816 20.0917 15.0531C20.4429 14.6176 20.7028 14.1364 20.8714 13.6096C21.047 13.0757 21.1348 12.5313 21.1348 11.9764V10.9438H22.2517ZM22.5573 10.9438V11.9764C22.5573 12.5032 22.6416 13.0195 22.8102 13.5253C22.9858 14.024 23.2492 14.4771 23.6004 14.8845C23.9516 15.2849 24.3836 15.5905 24.8964 15.8012L24.1272 16.9075C23.5372 16.6547 23.042 16.2789 22.6416 15.7801C22.2412 15.2814 21.9427 14.7054 21.746 14.0521C21.5493 13.3989 21.4509 12.707 21.4509 11.9764V10.9438H22.5573ZM24.5066 10.3432V11.5023H19.175V10.3432H24.5066ZM26.7508 9.44763V18.9306H25.3495V9.44763H26.7508ZM35.5702 9.44763V16.5282H34.1583V9.44763H35.5702ZM36.8135 12.3136V13.4726H35.1804V12.3136H36.8135ZM33.6736 10.417V11.5128H28.0998V10.417H33.6736ZM30.892 11.8394C31.3415 11.8394 31.7419 11.9167 32.0931 12.0712C32.4514 12.2258 32.7288 12.4435 32.9255 12.7245C33.1292 12.9985 33.2311 13.3146 33.2311 13.6728C33.2311 14.031 33.1292 14.3507 32.9255 14.6316C32.7288 14.9126 32.4514 15.1304 32.0931 15.2849C31.7419 15.4324 31.3415 15.5062 30.892 15.5062C30.4424 15.5062 30.0385 15.4324 29.6803 15.2849C29.329 15.1304 29.0516 14.9126 28.8479 14.6316C28.6512 14.3507 28.5528 14.031 28.5528 13.6728C28.5528 13.3146 28.6512 12.9985 28.8479 12.7245C29.0516 12.4435 29.329 12.2258 29.6803 12.0712C30.0385 11.9167 30.4424 11.8394 30.892 11.8394ZM30.892 12.9036C30.5899 12.9036 30.3476 12.9704 30.1649 13.1038C29.9893 13.2373 29.9015 13.427 29.9015 13.6728C29.9015 13.9187 29.9893 14.1083 30.1649 14.2418C30.3476 14.3752 30.5899 14.442 30.892 14.442C31.187 14.442 31.4223 14.3752 31.5979 14.2418C31.7806 14.1083 31.8719 13.9187 31.8719 13.6728C31.8719 13.427 31.7806 13.2373 31.5979 13.1038C31.4223 12.9704 31.187 12.9036 30.892 12.9036ZM31.5874 9.42656V10.9438H30.186V9.42656H31.5874ZM35.9074 17.6451V18.762H29.4379V17.6451H35.9074ZM30.8393 15.9909V18.1298H29.4379V15.9909H30.8393ZM18.2686 28.7676V29.9056H9.69187V28.7676H18.2686ZM17.2993 27.0186V28.1249H10.7245V27.0186H17.2993ZM17.2466 24.69V25.8069H12.1153V27.5665H10.7245V24.69H17.2466ZM13.9381 30.443C14.9707 30.443 15.7785 30.5975 16.3615 30.9066C16.9446 31.2086 17.2361 31.6336 17.2361 32.1815C17.2361 32.7364 16.9446 33.1649 16.3615 33.467C15.7785 33.776 14.9707 33.9306 13.9381 33.9306C12.9126 33.9306 12.1083 33.776 11.5252 33.467C10.9422 33.1649 10.6507 32.7399 10.6507 32.192C10.6507 31.6371 10.9422 31.2086 11.5252 30.9066C12.1083 30.5975 12.9126 30.443 13.9381 30.443ZM13.9381 31.4966C13.3129 31.4966 12.8423 31.5528 12.5262 31.6652C12.2171 31.7776 12.0626 31.9532 12.0626 32.192C12.0626 32.4238 12.2171 32.5959 12.5262 32.7083C12.8423 32.8137 13.3165 32.8664 13.9486 32.8664C14.5808 32.8664 15.0515 32.8137 15.3606 32.7083C15.6696 32.5959 15.8242 32.4238 15.8242 32.192C15.8242 31.9532 15.6661 31.7776 15.35 31.6652C15.0409 31.5528 14.5703 31.4966 13.9381 31.4966ZM27.0353 24.4371V33.92H25.6972V24.4371H27.0353ZM26.0238 28.0722V29.2102H24.4644V28.0722H26.0238ZM24.8859 24.6057V33.467H23.5899V24.6057H24.8859ZM19.8178 30.6537C20.464 30.6537 21.0365 30.6361 21.5352 30.601C22.034 30.5659 22.5432 30.5027 23.063 30.4113L23.1789 31.5493C22.6381 31.6547 22.1112 31.7249 21.5985 31.76C21.0857 31.7881 20.4921 31.8022 19.8178 31.8022H19.154V30.6537H19.8178ZM22.6416 25.5329V26.6603H20.5343V31.2016H19.154V25.5329H22.6416ZM31.4609 25.9438V26.9764C31.4609 27.728 31.3626 28.448 31.1659 29.1364C30.9692 29.8248 30.6707 30.4324 30.2703 30.9592C29.8699 31.4861 29.3782 31.883 28.7952 32.1499L28.0049 31.0435C28.5177 30.8117 28.9497 30.4816 29.3009 30.0531C29.6522 29.6176 29.9121 29.1364 30.0807 28.6096C30.2563 28.0757 30.3441 27.5313 30.3441 26.9764V25.9438H31.4609ZM31.7665 25.9438V26.9764C31.7665 27.5032 31.8508 28.0195 32.0194 28.5253C32.195 29.024 32.4584 29.4771 32.8096 29.8845C33.1608 30.2849 33.5928 30.5905 34.1056 30.8012L33.3365 31.9075C32.7464 31.6547 32.2512 31.2789 31.8508 30.7801C31.4504 30.2814 31.1519 29.7054 30.9552 29.0521C30.7585 28.3989 30.6602 27.707 30.6602 26.9764V25.9438H31.7665ZM33.7158 25.3432V26.5023H28.3843V25.3432H33.7158ZM35.9601 24.4476V33.9306H34.5587V24.4476H35.9601ZM45.2114 24.4371V33.92H43.7995V24.4371H45.2114ZM42.3982 25.4065C42.3982 26.439 42.2647 27.3733 41.9978 28.2092C41.7309 29.0381 41.2778 29.8002 40.6386 30.4956C39.9993 31.191 39.1353 31.8022 38.0466 32.329L37.3195 31.2227C38.2187 30.7942 38.9351 30.313 39.469 29.7791C40.0099 29.2453 40.3997 28.6447 40.6386 27.9774C40.8774 27.3101 40.9968 26.5409 40.9968 25.6699V25.4065H42.3982ZM41.6606 25.4065V26.5233H37.8253V25.4065H41.6606Z" fill="white"/>
</g>
</g>
<rect x="0.292683" y="0.292683" width="95.4146" height="95.4146" rx="7.70732" stroke="white" stroke-width="0.585366"/>
<defs>
<filter id="filter0_f_572_8224" x="1.77768" y="-7.54068" width="85.3157" height="128.993" filterUnits="userSpaceOnUse" color-interpolation-filters="sRGB">
<feFlood flood-opacity="0" result="BackgroundImageFix"/>
<feBlend mode="normal" in="SourceGraphic" in2="BackgroundImageFix" result="shape"/>
<feGaussianBlur stdDeviation="1.17073" result="effect1_foregroundBlur_572_8224"/>
</filter>
<filter id="filter1_b_572_8224" x="3.83775" y="3.5731" width="47.2268" height="36.2112" filterUnits="userSpaceOnUse" color-interpolation-filters="sRGB">
<feFlood flood-opacity="0" result="BackgroundImageFix"/>
<feGaussianBlur in="BackgroundImageFix" stdDeviation="2.92683"/>
<feComposite in2="SourceAlpha" operator="in" result="effect1_backgroundBlur_572_8224"/>
<feBlend mode="normal" in="SourceGraphic" in2="effect1_backgroundBlur_572_8224" result="shape"/>
</filter>
<radialGradient id="paint0_radial_572_8224" cx="0" cy="0" r="1" gradientUnits="userSpaceOnUse" gradientTransform="translate(37.4226 70.179) scale(25.3913 25.3913)">
<stop stop-color="#FFD080"/>
<stop offset="0.23" stop-color="#FFEED1"/>
<stop offset="0.87" stop-color="#FFD080"/>
</radialGradient>
<radialGradient id="paint1_radial_572_8224" cx="0" cy="0" r="1" gradientUnits="userSpaceOnUse" gradientTransform="translate(102.401 68.6415) scale(27.7718 27.7718)">
<stop stop-color="#FFD080"/>
<stop offset="0.23" stop-color="#FFEED1"/>
<stop offset="0.87" stop-color="#FFD080"/>
</radialGradient>
<linearGradient id="paint2_linear_572_8224" x1="96.853" y1="70.4707" x2="71.1481" y2="85.9647" gradientUnits="userSpaceOnUse">
<stop stop-color="#FFD080"/>
<stop offset="0.57" stop-color="#FFDFA4"/>
<stop offset="0.87" stop-color="#FFD080"/>
</linearGradient>
<linearGradient id="paint3_linear_572_8224" x1="76.7663" y1="88.3008" x2="34.0642" y2="63.1373" gradientUnits="userSpaceOnUse">
<stop stop-color="#FFD080"/>
<stop offset="0.57" stop-color="#FFDFA4"/>
<stop offset="0.87" stop-color="#FFD080"/>
</linearGradient>
<radialGradient id="paint4_radial_572_8224" cx="0" cy="0" r="1" gradientUnits="userSpaceOnUse" gradientTransform="translate(72.0257 44.6301) scale(45.3431 45.3431)">
<stop stop-color="#FFD080"/>
<stop offset="0.35" stop-color="#FFD080"/>
<stop offset="1" stop-color="#FFEED1" stop-opacity="0.9"/>
</radialGradient>
<clipPath id="clip0_572_8224">
<rect width="96" height="96" rx="8" fill="white"/>
</clipPath>
</defs>
</svg>
