<svg width="164" height="164" viewBox="0 0 164 164" fill="none" xmlns="http://www.w3.org/2000/svg">
<g clip-path="url(#clip0_527_2412)">
<rect width="164" height="164" rx="8" fill="#FE9A9A"/>
<g filter="url(#filter0_f_527_2412)">
<rect x="111.445" y="62.9224" width="93.6355" height="146.369" rx="46.8177" transform="rotate(56.751 111.445 62.9224)" fill="#FF7F7F"/>
<rect x="4.45703" y="82.1895" width="16.1205" height="29.9468" rx="8.06026" transform="rotate(-54.9111 4.45703 82.1895)" fill="#FF7F7F"/>
<rect x="45.4316" y="32.0552" width="22.9098" height="44.9724" rx="11.4549" transform="rotate(-127.474 45.4316 32.0552)" fill="#FF7F7F"/>
<rect x="112.598" y="6.19824" width="16.2224" height="28.5788" rx="8.11118" transform="rotate(46.5722 112.598 6.19824)" fill="#FF7F7F"/>
</g>
<path opacity="0.9" d="M94.9048 78.7988C102.078 116.321 66.3935 115.024 74.4883 134.53C86.6279 163.775 62.9006 165.431 54.0719 155.499C41.7061 141.588 57.3826 104.733 32 103.078" stroke="url(#paint0_radial_527_2412)" stroke-width="13.2431" stroke-linecap="round" stroke-linejoin="round"/>
<path opacity="0.9" d="M131.875 78.7988C156.706 88.7312 155.9 102.074 156.706 115.604C158.361 143.359 201.401 178.674 198.091 135.634C195.122 97.0247 224.025 141.152 216.852 106.389" stroke="url(#paint1_radial_527_2412)" stroke-width="13.2431" stroke-linecap="round" stroke-linejoin="round"/>
<path d="M101.527 111.355V183.089H94.3534C87.3456 183.089 81.6621 188.772 81.6621 195.78H101.527H115.873V111.355H101.527Z" fill="#FFEED1"/>
<path d="M147.877 183.089H140.704V110.803H126.357V195.78H160.569C160.569 188.772 154.885 183.089 147.877 183.089Z" fill="#FFEED1"/>
<path opacity="0.9" d="M156.021 176.351C118.636 162.12 152.224 133.785 133.761 120.183C108.268 101.406 127.73 87.7376 140.421 91.683" stroke="url(#paint2_linear_527_2412)" stroke-width="13.2431" stroke-linecap="round" stroke-linejoin="round"/>
<path opacity="0.9" d="M100.598 187.359C116.97 173.156 95.9023 158.07 97.7453 144.639C101.376 118.192 129.661 115.217 87.7578 70.7427" stroke="url(#paint3_linear_527_2412)" stroke-width="13.2431" stroke-linecap="round" stroke-linejoin="round"/>
<path d="M187.607 91.2145C187.607 123.368 164.431 119.632 123.047 119.08C75.5148 118.446 58.4863 123.368 58.4863 91.2145C58.4863 59.0614 87.3894 33 123.047 33C158.704 33 187.607 59.0614 187.607 91.2145Z" fill="url(#paint4_radial_527_2412)"/>
<path d="M114.262 90.3093C117.486 90.3093 120.1 87.6956 120.1 84.4713C120.1 81.2471 117.486 78.6333 114.262 78.6333C111.038 78.6333 108.424 81.2471 108.424 84.4713C108.424 87.6956 111.038 90.3093 114.262 90.3093Z" stroke="#3C3E41" stroke-width="3.31078" stroke-linecap="round" stroke-linejoin="round"/>
<path d="M131.777 90.3093C135.002 90.3093 137.615 87.6956 137.615 84.4713C137.615 81.2471 135.002 78.6333 131.777 78.6333C128.553 78.6333 125.939 81.2471 125.939 84.4713C125.939 87.6956 128.553 90.3093 131.777 90.3093Z" stroke="#3C3E41" stroke-width="3.31078" stroke-linecap="round" stroke-linejoin="round"/>
<path d="M125.939 74.9362L137.395 72.729" stroke="#181A1B" stroke-width="1.10359" stroke-linecap="round" stroke-linejoin="round"/>
<path d="M120.099 73.8658C120.348 71.4323 118.262 69.7383 115.872 69.4128C113.434 69.0872 110.708 70.3177 110.371 72.7953" stroke="#181A1B" stroke-width="1.10359" stroke-linecap="round" stroke-linejoin="round"/>
<path d="M120.102 84.4717H125.94" stroke="#3C3E41" stroke-width="3.31078" stroke-linecap="round" stroke-linejoin="round"/>
<g filter="url(#filter1_b_527_2412)">
<path d="M22.408 18.148V19.48C22.408 20.536 22.234 21.52 21.886 22.432C21.55 23.344 21.04 24.142 20.356 24.826C19.672 25.51 18.82 26.014 17.8 26.338L16.576 24.466C17.44 24.19 18.16 23.794 18.736 23.278C19.312 22.75 19.738 22.162 20.014 21.514C20.29 20.866 20.428 20.188 20.428 19.48V18.148H22.408ZM22.876 18.148V19.48C22.876 20.152 23.008 20.794 23.272 21.406C23.536 22.018 23.95 22.576 24.514 23.08C25.078 23.572 25.786 23.95 26.638 24.214L25.432 26.068C24.436 25.756 23.596 25.276 22.912 24.628C22.24 23.968 21.742 23.2 21.418 22.324C21.094 21.436 20.932 20.488 20.932 19.48V18.148H22.876ZM26.026 17.464V19.354H17.224V17.464H26.026ZM30.004 16.348V28.03H27.592V16.348H30.004ZM30.4 30.352V32.26H19.186V30.352H30.4ZM21.58 26.968V31.306H19.186V26.968H21.58ZM38.0144 18.904V20.668C38.0144 21.952 37.8464 23.182 37.5104 24.358C37.1744 25.534 36.6644 26.572 35.9804 27.472C35.2964 28.372 34.4564 29.05 33.4604 29.506L32.1104 27.616C32.9864 27.22 33.7244 26.656 34.3244 25.924C34.9244 25.18 35.3684 24.358 35.6564 23.458C35.9564 22.546 36.1064 21.616 36.1064 20.668V18.904H38.0144ZM38.5364 18.904V20.668C38.5364 21.568 38.6804 22.45 38.9684 23.314C39.2684 24.166 39.7184 24.94 40.3184 25.636C40.9184 26.32 41.6564 26.842 42.5324 27.202L41.2184 29.092C40.2104 28.66 39.3644 28.018 38.6804 27.166C37.9964 26.314 37.4864 25.33 37.1504 24.214C36.8144 23.098 36.6464 21.916 36.6464 20.668V18.904H38.5364ZM41.8664 17.878V19.858H32.7584V17.878H41.8664ZM45.7004 16.348V32.548H43.3064V16.348H45.7004ZM60.7668 16.348V28.444H58.3548V16.348H60.7668ZM62.8908 21.244V23.224H60.1008V21.244H62.8908ZM57.5268 18.004V19.876H48.0048V18.004H57.5268ZM52.7748 20.434C53.5428 20.434 54.2268 20.566 54.8268 20.83C55.4388 21.094 55.9128 21.466 56.2488 21.946C56.5968 22.414 56.7708 22.954 56.7708 23.566C56.7708 24.178 56.5968 24.724 56.2488 25.204C55.9128 25.684 55.4388 26.056 54.8268 26.32C54.2268 26.572 53.5428 26.698 52.7748 26.698C52.0068 26.698 51.3168 26.572 50.7048 26.32C50.1048 26.056 49.6308 25.684 49.2828 25.204C48.9468 24.724 48.7788 24.178 48.7788 23.566C48.7788 22.954 48.9468 22.414 49.2828 21.946C49.6308 21.466 50.1048 21.094 50.7048 20.83C51.3168 20.566 52.0068 20.434 52.7748 20.434ZM52.7748 22.252C52.2588 22.252 51.8448 22.366 51.5328 22.594C51.2328 22.822 51.0828 23.146 51.0828 23.566C51.0828 23.986 51.2328 24.31 51.5328 24.538C51.8448 24.766 52.2588 24.88 52.7748 24.88C53.2788 24.88 53.6808 24.766 53.9808 24.538C54.2928 24.31 54.4488 23.986 54.4488 23.566C54.4488 23.146 54.2928 22.822 53.9808 22.594C53.6808 22.366 53.2788 22.252 52.7748 22.252ZM53.9628 16.312V18.904H51.5688V16.312H53.9628ZM61.3428 30.352V32.26H50.2908V30.352H61.3428ZM52.6848 27.526V31.18H50.2908V27.526H52.6848ZM31.21 48.728V50.672H16.558V48.728H31.21ZM29.554 45.74V47.63H18.322V45.74H29.554ZM29.464 41.762V43.67H20.698V46.676H18.322V41.762H29.464ZM23.812 51.59C25.576 51.59 26.956 51.854 27.952 52.382C28.948 52.898 29.446 53.624 29.446 54.56C29.446 55.508 28.948 56.24 27.952 56.756C26.956 57.284 25.576 57.548 23.812 57.548C22.06 57.548 20.686 57.284 19.69 56.756C18.694 56.24 18.196 55.514 18.196 54.578C18.196 53.63 18.694 52.898 19.69 52.382C20.686 51.854 22.06 51.59 23.812 51.59ZM23.812 53.39C22.744 53.39 21.94 53.486 21.4 53.678C20.872 53.87 20.608 54.17 20.608 54.578C20.608 54.974 20.872 55.268 21.4 55.46C21.94 55.64 22.75 55.73 23.83 55.73C24.91 55.73 25.714 55.64 26.242 55.46C26.77 55.268 27.034 54.974 27.034 54.578C27.034 54.17 26.764 53.87 26.224 53.678C25.696 53.486 24.892 53.39 23.812 53.39ZM46.1864 41.33V57.53H43.9004V41.33H46.1864ZM44.4584 47.54V49.484H41.7944V47.54H44.4584ZM42.5144 41.618V56.756H40.3004V41.618H42.5144ZM33.8564 51.95C34.9604 51.95 35.9384 51.92 36.7904 51.86C37.6424 51.8 38.5124 51.692 39.4004 51.536L39.5984 53.48C38.6744 53.66 37.7744 53.78 36.8984 53.84C36.0224 53.888 35.0084 53.912 33.8564 53.912H32.7224V51.95H33.8564ZM38.6804 43.202V45.128H35.0804V52.886H32.7224V43.202H38.6804ZM53.7468 43.904V45.668C53.7468 46.952 53.5788 48.182 53.2428 49.358C52.9068 50.534 52.3968 51.572 51.7128 52.472C51.0288 53.372 50.1888 54.05 49.1928 54.506L47.8428 52.616C48.7188 52.22 49.4568 51.656 50.0568 50.924C50.6568 50.18 51.1008 49.358 51.3888 48.458C51.6888 47.546 51.8388 46.616 51.8388 45.668V43.904H53.7468ZM54.2688 43.904V45.668C54.2688 46.568 54.4128 47.45 54.7008 48.314C55.0008 49.166 55.4508 49.94 56.0508 50.636C56.6508 51.32 57.3888 51.842 58.2648 52.202L56.9508 54.092C55.9428 53.66 55.0968 53.018 54.4128 52.166C53.7288 51.314 53.2188 50.33 52.8828 49.214C52.5468 48.098 52.3788 46.916 52.3788 45.668V43.904H54.2688ZM57.5988 42.878V44.858H48.4908V42.878H57.5988ZM61.4328 41.348V57.548H59.0388V41.348H61.4328ZM77.2373 41.33V57.53H74.8253V41.33H77.2373ZM72.4313 42.986C72.4313 44.75 72.2033 46.346 71.7473 47.774C71.2913 49.19 70.5173 50.492 69.4253 51.68C68.3333 52.868 66.8573 53.912 64.9973 54.812L63.7553 52.922C65.2913 52.19 66.5153 51.368 67.4273 50.456C68.3513 49.544 69.0173 48.518 69.4253 47.378C69.8333 46.238 70.0373 44.924 70.0373 43.436V42.986H72.4313ZM71.1713 42.986V44.894H64.6193V42.986H71.1713Z" fill="white"/>
</g>
</g>
<rect x="0.5" y="0.5" width="163" height="163" rx="7.5" stroke="white"/>
<defs>
<filter id="filter0_f_527_2412" x="3.03711" y="-12.8833" width="145.746" height="220.364" filterUnits="userSpaceOnUse" color-interpolation-filters="sRGB">
<feFlood flood-opacity="0" result="BackgroundImageFix"/>
<feBlend mode="normal" in="SourceGraphic" in2="BackgroundImageFix" result="shape"/>
<feGaussianBlur stdDeviation="2" result="effect1_foregroundBlur_527_2412"/>
</filter>
<filter id="filter1_b_527_2412" x="6.55859" y="6.31201" width="80.6777" height="61.2358" filterUnits="userSpaceOnUse" color-interpolation-filters="sRGB">
<feFlood flood-opacity="0" result="BackgroundImageFix"/>
<feGaussianBlur in="BackgroundImageFix" stdDeviation="5"/>
<feComposite in2="SourceAlpha" operator="in" result="effect1_backgroundBlur_527_2412"/>
<feBlend mode="normal" in="SourceGraphic" in2="effect1_backgroundBlur_527_2412" result="shape"/>
</filter>
<radialGradient id="paint0_radial_527_2412" cx="0" cy="0" r="1" gradientUnits="userSpaceOnUse" gradientTransform="translate(63.9325 119.891) scale(43.3767 43.3767)">
<stop stop-color="#FFD080"/>
<stop offset="0.23" stop-color="#FFEED1"/>
<stop offset="0.87" stop-color="#FFD080"/>
</radialGradient>
<radialGradient id="paint1_radial_527_2412" cx="0" cy="0" r="1" gradientUnits="userSpaceOnUse" gradientTransform="translate(174.937 117.265) scale(47.4435 47.4435)">
<stop stop-color="#FFD080"/>
<stop offset="0.23" stop-color="#FFEED1"/>
<stop offset="0.87" stop-color="#FFD080"/>
</radialGradient>
<linearGradient id="paint2_linear_527_2412" x1="165.459" y1="120.388" x2="121.546" y2="146.857" gradientUnits="userSpaceOnUse">
<stop stop-color="#FFD080"/>
<stop offset="0.57" stop-color="#FFDFA4"/>
<stop offset="0.87" stop-color="#FFD080"/>
</linearGradient>
<linearGradient id="paint3_linear_527_2412" x1="131.145" y1="150.847" x2="58.1952" y2="107.86" gradientUnits="userSpaceOnUse">
<stop stop-color="#FFD080"/>
<stop offset="0.57" stop-color="#FFDFA4"/>
<stop offset="0.87" stop-color="#FFD080"/>
</linearGradient>
<radialGradient id="paint4_radial_527_2412" cx="0" cy="0" r="1" gradientUnits="userSpaceOnUse" gradientTransform="translate(123.047 76.2443) scale(77.4612 77.4612)">
<stop stop-color="#FFD080"/>
<stop offset="0.35" stop-color="#FFD080"/>
<stop offset="1" stop-color="#FFEED1" stop-opacity="0.9"/>
</radialGradient>
<clipPath id="clip0_527_2412">
<rect width="164" height="164" rx="8" fill="white"/>
</clipPath>
</defs>
</svg>
