<svg width="230" height="242" viewBox="0 0 230 242" fill="none" xmlns="http://www.w3.org/2000/svg">
<g id="Group 88902">
<rect id="Rectangle 161125533" width="230" height="237" fill="#14181A"/>
<g id="Ellipse 2586" filter="url(#filter0_f_641_5074)">
<ellipse cx="113" cy="220.5" rx="85" ry="11.5" fill="url(#paint0_radial_641_5074)"/>
</g>
<g id="Group" filter="url(#filter1_d_641_5074)">
<path id="Vector" opacity="0.9" d="M79.9739 73.8169C89.0294 121.184 43.9815 119.547 54.2004 144.172C69.5252 181.09 24.2742 182.692 39.3629 209.277" stroke="url(#paint1_radial_641_5074)" stroke-width="16.7179" stroke-linecap="round" stroke-linejoin="round"/>
<path id="Vector_2" opacity="0.9" d="M126.646 73.8169C157.993 86.3554 156.976 103.199 157.993 120.279C156.478 120.279 155.463 140.663 177.315 154.671C205.336 172.633 199.588 222.21 177.315 197.062" stroke="url(#paint2_radial_641_5074)" stroke-width="16.7179" stroke-linecap="round" stroke-linejoin="round"/>
<path id="Vector_3" d="M88.3328 114.915V205.471H79.2772C70.4306 205.471 63.2559 212.645 63.2559 221.492H88.3328H106.444V114.915H88.3328Z" fill="#FFEED1"/>
<path id="Vector_4" d="M146.848 205.469H137.793V114.217H119.682V221.49H162.87C162.87 212.644 155.695 205.469 146.848 205.469Z" fill="#FFEED1"/>
<path id="Vector_5" opacity="0.9" d="M157.127 196.965C109.933 179.001 152.334 143.231 129.027 126.06C96.8447 102.356 121.413 85.1015 137.434 90.082" stroke="url(#paint3_linear_641_5074)" stroke-width="16.7179" stroke-linecap="round" stroke-linejoin="round"/>
<path id="Vector_6" opacity="0.9" d="M87.1645 210.861C107.832 192.931 81.2366 173.886 83.5632 156.932C88.1467 123.545 123.853 119.79 70.9551 63.6455" stroke="url(#paint4_linear_641_5074)" stroke-width="16.7179" stroke-linecap="round" stroke-linejoin="round"/>
<path id="Vector_7" d="M197 89.4893C197 130.079 167.744 125.363 115.5 124.667C55.4965 123.866 34 130.079 34 89.4893C34 48.8995 70.4869 16 115.5 16C160.513 16 197 48.8995 197 89.4893Z" fill="url(#paint5_radial_641_5074)"/>
<g id="Group_2">
<g id="Group_3">
<path id="Vector_8" d="M104.413 88.3471C108.483 88.3471 111.783 85.0475 111.783 80.9773C111.783 76.907 108.483 73.6074 104.413 73.6074C100.343 73.6074 97.043 76.907 97.043 80.9773C97.043 85.0475 100.343 88.3471 104.413 88.3471Z" stroke="#3C3E41" stroke-width="4.17949" stroke-linecap="round" stroke-linejoin="round"/>
<path id="Vector_9" d="M126.524 88.3471C130.594 88.3471 133.894 85.0475 133.894 80.9773C133.894 76.907 130.594 73.6074 126.524 73.6074C122.454 73.6074 119.154 76.907 119.154 80.9773C119.154 85.0475 122.454 88.3471 126.524 88.3471Z" stroke="#3C3E41" stroke-width="4.17949" stroke-linecap="round" stroke-linejoin="round"/>
<path id="Vector_10" d="M119.281 65.6071L133.488 69.485" stroke="#181A1B" stroke-width="1.39316" stroke-linecap="round" stroke-linejoin="round"/>
<path id="Vector_11" d="M109.777 65.3245L95.4069 70.0089" stroke="#181A1B" stroke-width="1.39316" stroke-linecap="round" stroke-linejoin="round"/>
</g>
<path id="Vector_12" d="M111.781 80.978H119.151" stroke="#3C3E41" stroke-width="4.17949" stroke-linecap="round" stroke-linejoin="round"/>
</g>
<ellipse id="Ellipse 2588" opacity="0.3" cx="86.4499" cy="88.5686" rx="15.0885" ry="5.02951" fill="#3C3E41"/>
<ellipse id="Ellipse 2589" opacity="0.3" cx="143.93" cy="88.5686" rx="15.0885" ry="5.02951" fill="#3C3E41"/>
</g>
<g id="Group 88893">
<g id="Z Z Z">
<path id="Vector_13" d="M198.048 15.6594L197.006 33.7863L205.996 27.9922L207.68 30.6047L194.97 38.7953L193.257 36.1357L194.276 18.024L185.309 23.8029L183.625 21.1904L196.334 12.9999L198.048 15.6594Z" fill="white"/>
<path id="Vector_14" d="M178.236 28.4275L177.193 46.5544L186.184 40.7603L187.867 43.3728L175.158 51.5634L173.444 48.9038L174.463 30.7921L165.496 36.571L163.812 33.9585L176.522 25.7679L178.236 28.4275Z" fill="white"/>
<path id="Vector_15" d="M158.423 41.1955L157.381 59.3224L166.371 53.5284L168.055 56.1409L155.345 64.3314L153.632 61.6719L154.651 43.5601L145.684 49.3391L144 46.7266L156.709 38.536L158.423 41.1955Z" fill="white"/>
</g>
<path id="Line 244 (Stroke)" fill-rule="evenodd" clip-rule="evenodd" d="M163.645 47.5048L150.195 56.1721L148.57 53.6504L162.019 44.9831L163.645 47.5048Z" fill="white"/>
<path id="Line 245 (Stroke)" fill-rule="evenodd" clip-rule="evenodd" d="M183.645 35.5048L170.195 44.1721L168.57 41.6504L182.019 32.9831L183.645 35.5048Z" fill="white"/>
<path id="Line 246 (Stroke)" fill-rule="evenodd" clip-rule="evenodd" d="M203.645 22.5048L190.195 31.1721L188.57 28.6504L202.019 19.9831L203.645 22.5048Z" fill="white"/>
</g>
</g>
<defs>
<filter id="filter0_f_641_5074" x="18" y="199" width="190" height="43" filterUnits="userSpaceOnUse" color-interpolation-filters="sRGB">
<feFlood flood-opacity="0" result="BackgroundImageFix"/>
<feBlend mode="normal" in="SourceGraphic" in2="BackgroundImageFix" result="shape"/>
<feGaussianBlur stdDeviation="5" result="effect1_foregroundBlur_641_5074"/>
</filter>
<filter id="filter1_d_641_5074" x="19.2549" y="8.81498" width="193.961" height="222.736" filterUnits="userSpaceOnUse" color-interpolation-filters="sRGB">
<feFlood flood-opacity="0" result="BackgroundImageFix"/>
<feColorMatrix in="SourceAlpha" type="matrix" values="0 0 0 0 0 0 0 0 0 0 0 0 0 0 0 0 0 0 127 0" result="hardAlpha"/>
<feOffset dy="1.437"/>
<feGaussianBlur stdDeviation="4.31101"/>
<feComposite in2="hardAlpha" operator="out"/>
<feColorMatrix type="matrix" values="0 0 0 0 0 0 0 0 0 0 0 0 0 0 0 0 0 0 0.25 0"/>
<feBlend mode="normal" in2="BackgroundImageFix" result="effect1_dropShadow_641_5074"/>
<feBlend mode="normal" in="SourceGraphic" in2="effect1_dropShadow_641_5074" result="shape"/>
</filter>
<radialGradient id="paint0_radial_641_5074" cx="0" cy="0" r="1" gradientUnits="userSpaceOnUse" gradientTransform="translate(113 220.5) scale(85 11.5)">
<stop stop-color="#CDCDCD"/>
<stop offset="1" stop-color="#14181A"/>
</radialGradient>
<radialGradient id="paint1_radial_641_5074" cx="0" cy="0" r="1" gradientUnits="userSpaceOnUse" gradientTransform="translate(40.8806 125.691) scale(54.7582 54.7582)">
<stop stop-color="#FFD080"/>
<stop offset="0.23" stop-color="#FFEED1"/>
<stop offset="0.87" stop-color="#FFD080"/>
</radialGradient>
<radialGradient id="paint2_radial_641_5074" cx="0" cy="0" r="1" gradientUnits="userSpaceOnUse" gradientTransform="translate(181.008 122.376) scale(59.892)">
<stop stop-color="#FFD080"/>
<stop offset="0.23" stop-color="#FFEED1"/>
<stop offset="0.87" stop-color="#FFD080"/>
</radialGradient>
<linearGradient id="paint3_linear_641_5074" x1="169.041" y1="126.319" x2="113.606" y2="159.733" gradientUnits="userSpaceOnUse">
<stop stop-color="#FFD080"/>
<stop offset="0.57" stop-color="#FFDFA4"/>
<stop offset="0.87" stop-color="#FFD080"/>
</linearGradient>
<linearGradient id="paint4_linear_641_5074" x1="125.726" y1="164.769" x2="33.6356" y2="110.502" gradientUnits="userSpaceOnUse">
<stop stop-color="#FFD080"/>
<stop offset="0.57" stop-color="#FFDFA4"/>
<stop offset="0.87" stop-color="#FFD080"/>
</linearGradient>
<radialGradient id="paint5_radial_641_5074" cx="0" cy="0" r="1" gradientUnits="userSpaceOnUse" gradientTransform="translate(115.5 70.5911) scale(97.7861 97.7861)">
<stop stop-color="#FFD080"/>
<stop offset="0.35" stop-color="#FFD080"/>
<stop offset="1" stop-color="#FFEED1" stop-opacity="0.9"/>
</radialGradient>
</defs>
</svg>
