<svg width="24" height="24" viewBox="0 0 24 24" fill="none" xmlns="http://www.w3.org/2000/svg">
<path d="M5 5C4.58333 5 4.29167 4.83333 4.125 4.5C3.975 4.16667 3.975 3.83333 4.125 3.5C4.29167 3.16667 4.58333 3 5 3H19C19.4167 3 19.7 3.16667 19.85 3.5C20.0167 3.83333 20.0167 4.16667 19.85 4.5C19.7 4.83333 19.4167 5 19 5H5ZM8.7 12.7C8.41667 12.9833 8.09167 13.0667 7.725 12.95C7.375 12.8333 7.14167 12.6083 7.025 12.275C6.90833 11.925 7 11.6 7.3 11.3L11.275 7.3C11.4917 7.08333 11.7333 6.975 12 6.975C12.2667 6.975 12.5083 7.08333 12.725 7.3L16.7 11.3C16.9833 11.5833 17.0667 11.9083 16.95 12.275C16.8333 12.625 16.6 12.8583 16.25 12.975C15.9167 13.0917 15.6 13 15.3 12.7L12 9.425L8.7 12.7ZM11 8H13V20C13 20.4167 12.8333 20.7083 12.5 20.875C12.1667 21.025 11.8333 21.025 11.5 20.875C11.1667 20.7083 11 20.4167 11 20V8Z" fill="white"/>
</svg>
