<svg width="358" height="384" viewBox="0 0 358 384" fill="none" xmlns="http://www.w3.org/2000/svg">
<g clip-path="url(#clip0_455_1068)">
<rect width="358" height="384" rx="12" fill="#14181A"/>
<path d="M308 103L128.5 7V156.5L308 103Z" fill="url(#paint0_linear_455_1068)" fill-opacity="0.8"/>
<path d="M293.224 357.056C293.548 356.744 293.89 356.426 294.25 356.102C294.622 355.778 294.988 355.466 295.348 355.166C296.236 354.41 296.932 353.786 297.436 353.294C297.952 352.802 298.384 352.298 298.732 351.782C299.08 351.254 299.254 350.744 299.254 350.252C299.254 349.796 299.164 349.4 298.984 349.064C298.816 348.716 298.576 348.446 298.264 348.254C297.952 348.05 297.598 347.948 297.202 347.948C296.71 347.948 296.242 348.104 295.798 348.416C295.366 348.716 295.042 349.112 294.826 349.604L292.828 348.704C293.2 347.852 293.794 347.156 294.61 346.616C295.438 346.076 296.302 345.806 297.202 345.806C298.054 345.806 298.81 345.992 299.47 346.364C300.13 346.736 300.646 347.264 301.018 347.948C301.39 348.62 301.576 349.388 301.576 350.252C301.576 351.092 301.336 351.908 300.856 352.7C300.388 353.48 299.824 354.188 299.164 354.824C298.516 355.448 297.658 356.198 296.59 357.074C295.798 357.722 295.168 358.262 294.7 358.694L293.224 357.056ZM293.224 357.056H301.774V359.072H293.404L293.224 357.056ZM307.586 359.306C306.782 359.306 306.074 359.12 305.462 358.748C304.85 358.364 304.37 357.842 304.022 357.182C303.686 356.51 303.518 355.748 303.518 354.896C303.518 354.044 303.686 353.288 304.022 352.628C304.37 351.956 304.85 351.434 305.462 351.062C306.074 350.69 306.782 350.504 307.586 350.504C308.042 350.504 308.492 350.612 308.936 350.828C309.392 351.032 309.77 351.35 310.07 351.782L309.98 351.908V350.486H312.302V359.252H309.98V357.884L310.07 358.028C309.866 358.328 309.62 358.574 309.332 358.766C309.056 358.946 308.768 359.078 308.468 359.162C308.168 359.258 307.874 359.306 307.586 359.306ZM307.856 357.38C308.24 357.38 308.594 357.272 308.918 357.056C309.242 356.84 309.5 356.546 309.692 356.174C309.896 355.79 309.998 355.364 309.998 354.896C309.998 354.428 309.896 354.008 309.692 353.636C309.5 353.252 309.242 352.952 308.918 352.736C308.594 352.52 308.24 352.412 307.856 352.412C307.448 352.412 307.088 352.514 306.776 352.718C306.476 352.922 306.242 353.21 306.074 353.582C305.918 353.954 305.84 354.392 305.84 354.896C305.84 355.412 305.918 355.856 306.074 356.228C306.242 356.6 306.476 356.888 306.776 357.092C307.088 357.284 307.448 357.38 307.856 357.38ZM325.776 354.518C325.776 353.906 325.638 353.414 325.362 353.042C325.086 352.67 324.72 352.484 324.264 352.484C323.94 352.484 323.652 352.574 323.4 352.754C323.16 352.934 322.968 353.18 322.824 353.492C322.692 353.792 322.626 354.122 322.626 354.482V359.252H320.304V354.518C320.304 353.906 320.166 353.414 319.89 353.042C319.614 352.67 319.254 352.484 318.81 352.484C318.486 352.484 318.198 352.574 317.946 352.754C317.694 352.934 317.496 353.186 317.352 353.51C317.22 353.822 317.154 354.176 317.154 354.572V359.252H314.832V350.486H317.154V352.25L316.902 352.178C317.142 351.662 317.466 351.26 317.874 350.972C318.294 350.672 318.744 350.522 319.224 350.522C319.704 350.522 320.172 350.678 320.628 350.99C321.096 351.302 321.468 351.692 321.744 352.16C322.068 351.704 322.494 351.32 323.022 351.008C323.55 350.684 324.066 350.522 324.57 350.522C325.29 350.522 325.914 350.696 326.442 351.044C326.982 351.38 327.396 351.848 327.684 352.448C327.972 353.036 328.116 353.714 328.116 354.482V359.252H325.776V354.518Z" fill="#FF7F7F"/>
<path d="M25.13 348.676C24.6727 348.676 24.2667 348.779 23.912 348.984C23.5573 349.189 23.2773 349.479 23.072 349.852C22.876 350.216 22.778 350.631 22.778 351.098C22.778 351.565 22.876 351.985 23.072 352.358C23.2773 352.731 23.5573 353.021 23.912 353.226C24.2667 353.431 24.6727 353.534 25.13 353.534C25.5687 353.534 25.9607 353.431 26.306 353.226C26.6607 353.021 26.936 352.731 27.132 352.358C27.328 351.985 27.426 351.565 27.426 351.098C27.426 350.631 27.328 350.216 27.132 349.852C26.936 349.479 26.6607 349.189 26.306 348.984C25.9607 348.779 25.5687 348.676 25.13 348.676ZM28.434 351.098C28.434 351.742 28.2613 352.367 27.916 352.974L25.046 358H23.884L25.998 354.332C25.6713 354.397 25.3727 354.43 25.102 354.43C24.458 354.43 23.884 354.29 23.38 354.01C22.876 353.721 22.4793 353.324 22.19 352.82C21.91 352.316 21.77 351.742 21.77 351.098C21.77 350.454 21.91 349.88 22.19 349.376C22.4793 348.872 22.876 348.48 23.38 348.2C23.884 347.92 24.458 347.78 25.102 347.78C25.746 347.78 26.32 347.92 26.824 348.2C27.328 348.48 27.72 348.872 28 349.376C28.2893 349.88 28.434 350.454 28.434 351.098ZM33.4728 357.188C33.8741 357.188 34.2335 357.09 34.5508 356.894C34.8681 356.689 35.1155 356.404 35.2928 356.04C35.4701 355.676 35.5588 355.265 35.5588 354.808C35.5588 354.351 35.4701 353.945 35.2928 353.59C35.1155 353.226 34.8681 352.946 34.5508 352.75C34.2335 352.545 33.8741 352.442 33.4728 352.442C33.1088 352.442 32.7681 352.549 32.4508 352.764C32.1335 352.979 31.8768 353.268 31.6808 353.632C31.4941 353.996 31.4008 354.388 31.4008 354.808C31.4008 355.237 31.4941 355.634 31.6808 355.998C31.8675 356.362 32.1195 356.651 32.4368 356.866C32.7635 357.081 33.1088 357.188 33.4728 357.188ZM33.4868 351.546C34.0841 351.546 34.6161 351.686 35.0828 351.966C35.5495 352.246 35.9135 352.633 36.1748 353.128C36.4361 353.623 36.5668 354.183 36.5668 354.808C36.5668 355.443 36.4361 356.012 36.1748 356.516C35.9135 357.011 35.5495 357.398 35.0828 357.678C34.6161 357.958 34.0841 358.098 33.4868 358.098C33.2161 358.098 32.9361 358.042 32.6468 357.93C32.3575 357.809 32.0915 357.645 31.8488 357.44C31.6061 357.235 31.4148 356.997 31.2748 356.726L31.3868 356.698V360.996H30.3788V351.546H31.3868V352.946L31.2748 352.918C31.4708 352.489 31.7788 352.153 32.1988 351.91C32.6281 351.667 33.0575 351.546 33.4868 351.546ZM46.4715 354.052C46.4715 353.585 46.3361 353.203 46.0655 352.904C45.8041 352.605 45.4635 352.456 45.0435 352.456C44.7168 352.456 44.4275 352.521 44.1755 352.652C43.9235 352.773 43.7275 352.946 43.5875 353.17C43.4475 353.385 43.3775 353.637 43.3775 353.926V358H42.3695V354.052C42.3695 353.585 42.2388 353.203 41.9775 352.904C41.7161 352.605 41.3801 352.456 40.9695 352.456C40.6521 352.456 40.3628 352.54 40.1015 352.708C39.8495 352.867 39.6488 353.081 39.4995 353.352C39.3595 353.613 39.2895 353.898 39.2895 354.206V358H38.2815V351.546H39.2895V352.68L39.1915 352.652C39.3781 352.325 39.6348 352.059 39.9615 351.854C40.2975 351.649 40.6335 351.546 40.9695 351.546C41.3801 351.546 41.7675 351.658 42.1315 351.882C42.5048 352.106 42.7801 352.395 42.9575 352.75C43.1721 352.395 43.4708 352.106 43.8535 351.882C44.2361 351.658 44.6328 351.546 45.0435 351.546C45.5101 351.546 45.9255 351.649 46.2895 351.854C46.6628 352.059 46.9521 352.344 47.1575 352.708C47.3721 353.072 47.4795 353.487 47.4795 353.954V358H46.4715V354.052Z" fill="#A3A8AE"/>
<path d="M74.808 358H73.8V349.054L72.232 350.146L71.672 349.376L73.8 347.906H74.808V358ZM80.5767 357.202C81.0713 357.202 81.5147 357.02 81.9067 356.656C82.2987 356.292 82.602 355.788 82.8167 355.144C83.0407 354.5 83.1527 353.767 83.1527 352.946C83.1527 352.125 83.0407 351.392 82.8167 350.748C82.602 350.104 82.2987 349.605 81.9067 349.25C81.5147 348.886 81.0713 348.704 80.5767 348.704C80.0727 348.704 79.6247 348.886 79.2327 349.25C78.8407 349.605 78.5327 350.104 78.3087 350.748C78.094 351.392 77.9867 352.125 77.9867 352.946C77.9867 353.767 78.094 354.5 78.3087 355.144C78.5327 355.788 78.8407 356.292 79.2327 356.656C79.6247 357.02 80.0727 357.202 80.5767 357.202ZM80.5767 358.098C79.8767 358.098 79.2513 357.879 78.7007 357.44C78.1593 357.001 77.7347 356.395 77.4267 355.62C77.128 354.836 76.9787 353.945 76.9787 352.946C76.9787 351.957 77.128 351.075 77.4267 350.3C77.7347 349.516 78.1593 348.905 78.7007 348.466C79.2513 348.027 79.8767 347.808 80.5767 347.808C81.2673 347.808 81.8833 348.027 82.4247 348.466C82.9753 348.905 83.4 349.516 83.6987 350.3C84.0067 351.075 84.1607 351.957 84.1607 352.946C84.1607 353.945 84.0067 354.836 83.6987 355.62C83.4 356.395 82.9753 357.001 82.4247 357.44C81.8833 357.879 81.2673 358.098 80.5767 358.098ZM89.1876 357.188C89.589 357.188 89.9483 357.09 90.2656 356.894C90.583 356.689 90.8303 356.404 91.0076 356.04C91.185 355.676 91.2736 355.265 91.2736 354.808C91.2736 354.351 91.185 353.945 91.0076 353.59C90.8303 353.226 90.583 352.946 90.2656 352.75C89.9483 352.545 89.589 352.442 89.1876 352.442C88.8236 352.442 88.483 352.549 88.1656 352.764C87.8483 352.979 87.5916 353.268 87.3956 353.632C87.209 353.996 87.1156 354.388 87.1156 354.808C87.1156 355.237 87.209 355.634 87.3956 355.998C87.5823 356.362 87.8343 356.651 88.1516 356.866C88.4783 357.081 88.8236 357.188 89.1876 357.188ZM89.2016 351.546C89.799 351.546 90.331 351.686 90.7976 351.966C91.2643 352.246 91.6283 352.633 91.8896 353.128C92.151 353.623 92.2816 354.183 92.2816 354.808C92.2816 355.443 92.151 356.012 91.8896 356.516C91.6283 357.011 91.2643 357.398 90.7976 357.678C90.331 357.958 89.799 358.098 89.2016 358.098C88.931 358.098 88.651 358.042 88.3616 357.93C88.0723 357.809 87.8063 357.645 87.5636 357.44C87.321 357.235 87.1296 356.997 86.9896 356.726L87.1016 356.698V360.996H86.0936V351.546H87.1016V352.946L86.9896 352.918C87.1856 352.489 87.4936 352.153 87.9136 351.91C88.343 351.667 88.7723 351.546 89.2016 351.546ZM102.186 354.052C102.186 353.585 102.051 353.203 101.78 352.904C101.519 352.605 101.178 352.456 100.758 352.456C100.432 352.456 100.142 352.521 99.8903 352.652C99.6383 352.773 99.4423 352.946 99.3023 353.17C99.1623 353.385 99.0923 353.637 99.0923 353.926V358H98.0843V354.052C98.0843 353.585 97.9536 353.203 97.6923 352.904C97.431 352.605 97.095 352.456 96.6843 352.456C96.367 352.456 96.0776 352.54 95.8163 352.708C95.5643 352.867 95.3636 353.081 95.2143 353.352C95.0743 353.613 95.0043 353.898 95.0043 354.206V358H93.9963V351.546H95.0043V352.68L94.9063 352.652C95.093 352.325 95.3496 352.059 95.6763 351.854C96.0123 351.649 96.3483 351.546 96.6843 351.546C97.095 351.546 97.4823 351.658 97.8463 351.882C98.2196 352.106 98.495 352.395 98.6723 352.75C98.887 352.395 99.1856 352.106 99.5683 351.882C99.951 351.658 100.348 351.546 100.758 351.546C101.225 351.546 101.64 351.649 102.004 351.854C102.378 352.059 102.667 352.344 102.872 352.708C103.087 353.072 103.194 353.487 103.194 353.954V358H102.186V354.052Z" fill="#A3A8AE"/>
<path d="M130.808 358H129.8V349.054L128.232 350.146L127.672 349.376L129.8 347.906H130.808V358ZM136.591 358H135.583V349.054L134.015 350.146L133.455 349.376L135.583 347.906H136.591V358ZM142.262 357.188C142.663 357.188 143.023 357.09 143.34 356.894C143.657 356.689 143.905 356.404 144.082 356.04C144.259 355.676 144.348 355.265 144.348 354.808C144.348 354.351 144.259 353.945 144.082 353.59C143.905 353.226 143.657 352.946 143.34 352.75C143.023 352.545 142.663 352.442 142.262 352.442C141.898 352.442 141.557 352.549 141.24 352.764C140.923 352.979 140.666 353.268 140.47 353.632C140.283 353.996 140.19 354.388 140.19 354.808C140.19 355.237 140.283 355.634 140.47 355.998C140.657 356.362 140.909 356.651 141.226 356.866C141.553 357.081 141.898 357.188 142.262 357.188ZM142.276 351.546C142.873 351.546 143.405 351.686 143.872 351.966C144.339 352.246 144.703 352.633 144.964 353.128C145.225 353.623 145.356 354.183 145.356 354.808C145.356 355.443 145.225 356.012 144.964 356.516C144.703 357.011 144.339 357.398 143.872 357.678C143.405 357.958 142.873 358.098 142.276 358.098C142.005 358.098 141.725 358.042 141.436 357.93C141.147 357.809 140.881 357.645 140.638 357.44C140.395 357.235 140.204 356.997 140.064 356.726L140.176 356.698V360.996H139.168V351.546H140.176V352.946L140.064 352.918C140.26 352.489 140.568 352.153 140.988 351.91C141.417 351.667 141.847 351.546 142.276 351.546ZM155.261 354.052C155.261 353.585 155.125 353.203 154.855 352.904C154.593 352.605 154.253 352.456 153.833 352.456C153.506 352.456 153.217 352.521 152.965 352.652C152.713 352.773 152.517 352.946 152.377 353.17C152.237 353.385 152.167 353.637 152.167 353.926V358H151.159V354.052C151.159 353.585 151.028 353.203 150.767 352.904C150.505 352.605 150.169 352.456 149.759 352.456C149.441 352.456 149.152 352.54 148.891 352.708C148.639 352.867 148.438 353.081 148.289 353.352C148.149 353.613 148.079 353.898 148.079 354.206V358H147.071V351.546H148.079V352.68L147.981 352.652C148.167 352.325 148.424 352.059 148.751 351.854C149.087 351.649 149.423 351.546 149.759 351.546C150.169 351.546 150.557 351.658 150.921 351.882C151.294 352.106 151.569 352.395 151.747 352.75C151.961 352.395 152.26 352.106 152.643 351.882C153.025 351.658 153.422 351.546 153.833 351.546C154.299 351.546 154.715 351.649 155.079 351.854C155.452 352.059 155.741 352.344 155.947 352.708C156.161 353.072 156.269 353.487 156.269 353.954V358H155.261V354.052Z" fill="#A3A8AE"/>
<path d="M183.808 358H182.8V349.054L181.232 350.146L180.672 349.376L182.8 347.906H183.808V358ZM186.049 357.118C186.301 356.875 186.487 356.698 186.609 356.586C186.73 356.474 186.912 356.301 187.155 356.068C187.995 355.284 188.676 354.626 189.199 354.094C189.721 353.553 190.165 353.002 190.529 352.442C190.902 351.873 191.089 351.355 191.089 350.888C191.089 350.459 191 350.076 190.823 349.74C190.655 349.404 190.417 349.143 190.109 348.956C189.81 348.76 189.465 348.662 189.073 348.662C188.643 348.662 188.228 348.811 187.827 349.11C187.435 349.399 187.136 349.773 186.931 350.23L186.007 349.838C186.268 349.231 186.683 348.737 187.253 348.354C187.831 347.962 188.438 347.766 189.073 347.766C189.661 347.766 190.183 347.901 190.641 348.172C191.098 348.433 191.453 348.802 191.705 349.278C191.966 349.745 192.097 350.281 192.097 350.888C192.097 351.485 191.896 352.111 191.495 352.764C191.093 353.408 190.613 354.019 190.053 354.598C189.502 355.167 188.793 355.849 187.925 356.642C187.542 356.997 187.159 357.356 186.777 357.72L186.049 357.118ZM186.049 357.118H192.265V358.014H186.189L186.049 357.118ZM196.907 358.098C196.319 358.098 195.792 357.958 195.325 357.678C194.859 357.398 194.495 357.011 194.233 356.516C193.972 356.021 193.841 355.461 193.841 354.836C193.841 354.211 193.972 353.651 194.233 353.156C194.495 352.652 194.859 352.26 195.325 351.98C195.792 351.7 196.319 351.56 196.907 351.56C197.309 351.56 197.701 351.677 198.083 351.91C198.475 352.134 198.811 352.47 199.091 352.918L198.993 352.946V351.546H200.001V358H198.993V356.698L199.091 356.726C198.895 357.043 198.676 357.305 198.433 357.51C198.2 357.715 197.953 357.865 197.691 357.958C197.439 358.051 197.178 358.098 196.907 358.098ZM196.921 357.188C197.285 357.188 197.626 357.09 197.943 356.894C198.261 356.689 198.517 356.409 198.713 356.054C198.909 355.69 199.007 355.284 199.007 354.836C199.007 354.397 198.909 353.996 198.713 353.632C198.517 353.268 198.261 352.983 197.943 352.778C197.626 352.573 197.285 352.47 196.921 352.47C196.52 352.47 196.161 352.573 195.843 352.778C195.535 352.974 195.293 353.254 195.115 353.618C194.938 353.973 194.849 354.379 194.849 354.836C194.849 355.284 194.938 355.69 195.115 356.054C195.293 356.409 195.535 356.689 195.843 356.894C196.161 357.09 196.52 357.188 196.921 357.188ZM210.038 354.052C210.038 353.585 209.903 353.203 209.632 352.904C209.371 352.605 209.03 352.456 208.61 352.456C208.283 352.456 207.994 352.521 207.742 352.652C207.49 352.773 207.294 352.946 207.154 353.17C207.014 353.385 206.944 353.637 206.944 353.926V358H205.936V354.052C205.936 353.585 205.805 353.203 205.544 352.904C205.283 352.605 204.947 352.456 204.536 352.456C204.219 352.456 203.929 352.54 203.668 352.708C203.416 352.867 203.215 353.081 203.066 353.352C202.926 353.613 202.856 353.898 202.856 354.206V358H201.848V351.546H202.856V352.68L202.758 352.652C202.945 352.325 203.201 352.059 203.528 351.854C203.864 351.649 204.2 351.546 204.536 351.546C204.947 351.546 205.334 351.658 205.698 351.882C206.071 352.106 206.347 352.395 206.524 352.75C206.739 352.395 207.037 352.106 207.42 351.882C207.803 351.658 208.199 351.546 208.61 351.546C209.077 351.546 209.492 351.649 209.856 351.854C210.229 352.059 210.519 352.344 210.724 352.708C210.939 353.072 211.046 353.487 211.046 353.954V358H210.038V354.052Z" fill="#A3A8AE"/>
<path d="M238.808 358H237.8V349.054L236.232 350.146L235.672 349.376L237.8 347.906H238.808V358ZM244.101 358.098C243.513 358.098 242.985 357.958 242.519 357.678C242.052 357.398 241.688 357.011 241.427 356.516C241.165 356.021 241.035 355.461 241.035 354.836C241.035 354.211 241.165 353.651 241.427 353.156C241.688 352.652 242.052 352.26 242.519 351.98C242.985 351.7 243.513 351.56 244.101 351.56C244.502 351.56 244.894 351.677 245.277 351.91C245.669 352.134 246.005 352.47 246.285 352.918L246.187 352.946V351.546H247.195V358H246.187V356.698L246.285 356.726C246.089 357.043 245.869 357.305 245.627 357.51C245.393 357.715 245.146 357.865 244.885 357.958C244.633 358.051 244.371 358.098 244.101 358.098ZM244.115 357.188C244.479 357.188 244.819 357.09 245.137 356.894C245.454 356.689 245.711 356.409 245.907 356.054C246.103 355.69 246.201 355.284 246.201 354.836C246.201 354.397 246.103 353.996 245.907 353.632C245.711 353.268 245.454 352.983 245.137 352.778C244.819 352.573 244.479 352.47 244.115 352.47C243.713 352.47 243.354 352.573 243.037 352.778C242.729 352.974 242.486 353.254 242.309 353.618C242.131 353.973 242.043 354.379 242.043 354.836C242.043 355.284 242.131 355.69 242.309 356.054C242.486 356.409 242.729 356.689 243.037 356.894C243.354 357.09 243.713 357.188 244.115 357.188ZM257.231 354.052C257.231 353.585 257.096 353.203 256.825 352.904C256.564 352.605 256.223 352.456 255.803 352.456C255.477 352.456 255.187 352.521 254.935 352.652C254.683 352.773 254.487 352.946 254.347 353.17C254.207 353.385 254.137 353.637 254.137 353.926V358H253.129V354.052C253.129 353.585 252.999 353.203 252.737 352.904C252.476 352.605 252.14 352.456 251.729 352.456C251.412 352.456 251.123 352.54 250.861 352.708C250.609 352.867 250.409 353.081 250.259 353.352C250.119 353.613 250.049 353.898 250.049 354.206V358H249.041V351.546H250.049V352.68L249.951 352.652C250.138 352.325 250.395 352.059 250.721 351.854C251.057 351.649 251.393 351.546 251.729 351.546C252.14 351.546 252.527 351.658 252.891 351.882C253.265 352.106 253.54 352.395 253.717 352.75C253.932 352.395 254.231 352.106 254.613 351.882C254.996 351.658 255.393 351.546 255.803 351.546C256.27 351.546 256.685 351.649 257.049 351.854C257.423 352.059 257.712 352.344 257.917 352.708C258.132 353.072 258.239 353.487 258.239 353.954V358H257.231V354.052Z" fill="#A3A8AE"/>
<path d="M128.354 139.202C128.849 139.202 129.292 139.02 129.684 138.656C130.076 138.292 130.379 137.788 130.594 137.144C130.818 136.5 130.93 135.767 130.93 134.946C130.93 134.125 130.818 133.392 130.594 132.748C130.379 132.104 130.076 131.605 129.684 131.25C129.292 130.886 128.849 130.704 128.354 130.704C127.85 130.704 127.402 130.886 127.01 131.25C126.618 131.605 126.31 132.104 126.086 132.748C125.871 133.392 125.764 134.125 125.764 134.946C125.764 135.767 125.871 136.5 126.086 137.144C126.31 137.788 126.618 138.292 127.01 138.656C127.402 139.02 127.85 139.202 128.354 139.202ZM128.354 140.098C127.654 140.098 127.029 139.879 126.478 139.44C125.937 139.001 125.512 138.395 125.204 137.62C124.905 136.836 124.756 135.945 124.756 134.946C124.756 133.957 124.905 133.075 125.204 132.3C125.512 131.516 125.937 130.905 126.478 130.466C127.029 130.027 127.654 129.808 128.354 129.808C129.045 129.808 129.661 130.027 130.202 130.466C130.753 130.905 131.177 131.516 131.476 132.3C131.784 133.075 131.938 133.957 131.938 134.946C131.938 135.945 131.784 136.836 131.476 137.62C131.177 138.395 130.753 139.001 130.202 139.44C129.661 139.879 129.045 140.098 128.354 140.098ZM137.063 139.202C137.558 139.202 138.001 139.02 138.393 138.656C138.785 138.292 139.088 137.788 139.303 137.144C139.527 136.5 139.639 135.767 139.639 134.946C139.639 134.125 139.527 133.392 139.303 132.748C139.088 132.104 138.785 131.605 138.393 131.25C138.001 130.886 137.558 130.704 137.063 130.704C136.559 130.704 136.111 130.886 135.719 131.25C135.327 131.605 135.019 132.104 134.795 132.748C134.58 133.392 134.473 134.125 134.473 134.946C134.473 135.767 134.58 136.5 134.795 137.144C135.019 137.788 135.327 138.292 135.719 138.656C136.111 139.02 136.559 139.202 137.063 139.202ZM137.063 140.098C136.363 140.098 135.738 139.879 135.187 139.44C134.646 139.001 134.221 138.395 133.913 137.62C133.614 136.836 133.465 135.945 133.465 134.946C133.465 133.957 133.614 133.075 133.913 132.3C134.221 131.516 134.646 130.905 135.187 130.466C135.738 130.027 136.363 129.808 137.063 129.808C137.754 129.808 138.37 130.027 138.911 130.466C139.462 130.905 139.886 131.516 140.185 132.3C140.493 133.075 140.647 133.957 140.647 134.946C140.647 135.945 140.493 136.836 140.185 137.62C139.886 138.395 139.462 139.001 138.911 139.44C138.37 139.879 137.754 140.098 137.063 140.098ZM151.386 130.774V131.642H147.802V130.774H151.386ZM151.414 133.21V134.064H147.802V133.21H151.414ZM152.03 128.772V136.024H150.98V128.772H152.03ZM148.11 129.696V135.128H142.552V129.696H148.11ZM143.574 130.55V134.288H147.088V130.55H143.574ZM148.012 136.388C149.281 136.388 150.275 136.593 150.994 137.004C151.722 137.405 152.086 137.97 152.086 138.698C152.086 139.426 151.722 139.991 150.994 140.392C150.275 140.793 149.281 140.994 148.012 140.994C146.743 140.994 145.744 140.793 145.016 140.392C144.297 139.991 143.938 139.426 143.938 138.698C143.938 137.97 144.297 137.405 145.016 137.004C145.744 136.593 146.743 136.388 148.012 136.388ZM148.012 137.228C147.387 137.228 146.845 137.289 146.388 137.41C145.94 137.522 145.595 137.69 145.352 137.914C145.109 138.129 144.988 138.39 144.988 138.698C144.988 138.997 145.109 139.258 145.352 139.482C145.595 139.706 145.945 139.879 146.402 140C146.859 140.112 147.396 140.168 148.012 140.168C148.628 140.168 149.165 140.112 149.622 140C150.079 139.879 150.429 139.706 150.672 139.482C150.915 139.258 151.036 138.997 151.036 138.698C151.036 138.39 150.915 138.129 150.672 137.914C150.429 137.69 150.079 137.522 149.622 137.41C149.174 137.289 148.637 137.228 148.012 137.228Z" fill="#A3A8AE"/>
<path d="M74.354 162.202C74.8487 162.202 75.292 162.02 75.684 161.656C76.076 161.292 76.3793 160.788 76.594 160.144C76.818 159.5 76.93 158.767 76.93 157.946C76.93 157.125 76.818 156.392 76.594 155.748C76.3793 155.104 76.076 154.605 75.684 154.25C75.292 153.886 74.8487 153.704 74.354 153.704C73.85 153.704 73.402 153.886 73.01 154.25C72.618 154.605 72.31 155.104 72.086 155.748C71.8713 156.392 71.764 157.125 71.764 157.946C71.764 158.767 71.8713 159.5 72.086 160.144C72.31 160.788 72.618 161.292 73.01 161.656C73.402 162.02 73.85 162.202 74.354 162.202ZM74.354 163.098C73.654 163.098 73.0287 162.879 72.478 162.44C71.9367 162.001 71.512 161.395 71.204 160.62C70.9053 159.836 70.756 158.945 70.756 157.946C70.756 156.957 70.9053 156.075 71.204 155.3C71.512 154.516 71.9367 153.905 72.478 153.466C73.0287 153.027 73.654 152.808 74.354 152.808C75.0447 152.808 75.6607 153.027 76.202 153.466C76.7527 153.905 77.1773 154.516 77.476 155.3C77.784 156.075 77.938 156.957 77.938 157.946C77.938 158.945 77.784 159.836 77.476 160.62C77.1773 161.395 76.7527 162.001 76.202 162.44C75.6607 162.879 75.0447 163.098 74.354 163.098ZM83.063 162.202C83.5577 162.202 84.001 162.02 84.393 161.656C84.785 161.292 85.0883 160.788 85.303 160.144C85.527 159.5 85.639 158.767 85.639 157.946C85.639 157.125 85.527 156.392 85.303 155.748C85.0883 155.104 84.785 154.605 84.393 154.25C84.001 153.886 83.5577 153.704 83.063 153.704C82.559 153.704 82.111 153.886 81.719 154.25C81.327 154.605 81.019 155.104 80.795 155.748C80.5803 156.392 80.473 157.125 80.473 157.946C80.473 158.767 80.5803 159.5 80.795 160.144C81.019 160.788 81.327 161.292 81.719 161.656C82.111 162.02 82.559 162.202 83.063 162.202ZM83.063 163.098C82.363 163.098 81.7377 162.879 81.187 162.44C80.6457 162.001 80.221 161.395 79.913 160.62C79.6143 159.836 79.465 158.945 79.465 157.946C79.465 156.957 79.6143 156.075 79.913 155.3C80.221 154.516 80.6457 153.905 81.187 153.466C81.7377 153.027 82.363 152.808 83.063 152.808C83.7537 152.808 84.3697 153.027 84.911 153.466C85.4617 153.905 85.8863 154.516 86.185 155.3C86.493 156.075 86.647 156.957 86.647 157.946C86.647 158.945 86.493 159.836 86.185 160.62C85.8863 161.395 85.4617 162.001 84.911 162.44C84.3697 162.879 83.7537 163.098 83.063 163.098ZM97.386 153.774V154.642H93.802V153.774H97.386ZM97.414 156.21V157.064H93.802V156.21H97.414ZM98.03 151.772V159.024H96.98V151.772H98.03ZM94.11 152.696V158.128H88.552V152.696H94.11ZM89.574 153.55V157.288H93.088V153.55H89.574ZM94.012 159.388C95.2813 159.388 96.2753 159.593 96.994 160.004C97.722 160.405 98.086 160.97 98.086 161.698C98.086 162.426 97.722 162.991 96.994 163.392C96.2753 163.793 95.2813 163.994 94.012 163.994C92.7426 163.994 91.744 163.793 91.016 163.392C90.2973 162.991 89.938 162.426 89.938 161.698C89.938 160.97 90.2973 160.405 91.016 160.004C91.744 159.593 92.7426 159.388 94.012 159.388ZM94.012 160.228C93.3866 160.228 92.8453 160.289 92.388 160.41C91.94 160.522 91.5946 160.69 91.352 160.914C91.1093 161.129 90.988 161.39 90.988 161.698C90.988 161.997 91.1093 162.258 91.352 162.482C91.5946 162.706 91.9446 162.879 92.402 163C92.8593 163.112 93.396 163.168 94.012 163.168C94.628 163.168 95.1646 163.112 95.622 163C96.0793 162.879 96.4293 162.706 96.672 162.482C96.9146 162.258 97.036 161.997 97.036 161.698C97.036 161.39 96.9146 161.129 96.672 160.914C96.4293 160.69 96.0793 160.522 95.622 160.41C95.174 160.289 94.6373 160.228 94.012 160.228Z" fill="#A3A8AE"/>
<path d="M23.354 130.202C23.8487 130.202 24.292 130.02 24.684 129.656C25.076 129.292 25.3793 128.788 25.594 128.144C25.818 127.5 25.93 126.767 25.93 125.946C25.93 125.125 25.818 124.392 25.594 123.748C25.3793 123.104 25.076 122.605 24.684 122.25C24.292 121.886 23.8487 121.704 23.354 121.704C22.85 121.704 22.402 121.886 22.01 122.25C21.618 122.605 21.31 123.104 21.086 123.748C20.8713 124.392 20.764 125.125 20.764 125.946C20.764 126.767 20.8713 127.5 21.086 128.144C21.31 128.788 21.618 129.292 22.01 129.656C22.402 130.02 22.85 130.202 23.354 130.202ZM23.354 131.098C22.654 131.098 22.0287 130.879 21.478 130.44C20.9367 130.001 20.512 129.395 20.204 128.62C19.9053 127.836 19.756 126.945 19.756 125.946C19.756 124.957 19.9053 124.075 20.204 123.3C20.512 122.516 20.9367 121.905 21.478 121.466C22.0287 121.027 22.654 120.808 23.354 120.808C24.0447 120.808 24.6607 121.027 25.202 121.466C25.7527 121.905 26.1773 122.516 26.476 123.3C26.784 124.075 26.938 124.957 26.938 125.946C26.938 126.945 26.784 127.836 26.476 128.62C26.1773 129.395 25.7527 130.001 25.202 130.44C24.6607 130.879 24.0447 131.098 23.354 131.098ZM32.063 130.202C32.5577 130.202 33.001 130.02 33.393 129.656C33.785 129.292 34.0883 128.788 34.303 128.144C34.527 127.5 34.639 126.767 34.639 125.946C34.639 125.125 34.527 124.392 34.303 123.748C34.0883 123.104 33.785 122.605 33.393 122.25C33.001 121.886 32.5577 121.704 32.063 121.704C31.559 121.704 31.111 121.886 30.719 122.25C30.327 122.605 30.019 123.104 29.795 123.748C29.5803 124.392 29.473 125.125 29.473 125.946C29.473 126.767 29.5803 127.5 29.795 128.144C30.019 128.788 30.327 129.292 30.719 129.656C31.111 130.02 31.559 130.202 32.063 130.202ZM32.063 131.098C31.363 131.098 30.7377 130.879 30.187 130.44C29.6457 130.001 29.221 129.395 28.913 128.62C28.6143 127.836 28.465 126.945 28.465 125.946C28.465 124.957 28.6143 124.075 28.913 123.3C29.221 122.516 29.6457 121.905 30.187 121.466C30.7377 121.027 31.363 120.808 32.063 120.808C32.7537 120.808 33.3697 121.027 33.911 121.466C34.4617 121.905 34.8863 122.516 35.185 123.3C35.493 124.075 35.647 124.957 35.647 125.946C35.647 126.945 35.493 127.836 35.185 128.62C34.8863 129.395 34.4617 130.001 33.911 130.44C33.3697 130.879 32.7537 131.098 32.063 131.098ZM46.386 121.774V122.642H42.802V121.774H46.386ZM46.414 124.21V125.064H42.802V124.21H46.414ZM47.03 119.772V127.024H45.98V119.772H47.03ZM43.11 120.696V126.128H37.552V120.696H43.11ZM38.574 121.55V125.288H42.088V121.55H38.574ZM43.012 127.388C44.2813 127.388 45.2753 127.593 45.994 128.004C46.722 128.405 47.086 128.97 47.086 129.698C47.086 130.426 46.722 130.991 45.994 131.392C45.2753 131.793 44.2813 131.994 43.012 131.994C41.7426 131.994 40.744 131.793 40.016 131.392C39.2973 130.991 38.938 130.426 38.938 129.698C38.938 128.97 39.2973 128.405 40.016 128.004C40.744 127.593 41.7426 127.388 43.012 127.388ZM43.012 128.228C42.3866 128.228 41.8453 128.289 41.388 128.41C40.94 128.522 40.5946 128.69 40.352 128.914C40.1093 129.129 39.988 129.39 39.988 129.698C39.988 129.997 40.1093 130.258 40.352 130.482C40.5946 130.706 40.9446 130.879 41.402 131C41.8593 131.112 42.396 131.168 43.012 131.168C43.628 131.168 44.1646 131.112 44.622 131C45.0793 130.879 45.4293 130.706 45.672 130.482C45.9146 130.258 46.036 129.997 46.036 129.698C46.036 129.39 45.9146 129.129 45.672 128.914C45.4293 128.69 45.0793 128.522 44.622 128.41C44.174 128.289 43.6373 128.228 43.012 128.228Z" fill="#A3A8AE"/>
<path d="M180.354 130.202C180.849 130.202 181.292 130.02 181.684 129.656C182.076 129.292 182.379 128.788 182.594 128.144C182.818 127.5 182.93 126.767 182.93 125.946C182.93 125.125 182.818 124.392 182.594 123.748C182.379 123.104 182.076 122.605 181.684 122.25C181.292 121.886 180.849 121.704 180.354 121.704C179.85 121.704 179.402 121.886 179.01 122.25C178.618 122.605 178.31 123.104 178.086 123.748C177.871 124.392 177.764 125.125 177.764 125.946C177.764 126.767 177.871 127.5 178.086 128.144C178.31 128.788 178.618 129.292 179.01 129.656C179.402 130.02 179.85 130.202 180.354 130.202ZM180.354 131.098C179.654 131.098 179.029 130.879 178.478 130.44C177.937 130.001 177.512 129.395 177.204 128.62C176.905 127.836 176.756 126.945 176.756 125.946C176.756 124.957 176.905 124.075 177.204 123.3C177.512 122.516 177.937 121.905 178.478 121.466C179.029 121.027 179.654 120.808 180.354 120.808C181.045 120.808 181.661 121.027 182.202 121.466C182.753 121.905 183.177 122.516 183.476 123.3C183.784 124.075 183.938 124.957 183.938 125.946C183.938 126.945 183.784 127.836 183.476 128.62C183.177 129.395 182.753 130.001 182.202 130.44C181.661 130.879 181.045 131.098 180.354 131.098ZM189.063 130.202C189.558 130.202 190.001 130.02 190.393 129.656C190.785 129.292 191.088 128.788 191.303 128.144C191.527 127.5 191.639 126.767 191.639 125.946C191.639 125.125 191.527 124.392 191.303 123.748C191.088 123.104 190.785 122.605 190.393 122.25C190.001 121.886 189.558 121.704 189.063 121.704C188.559 121.704 188.111 121.886 187.719 122.25C187.327 122.605 187.019 123.104 186.795 123.748C186.58 124.392 186.473 125.125 186.473 125.946C186.473 126.767 186.58 127.5 186.795 128.144C187.019 128.788 187.327 129.292 187.719 129.656C188.111 130.02 188.559 130.202 189.063 130.202ZM189.063 131.098C188.363 131.098 187.738 130.879 187.187 130.44C186.646 130.001 186.221 129.395 185.913 128.62C185.614 127.836 185.465 126.945 185.465 125.946C185.465 124.957 185.614 124.075 185.913 123.3C186.221 122.516 186.646 121.905 187.187 121.466C187.738 121.027 188.363 120.808 189.063 120.808C189.754 120.808 190.37 121.027 190.911 121.466C191.462 121.905 191.886 122.516 192.185 123.3C192.493 124.075 192.647 124.957 192.647 125.946C192.647 126.945 192.493 127.836 192.185 128.62C191.886 129.395 191.462 130.001 190.911 130.44C190.37 130.879 189.754 131.098 189.063 131.098ZM203.386 121.774V122.642H199.802V121.774H203.386ZM203.414 124.21V125.064H199.802V124.21H203.414ZM204.03 119.772V127.024H202.98V119.772H204.03ZM200.11 120.696V126.128H194.552V120.696H200.11ZM195.574 121.55V125.288H199.088V121.55H195.574ZM200.012 127.388C201.281 127.388 202.275 127.593 202.994 128.004C203.722 128.405 204.086 128.97 204.086 129.698C204.086 130.426 203.722 130.991 202.994 131.392C202.275 131.793 201.281 131.994 200.012 131.994C198.743 131.994 197.744 131.793 197.016 131.392C196.297 130.991 195.938 130.426 195.938 129.698C195.938 128.97 196.297 128.405 197.016 128.004C197.744 127.593 198.743 127.388 200.012 127.388ZM200.012 128.228C199.387 128.228 198.845 128.289 198.388 128.41C197.94 128.522 197.595 128.69 197.352 128.914C197.109 129.129 196.988 129.39 196.988 129.698C196.988 129.997 197.109 130.258 197.352 130.482C197.595 130.706 197.945 130.879 198.402 131C198.859 131.112 199.396 131.168 200.012 131.168C200.628 131.168 201.165 131.112 201.622 131C202.079 130.879 202.429 130.706 202.672 130.482C202.915 130.258 203.036 129.997 203.036 129.698C203.036 129.39 202.915 129.129 202.672 128.914C202.429 128.69 202.079 128.522 201.622 128.41C201.174 128.289 200.637 128.228 200.012 128.228Z" fill="#A3A8AE"/>
<path d="M233.354 90.202C233.849 90.202 234.292 90.02 234.684 89.656C235.076 89.292 235.379 88.788 235.594 88.144C235.818 87.5 235.93 86.7673 235.93 85.946C235.93 85.1247 235.818 84.392 235.594 83.748C235.379 83.104 235.076 82.6047 234.684 82.25C234.292 81.886 233.849 81.704 233.354 81.704C232.85 81.704 232.402 81.886 232.01 82.25C231.618 82.6047 231.31 83.104 231.086 83.748C230.871 84.392 230.764 85.1247 230.764 85.946C230.764 86.7673 230.871 87.5 231.086 88.144C231.31 88.788 231.618 89.292 232.01 89.656C232.402 90.02 232.85 90.202 233.354 90.202ZM233.354 91.098C232.654 91.098 232.029 90.8787 231.478 90.44C230.937 90.0013 230.512 89.3947 230.204 88.62C229.905 87.836 229.756 86.9447 229.756 85.946C229.756 84.9567 229.905 84.0747 230.204 83.3C230.512 82.516 230.937 81.9047 231.478 81.466C232.029 81.0273 232.654 80.808 233.354 80.808C234.045 80.808 234.661 81.0273 235.202 81.466C235.753 81.9047 236.177 82.516 236.476 83.3C236.784 84.0747 236.938 84.9567 236.938 85.946C236.938 86.9447 236.784 87.836 236.476 88.62C236.177 89.3947 235.753 90.0013 235.202 90.44C234.661 90.8787 234.045 91.098 233.354 91.098ZM242.063 90.202C242.558 90.202 243.001 90.02 243.393 89.656C243.785 89.292 244.088 88.788 244.303 88.144C244.527 87.5 244.639 86.7673 244.639 85.946C244.639 85.1247 244.527 84.392 244.303 83.748C244.088 83.104 243.785 82.6047 243.393 82.25C243.001 81.886 242.558 81.704 242.063 81.704C241.559 81.704 241.111 81.886 240.719 82.25C240.327 82.6047 240.019 83.104 239.795 83.748C239.58 84.392 239.473 85.1247 239.473 85.946C239.473 86.7673 239.58 87.5 239.795 88.144C240.019 88.788 240.327 89.292 240.719 89.656C241.111 90.02 241.559 90.202 242.063 90.202ZM242.063 91.098C241.363 91.098 240.738 90.8787 240.187 90.44C239.646 90.0013 239.221 89.3947 238.913 88.62C238.614 87.836 238.465 86.9447 238.465 85.946C238.465 84.9567 238.614 84.0747 238.913 83.3C239.221 82.516 239.646 81.9047 240.187 81.466C240.738 81.0273 241.363 80.808 242.063 80.808C242.754 80.808 243.37 81.0273 243.911 81.466C244.462 81.9047 244.886 82.516 245.185 83.3C245.493 84.0747 245.647 84.9567 245.647 85.946C245.647 86.9447 245.493 87.836 245.185 88.62C244.886 89.3947 244.462 90.0013 243.911 90.44C243.37 90.8787 242.754 91.098 242.063 91.098ZM256.386 81.774V82.642H252.802V81.774H256.386ZM256.414 84.21V85.064H252.802V84.21H256.414ZM257.03 79.772V87.024H255.98V79.772H257.03ZM253.11 80.696V86.128H247.552V80.696H253.11ZM248.574 81.55V85.288H252.088V81.55H248.574ZM253.012 87.388C254.281 87.388 255.275 87.5933 255.994 88.004C256.722 88.4053 257.086 88.97 257.086 89.698C257.086 90.426 256.722 90.9907 255.994 91.392C255.275 91.7933 254.281 91.994 253.012 91.994C251.743 91.994 250.744 91.7933 250.016 91.392C249.297 90.9907 248.938 90.426 248.938 89.698C248.938 88.97 249.297 88.4053 250.016 88.004C250.744 87.5933 251.743 87.388 253.012 87.388ZM253.012 88.228C252.387 88.228 251.845 88.2887 251.388 88.41C250.94 88.522 250.595 88.69 250.352 88.914C250.109 89.1287 249.988 89.39 249.988 89.698C249.988 89.9967 250.109 90.258 250.352 90.482C250.595 90.706 250.945 90.8787 251.402 91C251.859 91.112 252.396 91.168 253.012 91.168C253.628 91.168 254.165 91.112 254.622 91C255.079 90.8787 255.429 90.706 255.672 90.482C255.915 90.258 256.036 89.9967 256.036 89.698C256.036 89.39 255.915 89.1287 255.672 88.914C255.429 88.69 255.079 88.522 254.622 88.41C254.174 88.2887 253.637 88.228 253.012 88.228Z" fill="#A3A8AE"/>
<path d="M297.922 40.164C298.486 40.164 298.978 39.972 299.398 39.588C299.818 39.204 300.142 38.658 300.37 37.95C300.61 37.242 300.73 36.42 300.73 35.484C300.73 34.548 300.61 33.732 300.37 33.036C300.142 32.328 299.818 31.782 299.398 31.398C298.978 31.002 298.486 30.804 297.922 30.804C297.37 30.804 296.878 30.996 296.446 31.38C296.026 31.764 295.696 32.31 295.456 33.018C295.228 33.726 295.114 34.548 295.114 35.484C295.114 36.42 295.228 37.242 295.456 37.95C295.696 38.658 296.026 39.204 296.446 39.588C296.878 39.972 297.37 40.164 297.922 40.164ZM297.94 42.198C296.944 42.198 296.056 41.916 295.276 41.352C294.496 40.776 293.884 39.978 293.44 38.958C293.008 37.938 292.792 36.78 292.792 35.484C292.792 34.188 293.008 33.03 293.44 32.01C293.884 30.99 294.496 30.198 295.276 29.634C296.056 29.058 296.938 28.77 297.922 28.77C298.918 28.77 299.806 29.058 300.586 29.634C301.366 30.198 301.972 30.99 302.404 32.01C302.836 33.03 303.052 34.188 303.052 35.484C303.052 36.78 302.836 37.938 302.404 38.958C301.972 39.978 301.366 40.776 300.586 41.352C299.806 41.916 298.924 42.198 297.94 42.198ZM309.77 40.164C310.334 40.164 310.826 39.972 311.246 39.588C311.666 39.204 311.99 38.658 312.218 37.95C312.458 37.242 312.578 36.42 312.578 35.484C312.578 34.548 312.458 33.732 312.218 33.036C311.99 32.328 311.666 31.782 311.246 31.398C310.826 31.002 310.334 30.804 309.77 30.804C309.218 30.804 308.726 30.996 308.294 31.38C307.874 31.764 307.544 32.31 307.304 33.018C307.076 33.726 306.962 34.548 306.962 35.484C306.962 36.42 307.076 37.242 307.304 37.95C307.544 38.658 307.874 39.204 308.294 39.588C308.726 39.972 309.218 40.164 309.77 40.164ZM309.788 42.198C308.792 42.198 307.904 41.916 307.124 41.352C306.344 40.776 305.732 39.978 305.288 38.958C304.856 37.938 304.64 36.78 304.64 35.484C304.64 34.188 304.856 33.03 305.288 32.01C305.732 30.99 306.344 30.198 307.124 29.634C307.904 29.058 308.786 28.77 309.77 28.77C310.766 28.77 311.654 29.058 312.434 29.634C313.214 30.198 313.82 30.99 314.252 32.01C314.684 33.03 314.9 34.188 314.9 35.484C314.9 36.78 314.684 37.938 314.252 38.958C313.82 39.978 313.214 40.776 312.434 41.352C311.654 41.916 310.772 42.198 309.788 42.198ZM328.151 29.652V31.542H324.065V29.652H328.151ZM328.223 32.892V34.8H324.065V32.892H328.223ZM329.807 27.348V36.816H327.395V27.348H329.807ZM324.569 28.482V35.97H316.883V28.482H324.569ZM319.241 30.39V34.098H322.211V30.39H319.241ZM324.281 37.23C326.009 37.23 327.371 37.506 328.367 38.058C329.363 38.61 329.861 39.384 329.861 40.38C329.861 41.388 329.363 42.168 328.367 42.72C327.383 43.272 326.027 43.548 324.299 43.548C322.571 43.548 321.209 43.272 320.213 42.72C319.229 42.168 318.737 41.388 318.737 40.38C318.737 39.384 319.229 38.61 320.213 38.058C321.209 37.506 322.565 37.23 324.281 37.23ZM324.281 39.066C323.597 39.066 323.021 39.114 322.553 39.21C322.085 39.306 321.731 39.45 321.491 39.642C321.251 39.834 321.131 40.08 321.131 40.38C321.131 40.68 321.251 40.932 321.491 41.136C321.731 41.328 322.085 41.478 322.553 41.586C323.021 41.682 323.597 41.73 324.281 41.73C324.989 41.73 325.577 41.682 326.045 41.586C326.513 41.478 326.867 41.328 327.107 41.136C327.347 40.932 327.467 40.68 327.467 40.38C327.467 40.08 327.347 39.834 327.107 39.642C326.867 39.45 326.513 39.306 326.045 39.21C325.577 39.114 324.989 39.066 324.281 39.066Z" fill="white"/>
<path opacity="0.4" d="M23.6667 198H45.6667L52.842 325.851C52.9278 327.38 51.711 328.667 50.1795 328.667H19.8062C18.2801 328.667 17.0652 327.388 17.143 325.864L23.6667 198Z" fill="url(#paint1_linear_455_1068)"/>
<g opacity="0.4">
<path d="M34.6305 140.331C34.6507 140.143 34.8098 140 34.9993 140C35.1889 140 35.348 140.143 35.3682 140.331L36.2536 148.596C36.2959 148.99 35.9871 149.333 35.5908 149.333H34.4079C34.0116 149.333 33.7028 148.99 33.7451 148.596L34.6305 140.331Z" fill="#FA2929"/>
<path d="M19.7114 155.13C19.1118 156.089 19.8015 157.333 20.9329 157.333H49.3475C50.3852 157.333 51.0387 156.216 50.53 155.312C47.5262 149.972 41.8757 146.667 35.7488 146.667H34.9803C28.7721 146.667 23.0018 149.865 19.7114 155.13Z" fill="url(#paint2_linear_455_1068)"/>
<g filter="url(#filter0_d_455_1068)">
<rect x="16.334" y="192.667" width="37.3333" height="5.33333" rx="1.33333" fill="url(#paint3_linear_455_1068)"/>
</g>
<g filter="url(#filter1_d_455_1068)">
<path d="M15 159.6C15 157.244 16.9103 155.333 19.2667 155.333H50.7333C53.0897 155.333 55 157.244 55 159.6C55 160.189 54.5224 160.667 53.9333 160.667H16.0667C15.4776 160.667 15 160.189 15 159.6Z" fill="url(#paint4_linear_455_1068)"/>
</g>
<rect x="21.666" y="187.333" width="26.6667" height="5.33333" fill="url(#paint5_linear_455_1068)"/>
<g filter="url(#filter2_d_455_1068)">
<path d="M19 160.667H51V186C51 186.737 50.403 187.334 49.6667 187.334H20.3333C19.597 187.334 19 186.737 19 186V160.667Z" fill="#FF6F6F"/>
</g>
<g filter="url(#filter3_i_455_1068)">
<rect x="29.666" y="162.667" width="10.6667" height="21.3333" rx="1.33333" fill="url(#paint6_linear_455_1068)"/>
</g>
<g filter="url(#filter4_i_455_1068)">
<path d="M19 162.667H25.6667C26.403 162.667 27 163.264 27 164V182.667C27 183.403 26.403 184 25.6667 184H19V162.667Z" fill="url(#paint7_linear_455_1068)"/>
</g>
<g filter="url(#filter5_i_455_1068)">
<path d="M43 164C43 163.264 43.597 162.667 44.3333 162.667H51V184H44.3333C43.597 184 43 183.403 43 182.667V164Z" fill="url(#paint8_linear_455_1068)"/>
</g>
</g>
<path opacity="0.4" d="M74.6667 230H96.6667L103.788 326.136C103.902 327.682 102.679 329 101.128 329H70.8523C69.309 329 68.0879 327.694 68.1916 326.154L74.6667 230Z" fill="url(#paint9_linear_455_1068)"/>
<g opacity="0.4">
<path d="M85.6305 172.331C85.6507 172.143 85.8098 172 85.9993 172C86.1889 172 86.348 172.143 86.3682 172.331L87.2536 180.596C87.2959 180.99 86.9871 181.333 86.5908 181.333H85.4079C85.0116 181.333 84.7028 180.99 84.7451 180.596L85.6305 172.331Z" fill="#FA2929"/>
<path d="M70.7114 187.13C70.1118 188.089 70.8015 189.333 71.9329 189.333H100.348C101.385 189.333 102.039 188.216 101.53 187.312C98.5262 181.972 92.8757 178.667 86.7488 178.667H85.9803C79.7721 178.667 74.0018 181.865 70.7114 187.13Z" fill="url(#paint10_linear_455_1068)"/>
<g filter="url(#filter6_d_455_1068)">
<rect x="67.334" y="224.667" width="37.3333" height="5.33333" rx="1.33333" fill="url(#paint11_linear_455_1068)"/>
</g>
<g filter="url(#filter7_d_455_1068)">
<path d="M66 191.6C66 189.244 67.9103 187.333 70.2667 187.333H101.733C104.09 187.333 106 189.244 106 191.6C106 192.189 105.522 192.667 104.933 192.667H67.0667C66.4776 192.667 66 192.189 66 191.6Z" fill="url(#paint12_linear_455_1068)"/>
</g>
<rect x="72.666" y="219.333" width="26.6667" height="5.33333" fill="url(#paint13_linear_455_1068)"/>
<g filter="url(#filter8_d_455_1068)">
<path d="M70 192.667H102V218C102 218.737 101.403 219.334 100.667 219.334H71.3333C70.597 219.334 70 218.737 70 218V192.667Z" fill="#FF6F6F"/>
</g>
<g filter="url(#filter9_i_455_1068)">
<rect x="80.666" y="194.667" width="10.6667" height="21.3333" rx="1.33333" fill="url(#paint14_linear_455_1068)"/>
</g>
<g filter="url(#filter10_i_455_1068)">
<path d="M70 194.667H76.6667C77.403 194.667 78 195.264 78 196V214.667C78 215.403 77.403 216 76.6667 216H70V194.667Z" fill="url(#paint15_linear_455_1068)"/>
</g>
<g filter="url(#filter11_i_455_1068)">
<path d="M94 196C94 195.264 94.597 194.667 95.3333 194.667H102V216H95.3333C94.597 216 94 215.403 94 214.667V196Z" fill="url(#paint16_linear_455_1068)"/>
</g>
</g>
<path opacity="0.4" d="M127.667 207H149.667L156.83 326.173C156.922 327.706 155.704 329 154.168 329H123.816C122.286 329 121.07 327.715 121.154 326.188L127.667 207Z" fill="url(#paint17_linear_455_1068)"/>
<g opacity="0.4">
<path d="M138.631 149.331C138.651 149.143 138.81 149 138.999 149C139.189 149 139.348 149.143 139.368 149.331L140.254 157.596C140.296 157.99 139.987 158.333 139.591 158.333H138.408C138.012 158.333 137.703 157.99 137.745 157.596L138.631 149.331Z" fill="#FA2929"/>
<path d="M123.711 164.13C123.112 165.089 123.802 166.333 124.933 166.333H153.348C154.385 166.333 155.039 165.216 154.53 164.312C151.526 158.972 145.876 155.667 139.749 155.667H138.98C132.772 155.667 127.002 158.865 123.711 164.13Z" fill="url(#paint18_linear_455_1068)"/>
<g filter="url(#filter12_d_455_1068)">
<rect x="120.334" y="201.667" width="37.3333" height="5.33333" rx="1.33333" fill="url(#paint19_linear_455_1068)"/>
</g>
<g filter="url(#filter13_d_455_1068)">
<path d="M119 168.6C119 166.244 120.91 164.333 123.267 164.333H154.733C157.09 164.333 159 166.244 159 168.6C159 169.189 158.522 169.667 157.933 169.667H120.067C119.478 169.667 119 169.189 119 168.6Z" fill="url(#paint20_linear_455_1068)"/>
</g>
<rect x="125.666" y="196.333" width="26.6667" height="5.33333" fill="url(#paint21_linear_455_1068)"/>
<g filter="url(#filter14_d_455_1068)">
<path d="M123 169.667H155V195C155 195.737 154.403 196.334 153.667 196.334H124.333C123.597 196.334 123 195.737 123 195V169.667Z" fill="#FF6F6F"/>
</g>
<g filter="url(#filter15_i_455_1068)">
<rect x="133.666" y="171.667" width="10.6667" height="21.3333" rx="1.33333" fill="url(#paint22_linear_455_1068)"/>
</g>
<g filter="url(#filter16_i_455_1068)">
<path d="M123 171.667H129.667C130.403 171.667 131 172.264 131 173V191.667C131 192.403 130.403 193 129.667 193H123V171.667Z" fill="url(#paint23_linear_455_1068)"/>
</g>
<g filter="url(#filter17_i_455_1068)">
<path d="M147 173C147 172.264 147.597 171.667 148.333 171.667H155V193H148.333C147.597 193 147 192.403 147 191.667V173Z" fill="url(#paint24_linear_455_1068)"/>
</g>
</g>
<path opacity="0.4" d="M180.667 198H202.667L209.842 325.851C209.928 327.38 208.711 328.667 207.179 328.667H176.806C175.28 328.667 174.065 327.388 174.143 325.864L180.667 198Z" fill="url(#paint25_linear_455_1068)"/>
<g opacity="0.4">
<path d="M191.631 140.331C191.651 140.143 191.81 140 191.999 140C192.189 140 192.348 140.143 192.368 140.331L193.254 148.596C193.296 148.99 192.987 149.333 192.591 149.333H191.408C191.012 149.333 190.703 148.99 190.745 148.596L191.631 140.331Z" fill="#FA2929"/>
<path d="M176.711 155.13C176.112 156.089 176.802 157.333 177.933 157.333H206.348C207.385 157.333 208.039 156.216 207.53 155.312C204.526 149.972 198.876 146.667 192.749 146.667H191.98C185.772 146.667 180.002 149.865 176.711 155.13Z" fill="url(#paint26_linear_455_1068)"/>
<g filter="url(#filter18_d_455_1068)">
<rect x="173.334" y="192.667" width="37.3333" height="5.33333" rx="1.33333" fill="url(#paint27_linear_455_1068)"/>
</g>
<g filter="url(#filter19_d_455_1068)">
<path d="M172 159.6C172 157.244 173.91 155.333 176.267 155.333H207.733C210.09 155.333 212 157.244 212 159.6C212 160.189 211.522 160.667 210.933 160.667H173.067C172.478 160.667 172 160.189 172 159.6Z" fill="url(#paint28_linear_455_1068)"/>
</g>
<rect x="178.666" y="187.333" width="26.6667" height="5.33333" fill="url(#paint29_linear_455_1068)"/>
<g filter="url(#filter20_d_455_1068)">
<path d="M176 160.667H208V186C208 186.737 207.403 187.334 206.667 187.334H177.333C176.597 187.334 176 186.737 176 186V160.667Z" fill="#FF6F6F"/>
</g>
<g filter="url(#filter21_i_455_1068)">
<rect x="186.666" y="162.667" width="10.6667" height="21.3333" rx="1.33333" fill="url(#paint30_linear_455_1068)"/>
</g>
<g filter="url(#filter22_i_455_1068)">
<path d="M176 162.667H182.667C183.403 162.667 184 163.264 184 164V182.667C184 183.403 183.403 184 182.667 184H176V162.667Z" fill="url(#paint31_linear_455_1068)"/>
</g>
<g filter="url(#filter23_i_455_1068)">
<path d="M200 164C200 163.264 200.597 162.667 201.333 162.667H208V184H201.333C200.597 184 200 183.403 200 182.667V164Z" fill="url(#paint32_linear_455_1068)"/>
</g>
</g>
<path opacity="0.4" d="M233.667 158H255.667L262.881 326.219C262.946 327.735 261.734 329 260.217 329H229.773C228.259 329 227.049 327.742 227.108 326.229L233.667 158Z" fill="url(#paint33_linear_455_1068)"/>
<g opacity="0.4">
<path d="M244.631 100.331C244.651 100.143 244.81 100 244.999 100C245.189 100 245.348 100.143 245.368 100.331L246.254 108.596C246.296 108.99 245.987 109.333 245.591 109.333H244.408C244.012 109.333 243.703 108.99 243.745 108.596L244.631 100.331Z" fill="#FA2929"/>
<path d="M229.711 115.13C229.112 116.089 229.802 117.333 230.933 117.333H259.348C260.385 117.333 261.039 116.216 260.53 115.312C257.526 109.972 251.876 106.667 245.749 106.667H244.98C238.772 106.667 233.002 109.865 229.711 115.13Z" fill="url(#paint34_linear_455_1068)"/>
<g filter="url(#filter24_d_455_1068)">
<rect x="226.334" y="152.667" width="37.3333" height="5.33333" rx="1.33333" fill="url(#paint35_linear_455_1068)"/>
</g>
<g filter="url(#filter25_d_455_1068)">
<path d="M225 119.6C225 117.244 226.91 115.333 229.267 115.333H260.733C263.09 115.333 265 117.244 265 119.6C265 120.189 264.522 120.667 263.933 120.667H226.067C225.478 120.667 225 120.189 225 119.6Z" fill="url(#paint36_linear_455_1068)"/>
</g>
<rect x="231.666" y="147.333" width="26.6667" height="5.33333" fill="url(#paint37_linear_455_1068)"/>
<g filter="url(#filter26_d_455_1068)">
<path d="M229 120.667H261V146C261 146.737 260.403 147.334 259.667 147.334H230.333C229.597 147.334 229 146.737 229 146V120.667Z" fill="#FF6F6F"/>
</g>
<g filter="url(#filter27_i_455_1068)">
<rect x="239.666" y="122.667" width="10.6667" height="21.3333" rx="1.33333" fill="url(#paint38_linear_455_1068)"/>
</g>
<g filter="url(#filter28_i_455_1068)">
<path d="M229 122.667H235.667C236.403 122.667 237 123.264 237 124V142.667C237 143.403 236.403 144 235.667 144H229V122.667Z" fill="url(#paint39_linear_455_1068)"/>
</g>
<g filter="url(#filter29_i_455_1068)">
<path d="M253 124C253 123.264 253.597 122.667 254.333 122.667H261V144H254.333C253.597 144 253 143.403 253 142.667V124Z" fill="url(#paint40_linear_455_1068)"/>
</g>
</g>
<path d="M293.806 136.796C293.915 134.669 295.671 133 297.801 133H323.218C325.34 133 327.093 134.657 327.212 136.776L337.763 324.776C337.892 327.069 336.066 329 333.769 329H288.209C285.92 329 284.098 327.082 284.214 324.796L293.806 136.796Z" fill="url(#paint41_linear_455_1068)"/>
<path d="M310.447 52.4972C310.477 52.2144 310.716 52 311 52C311.284 52 311.523 52.2144 311.553 52.4972L312.881 64.8935C312.945 65.4845 312.482 66 311.887 66H310.113C309.518 66 309.055 65.4845 309.119 64.8935L310.447 52.4972Z" fill="#FA2929"/>
<path d="M288.066 74.6941C287.167 76.1333 288.201 78 289.898 78H332.52C334.077 78 335.057 76.3238 334.294 74.9672C329.788 66.9571 321.313 62 312.122 62H310.97C301.657 62 293.002 66.7973 288.066 74.6941Z" fill="url(#paint42_linear_455_1068)"/>
<g filter="url(#filter30_d_455_1068)">
<rect x="283" y="131" width="56" height="8" rx="2" fill="url(#paint43_linear_455_1068)"/>
</g>
<g filter="url(#filter31_d_455_1068)">
<path d="M281 81.4C281 77.8654 283.865 75 287.4 75H334.6C338.135 75 341 77.8654 341 81.4C341 82.2837 340.284 83 339.4 83H282.6C281.716 83 281 82.2837 281 81.4Z" fill="url(#paint44_linear_455_1068)"/>
</g>
<rect x="291" y="123" width="40" height="8" fill="url(#paint45_linear_455_1068)"/>
<g filter="url(#filter32_d_455_1068)">
<path d="M287 83H335V121C335 122.105 334.105 123 333 123H289C287.895 123 287 122.105 287 121V83Z" fill="#FF6F6F"/>
</g>
<g filter="url(#filter33_i_455_1068)">
<rect x="303" y="86" width="16" height="32" rx="2" fill="url(#paint46_linear_455_1068)"/>
</g>
<g filter="url(#filter34_i_455_1068)">
<path d="M287 86H297C298.105 86 299 86.8954 299 88V116C299 117.105 298.105 118 297 118H287V86Z" fill="url(#paint47_linear_455_1068)"/>
</g>
<g filter="url(#filter35_i_455_1068)">
<path d="M323 88C323 86.8954 323.895 86 325 86H335V118H325C323.895 118 323 117.105 323 116V88Z" fill="url(#paint48_linear_455_1068)"/>
</g>
<line y1="328.5" x2="359" y2="328.5" stroke="#888E94"/>
</g>
<rect x="0.5" y="0.5" width="357" height="383" rx="11.5" stroke="white"/>
<defs>
<filter id="filter0_d_455_1068" x="13.6673" y="190.667" width="42.6673" height="10.6668" filterUnits="userSpaceOnUse" color-interpolation-filters="sRGB">
<feFlood flood-opacity="0" result="BackgroundImageFix"/>
<feColorMatrix in="SourceAlpha" type="matrix" values="0 0 0 0 0 0 0 0 0 0 0 0 0 0 0 0 0 0 127 0" result="hardAlpha"/>
<feOffset dy="0.666667"/>
<feGaussianBlur stdDeviation="1.33333"/>
<feComposite in2="hardAlpha" operator="out"/>
<feColorMatrix type="matrix" values="0 0 0 0 0 0 0 0 0 0 0 0 0 0 0 0 0 0 0.25 0"/>
<feBlend mode="normal" in2="BackgroundImageFix" result="effect1_dropShadow_455_1068"/>
<feBlend mode="normal" in="SourceGraphic" in2="effect1_dropShadow_455_1068" result="shape"/>
</filter>
<filter id="filter1_d_455_1068" x="12.3333" y="153.333" width="45.3333" height="10.6668" filterUnits="userSpaceOnUse" color-interpolation-filters="sRGB">
<feFlood flood-opacity="0" result="BackgroundImageFix"/>
<feColorMatrix in="SourceAlpha" type="matrix" values="0 0 0 0 0 0 0 0 0 0 0 0 0 0 0 0 0 0 127 0" result="hardAlpha"/>
<feOffset dy="0.666667"/>
<feGaussianBlur stdDeviation="1.33333"/>
<feComposite in2="hardAlpha" operator="out"/>
<feColorMatrix type="matrix" values="0 0 0 0 0 0 0 0 0 0 0 0 0 0 0 0 0 0 0.25 0"/>
<feBlend mode="normal" in2="BackgroundImageFix" result="effect1_dropShadow_455_1068"/>
<feBlend mode="normal" in="SourceGraphic" in2="effect1_dropShadow_455_1068" result="shape"/>
</filter>
<filter id="filter2_d_455_1068" x="16.3333" y="158.667" width="37.3333" height="31.9998" filterUnits="userSpaceOnUse" color-interpolation-filters="sRGB">
<feFlood flood-opacity="0" result="BackgroundImageFix"/>
<feColorMatrix in="SourceAlpha" type="matrix" values="0 0 0 0 0 0 0 0 0 0 0 0 0 0 0 0 0 0 127 0" result="hardAlpha"/>
<feOffset dy="0.666667"/>
<feGaussianBlur stdDeviation="1.33333"/>
<feComposite in2="hardAlpha" operator="out"/>
<feColorMatrix type="matrix" values="0 0 0 0 0 0 0 0 0 0 0 0 0 0 0 0 0 0 0.25 0"/>
<feBlend mode="normal" in2="BackgroundImageFix" result="effect1_dropShadow_455_1068"/>
<feBlend mode="normal" in="SourceGraphic" in2="effect1_dropShadow_455_1068" result="shape"/>
</filter>
<filter id="filter3_i_455_1068" x="29.666" y="162.667" width="10.666" height="22.0002" filterUnits="userSpaceOnUse" color-interpolation-filters="sRGB">
<feFlood flood-opacity="0" result="BackgroundImageFix"/>
<feBlend mode="normal" in="SourceGraphic" in2="BackgroundImageFix" result="shape"/>
<feColorMatrix in="SourceAlpha" type="matrix" values="0 0 0 0 0 0 0 0 0 0 0 0 0 0 0 0 0 0 127 0" result="hardAlpha"/>
<feOffset dy="0.666667"/>
<feGaussianBlur stdDeviation="0.333333"/>
<feComposite in2="hardAlpha" operator="arithmetic" k2="-1" k3="1"/>
<feColorMatrix type="matrix" values="0 0 0 0 0 0 0 0 0 0 0 0 0 0 0 0 0 0 0.15 0"/>
<feBlend mode="normal" in2="shape" result="effect1_innerShadow_455_1068"/>
</filter>
<filter id="filter4_i_455_1068" x="19" y="162.667" width="8" height="22.0002" filterUnits="userSpaceOnUse" color-interpolation-filters="sRGB">
<feFlood flood-opacity="0" result="BackgroundImageFix"/>
<feBlend mode="normal" in="SourceGraphic" in2="BackgroundImageFix" result="shape"/>
<feColorMatrix in="SourceAlpha" type="matrix" values="0 0 0 0 0 0 0 0 0 0 0 0 0 0 0 0 0 0 127 0" result="hardAlpha"/>
<feOffset dy="0.666667"/>
<feGaussianBlur stdDeviation="0.333333"/>
<feComposite in2="hardAlpha" operator="arithmetic" k2="-1" k3="1"/>
<feColorMatrix type="matrix" values="0 0 0 0 0 0 0 0 0 0 0 0 0 0 0 0 0 0 0.15 0"/>
<feBlend mode="normal" in2="shape" result="effect1_innerShadow_455_1068"/>
</filter>
<filter id="filter5_i_455_1068" x="43" y="162.667" width="8" height="22.0002" filterUnits="userSpaceOnUse" color-interpolation-filters="sRGB">
<feFlood flood-opacity="0" result="BackgroundImageFix"/>
<feBlend mode="normal" in="SourceGraphic" in2="BackgroundImageFix" result="shape"/>
<feColorMatrix in="SourceAlpha" type="matrix" values="0 0 0 0 0 0 0 0 0 0 0 0 0 0 0 0 0 0 127 0" result="hardAlpha"/>
<feOffset dy="0.666667"/>
<feGaussianBlur stdDeviation="0.333333"/>
<feComposite in2="hardAlpha" operator="arithmetic" k2="-1" k3="1"/>
<feColorMatrix type="matrix" values="0 0 0 0 0 0 0 0 0 0 0 0 0 0 0 0 0 0 0.15 0"/>
<feBlend mode="normal" in2="shape" result="effect1_innerShadow_455_1068"/>
</filter>
<filter id="filter6_d_455_1068" x="64.6673" y="222.667" width="42.6673" height="10.6668" filterUnits="userSpaceOnUse" color-interpolation-filters="sRGB">
<feFlood flood-opacity="0" result="BackgroundImageFix"/>
<feColorMatrix in="SourceAlpha" type="matrix" values="0 0 0 0 0 0 0 0 0 0 0 0 0 0 0 0 0 0 127 0" result="hardAlpha"/>
<feOffset dy="0.666667"/>
<feGaussianBlur stdDeviation="1.33333"/>
<feComposite in2="hardAlpha" operator="out"/>
<feColorMatrix type="matrix" values="0 0 0 0 0 0 0 0 0 0 0 0 0 0 0 0 0 0 0.25 0"/>
<feBlend mode="normal" in2="BackgroundImageFix" result="effect1_dropShadow_455_1068"/>
<feBlend mode="normal" in="SourceGraphic" in2="effect1_dropShadow_455_1068" result="shape"/>
</filter>
<filter id="filter7_d_455_1068" x="63.3333" y="185.333" width="45.3333" height="10.6668" filterUnits="userSpaceOnUse" color-interpolation-filters="sRGB">
<feFlood flood-opacity="0" result="BackgroundImageFix"/>
<feColorMatrix in="SourceAlpha" type="matrix" values="0 0 0 0 0 0 0 0 0 0 0 0 0 0 0 0 0 0 127 0" result="hardAlpha"/>
<feOffset dy="0.666667"/>
<feGaussianBlur stdDeviation="1.33333"/>
<feComposite in2="hardAlpha" operator="out"/>
<feColorMatrix type="matrix" values="0 0 0 0 0 0 0 0 0 0 0 0 0 0 0 0 0 0 0.25 0"/>
<feBlend mode="normal" in2="BackgroundImageFix" result="effect1_dropShadow_455_1068"/>
<feBlend mode="normal" in="SourceGraphic" in2="effect1_dropShadow_455_1068" result="shape"/>
</filter>
<filter id="filter8_d_455_1068" x="67.3333" y="190.667" width="37.3333" height="31.9998" filterUnits="userSpaceOnUse" color-interpolation-filters="sRGB">
<feFlood flood-opacity="0" result="BackgroundImageFix"/>
<feColorMatrix in="SourceAlpha" type="matrix" values="0 0 0 0 0 0 0 0 0 0 0 0 0 0 0 0 0 0 127 0" result="hardAlpha"/>
<feOffset dy="0.666667"/>
<feGaussianBlur stdDeviation="1.33333"/>
<feComposite in2="hardAlpha" operator="out"/>
<feColorMatrix type="matrix" values="0 0 0 0 0 0 0 0 0 0 0 0 0 0 0 0 0 0 0.25 0"/>
<feBlend mode="normal" in2="BackgroundImageFix" result="effect1_dropShadow_455_1068"/>
<feBlend mode="normal" in="SourceGraphic" in2="effect1_dropShadow_455_1068" result="shape"/>
</filter>
<filter id="filter9_i_455_1068" x="80.666" y="194.667" width="10.666" height="22.0002" filterUnits="userSpaceOnUse" color-interpolation-filters="sRGB">
<feFlood flood-opacity="0" result="BackgroundImageFix"/>
<feBlend mode="normal" in="SourceGraphic" in2="BackgroundImageFix" result="shape"/>
<feColorMatrix in="SourceAlpha" type="matrix" values="0 0 0 0 0 0 0 0 0 0 0 0 0 0 0 0 0 0 127 0" result="hardAlpha"/>
<feOffset dy="0.666667"/>
<feGaussianBlur stdDeviation="0.333333"/>
<feComposite in2="hardAlpha" operator="arithmetic" k2="-1" k3="1"/>
<feColorMatrix type="matrix" values="0 0 0 0 0 0 0 0 0 0 0 0 0 0 0 0 0 0 0.15 0"/>
<feBlend mode="normal" in2="shape" result="effect1_innerShadow_455_1068"/>
</filter>
<filter id="filter10_i_455_1068" x="70" y="194.667" width="8" height="22.0002" filterUnits="userSpaceOnUse" color-interpolation-filters="sRGB">
<feFlood flood-opacity="0" result="BackgroundImageFix"/>
<feBlend mode="normal" in="SourceGraphic" in2="BackgroundImageFix" result="shape"/>
<feColorMatrix in="SourceAlpha" type="matrix" values="0 0 0 0 0 0 0 0 0 0 0 0 0 0 0 0 0 0 127 0" result="hardAlpha"/>
<feOffset dy="0.666667"/>
<feGaussianBlur stdDeviation="0.333333"/>
<feComposite in2="hardAlpha" operator="arithmetic" k2="-1" k3="1"/>
<feColorMatrix type="matrix" values="0 0 0 0 0 0 0 0 0 0 0 0 0 0 0 0 0 0 0.15 0"/>
<feBlend mode="normal" in2="shape" result="effect1_innerShadow_455_1068"/>
</filter>
<filter id="filter11_i_455_1068" x="94" y="194.667" width="8" height="22.0002" filterUnits="userSpaceOnUse" color-interpolation-filters="sRGB">
<feFlood flood-opacity="0" result="BackgroundImageFix"/>
<feBlend mode="normal" in="SourceGraphic" in2="BackgroundImageFix" result="shape"/>
<feColorMatrix in="SourceAlpha" type="matrix" values="0 0 0 0 0 0 0 0 0 0 0 0 0 0 0 0 0 0 127 0" result="hardAlpha"/>
<feOffset dy="0.666667"/>
<feGaussianBlur stdDeviation="0.333333"/>
<feComposite in2="hardAlpha" operator="arithmetic" k2="-1" k3="1"/>
<feColorMatrix type="matrix" values="0 0 0 0 0 0 0 0 0 0 0 0 0 0 0 0 0 0 0.15 0"/>
<feBlend mode="normal" in2="shape" result="effect1_innerShadow_455_1068"/>
</filter>
<filter id="filter12_d_455_1068" x="117.667" y="199.667" width="42.6673" height="10.6668" filterUnits="userSpaceOnUse" color-interpolation-filters="sRGB">
<feFlood flood-opacity="0" result="BackgroundImageFix"/>
<feColorMatrix in="SourceAlpha" type="matrix" values="0 0 0 0 0 0 0 0 0 0 0 0 0 0 0 0 0 0 127 0" result="hardAlpha"/>
<feOffset dy="0.666667"/>
<feGaussianBlur stdDeviation="1.33333"/>
<feComposite in2="hardAlpha" operator="out"/>
<feColorMatrix type="matrix" values="0 0 0 0 0 0 0 0 0 0 0 0 0 0 0 0 0 0 0.25 0"/>
<feBlend mode="normal" in2="BackgroundImageFix" result="effect1_dropShadow_455_1068"/>
<feBlend mode="normal" in="SourceGraphic" in2="effect1_dropShadow_455_1068" result="shape"/>
</filter>
<filter id="filter13_d_455_1068" x="116.333" y="162.333" width="45.3333" height="10.6668" filterUnits="userSpaceOnUse" color-interpolation-filters="sRGB">
<feFlood flood-opacity="0" result="BackgroundImageFix"/>
<feColorMatrix in="SourceAlpha" type="matrix" values="0 0 0 0 0 0 0 0 0 0 0 0 0 0 0 0 0 0 127 0" result="hardAlpha"/>
<feOffset dy="0.666667"/>
<feGaussianBlur stdDeviation="1.33333"/>
<feComposite in2="hardAlpha" operator="out"/>
<feColorMatrix type="matrix" values="0 0 0 0 0 0 0 0 0 0 0 0 0 0 0 0 0 0 0.25 0"/>
<feBlend mode="normal" in2="BackgroundImageFix" result="effect1_dropShadow_455_1068"/>
<feBlend mode="normal" in="SourceGraphic" in2="effect1_dropShadow_455_1068" result="shape"/>
</filter>
<filter id="filter14_d_455_1068" x="120.333" y="167.667" width="37.3333" height="31.9998" filterUnits="userSpaceOnUse" color-interpolation-filters="sRGB">
<feFlood flood-opacity="0" result="BackgroundImageFix"/>
<feColorMatrix in="SourceAlpha" type="matrix" values="0 0 0 0 0 0 0 0 0 0 0 0 0 0 0 0 0 0 127 0" result="hardAlpha"/>
<feOffset dy="0.666667"/>
<feGaussianBlur stdDeviation="1.33333"/>
<feComposite in2="hardAlpha" operator="out"/>
<feColorMatrix type="matrix" values="0 0 0 0 0 0 0 0 0 0 0 0 0 0 0 0 0 0 0.25 0"/>
<feBlend mode="normal" in2="BackgroundImageFix" result="effect1_dropShadow_455_1068"/>
<feBlend mode="normal" in="SourceGraphic" in2="effect1_dropShadow_455_1068" result="shape"/>
</filter>
<filter id="filter15_i_455_1068" x="133.666" y="171.667" width="10.666" height="22.0002" filterUnits="userSpaceOnUse" color-interpolation-filters="sRGB">
<feFlood flood-opacity="0" result="BackgroundImageFix"/>
<feBlend mode="normal" in="SourceGraphic" in2="BackgroundImageFix" result="shape"/>
<feColorMatrix in="SourceAlpha" type="matrix" values="0 0 0 0 0 0 0 0 0 0 0 0 0 0 0 0 0 0 127 0" result="hardAlpha"/>
<feOffset dy="0.666667"/>
<feGaussianBlur stdDeviation="0.333333"/>
<feComposite in2="hardAlpha" operator="arithmetic" k2="-1" k3="1"/>
<feColorMatrix type="matrix" values="0 0 0 0 0 0 0 0 0 0 0 0 0 0 0 0 0 0 0.15 0"/>
<feBlend mode="normal" in2="shape" result="effect1_innerShadow_455_1068"/>
</filter>
<filter id="filter16_i_455_1068" x="123" y="171.667" width="8" height="22.0002" filterUnits="userSpaceOnUse" color-interpolation-filters="sRGB">
<feFlood flood-opacity="0" result="BackgroundImageFix"/>
<feBlend mode="normal" in="SourceGraphic" in2="BackgroundImageFix" result="shape"/>
<feColorMatrix in="SourceAlpha" type="matrix" values="0 0 0 0 0 0 0 0 0 0 0 0 0 0 0 0 0 0 127 0" result="hardAlpha"/>
<feOffset dy="0.666667"/>
<feGaussianBlur stdDeviation="0.333333"/>
<feComposite in2="hardAlpha" operator="arithmetic" k2="-1" k3="1"/>
<feColorMatrix type="matrix" values="0 0 0 0 0 0 0 0 0 0 0 0 0 0 0 0 0 0 0.15 0"/>
<feBlend mode="normal" in2="shape" result="effect1_innerShadow_455_1068"/>
</filter>
<filter id="filter17_i_455_1068" x="147" y="171.667" width="8" height="22.0002" filterUnits="userSpaceOnUse" color-interpolation-filters="sRGB">
<feFlood flood-opacity="0" result="BackgroundImageFix"/>
<feBlend mode="normal" in="SourceGraphic" in2="BackgroundImageFix" result="shape"/>
<feColorMatrix in="SourceAlpha" type="matrix" values="0 0 0 0 0 0 0 0 0 0 0 0 0 0 0 0 0 0 127 0" result="hardAlpha"/>
<feOffset dy="0.666667"/>
<feGaussianBlur stdDeviation="0.333333"/>
<feComposite in2="hardAlpha" operator="arithmetic" k2="-1" k3="1"/>
<feColorMatrix type="matrix" values="0 0 0 0 0 0 0 0 0 0 0 0 0 0 0 0 0 0 0.15 0"/>
<feBlend mode="normal" in2="shape" result="effect1_innerShadow_455_1068"/>
</filter>
<filter id="filter18_d_455_1068" x="170.667" y="190.667" width="42.6673" height="10.6668" filterUnits="userSpaceOnUse" color-interpolation-filters="sRGB">
<feFlood flood-opacity="0" result="BackgroundImageFix"/>
<feColorMatrix in="SourceAlpha" type="matrix" values="0 0 0 0 0 0 0 0 0 0 0 0 0 0 0 0 0 0 127 0" result="hardAlpha"/>
<feOffset dy="0.666667"/>
<feGaussianBlur stdDeviation="1.33333"/>
<feComposite in2="hardAlpha" operator="out"/>
<feColorMatrix type="matrix" values="0 0 0 0 0 0 0 0 0 0 0 0 0 0 0 0 0 0 0.25 0"/>
<feBlend mode="normal" in2="BackgroundImageFix" result="effect1_dropShadow_455_1068"/>
<feBlend mode="normal" in="SourceGraphic" in2="effect1_dropShadow_455_1068" result="shape"/>
</filter>
<filter id="filter19_d_455_1068" x="169.333" y="153.333" width="45.3333" height="10.6668" filterUnits="userSpaceOnUse" color-interpolation-filters="sRGB">
<feFlood flood-opacity="0" result="BackgroundImageFix"/>
<feColorMatrix in="SourceAlpha" type="matrix" values="0 0 0 0 0 0 0 0 0 0 0 0 0 0 0 0 0 0 127 0" result="hardAlpha"/>
<feOffset dy="0.666667"/>
<feGaussianBlur stdDeviation="1.33333"/>
<feComposite in2="hardAlpha" operator="out"/>
<feColorMatrix type="matrix" values="0 0 0 0 0 0 0 0 0 0 0 0 0 0 0 0 0 0 0.25 0"/>
<feBlend mode="normal" in2="BackgroundImageFix" result="effect1_dropShadow_455_1068"/>
<feBlend mode="normal" in="SourceGraphic" in2="effect1_dropShadow_455_1068" result="shape"/>
</filter>
<filter id="filter20_d_455_1068" x="173.333" y="158.667" width="37.3333" height="31.9998" filterUnits="userSpaceOnUse" color-interpolation-filters="sRGB">
<feFlood flood-opacity="0" result="BackgroundImageFix"/>
<feColorMatrix in="SourceAlpha" type="matrix" values="0 0 0 0 0 0 0 0 0 0 0 0 0 0 0 0 0 0 127 0" result="hardAlpha"/>
<feOffset dy="0.666667"/>
<feGaussianBlur stdDeviation="1.33333"/>
<feComposite in2="hardAlpha" operator="out"/>
<feColorMatrix type="matrix" values="0 0 0 0 0 0 0 0 0 0 0 0 0 0 0 0 0 0 0.25 0"/>
<feBlend mode="normal" in2="BackgroundImageFix" result="effect1_dropShadow_455_1068"/>
<feBlend mode="normal" in="SourceGraphic" in2="effect1_dropShadow_455_1068" result="shape"/>
</filter>
<filter id="filter21_i_455_1068" x="186.666" y="162.667" width="10.666" height="22.0002" filterUnits="userSpaceOnUse" color-interpolation-filters="sRGB">
<feFlood flood-opacity="0" result="BackgroundImageFix"/>
<feBlend mode="normal" in="SourceGraphic" in2="BackgroundImageFix" result="shape"/>
<feColorMatrix in="SourceAlpha" type="matrix" values="0 0 0 0 0 0 0 0 0 0 0 0 0 0 0 0 0 0 127 0" result="hardAlpha"/>
<feOffset dy="0.666667"/>
<feGaussianBlur stdDeviation="0.333333"/>
<feComposite in2="hardAlpha" operator="arithmetic" k2="-1" k3="1"/>
<feColorMatrix type="matrix" values="0 0 0 0 0 0 0 0 0 0 0 0 0 0 0 0 0 0 0.15 0"/>
<feBlend mode="normal" in2="shape" result="effect1_innerShadow_455_1068"/>
</filter>
<filter id="filter22_i_455_1068" x="176" y="162.667" width="8" height="22.0002" filterUnits="userSpaceOnUse" color-interpolation-filters="sRGB">
<feFlood flood-opacity="0" result="BackgroundImageFix"/>
<feBlend mode="normal" in="SourceGraphic" in2="BackgroundImageFix" result="shape"/>
<feColorMatrix in="SourceAlpha" type="matrix" values="0 0 0 0 0 0 0 0 0 0 0 0 0 0 0 0 0 0 127 0" result="hardAlpha"/>
<feOffset dy="0.666667"/>
<feGaussianBlur stdDeviation="0.333333"/>
<feComposite in2="hardAlpha" operator="arithmetic" k2="-1" k3="1"/>
<feColorMatrix type="matrix" values="0 0 0 0 0 0 0 0 0 0 0 0 0 0 0 0 0 0 0.15 0"/>
<feBlend mode="normal" in2="shape" result="effect1_innerShadow_455_1068"/>
</filter>
<filter id="filter23_i_455_1068" x="200" y="162.667" width="8" height="22.0002" filterUnits="userSpaceOnUse" color-interpolation-filters="sRGB">
<feFlood flood-opacity="0" result="BackgroundImageFix"/>
<feBlend mode="normal" in="SourceGraphic" in2="BackgroundImageFix" result="shape"/>
<feColorMatrix in="SourceAlpha" type="matrix" values="0 0 0 0 0 0 0 0 0 0 0 0 0 0 0 0 0 0 127 0" result="hardAlpha"/>
<feOffset dy="0.666667"/>
<feGaussianBlur stdDeviation="0.333333"/>
<feComposite in2="hardAlpha" operator="arithmetic" k2="-1" k3="1"/>
<feColorMatrix type="matrix" values="0 0 0 0 0 0 0 0 0 0 0 0 0 0 0 0 0 0 0.15 0"/>
<feBlend mode="normal" in2="shape" result="effect1_innerShadow_455_1068"/>
</filter>
<filter id="filter24_d_455_1068" x="223.667" y="150.667" width="42.6673" height="10.6668" filterUnits="userSpaceOnUse" color-interpolation-filters="sRGB">
<feFlood flood-opacity="0" result="BackgroundImageFix"/>
<feColorMatrix in="SourceAlpha" type="matrix" values="0 0 0 0 0 0 0 0 0 0 0 0 0 0 0 0 0 0 127 0" result="hardAlpha"/>
<feOffset dy="0.666667"/>
<feGaussianBlur stdDeviation="1.33333"/>
<feComposite in2="hardAlpha" operator="out"/>
<feColorMatrix type="matrix" values="0 0 0 0 0 0 0 0 0 0 0 0 0 0 0 0 0 0 0.25 0"/>
<feBlend mode="normal" in2="BackgroundImageFix" result="effect1_dropShadow_455_1068"/>
<feBlend mode="normal" in="SourceGraphic" in2="effect1_dropShadow_455_1068" result="shape"/>
</filter>
<filter id="filter25_d_455_1068" x="222.333" y="113.333" width="45.3333" height="10.6668" filterUnits="userSpaceOnUse" color-interpolation-filters="sRGB">
<feFlood flood-opacity="0" result="BackgroundImageFix"/>
<feColorMatrix in="SourceAlpha" type="matrix" values="0 0 0 0 0 0 0 0 0 0 0 0 0 0 0 0 0 0 127 0" result="hardAlpha"/>
<feOffset dy="0.666667"/>
<feGaussianBlur stdDeviation="1.33333"/>
<feComposite in2="hardAlpha" operator="out"/>
<feColorMatrix type="matrix" values="0 0 0 0 0 0 0 0 0 0 0 0 0 0 0 0 0 0 0.25 0"/>
<feBlend mode="normal" in2="BackgroundImageFix" result="effect1_dropShadow_455_1068"/>
<feBlend mode="normal" in="SourceGraphic" in2="effect1_dropShadow_455_1068" result="shape"/>
</filter>
<filter id="filter26_d_455_1068" x="226.333" y="118.667" width="37.3333" height="31.9998" filterUnits="userSpaceOnUse" color-interpolation-filters="sRGB">
<feFlood flood-opacity="0" result="BackgroundImageFix"/>
<feColorMatrix in="SourceAlpha" type="matrix" values="0 0 0 0 0 0 0 0 0 0 0 0 0 0 0 0 0 0 127 0" result="hardAlpha"/>
<feOffset dy="0.666667"/>
<feGaussianBlur stdDeviation="1.33333"/>
<feComposite in2="hardAlpha" operator="out"/>
<feColorMatrix type="matrix" values="0 0 0 0 0 0 0 0 0 0 0 0 0 0 0 0 0 0 0.25 0"/>
<feBlend mode="normal" in2="BackgroundImageFix" result="effect1_dropShadow_455_1068"/>
<feBlend mode="normal" in="SourceGraphic" in2="effect1_dropShadow_455_1068" result="shape"/>
</filter>
<filter id="filter27_i_455_1068" x="239.666" y="122.667" width="10.666" height="22.0002" filterUnits="userSpaceOnUse" color-interpolation-filters="sRGB">
<feFlood flood-opacity="0" result="BackgroundImageFix"/>
<feBlend mode="normal" in="SourceGraphic" in2="BackgroundImageFix" result="shape"/>
<feColorMatrix in="SourceAlpha" type="matrix" values="0 0 0 0 0 0 0 0 0 0 0 0 0 0 0 0 0 0 127 0" result="hardAlpha"/>
<feOffset dy="0.666667"/>
<feGaussianBlur stdDeviation="0.333333"/>
<feComposite in2="hardAlpha" operator="arithmetic" k2="-1" k3="1"/>
<feColorMatrix type="matrix" values="0 0 0 0 0 0 0 0 0 0 0 0 0 0 0 0 0 0 0.15 0"/>
<feBlend mode="normal" in2="shape" result="effect1_innerShadow_455_1068"/>
</filter>
<filter id="filter28_i_455_1068" x="229" y="122.667" width="8" height="22.0002" filterUnits="userSpaceOnUse" color-interpolation-filters="sRGB">
<feFlood flood-opacity="0" result="BackgroundImageFix"/>
<feBlend mode="normal" in="SourceGraphic" in2="BackgroundImageFix" result="shape"/>
<feColorMatrix in="SourceAlpha" type="matrix" values="0 0 0 0 0 0 0 0 0 0 0 0 0 0 0 0 0 0 127 0" result="hardAlpha"/>
<feOffset dy="0.666667"/>
<feGaussianBlur stdDeviation="0.333333"/>
<feComposite in2="hardAlpha" operator="arithmetic" k2="-1" k3="1"/>
<feColorMatrix type="matrix" values="0 0 0 0 0 0 0 0 0 0 0 0 0 0 0 0 0 0 0.15 0"/>
<feBlend mode="normal" in2="shape" result="effect1_innerShadow_455_1068"/>
</filter>
<filter id="filter29_i_455_1068" x="253" y="122.667" width="8" height="22.0002" filterUnits="userSpaceOnUse" color-interpolation-filters="sRGB">
<feFlood flood-opacity="0" result="BackgroundImageFix"/>
<feBlend mode="normal" in="SourceGraphic" in2="BackgroundImageFix" result="shape"/>
<feColorMatrix in="SourceAlpha" type="matrix" values="0 0 0 0 0 0 0 0 0 0 0 0 0 0 0 0 0 0 127 0" result="hardAlpha"/>
<feOffset dy="0.666667"/>
<feGaussianBlur stdDeviation="0.333333"/>
<feComposite in2="hardAlpha" operator="arithmetic" k2="-1" k3="1"/>
<feColorMatrix type="matrix" values="0 0 0 0 0 0 0 0 0 0 0 0 0 0 0 0 0 0 0.15 0"/>
<feBlend mode="normal" in2="shape" result="effect1_innerShadow_455_1068"/>
</filter>
<filter id="filter30_d_455_1068" x="279" y="128" width="64" height="16" filterUnits="userSpaceOnUse" color-interpolation-filters="sRGB">
<feFlood flood-opacity="0" result="BackgroundImageFix"/>
<feColorMatrix in="SourceAlpha" type="matrix" values="0 0 0 0 0 0 0 0 0 0 0 0 0 0 0 0 0 0 127 0" result="hardAlpha"/>
<feOffset dy="1"/>
<feGaussianBlur stdDeviation="2"/>
<feComposite in2="hardAlpha" operator="out"/>
<feColorMatrix type="matrix" values="0 0 0 0 0 0 0 0 0 0 0 0 0 0 0 0 0 0 0.25 0"/>
<feBlend mode="normal" in2="BackgroundImageFix" result="effect1_dropShadow_455_1068"/>
<feBlend mode="normal" in="SourceGraphic" in2="effect1_dropShadow_455_1068" result="shape"/>
</filter>
<filter id="filter31_d_455_1068" x="277" y="72" width="68" height="16" filterUnits="userSpaceOnUse" color-interpolation-filters="sRGB">
<feFlood flood-opacity="0" result="BackgroundImageFix"/>
<feColorMatrix in="SourceAlpha" type="matrix" values="0 0 0 0 0 0 0 0 0 0 0 0 0 0 0 0 0 0 127 0" result="hardAlpha"/>
<feOffset dy="1"/>
<feGaussianBlur stdDeviation="2"/>
<feComposite in2="hardAlpha" operator="out"/>
<feColorMatrix type="matrix" values="0 0 0 0 0 0 0 0 0 0 0 0 0 0 0 0 0 0 0.25 0"/>
<feBlend mode="normal" in2="BackgroundImageFix" result="effect1_dropShadow_455_1068"/>
<feBlend mode="normal" in="SourceGraphic" in2="effect1_dropShadow_455_1068" result="shape"/>
</filter>
<filter id="filter32_d_455_1068" x="283" y="80" width="56" height="48" filterUnits="userSpaceOnUse" color-interpolation-filters="sRGB">
<feFlood flood-opacity="0" result="BackgroundImageFix"/>
<feColorMatrix in="SourceAlpha" type="matrix" values="0 0 0 0 0 0 0 0 0 0 0 0 0 0 0 0 0 0 127 0" result="hardAlpha"/>
<feOffset dy="1"/>
<feGaussianBlur stdDeviation="2"/>
<feComposite in2="hardAlpha" operator="out"/>
<feColorMatrix type="matrix" values="0 0 0 0 0 0 0 0 0 0 0 0 0 0 0 0 0 0 0.25 0"/>
<feBlend mode="normal" in2="BackgroundImageFix" result="effect1_dropShadow_455_1068"/>
<feBlend mode="normal" in="SourceGraphic" in2="effect1_dropShadow_455_1068" result="shape"/>
</filter>
<filter id="filter33_i_455_1068" x="303" y="86" width="16" height="33" filterUnits="userSpaceOnUse" color-interpolation-filters="sRGB">
<feFlood flood-opacity="0" result="BackgroundImageFix"/>
<feBlend mode="normal" in="SourceGraphic" in2="BackgroundImageFix" result="shape"/>
<feColorMatrix in="SourceAlpha" type="matrix" values="0 0 0 0 0 0 0 0 0 0 0 0 0 0 0 0 0 0 127 0" result="hardAlpha"/>
<feOffset dy="1"/>
<feGaussianBlur stdDeviation="0.5"/>
<feComposite in2="hardAlpha" operator="arithmetic" k2="-1" k3="1"/>
<feColorMatrix type="matrix" values="0 0 0 0 0 0 0 0 0 0 0 0 0 0 0 0 0 0 0.15 0"/>
<feBlend mode="normal" in2="shape" result="effect1_innerShadow_455_1068"/>
</filter>
<filter id="filter34_i_455_1068" x="287" y="86" width="12" height="33" filterUnits="userSpaceOnUse" color-interpolation-filters="sRGB">
<feFlood flood-opacity="0" result="BackgroundImageFix"/>
<feBlend mode="normal" in="SourceGraphic" in2="BackgroundImageFix" result="shape"/>
<feColorMatrix in="SourceAlpha" type="matrix" values="0 0 0 0 0 0 0 0 0 0 0 0 0 0 0 0 0 0 127 0" result="hardAlpha"/>
<feOffset dy="1"/>
<feGaussianBlur stdDeviation="0.5"/>
<feComposite in2="hardAlpha" operator="arithmetic" k2="-1" k3="1"/>
<feColorMatrix type="matrix" values="0 0 0 0 0 0 0 0 0 0 0 0 0 0 0 0 0 0 0.15 0"/>
<feBlend mode="normal" in2="shape" result="effect1_innerShadow_455_1068"/>
</filter>
<filter id="filter35_i_455_1068" x="323" y="86" width="12" height="33" filterUnits="userSpaceOnUse" color-interpolation-filters="sRGB">
<feFlood flood-opacity="0" result="BackgroundImageFix"/>
<feBlend mode="normal" in="SourceGraphic" in2="BackgroundImageFix" result="shape"/>
<feColorMatrix in="SourceAlpha" type="matrix" values="0 0 0 0 0 0 0 0 0 0 0 0 0 0 0 0 0 0 127 0" result="hardAlpha"/>
<feOffset dy="1"/>
<feGaussianBlur stdDeviation="0.5"/>
<feComposite in2="hardAlpha" operator="arithmetic" k2="-1" k3="1"/>
<feColorMatrix type="matrix" values="0 0 0 0 0 0 0 0 0 0 0 0 0 0 0 0 0 0 0.15 0"/>
<feBlend mode="normal" in2="shape" result="effect1_innerShadow_455_1068"/>
</filter>
<linearGradient id="paint0_linear_455_1068" x1="312.716" y1="109.5" x2="117.241" y2="90.3501" gradientUnits="userSpaceOnUse">
<stop stop-color="#FFE6E6"/>
<stop offset="1" stop-color="#14181A" stop-opacity="0"/>
</linearGradient>
<linearGradient id="paint1_linear_455_1068" x1="34.6667" y1="198" x2="34.6667" y2="328.667" gradientUnits="userSpaceOnUse">
<stop stop-color="#FF7F7F"/>
<stop offset="1" stop-color="#FF4646"/>
</linearGradient>
<linearGradient id="paint2_linear_455_1068" x1="35.0007" y1="146.667" x2="35.0007" y2="157.333" gradientUnits="userSpaceOnUse">
<stop stop-color="#FA2929"/>
<stop offset="1" stop-color="#FF6666"/>
</linearGradient>
<linearGradient id="paint3_linear_455_1068" x1="16.334" y1="195.334" x2="53.6673" y2="195.334" gradientUnits="userSpaceOnUse">
<stop stop-color="#FA2E2E"/>
<stop offset="0.4" stop-color="#FA4C4C"/>
<stop offset="1" stop-color="#FA2929"/>
</linearGradient>
<linearGradient id="paint4_linear_455_1068" x1="15" y1="158" x2="55" y2="158" gradientUnits="userSpaceOnUse">
<stop stop-color="#FB2D2D"/>
<stop offset="0.555" stop-color="#FA3838"/>
<stop offset="1" stop-color="#F83030"/>
</linearGradient>
<linearGradient id="paint5_linear_455_1068" x1="21.666" y1="190" x2="48.3327" y2="190" gradientUnits="userSpaceOnUse">
<stop stop-color="#FD5D5D"/>
<stop offset="0.375" stop-color="#FF7F7F"/>
<stop offset="1" stop-color="#FA3838"/>
</linearGradient>
<linearGradient id="paint6_linear_455_1068" x1="32.666" y1="166.334" x2="36.9993" y2="184" gradientUnits="userSpaceOnUse">
<stop stop-color="#FEFDFD"/>
<stop offset="1" stop-color="#FFE6E6"/>
</linearGradient>
<linearGradient id="paint7_linear_455_1068" x1="28.6667" y1="174" x2="7.33333" y2="174.334" gradientUnits="userSpaceOnUse">
<stop stop-color="#FFE6E6"/>
<stop offset="1" stop-color="#BD8D8D"/>
</linearGradient>
<linearGradient id="paint8_linear_455_1068" x1="43" y1="173.334" x2="63" y2="173.334" gradientUnits="userSpaceOnUse">
<stop stop-color="#FFE6E6"/>
<stop offset="1" stop-color="#9F8080"/>
</linearGradient>
<linearGradient id="paint9_linear_455_1068" x1="85.6667" y1="230" x2="85.6667" y2="329" gradientUnits="userSpaceOnUse">
<stop stop-color="#FF7F7F"/>
<stop offset="1" stop-color="#FF4646"/>
</linearGradient>
<linearGradient id="paint10_linear_455_1068" x1="86.0007" y1="178.667" x2="86.0007" y2="189.333" gradientUnits="userSpaceOnUse">
<stop stop-color="#FA2929"/>
<stop offset="1" stop-color="#FF6666"/>
</linearGradient>
<linearGradient id="paint11_linear_455_1068" x1="67.334" y1="227.334" x2="104.667" y2="227.334" gradientUnits="userSpaceOnUse">
<stop stop-color="#FA2E2E"/>
<stop offset="0.4" stop-color="#FA4C4C"/>
<stop offset="1" stop-color="#FA2929"/>
</linearGradient>
<linearGradient id="paint12_linear_455_1068" x1="66" y1="190" x2="106" y2="190" gradientUnits="userSpaceOnUse">
<stop stop-color="#FB2D2D"/>
<stop offset="0.555" stop-color="#FA3838"/>
<stop offset="1" stop-color="#F83030"/>
</linearGradient>
<linearGradient id="paint13_linear_455_1068" x1="72.666" y1="222" x2="99.3327" y2="222" gradientUnits="userSpaceOnUse">
<stop stop-color="#FD5D5D"/>
<stop offset="0.375" stop-color="#FF7F7F"/>
<stop offset="1" stop-color="#FA3838"/>
</linearGradient>
<linearGradient id="paint14_linear_455_1068" x1="83.666" y1="198.334" x2="87.9993" y2="216" gradientUnits="userSpaceOnUse">
<stop stop-color="#FEFDFD"/>
<stop offset="1" stop-color="#FFE6E6"/>
</linearGradient>
<linearGradient id="paint15_linear_455_1068" x1="79.6667" y1="206" x2="58.3333" y2="206.334" gradientUnits="userSpaceOnUse">
<stop stop-color="#FFE6E6"/>
<stop offset="1" stop-color="#BD8D8D"/>
</linearGradient>
<linearGradient id="paint16_linear_455_1068" x1="94" y1="205.334" x2="114" y2="205.334" gradientUnits="userSpaceOnUse">
<stop stop-color="#FFE6E6"/>
<stop offset="1" stop-color="#9F8080"/>
</linearGradient>
<linearGradient id="paint17_linear_455_1068" x1="138.667" y1="207" x2="138.667" y2="329" gradientUnits="userSpaceOnUse">
<stop stop-color="#FF7F7F"/>
<stop offset="1" stop-color="#FF4646"/>
</linearGradient>
<linearGradient id="paint18_linear_455_1068" x1="139.001" y1="155.667" x2="139.001" y2="166.333" gradientUnits="userSpaceOnUse">
<stop stop-color="#FA2929"/>
<stop offset="1" stop-color="#FF6666"/>
</linearGradient>
<linearGradient id="paint19_linear_455_1068" x1="120.334" y1="204.334" x2="157.667" y2="204.334" gradientUnits="userSpaceOnUse">
<stop stop-color="#FA2E2E"/>
<stop offset="0.4" stop-color="#FA4C4C"/>
<stop offset="1" stop-color="#FA2929"/>
</linearGradient>
<linearGradient id="paint20_linear_455_1068" x1="119" y1="167" x2="159" y2="167" gradientUnits="userSpaceOnUse">
<stop stop-color="#FB2D2D"/>
<stop offset="0.555" stop-color="#FA3838"/>
<stop offset="1" stop-color="#F83030"/>
</linearGradient>
<linearGradient id="paint21_linear_455_1068" x1="125.666" y1="199" x2="152.333" y2="199" gradientUnits="userSpaceOnUse">
<stop stop-color="#FD5D5D"/>
<stop offset="0.375" stop-color="#FF7F7F"/>
<stop offset="1" stop-color="#FA3838"/>
</linearGradient>
<linearGradient id="paint22_linear_455_1068" x1="136.666" y1="175.334" x2="140.999" y2="193" gradientUnits="userSpaceOnUse">
<stop stop-color="#FEFDFD"/>
<stop offset="1" stop-color="#FFE6E6"/>
</linearGradient>
<linearGradient id="paint23_linear_455_1068" x1="132.667" y1="183" x2="111.333" y2="183.334" gradientUnits="userSpaceOnUse">
<stop stop-color="#FFE6E6"/>
<stop offset="1" stop-color="#BD8D8D"/>
</linearGradient>
<linearGradient id="paint24_linear_455_1068" x1="147" y1="182.334" x2="167" y2="182.334" gradientUnits="userSpaceOnUse">
<stop stop-color="#FFE6E6"/>
<stop offset="1" stop-color="#9F8080"/>
</linearGradient>
<linearGradient id="paint25_linear_455_1068" x1="191.667" y1="198" x2="191.667" y2="328.667" gradientUnits="userSpaceOnUse">
<stop stop-color="#FF7F7F"/>
<stop offset="1" stop-color="#FF4646"/>
</linearGradient>
<linearGradient id="paint26_linear_455_1068" x1="192.001" y1="146.667" x2="192.001" y2="157.333" gradientUnits="userSpaceOnUse">
<stop stop-color="#FA2929"/>
<stop offset="1" stop-color="#FF6666"/>
</linearGradient>
<linearGradient id="paint27_linear_455_1068" x1="173.334" y1="195.334" x2="210.667" y2="195.334" gradientUnits="userSpaceOnUse">
<stop stop-color="#FA2E2E"/>
<stop offset="0.4" stop-color="#FA4C4C"/>
<stop offset="1" stop-color="#FA2929"/>
</linearGradient>
<linearGradient id="paint28_linear_455_1068" x1="172" y1="158" x2="212" y2="158" gradientUnits="userSpaceOnUse">
<stop stop-color="#FB2D2D"/>
<stop offset="0.555" stop-color="#FA3838"/>
<stop offset="1" stop-color="#F83030"/>
</linearGradient>
<linearGradient id="paint29_linear_455_1068" x1="178.666" y1="190" x2="205.333" y2="190" gradientUnits="userSpaceOnUse">
<stop stop-color="#FD5D5D"/>
<stop offset="0.375" stop-color="#FF7F7F"/>
<stop offset="1" stop-color="#FA3838"/>
</linearGradient>
<linearGradient id="paint30_linear_455_1068" x1="189.666" y1="166.334" x2="193.999" y2="184" gradientUnits="userSpaceOnUse">
<stop stop-color="#FEFDFD"/>
<stop offset="1" stop-color="#FFE6E6"/>
</linearGradient>
<linearGradient id="paint31_linear_455_1068" x1="185.667" y1="174" x2="164.333" y2="174.334" gradientUnits="userSpaceOnUse">
<stop stop-color="#FFE6E6"/>
<stop offset="1" stop-color="#BD8D8D"/>
</linearGradient>
<linearGradient id="paint32_linear_455_1068" x1="200" y1="173.334" x2="220" y2="173.334" gradientUnits="userSpaceOnUse">
<stop stop-color="#FFE6E6"/>
<stop offset="1" stop-color="#9F8080"/>
</linearGradient>
<linearGradient id="paint33_linear_455_1068" x1="244.667" y1="158" x2="244.667" y2="329" gradientUnits="userSpaceOnUse">
<stop stop-color="#FF7F7F"/>
<stop offset="1" stop-color="#FF4646"/>
</linearGradient>
<linearGradient id="paint34_linear_455_1068" x1="245.001" y1="106.667" x2="245.001" y2="117.333" gradientUnits="userSpaceOnUse">
<stop stop-color="#FA2929"/>
<stop offset="1" stop-color="#FF6666"/>
</linearGradient>
<linearGradient id="paint35_linear_455_1068" x1="226.334" y1="155.334" x2="263.667" y2="155.334" gradientUnits="userSpaceOnUse">
<stop stop-color="#FA2E2E"/>
<stop offset="0.4" stop-color="#FA4C4C"/>
<stop offset="1" stop-color="#FA2929"/>
</linearGradient>
<linearGradient id="paint36_linear_455_1068" x1="225" y1="118" x2="265" y2="118" gradientUnits="userSpaceOnUse">
<stop stop-color="#FB2D2D"/>
<stop offset="0.555" stop-color="#FA3838"/>
<stop offset="1" stop-color="#F83030"/>
</linearGradient>
<linearGradient id="paint37_linear_455_1068" x1="231.666" y1="150" x2="258.333" y2="150" gradientUnits="userSpaceOnUse">
<stop stop-color="#FD5D5D"/>
<stop offset="0.375" stop-color="#FF7F7F"/>
<stop offset="1" stop-color="#FA3838"/>
</linearGradient>
<linearGradient id="paint38_linear_455_1068" x1="242.666" y1="126.334" x2="246.999" y2="144" gradientUnits="userSpaceOnUse">
<stop stop-color="#FEFDFD"/>
<stop offset="1" stop-color="#FFE6E6"/>
</linearGradient>
<linearGradient id="paint39_linear_455_1068" x1="238.667" y1="134" x2="217.333" y2="134.334" gradientUnits="userSpaceOnUse">
<stop stop-color="#FFE6E6"/>
<stop offset="1" stop-color="#BD8D8D"/>
</linearGradient>
<linearGradient id="paint40_linear_455_1068" x1="253" y1="133.334" x2="273" y2="133.334" gradientUnits="userSpaceOnUse">
<stop stop-color="#FFE6E6"/>
<stop offset="1" stop-color="#9F8080"/>
</linearGradient>
<linearGradient id="paint41_linear_455_1068" x1="310.5" y1="133" x2="310.5" y2="329" gradientUnits="userSpaceOnUse">
<stop stop-color="#FF7F7F"/>
<stop offset="1" stop-color="#FF4646"/>
</linearGradient>
<linearGradient id="paint42_linear_455_1068" x1="311" y1="62" x2="311" y2="78" gradientUnits="userSpaceOnUse">
<stop stop-color="#FA2929"/>
<stop offset="1" stop-color="#FF6666"/>
</linearGradient>
<linearGradient id="paint43_linear_455_1068" x1="283" y1="135" x2="339" y2="135" gradientUnits="userSpaceOnUse">
<stop stop-color="#FA2E2E"/>
<stop offset="0.4" stop-color="#FA4C4C"/>
<stop offset="1" stop-color="#FA2929"/>
</linearGradient>
<linearGradient id="paint44_linear_455_1068" x1="281" y1="79" x2="341" y2="79" gradientUnits="userSpaceOnUse">
<stop stop-color="#FB2D2D"/>
<stop offset="0.555" stop-color="#FA3838"/>
<stop offset="1" stop-color="#F83030"/>
</linearGradient>
<linearGradient id="paint45_linear_455_1068" x1="291" y1="127" x2="331" y2="127" gradientUnits="userSpaceOnUse">
<stop stop-color="#FD5D5D"/>
<stop offset="0.375" stop-color="#FF7F7F"/>
<stop offset="1" stop-color="#FA3838"/>
</linearGradient>
<linearGradient id="paint46_linear_455_1068" x1="307.5" y1="91.5" x2="314" y2="118" gradientUnits="userSpaceOnUse">
<stop stop-color="#FEFDFD"/>
<stop offset="1" stop-color="#FFE6E6"/>
</linearGradient>
<linearGradient id="paint47_linear_455_1068" x1="301.5" y1="103" x2="269.5" y2="103.5" gradientUnits="userSpaceOnUse">
<stop stop-color="#FFE6E6"/>
<stop offset="1" stop-color="#BD8D8D"/>
</linearGradient>
<linearGradient id="paint48_linear_455_1068" x1="323" y1="102" x2="353" y2="102" gradientUnits="userSpaceOnUse">
<stop stop-color="#FFE6E6"/>
<stop offset="1" stop-color="#9F8080"/>
</linearGradient>
<clipPath id="clip0_455_1068">
<rect width="358" height="384" rx="12" fill="white"/>
</clipPath>
</defs>
</svg>
