<svg width="212" height="61" viewBox="0 0 212 61" fill="none" xmlns="http://www.w3.org/2000/svg">
<g opacity="0.3" filter="url(#filter0_f_420_1078)">
<path d="M12.3 17.2V39.35H8V9H11.8L27.85 32.25C27.35 30.15 27.2 28.4 27.2 27.25V9H31.5V35.65H34.55V39.35H30.6C28.6 39.35 27.25 38.6 26.1 36.95L12.3 17.2Z" fill="#FF7F7F"/>
<path d="M44.1492 35.6501V39.3501H34.4492V35.6501H37.1992V18.1001H41.3992V35.6501H44.1492ZM41.5492 10.8501V10.9001C41.5492 12.1401 40.5392 13.1501 39.2992 13.1501C38.0592 13.1501 37.0492 12.1401 37.0492 10.9001V10.8501C37.0492 9.6101 38.0592 8.6001 39.2992 8.6001C40.5392 8.6001 41.5492 9.6101 41.5492 10.8501Z" fill="#FF7F7F"/>
<path d="M46.0508 42.9501V42.4001C46.0508 40.5001 45.1008 39.3501 43.5508 39.3501V35.6501C47.8008 35.6001 50.3008 38.1001 50.3008 42.7501V42.9501C50.3008 46.3501 53.0508 48.8501 56.8008 48.8501C60.5508 48.8501 63.3008 46.3001 63.3008 42.9501V35.5001C61.9508 36.8501 59.2008 37.8501 56.6508 37.8501C50.5008 37.8501 46.1508 33.6001 46.1508 27.6501C46.1508 21.7001 50.4008 17.6001 56.6508 17.6001C57.8508 17.6001 59.2008 17.8501 60.1008 18.3001V22.1501C59.1008 21.6001 58.0008 21.3501 56.8508 21.3501C53.0508 21.3501 50.3508 24.0001 50.3508 27.7001C50.3508 31.4001 53.0008 34.1501 56.7508 34.1501C60.5008 34.1501 63.3008 31.4501 63.3008 27.7501V18.1001H67.5008V36.5001C68.1008 36.0001 69.2508 35.6501 70.3508 35.6501V39.3501C68.5008 39.3501 67.5008 40.5001 67.5008 42.2001V42.9501C67.5008 48.5001 63.0008 52.6001 56.8008 52.6001C50.6008 52.6001 46.0508 48.5501 46.0508 42.9501Z" fill="#FF7F7F"/>
<path d="M70.25 39.35V35.65L70.65 35.6C72.3 35.4 73 34.45 73 32.5V8H77.2V20.15C78.8 18.45 81 17.55 83.7 17.55C89.15 17.55 92.75 21.15 92.75 26.8V32.5C92.75 34.45 93.45 35.4 95.1 35.6L95.5 35.65V39.35H94.95C90.55 39.35 88.55 36.65 88.55 32.5V27.1C88.55 23.45 86.15 21.35 82.85 21.35C79.55 21.35 77.2 23.75 77.2 27.1V32.5C77.2 36.65 75.2 39.35 70.8 39.35H70.25Z" fill="#FF7F7F"/>
<path d="M111.799 35.6502V39.3502H94.6992V35.6502H101.149C100.299 34.5502 100.099 33.1502 100.099 31.5502V21.8002H95.6992V18.1002H100.099V10.7002H104.299V18.1002H110.599V21.8002H104.299V31.1502C104.299 34.1502 105.399 35.6502 107.499 35.6502H111.799Z" fill="#FF7F7F"/>
<path d="M153.299 35.65V39.35H128.199V35.65H132.449C131.799 34.95 131.449 34 131.449 32.1V9H135.749V32.3C135.749 34.65 136.549 35.65 138.499 35.65H153.299Z" fill="#FF7F7F"/>
<path d="M149.699 39.3502V35.6502H154.899C153.149 33.8002 152.249 31.4002 152.249 28.6502C152.249 22.4002 156.799 17.9502 163.099 17.9502C164.449 17.9502 165.699 18.1502 166.849 18.6002V22.4002C165.649 21.9502 164.299 21.7502 163.199 21.7502C159.149 21.7502 156.449 24.5502 156.449 28.6502C156.449 32.7502 159.199 35.6502 163.199 35.6502C167.199 35.6502 169.849 32.9002 169.849 28.7502V18.1002H174.049V31.5002C174.049 34.1002 174.749 35.4002 176.399 35.6002L176.799 35.6502V39.3502H175.999C173.349 39.3502 171.499 38.2002 170.699 36.2002C169.399 38.0002 166.249 39.3502 163.199 39.3502H149.699Z" fill="#FF7F7F"/>
<path d="M176.699 39.35V35.65L177.099 35.6C178.749 35.4 179.449 34.45 179.449 32.5V8H183.649V28.8C183.649 32.75 186.549 35.65 190.399 35.65C194.249 35.65 197.049 32.7 197.049 28.65C197.049 24.6 194.199 21.75 190.299 21.75C188.699 21.75 187.499 21.95 186.149 22.4V18.7C187.399 18.15 188.899 17.95 190.499 17.95C196.849 17.95 201.249 22.45 201.249 28.6C201.249 31.45 200.349 33.85 198.649 35.65H203.799V39.35H190.399C187.299 39.35 184.149 38.1 182.799 36.2C181.599 38.6 179.549 39.35 177.499 39.35H176.699Z" fill="#FF7F7F"/>
</g>
<path d="M12.3 17.2V39.35H8V9H11.8L27.85 32.25C27.35 30.15 27.2 28.4 27.2 27.25V9H31.5V35.65H34.55V39.35H30.6C28.6 39.35 27.25 38.6 26.1 36.95L12.3 17.2Z" fill="#FF7F7F"/>
<path d="M44.1492 35.6496V39.3496H34.4492V35.6496H37.1992V18.0996H41.3992V35.6496H44.1492ZM41.5492 10.8496V10.8996C41.5492 12.1396 40.5392 13.1496 39.2992 13.1496C38.0592 13.1496 37.0492 12.1396 37.0492 10.8996V10.8496C37.0492 9.60961 38.0592 8.59961 39.2992 8.59961C40.5392 8.59961 41.5492 9.60961 41.5492 10.8496Z" fill="url(#paint0_linear_420_1078)"/>
<g filter="url(#filter1_f_420_1078)">
<path d="M41.5508 10.8496C41.5508 9.60697 40.5434 8.59961 39.3008 8.59961C38.0581 8.59961 37.0508 9.60697 37.0508 10.8496V10.8996C37.0508 12.1423 38.0581 13.1496 39.3008 13.1496C40.5434 13.1496 41.5508 12.1423 41.5508 10.8996V10.8496Z" fill="#FFEED1"/>
</g>
<g filter="url(#filter2_f_420_1078)">
<path d="M41.5508 10.8496C41.5508 9.60697 40.5434 8.59961 39.3008 8.59961C38.0581 8.59961 37.0508 9.60697 37.0508 10.8496V10.8996C37.0508 12.1423 38.0581 13.1496 39.3008 13.1496C40.5434 13.1496 41.5508 12.1423 41.5508 10.8996V10.8496Z" fill="#FFEED1"/>
</g>
<path d="M46.0508 42.9496V42.3996C46.0508 40.4996 45.1008 39.3496 43.5508 39.3496V35.6496C47.8008 35.5996 50.3008 38.0996 50.3008 42.7496V42.9496C50.3008 46.3496 53.0508 48.8496 56.8008 48.8496C60.5508 48.8496 63.3008 46.2996 63.3008 42.9496V35.4996C61.9508 36.8496 59.2008 37.8496 56.6508 37.8496C50.5008 37.8496 46.1508 33.5996 46.1508 27.6496C46.1508 21.6996 50.4008 17.5996 56.6508 17.5996C57.8508 17.5996 59.2008 17.8496 60.1008 18.2996V22.1496C59.1008 21.5996 58.0008 21.3496 56.8508 21.3496C53.0508 21.3496 50.3508 23.9996 50.3508 27.6996C50.3508 31.3996 53.0008 34.1496 56.7508 34.1496C60.5008 34.1496 63.3008 31.4496 63.3008 27.7496V18.0996H67.5008V36.4996C68.1008 35.9996 69.2508 35.6496 70.3508 35.6496V39.3496C68.5008 39.3496 67.5008 40.4996 67.5008 42.1996V42.9496C67.5008 48.4996 63.0008 52.5996 56.8008 52.5996C50.6008 52.5996 46.0508 48.5496 46.0508 42.9496Z" fill="#FF7F7F"/>
<path d="M70.25 39.35V35.65L70.65 35.6C72.3 35.4 73 34.45 73 32.5V8H77.2V20.15C78.8 18.45 81 17.55 83.7 17.55C89.15 17.55 92.75 21.15 92.75 26.8V32.5C92.75 34.45 93.45 35.4 95.1 35.6L95.5 35.65V39.35H94.95C90.55 39.35 88.55 36.65 88.55 32.5V27.1C88.55 23.45 86.15 21.35 82.85 21.35C79.55 21.35 77.2 23.75 77.2 27.1V32.5C77.2 36.65 75.2 39.35 70.8 39.35H70.25Z" fill="#FF7F7F"/>
<path d="M111.799 35.6502V39.3502H94.6992V35.6502H101.149C100.299 34.5502 100.099 33.1502 100.099 31.5502V21.8002H95.6992V18.1002H100.099V10.7002H104.299V18.1002H110.599V21.8002H104.299V31.1502C104.299 34.1502 105.399 35.6502 107.499 35.6502H111.799Z" fill="#FF7F7F"/>
<path d="M153.299 35.65V39.35H128.199V35.65H132.449C131.799 34.95 131.449 34 131.449 32.1V9H135.749V32.3C135.749 34.65 136.549 35.65 138.499 35.65H153.299Z" fill="#FF7F7F"/>
<path d="M149.699 39.3502V35.6502H154.899C153.149 33.8002 152.249 31.4002 152.249 28.6502C152.249 22.4002 156.799 17.9502 163.099 17.9502C164.449 17.9502 165.699 18.1502 166.849 18.6002V22.4002C165.649 21.9502 164.299 21.7502 163.199 21.7502C159.149 21.7502 156.449 24.5502 156.449 28.6502C156.449 32.7502 159.199 35.6502 163.199 35.6502C167.199 35.6502 169.849 32.9002 169.849 28.7502V18.1002H174.049V31.5002C174.049 34.1002 174.749 35.4002 176.399 35.6002L176.799 35.6502V39.3502H175.999C173.349 39.3502 171.499 38.2002 170.699 36.2002C169.399 38.0002 166.249 39.3502 163.199 39.3502H149.699Z" fill="#FF7F7F"/>
<path d="M176.699 39.35V35.65L177.099 35.6C178.749 35.4 179.449 34.45 179.449 32.5V8H183.649V28.8C183.649 32.75 186.549 35.65 190.399 35.65C194.249 35.65 197.049 32.7 197.049 28.65C197.049 24.6 194.199 21.75 190.299 21.75C188.699 21.75 187.499 21.95 186.149 22.4V18.7C187.399 18.15 188.899 17.95 190.499 17.95C196.849 17.95 201.249 22.45 201.249 28.6C201.249 31.45 200.349 33.85 198.649 35.65H203.799V39.35H190.399C187.299 39.35 184.149 38.1 182.799 36.2C181.599 38.6 179.549 39.35 177.499 39.35H176.699Z" fill="#FF7F7F"/>
<path d="M41.5508 10.8496C41.5508 9.60697 40.5434 8.59961 39.3008 8.59961C38.0581 8.59961 37.0508 9.60697 37.0508 10.8496V10.8996C37.0508 12.1423 38.0581 13.1496 39.3008 13.1496C40.5434 13.1496 41.5508 12.1423 41.5508 10.8996V10.8496Z" fill="#FFEED1"/>
<defs>
<filter id="filter0_f_420_1078" x="0" y="0" width="211.799" height="60.6001" filterUnits="userSpaceOnUse" color-interpolation-filters="sRGB">
<feFlood flood-opacity="0" result="BackgroundImageFix"/>
<feBlend mode="normal" in="SourceGraphic" in2="BackgroundImageFix" result="shape"/>
<feGaussianBlur stdDeviation="4" result="effect1_foregroundBlur_420_1078"/>
</filter>
<filter id="filter1_f_420_1078" x="29.0508" y="0.599609" width="20.5" height="20.5498" filterUnits="userSpaceOnUse" color-interpolation-filters="sRGB">
<feFlood flood-opacity="0" result="BackgroundImageFix"/>
<feBlend mode="normal" in="SourceGraphic" in2="BackgroundImageFix" result="shape"/>
<feGaussianBlur stdDeviation="4" result="effect1_foregroundBlur_420_1078"/>
</filter>
<filter id="filter2_f_420_1078" x="29.0508" y="0.599609" width="20.5" height="20.5498" filterUnits="userSpaceOnUse" color-interpolation-filters="sRGB">
<feFlood flood-opacity="0" result="BackgroundImageFix"/>
<feBlend mode="normal" in="SourceGraphic" in2="BackgroundImageFix" result="shape"/>
<feGaussianBlur stdDeviation="4" result="effect1_foregroundBlur_420_1078"/>
</filter>
<linearGradient id="paint0_linear_420_1078" x1="39.2992" y1="8.59961" x2="39.2992" y2="39.3496" gradientUnits="userSpaceOnUse">
<stop offset="0.3" stop-color="#FFEED1"/>
<stop offset="0.39" stop-color="#FFC7B4"/>
<stop offset="0.5" stop-color="#FFA097"/>
<stop offset="0.59" stop-color="#FF8785"/>
<stop offset="0.64" stop-color="#FF7F7F"/>
</linearGradient>
</defs>
</svg>
