<svg width="122" height="24" viewBox="0 0 122 24" fill="none" xmlns="http://www.w3.org/2000/svg">
<path d="M0 0.406738H18.3514V19.5478H10.7668V7.87175C10.7668 7.0104 10.0012 6.38832 9.18767 6.38832C8.20669 6.38832 7.58461 7.0104 7.58461 7.87175V19.5478H0V0.406738Z" fill="#FF7F7F"/>
<path d="M18.9492 3.82821C18.9492 1.72269 20.6719 0 22.7535 0C24.8351 0 26.5338 1.72269 26.5338 3.82821C26.5338 5.93373 24.8351 7.60857 22.7535 7.60857C20.6719 7.60857 18.9492 5.9098 18.9492 3.82821ZM19.3081 8.1828H26.1749V19.5478H19.3081V8.1828Z" fill="#FFB3B3"/>
<path d="M27.8745 18.495H30.9132C28.5205 17.2269 26.8936 14.8343 26.8936 12.1306C26.8936 8.8288 28.9991 6.0055 31.9898 4.85703V0.406738H37.8278V4.85703C40.8186 5.98157 42.948 8.80488 42.948 12.1306C42.948 14.8343 41.3211 17.2269 38.9284 18.495H42.0149V23.8545H27.8745V18.495ZM36.7512 12.1546C36.7512 11.1497 35.9137 10.3122 34.9088 10.3122C33.9039 10.3122 33.0665 11.1497 33.0665 12.1546C33.0665 13.1595 33.9039 13.9969 34.9088 13.9969C35.9137 13.9969 36.7512 13.1595 36.7512 12.1546Z" fill="#FE6767"/>
<path d="M43.665 0.406738H50.2926V4.71348H59.6717V19.5478H53.0441V11.4846C53.0441 10.6951 52.4699 10.0969 51.6803 10.0969C50.8908 10.0969 50.2926 10.6951 50.2926 11.4846V19.5478H43.665V0.406738Z" fill="#FF7F7F"/>
<path d="M60.6289 0.406738H67.4957V4.71348H70.8933V10.5515H67.4957V19.5478H60.6289V0.406738Z" fill="#FD4C4C"/>
<path d="M75.4873 0.406738H83.3112V13.0877H88.5749V19.5478H75.4873V0.406738Z" fill="#FFB3B3"/>
<path d="M104.988 10.5753V19.5477H89.2686V8.18269H94.5323V4.71338H99.1262C102.117 4.71338 104.988 7.58454 104.988 10.5753ZM95.3697 13.4226C95.3697 14.3796 96.1593 15.1453 97.1164 15.1453C98.0734 15.1453 98.839 14.3796 98.839 13.4226C98.839 12.4655 98.0734 11.6759 97.1164 11.6759C96.1593 11.6759 95.3697 12.4416 95.3697 13.4226Z" fill="#FD4C4C"/>
<path d="M105.945 19.5478V0.406738H112.573V4.71348H114.08C118.483 4.71348 122 7.96745 122 12.1546C122 16.3417 118.483 19.5478 114.08 19.5478H105.945ZM115.396 12.1306C115.396 11.1257 114.583 10.3122 113.578 10.3122C112.573 10.3122 111.735 11.1257 111.735 12.1306C111.735 13.1355 112.573 13.973 113.578 13.973C114.583 13.973 115.396 13.1595 115.396 12.1306Z" fill="#FF7F7F"/>
</svg>
