<svg width="164" height="164" viewBox="0 0 164 164" fill="none" xmlns="http://www.w3.org/2000/svg">
<g clip-path="url(#clip0_531_10745)">
<rect width="164" height="164" rx="8" fill="#FFEED1"/>
<path opacity="0.3" d="M106.574 42.968C120.539 44.7231 129.666 58.4972 125.839 72.0418L108.309 134.09C107.336 137.532 107.18 141.154 107.853 144.667L119.975 207.995C122.621 221.818 112.341 234.755 98.2772 235.301L33.8488 237.803C30.2744 237.942 26.7816 238.912 23.648 240.638L-32.8338 271.736C-45.1633 278.524 -60.6436 272.745 -65.5091 259.538L-87.7976 199.036C-89.0341 195.68 -91.0366 192.658 -93.6458 190.211L-140.676 146.103C-150.942 136.475 -150.23 119.966 -139.172 111.258L-88.5191 71.364C-85.7088 69.1507 -83.4536 66.3125 -81.9326 63.0748L-54.5168 4.71684C-48.5321 -8.02222 -32.6117 -12.4463 -20.9126 -4.62134L32.6815 31.225C35.6548 33.2137 39.0511 34.4815 42.6003 34.9276L106.574 42.968Z" fill="#FFD080"/>
<path opacity="0.4" d="M56.574 62.968C70.5389 64.7231 79.6661 78.4972 75.8394 92.0418L58.309 154.09C57.3364 157.532 57.1801 161.154 57.8527 164.667L69.9747 227.995C72.6209 241.818 62.3414 254.755 48.2772 255.301L-16.1512 257.803C-19.7256 257.942 -23.2184 258.912 -26.352 260.638L-82.8338 291.736C-95.1633 298.524 -110.644 292.745 -115.509 279.538L-137.798 219.036C-139.034 215.68 -141.037 212.658 -143.646 210.211L-190.676 166.103C-200.942 156.475 -200.23 139.966 -189.172 131.258L-138.519 91.364C-135.709 89.1507 -133.454 86.3125 -131.933 83.0748L-104.517 24.7168C-98.5321 11.9778 -82.6117 7.5537 -70.9126 15.3787L-17.3185 51.225C-14.3452 53.2137 -10.9489 54.4815 -7.39972 54.9276L56.574 62.968Z" fill="#FFD080"/>
<path opacity="0.5" d="M26.574 82.968C40.5389 84.7231 49.6661 98.4972 45.8394 112.042L28.309 174.09C27.3364 177.532 27.1801 181.154 27.8527 184.667L39.9747 247.995C42.6209 261.818 32.3414 274.755 18.2772 275.301L-46.1512 277.803C-49.7256 277.942 -53.2184 278.912 -56.352 280.638L-112.834 311.736C-125.163 318.524 -140.644 312.745 -145.509 299.538L-167.798 239.036C-169.034 235.68 -171.037 232.658 -173.646 230.211L-220.676 186.103C-230.942 176.475 -230.23 159.966 -219.172 151.258L-168.519 111.364C-165.709 109.151 -163.454 106.312 -161.933 103.075L-134.517 44.7168C-128.532 31.9778 -112.612 27.5537 -100.913 35.3787L-47.3185 71.225C-44.3452 73.2137 -40.9489 74.4815 -37.3997 74.9276L26.574 82.968Z" fill="#FFD080"/>
<path opacity="0.3" d="M301.869 -130.29C314.56 -136.377 329.692 -129.74 333.81 -116.281L352.674 -54.6257C353.721 -51.2051 355.551 -48.0758 358.019 -45.4864L402.504 1.18664C412.214 11.375 410.578 27.8175 399.051 35.8929L346.242 72.8864C343.312 74.9387 340.902 77.6462 339.202 80.7936L308.559 137.524C301.871 149.908 285.727 153.433 274.485 144.965L222.983 106.172C220.126 104.02 216.806 102.564 213.287 101.92L149.865 90.3083C136.02 87.7736 127.679 73.5098 132.258 60.2008L153.237 -0.767688C154.401 -4.15018 154.76 -7.75752 154.285 -11.303L145.73 -75.2099C143.862 -89.1602 154.85 -101.501 168.923 -101.258L233.391 -100.146C236.967 -100.085 240.509 -100.858 243.734 -102.405L301.869 -130.29Z" fill="#FFD080"/>
<path d="M89.5462 142.396V193H82.8334C76.2756 193 70.957 198.318 70.957 204.876H89.5462H102.972V142.396H89.5462Z" fill="url(#paint0_linear_531_10745)"/>
<path d="M136.019 193H129.306V142.396H115.881V204.876H147.895C147.895 198.318 142.577 193 136.019 193Z" fill="url(#paint1_linear_531_10745)"/>
<path d="M100.239 41.1322C104.979 35.6226 113.509 35.6226 118.25 41.1322L134.562 60.0983C135.765 61.4976 137.278 62.5975 138.987 63.3101L162.068 72.9609C168.776 75.7648 171.409 83.882 167.635 90.0887L154.638 111.461C153.677 113.041 153.099 114.817 152.949 116.661L150.905 141.596C150.311 148.841 143.407 153.855 136.333 152.182L111.986 146.424C110.189 146.001 108.315 146.001 106.518 146.424L82.1713 152.182C75.0971 153.855 68.1985 148.841 67.5995 141.596L65.5547 116.661C65.405 114.817 64.8266 113.041 63.8662 111.461L50.8693 90.0887C47.0947 83.8769 49.7281 75.7648 56.4357 72.9609L79.5172 63.3101C81.2212 62.5975 82.7341 61.4976 83.9424 60.0983L100.254 41.1322H100.239Z" fill="url(#paint2_radial_531_10745)"/>
<path d="M95.9996 93.414C98.8514 93.414 101.163 93.34 101.163 93.2487C101.163 93.1575 98.8514 93.0835 95.9996 93.0835C93.1478 93.0835 90.8359 93.1575 90.8359 93.2487C90.8359 93.34 93.1478 93.414 95.9996 93.414Z" stroke="#181A1B" stroke-width="2.58182" stroke-miterlimit="10"/>
<path d="M122.334 93.414C125.185 93.414 127.497 93.34 127.497 93.2487C127.497 93.1575 125.185 93.0835 122.334 93.0835C119.482 93.0835 117.17 93.1575 117.17 93.2487C117.17 93.34 119.482 93.414 122.334 93.414Z" stroke="#181A1B" stroke-width="2.58182" stroke-miterlimit="10"/>
<path d="M102.973 101.087C103.133 101.314 105.338 104.319 109.169 104.185C112.685 104.061 114.632 101.397 114.849 101.087" stroke="#181A1B" stroke-width="1.54909" stroke-miterlimit="10"/>
<g filter="url(#filter0_b_531_10745)">
<path d="M31.174 24.646V26.536H16.54V24.646H31.174ZM25.036 22.378V25.492H22.624V22.378H25.036ZM29.536 30.352V32.26H18.304V30.352H29.536ZM20.68 27.562V31H18.304V27.562H20.68ZM23.848 16.744C25.024 16.744 26.056 16.882 26.944 17.158C27.832 17.422 28.522 17.806 29.014 18.31C29.506 18.814 29.752 19.402 29.752 20.074C29.752 20.758 29.506 21.358 29.014 21.874C28.522 22.378 27.832 22.768 26.944 23.044C26.068 23.308 25.042 23.44 23.866 23.44C22.69 23.44 21.658 23.308 20.77 23.044C19.882 22.768 19.192 22.378 18.7 21.874C18.22 21.358 17.98 20.758 17.98 20.074C17.98 19.402 18.22 18.814 18.7 18.31C19.192 17.806 19.882 17.422 20.77 17.158C21.658 16.882 22.684 16.744 23.848 16.744ZM23.848 18.652C23.128 18.652 22.51 18.706 21.994 18.814C21.49 18.91 21.106 19.066 20.842 19.282C20.578 19.498 20.446 19.768 20.446 20.092C20.446 20.404 20.578 20.668 20.842 20.884C21.118 21.1 21.508 21.262 22.012 21.37C22.516 21.478 23.134 21.532 23.866 21.532C24.586 21.532 25.198 21.478 25.702 21.37C26.206 21.262 26.59 21.1 26.854 20.884C27.13 20.668 27.268 20.404 27.268 20.092C27.268 19.768 27.136 19.498 26.872 19.282C26.608 19.066 26.218 18.91 25.702 18.814C25.198 18.706 24.58 18.652 23.848 18.652ZM38.3744 25.924V28.534H35.9804V25.924H38.3744ZM45.1784 16.348V32.548H42.7844V16.348H45.1784ZM47.1764 22.882V24.862H44.3504V22.882H47.1764ZM32.0924 27.94C34.0844 27.94 35.8664 27.916 37.4384 27.868C39.0224 27.808 40.5344 27.682 41.9744 27.49L42.1544 29.2C40.6544 29.488 39.1424 29.674 37.6184 29.758C36.0944 29.83 34.3544 29.866 32.3984 29.866L32.0924 27.94ZM41.9204 18.094V19.966H32.3984V18.094H41.9204ZM37.1684 20.596C37.9364 20.596 38.6204 20.722 39.2204 20.974C39.8324 21.226 40.3064 21.586 40.6424 22.054C40.9784 22.51 41.1464 23.038 41.1464 23.638C41.1464 24.226 40.9784 24.754 40.6424 25.222C40.3064 25.69 39.8324 26.05 39.2204 26.302C38.6204 26.554 37.9364 26.68 37.1684 26.68C36.4004 26.68 35.7104 26.554 35.0984 26.302C34.4984 26.05 34.0304 25.69 33.6944 25.222C33.3704 24.754 33.2084 24.226 33.2084 23.638C33.2084 23.038 33.3764 22.51 33.7124 22.054C34.0484 21.586 34.5164 21.226 35.1164 20.974C35.7164 20.722 36.4004 20.596 37.1684 20.596ZM37.1684 22.396C36.6524 22.396 36.2384 22.504 35.9264 22.72C35.6264 22.924 35.4764 23.23 35.4764 23.638C35.4764 24.034 35.6264 24.346 35.9264 24.574C36.2384 24.79 36.6524 24.898 37.1684 24.898C37.6964 24.898 38.1104 24.79 38.4104 24.574C38.7224 24.346 38.8784 24.034 38.8784 23.638C38.8784 23.23 38.7224 22.924 38.4104 22.72C38.1104 22.504 37.6964 22.396 37.1684 22.396ZM38.3744 16.42V19.516H35.9804V16.42H38.3744ZM60.7668 16.348V28.444H58.3548V16.348H60.7668ZM62.8908 21.244V23.224H60.1008V21.244H62.8908ZM57.5268 18.004V19.876H48.0048V18.004H57.5268ZM52.7748 20.434C53.5428 20.434 54.2268 20.566 54.8268 20.83C55.4388 21.094 55.9128 21.466 56.2488 21.946C56.5968 22.414 56.7708 22.954 56.7708 23.566C56.7708 24.178 56.5968 24.724 56.2488 25.204C55.9128 25.684 55.4388 26.056 54.8268 26.32C54.2268 26.572 53.5428 26.698 52.7748 26.698C52.0068 26.698 51.3168 26.572 50.7048 26.32C50.1048 26.056 49.6308 25.684 49.2828 25.204C48.9468 24.724 48.7788 24.178 48.7788 23.566C48.7788 22.954 48.9468 22.414 49.2828 21.946C49.6308 21.466 50.1048 21.094 50.7048 20.83C51.3168 20.566 52.0068 20.434 52.7748 20.434ZM52.7748 22.252C52.2588 22.252 51.8448 22.366 51.5328 22.594C51.2328 22.822 51.0828 23.146 51.0828 23.566C51.0828 23.986 51.2328 24.31 51.5328 24.538C51.8448 24.766 52.2588 24.88 52.7748 24.88C53.2788 24.88 53.6808 24.766 53.9808 24.538C54.2928 24.31 54.4488 23.986 54.4488 23.566C54.4488 23.146 54.2928 22.822 53.9808 22.594C53.6808 22.366 53.2788 22.252 52.7748 22.252ZM53.9628 16.312V18.904H51.5688V16.312H53.9628ZM61.3428 30.352V32.26H50.2908V30.352H61.3428ZM52.6848 27.526V31.18H50.2908V27.526H52.6848ZM31.21 48.728V50.672H16.558V48.728H31.21ZM29.554 45.74V47.63H18.322V45.74H29.554ZM29.464 41.762V43.67H20.698V46.676H18.322V41.762H29.464ZM23.812 51.59C25.576 51.59 26.956 51.854 27.952 52.382C28.948 52.898 29.446 53.624 29.446 54.56C29.446 55.508 28.948 56.24 27.952 56.756C26.956 57.284 25.576 57.548 23.812 57.548C22.06 57.548 20.686 57.284 19.69 56.756C18.694 56.24 18.196 55.514 18.196 54.578C18.196 53.63 18.694 52.898 19.69 52.382C20.686 51.854 22.06 51.59 23.812 51.59ZM23.812 53.39C22.744 53.39 21.94 53.486 21.4 53.678C20.872 53.87 20.608 54.17 20.608 54.578C20.608 54.974 20.872 55.268 21.4 55.46C21.94 55.64 22.75 55.73 23.83 55.73C24.91 55.73 25.714 55.64 26.242 55.46C26.77 55.268 27.034 54.974 27.034 54.578C27.034 54.17 26.764 53.87 26.224 53.678C25.696 53.486 24.892 53.39 23.812 53.39ZM46.1864 41.33V57.53H43.9004V41.33H46.1864ZM44.4584 47.54V49.484H41.7944V47.54H44.4584ZM42.5144 41.618V56.756H40.3004V41.618H42.5144ZM33.8564 51.95C34.9604 51.95 35.9384 51.92 36.7904 51.86C37.6424 51.8 38.5124 51.692 39.4004 51.536L39.5984 53.48C38.6744 53.66 37.7744 53.78 36.8984 53.84C36.0224 53.888 35.0084 53.912 33.8564 53.912H32.7224V51.95H33.8564ZM38.6804 43.202V45.128H35.0804V52.886H32.7224V43.202H38.6804ZM53.7468 43.904V45.668C53.7468 46.952 53.5788 48.182 53.2428 49.358C52.9068 50.534 52.3968 51.572 51.7128 52.472C51.0288 53.372 50.1888 54.05 49.1928 54.506L47.8428 52.616C48.7188 52.22 49.4568 51.656 50.0568 50.924C50.6568 50.18 51.1008 49.358 51.3888 48.458C51.6888 47.546 51.8388 46.616 51.8388 45.668V43.904H53.7468ZM54.2688 43.904V45.668C54.2688 46.568 54.4128 47.45 54.7008 48.314C55.0008 49.166 55.4508 49.94 56.0508 50.636C56.6508 51.32 57.3888 51.842 58.2648 52.202L56.9508 54.092C55.9428 53.66 55.0968 53.018 54.4128 52.166C53.7288 51.314 53.2188 50.33 52.8828 49.214C52.5468 48.098 52.3788 46.916 52.3788 45.668V43.904H54.2688ZM57.5988 42.878V44.858H48.4908V42.878H57.5988ZM61.4328 41.348V57.548H59.0388V41.348H61.4328ZM77.2373 41.33V57.53H74.8253V41.33H77.2373ZM72.4313 42.986C72.4313 44.75 72.2033 46.346 71.7473 47.774C71.2913 49.19 70.5173 50.492 69.4253 51.68C68.3333 52.868 66.8573 53.912 64.9973 54.812L63.7553 52.922C65.2913 52.19 66.5153 51.368 67.4273 50.456C68.3513 49.544 69.0173 48.518 69.4253 47.378C69.8333 46.238 70.0373 44.924 70.0373 43.436V42.986H72.4313ZM71.1713 42.986V44.894H64.6193V42.986H71.1713Z" fill="#FD4C4C"/>
</g>
</g>
<rect x="0.5" y="0.5" width="163" height="163" rx="7.5" stroke="white"/>
<defs>
<filter id="filter0_b_531_10745" x="6.53906" y="6.31201" width="80.6973" height="61.2358" filterUnits="userSpaceOnUse" color-interpolation-filters="sRGB">
<feFlood flood-opacity="0" result="BackgroundImageFix"/>
<feGaussianBlur in="BackgroundImageFix" stdDeviation="5"/>
<feComposite in2="SourceAlpha" operator="in" result="effect1_backgroundBlur_531_10745"/>
<feBlend mode="normal" in="SourceGraphic" in2="effect1_backgroundBlur_531_10745" result="shape"/>
</filter>
<linearGradient id="paint0_linear_531_10745" x1="86.9643" y1="142.396" x2="86.9643" y2="204.876" gradientUnits="userSpaceOnUse">
<stop stop-color="#FF7777"/>
<stop offset="0.465" stop-color="#FFB3B3"/>
</linearGradient>
<linearGradient id="paint1_linear_531_10745" x1="131.888" y1="142.396" x2="131.888" y2="204.876" gradientUnits="userSpaceOnUse">
<stop stop-color="#FF7777"/>
<stop offset="0.465" stop-color="#FFB3B3"/>
</linearGradient>
<radialGradient id="paint2_radial_531_10745" cx="0" cy="0" r="1" gradientUnits="userSpaceOnUse" gradientTransform="translate(109.244 94.7567) scale(58.9482 58.9482)">
<stop stop-color="#FD4C4C"/>
<stop offset="0.2" stop-color="#FD4C4C"/>
<stop offset="1" stop-color="#FF7F7F"/>
</radialGradient>
<clipPath id="clip0_531_10745">
<rect width="164" height="164" rx="8" fill="white"/>
</clipPath>
</defs>
</svg>
